<svg viewBox="0 0 286 480" xmlns="http://www.w3.org/2000/svg"><g transform="translate(-469.89 -190.48)"><path d="m616.37 190.48h139.52v480h-286v-480h139.51c-1.92 1-3.74 2.26-5.77 2.79-17.63 4.63-29.48 15.54-35 32.87a128.36 128.36 0 0 0 -4.3 19.93c-4.92 32.57-1.91 63.34 20.33 89.86 4.84 5.76 2.46 11.38-5 12.74a146.66 146.66 0 0 1 -15.84 1.53 165.81 165.81 0 0 0 -74.88 23.27c-17.78 10.64-22.19 26.59-11.52 43.38 6.32 9.94 7.22 20.91 3.53 32.12-2 6-4.21 11.89-6.31 17.84-4.7 13.32-2.58 25.52 6.13 36.58a53.8 53.8 0 0 0 4.91 5.63c5.6 5.35 6.64 11.75 4.16 18.74a131.33 131.33 0 0 1 -6.1 14.18c-6.74 13.63-5 25.7 6.21 36.19.73.68 1.38 1.45 2.07 2.17a16.65 16.65 0 0 1 4.8 13.64c-.36 4-.77 7.95-.76 11.93.05 13.26 6.24 22.49 18.57 27.33 4.61 1.8 9.55 2.74 14.3 4.22 7.92 2.46 9.69 6.13 8.39 14.29-.92 5.76-.77 11.69-1.09 17.54 6.47.32 6.47.32 8-4.52q3.27-10.46 6.53-20.91l1.94.36-1.86 15.9 1.72.37a77.57 77.57 0 0 0 1.91-8.56c.48-4.25 2.7-6.29 6.84-6.27 2 0 4 .41 5.94.48 8.75.31 17.56 1.37 26.24.71 27.62-2.09 54-10.69 80.81-16.71 2.71-.61 5.82-1.71 8.17-.9s3.92 3.72 5.68 5.55c.16-2.47.34-5.31.52-8.15l1.94-.23a55.61 55.61 0 0 1 1.53 5.58c1 6 1.29 12.4 6.45 16.74 1.32 1.12 3.33 1.41 5 2.08.62-1.72 1.92-3.51 1.74-5.14a145.24 145.24 0 0 0 -2.65-15.21c-1.49-6.79.71-12.07 6-16.3a91 91 0 0 0 8.08-6.63c8.4-8.57 13.95-18.7 8.88-30.58-4.76-11.18-3.38-21 2.44-30.81 6.13-10.36 5.33-20.6-.39-30.76-1.93-3.43-4.09-6.73-6.09-10 15.62-18.73 16.9-33.38 4.74-53.83-2.1-3.53-1.35-6.5.53-9.77 9.3-16.14 6.63-32.46-7.27-44.93a136.44 136.44 0 0 0 -36.07-23.72c-6.09-2.69-10.87-6.73-12.78-13.15a82.07 82.07 0 0 1 -3.09-33c1-9.38 2.69-19 1.63-28.25-2.45-21.43-5.68-42.82-9.9-64-3.89-19.45-15-33.8-34.51-40.44-2.97-.95-5.69-2.49-8.51-3.77zm107.71 23.27v7.58l-28.51 2.73c.27 3 .49 5.34.72 7.88l28.13-1.94c.39 3 .67 5.26 1 8.09l29-13zm-252.65 41.87 31 6.59c-.21-3-.4-5.54-.59-8.25l27.92-3.88-1.1-7.91-28.53 3.37-1.75-7.27z" fill="#fff"/><path d="m616.37 190.48c2.82 1.28 5.54 2.82 8.45 3.81 19.54 6.64 30.62 21 34.51 40.44 4.22 21.15 7.45 42.54 9.9 64 1.06 9.24-.58 18.87-1.63 28.25a82.07 82.07 0 0 0 3.09 33c1.91 6.42 6.69 10.46 12.78 13.15a136.44 136.44 0 0 1 36.07 23.72c13.9 12.47 16.57 28.79 7.27 44.93-1.88 3.27-2.63 6.24-.53 9.77 12.16 20.45 10.88 35.1-4.74 53.83 2 3.25 4.16 6.55 6.09 10 5.72 10.16 6.52 20.4.39 30.76-5.82 9.85-7.2 19.63-2.44 30.81 5.07 11.88-.48 22-8.88 30.58a91 91 0 0 1 -8.08 6.63c-5.26 4.23-7.46 9.51-6 16.3a145.24 145.24 0 0 1 2.65 15.21c.18 1.63-1.12 3.42-1.74 5.14-1.7-.67-3.71-1-5-2.08-5.16-4.34-5.43-10.7-6.45-16.74a55.61 55.61 0 0 0 -1.53-5.58l-1.94.23c-.18 2.84-.36 5.68-.52 8.15-1.76-1.83-3.36-4.75-5.68-5.55s-5.46.29-8.17.9c-26.85 6-53.19 14.62-80.81 16.71-8.68.66-17.49-.4-26.24-.71-2-.07-4-.47-5.94-.48-4.14 0-6.36 2-6.84 6.27a77.57 77.57 0 0 1 -1.91 8.56l-1.72-.37 1.86-15.9-1.94-.36q-3.26 10.45-6.53 20.91c-1.51 4.84-1.51 4.84-8 4.52.32-5.85.17-11.78 1.09-17.54 1.3-8.16-.47-11.83-8.39-14.29-4.75-1.48-9.69-2.42-14.3-4.22-12.33-4.84-18.52-14.07-18.57-27.33 0-4 .4-8 .76-11.93a16.65 16.65 0 0 0 -4.76-13.68c-.69-.72-1.34-1.49-2.07-2.17-11.21-10.49-13-22.56-6.21-36.19a131.33 131.33 0 0 0 6.1-14.18c2.48-7 1.44-13.39-4.16-18.74a53.8 53.8 0 0 1 -4.91-5.63c-8.71-11.06-10.83-23.26-6.13-36.58 2.1-5.95 4.34-11.85 6.31-17.84 3.69-11.21 2.79-22.18-3.53-32.12-10.67-16.79-6.26-32.74 11.52-43.38a165.81 165.81 0 0 1 74.88-23.27 146.66 146.66 0 0 0 15.84-1.53c7.48-1.36 9.86-7 5-12.74-22.24-26.52-25.25-57.29-20.33-89.86a128.36 128.36 0 0 1 4.3-19.93c5.54-17.33 17.39-28.24 35-32.87 2-.53 3.85-1.84 5.77-2.79zm-36.74 383.52c.76-.58 1.12-1.07 1.55-1.13a34.82 34.82 0 0 1 4-.3c30.92-.92 61.66-3.46 92-10 13.49-2.91 27-5.89 38.35-14.43 2.65-2 5.51-4.84 6.4-7.84 6.68-22.59-11.83-36.42-28-34.22-23 3.13-46.2 4.83-69.34 6.8-17.46 1.5-35.17-2.33-52.56 2.48-1.18-2.68-2.25-5.11-3.44-7.79a12.73 12.73 0 0 1 2.18-.29c29.7 2.79 59.4 1.52 89.09-.05 8.14-.43 9.36-1.88 9.49-10 .08-5.24 2-9.71 5.79-15-.29 6.61-.4 11.75-.78 16.86-.28 3.67 1 5.35 4.79 4.71q13.49-2.26 27-4.46c4.6-.75 6.8-3.61 7.61-8 .44-2.45 1.29-4.82 2-7.22l1 .2c.74 2.75 1.49 5.5 2.51 9.28 5-8.07 6.61-15.82 5.14-23.82-.9-4.91-3.4-9.53-5.41-14.18-.29-.69-1.88-.81-4.2-1.7-1.09-3-4.37-6-9.44-6.85-7.69-1.24-15.37-2.53-23.08-3.7-4.25-.65-7.08 1.11-8.17 5.39-.38 1.48-.71 3-1.34 5.64-.68-2.41-1.15-3.63-1.37-4.89-1.43-8.18-1.54-8.33-9.36-9.8a232.56 232.56 0 0 0 -58.54-3.14c-11.72.77-23.42 1.88-35.12 2.84-1-5.48-.36-6.4 4.79-6.52 43.4-1 86.65-.11 129.45 8.48 15.14 3 16.85 1.46 20.09-13.76 1.39-6.53.89-11.92-1.82-16.58-1.6 6-3.08 11.47-4.55 17a24.38 24.38 0 0 1 .85-8.81c2.17-9 .27-16.67-7.92-21.69-10.45-6.41-20.55-13.95-31.85-18.25-17.13-6.52-35.07-11-52.81-15.78-46.12-12.42-89.47-3.61-130.91 18.09-11.41 6-15.23 16.82-10.52 28.73 3.71 9.41 7.48 18.87 18 25.41-6.72-.18-8 3.29-9.05 7.44-2.7 10.79-5.63 21.53-8.59 32.26a24 24 0 0 0 1.14 16.06c4.39 10.7 11.91 17.82 23.88 20.63-6.64 2.39-6.66 3.12-8.12 9.41a103.14 103.14 0 0 1 -6.36 19.72c-5.58 12.13-5 21.95 4.12 31.72 4.43 4.75 10.14 8.32 14.6 11.88-1.5 1.35-4.4 2.85-5.59 5.21-5.78 11.43.49 33.2 15.31 36.42 3.88.84 7.63 2.27 11.44 3.43 25.54 7.78 51.29 10.26 77.6 3.86 17.56-4.27 35.29-7.88 52.93-11.81 6.59-1.47 8.4-3.24 9.08-9.91.36-3.61-.06-7.29-.09-10.94 0-2.87 0-5.73 0-8.6h2v25.51c12.76-4.06 23.64-8.77 32.51-17.15a35.56 35.56 0 0 0 7.35-9.29c4.45-8.64 1.38-20.07-5.8-23.72v12.43a9.7 9.7 0 0 1 -1.31-4.92c-.8-13.76-2.82-15.16-16.21-12-28.68 6.68-57.59 11.44-87.21 11-6.14-.09-12.48 1.47-18.41 3.28-4.27 1.22-5.69.08-6.77-3.63zm82.44-210.1c-.24-1.71-.39-2.68-.5-3.64-1-9.05-2.53-18.07-2.77-27.14-.19-7.37-2.1-9.68-9.59-8.23-2.71.52-5.41 1.08-8.12 1.62l-.28-1.22c3.54-1.28 7.11-2.49 10.61-3.86 6.84-2.67 8.82-5.46 8.68-12.77-.15-7.81-.33-15.63-.92-23.41-1.63-21.51-5.94-42.45-14-62.52-5.64-14.1-17.86-22.58-32.18-22.67-14.77-.1-27.42 7.72-32.5 21.95-11 30.87-11.07 61.92 1.06 92.61 3.93 9.95 11.34 15.21 22.46 14.72 3.06-.13 6.16.72 9.24 1.12a4.73 4.73 0 0 1 -3.33 2.05c-3.3.36-6.65.33-9.88 1-1.62.32-4.05 1.5-4.35 2.73-2.77 11.21-.81 14 10.72 16.08.65.12 1.3.27 1.95.41z"/><path d="m724.08 213.75 30.34 11.38-29 13c-.36-2.83-.64-5.06-1-8.09l-28.13 1.92c-.23-2.54-.45-4.92-.72-7.88l28.51-2.73z"/><path d="m471.43 255.62 27-17.35 1.75 7.27 28.53-3.37 1.1 7.91-27.93 3.92c.19 2.71.38 5.24.59 8.25z"/><path d="m579.63 574c1.08 3.67 2.5 4.81 6.55 3.58 5.93-1.81 12.27-3.37 18.41-3.28 29.62.45 58.53-4.31 87.21-11 13.39-3.12 15.41-1.72 16.21 12a9.7 9.7 0 0 0 1.31 4.92v-12.34c7.18 3.65 10.25 15.08 5.8 23.72a35.56 35.56 0 0 1 -7.35 9.29c-8.87 8.38-19.77 13.11-32.51 17.11v-25.5h-2v8.6c0 3.65.45 7.33.09 10.94-.68 6.67-2.49 8.44-9.08 9.91-17.64 3.93-35.37 7.54-52.93 11.81-26.31 6.4-52.06 3.92-77.6-3.86-3.81-1.16-7.56-2.59-11.44-3.43-14.82-3.22-21.09-25-15.31-36.42 1.19-2.36 4.09-3.86 5.59-5.21-4.46-3.56-10.17-7.13-14.6-11.88-9.12-9.77-9.7-19.59-4.12-31.72a103.14 103.14 0 0 0 6.36-19.72c1.46-6.29 1.48-7 8.12-9.41-12-2.81-19.49-9.93-23.88-20.63a24 24 0 0 1 -1.14-16.06c3-10.73 5.89-21.47 8.59-32.26 1-4.15 2.33-7.62 9.05-7.44-10.48-6.54-14.25-16-18-25.41-4.71-11.91-.89-22.76 10.52-28.73 41.44-21.7 84.79-30.51 130.91-18.09 17.74 4.78 35.68 9.26 52.81 15.78 11.3 4.3 21.4 11.84 31.85 18.25 8.19 5 10.09 12.68 7.92 21.69a24.38 24.38 0 0 0 -.85 8.81c1.47-5.51 3-11 4.55-17 2.71 4.66 3.21 10.05 1.82 16.58-3.24 15.22-5 16.8-20.09 13.76-42.8-8.59-86-9.44-129.45-8.48-5.15.12-5.81 1-4.79 6.52 11.7-1 23.4-2.07 35.12-2.84a232.56 232.56 0 0 1 58.54 3.14c7.82 1.47 7.93 1.62 9.36 9.8.22 1.26.69 2.48 1.37 4.89.63-2.67 1-4.16 1.34-5.64 1.09-4.28 3.92-6 8.17-5.39 7.71 1.17 15.39 2.46 23.08 3.7 5.07.82 8.35 3.82 9.44 6.85 2.32.89 3.91 1 4.2 1.7 2 4.65 4.51 9.27 5.41 14.18 1.47 8-.19 15.75-5.14 23.82-1-3.78-1.77-6.53-2.51-9.28l-1-.2c-.67 2.4-1.52 4.77-2 7.22-.81 4.4-3 7.26-7.61 8q-13.49 2.19-27 4.46c-3.83.64-5.07-1-4.79-4.71.38-5.11.49-10.25.78-16.86-3.77 5.31-5.71 9.78-5.79 15-.13 8.1-1.35 9.55-9.49 10-29.69 1.57-59.39 2.84-89.09.05a12.73 12.73 0 0 0 -2.18.29c1.19 2.68 2.26 5.11 3.44 7.79 17.39-4.81 35.1-1 52.56-2.48 23.14-2 46.34-3.67 69.34-6.8 16.21-2.2 34.72 11.63 28 34.22-.89 3-3.75 5.85-6.4 7.84-11.32 8.54-24.86 11.52-38.35 14.43-30.3 6.55-61 9.09-92 10a34.82 34.82 0 0 0 -4 .3c-.21.12-.57.58-1.33 1.12zm94.14-20.95 1.5.13c1.44-9.67 2.29-19.32-1.5-29.42zm2-142.48c3.81-9.72 4.2-18.77 1.58-29-.6 10.1-1.09 19.15-1.63 29.04z" fill="#fff"/><path d="m662.07 363.9-53.68-11.2c-.65-.14-1.3-.29-1.95-.41-11.53-2.12-13.49-4.87-10.72-16.08.3-1.23 2.73-2.41 4.35-2.73 3.23-.64 6.58-.61 9.88-1a4.73 4.73 0 0 0 3.33-2.05c-3.08-.4-6.18-1.25-9.24-1.12-11.12.49-18.53-4.77-22.46-14.72-12.13-30.69-12.09-61.74-1.06-92.61 5.08-14.23 17.73-22 32.5-21.95 14.32.09 26.54 8.57 32.18 22.67 8 20.07 12.35 41 14 62.52.59 7.78.77 15.6.92 23.41.14 7.31-1.84 10.1-8.68 12.77-3.5 1.37-7.07 2.58-10.61 3.86l.28 1.22c2.71-.54 5.41-1.1 8.12-1.62 7.49-1.45 9.4.86 9.59 8.23.24 9.07 1.78 18.09 2.77 27.14.09.99.24 1.96.48 3.67z" fill="#fff"/><path d="m673.77 553.09v-29.29c3.79 10.1 2.94 19.75 1.5 29.42z"/><path d="m675.72 410.61c.54-9.89 1-18.94 1.58-29 2.62 10.23 2.23 19.28-1.58 29z"/></g></svg>