<svg viewBox="0 0 326 480" xmlns="http://www.w3.org/2000/svg"><g transform="translate(-620.77 -247.44)"><path d="m827.1 247.44h119.67v480h-326v-480h197.35c-1.79 1-3.48 2.48-5.4 3-12.68 3.16-20.6 11.51-22.5 23.91-1.75 11.39-1.25 23.14-1.52 34.74-.3 13.28-.3 26.56-.57 39.84-.07 3.63-1.07 7.27-.88 10.87 1.36 26.08 2.91 52.14 4.38 78.21a26.34 26.34 0 0 1 -.38 3.39c-6.9-11.17-11-22.24-14.26-33.86-4.91-17.76-9.9-35.54-16.1-52.87-4.9-13.72-11.4-26.91-17.71-40.09-4.17-8.71-11.39-12.93-21.41-12.39-21.27 1.15-35.7 20.83-29.44 42.14 7.67 26.12 16.62 51.87 24.81 77.84 3.93 12.44 7.42 25 11.1 37.55l-1.42.62a24.45 24.45 0 0 1 -2.74-2.53c-15.08-18.59-30.08-37.28-45.36-55.68-6.88-8.27-13.64-17-21.9-23.69-13.15-10.69-30.18-3.27-33.23 13.42-2.69 14.71 1.73 27.47 9.92 39.48 6.26 9.19 11.94 18.78 18.09 28.05 6.42 9.69 13.1 19.19 19.61 28.82a36.63 36.63 0 0 1 3.7 6.41c4.23 10.27 8 20.74 12.5 30.88 4.44 10 7 20 5.23 30.94-1.77 11.3.46 22 5 32.53a108.57 108.57 0 0 1 7.61 25.63c2.14 13.44 2.51 27.14 4.26 40.65 1.9 14.7 6.57 28.68 19 37.73 10.83 7.9 17.58 17.33 18.62 30.78.09 1.12 1.81 2.11 3.18 3.61 1.75-6.18 2.81-11 4.62-15.62.5-1.26 3.2-1.73 5-2.38s4.87-.67 5.24-1.72c1.2-3.39-2.07-3.28-4.18-3.91-19.14-5.75-33.43-17.25-40.1-36.36-3-8.66-4.57-18-5.43-27.23-1.78-19.06-2.69-38.24-10.69-56a63 63 0 0 1 -4.55-37c1.16-7 2.75-13.89 4.18-21-6.45 3.09-8.09 2.51-10.83-4.27-2.87-7.09-5.3-14.36-8.3-21.38-2.23-5.22-3.54-10.11.11-13.71-3.59-2.15-8.13-3.43-10.32-6.43-6.63-9.12-12.4-18.87-18.4-28.43-2.76-4.39-1.93-8.56 1.33-12.39l4.49-5.28-1-1.05-5.9 3.23c-5 2.77-7.79 2.26-10.93-2.51s-6.36-9.76-9.08-14.88c-4.19-7.92-6.42-16.41-5.55-25.47.54-5.69 3-10.2 8.75-12.2 6.17-2.16 11.42-.63 15.75 4.24 5.85 6.57 11.78 13.08 17.59 19.7 6.42 7.32 6.38 7.36 3.32 16.9a23.1 23.1 0 0 1 4.46-1.27c1.36-.08 3.37-.16 4 .64 6.27 7.53 12.56 15.06 18.33 23 4.18 5.73 7.16 12.35 11.44 18 5.18 6.83 11.28 12.95 16.77 19.55 6.2 7.46 6.19 8.8 1 17 7.92-.71 13-5.43 18.88-11.05-6.51.75-8.41-2.8-9.53-7.4-3.35-13.72-6.83-27.4-10.2-41.12-1.24-5-1.31-9.93 4-14.48-7.51 1.22-9.91-2.93-11.53-8-3.09-9.65-6.27-19.27-9.21-29-3.2-10.51-1.45-14.18 8.49-18.85.35-.17.53-.69 1.56-2.1a51.26 51.26 0 0 0 -5.45 1.18c-6.69 2.37-8.42 1.88-12.05-4.42a51.77 51.77 0 0 1 -6.39-33.78c2.08-15.24 8.67-21.09 23.91-22.17 4.8-.35 8.6 1.29 11 5.36a116.8 116.8 0 0 1 5.72 11.61c9.76 22 19.52 44.06 25.39 67.57 1.93 7.75 2.66 15-6.77 19.57 9.66-3 12.74 2.77 15.26 9.71 3 8.24 6 16.49 9.47 24.52 3.31 7.59 7 14.92 1.8 23.46l18.86-7.12c-7.32-.67-7.25-.67-6.65-7.86a97.82 97.82 0 0 0 .37-11c-.34-11-.87-21.93-1.28-32.9-.17-4.73 1.3-8.53 6.63-10.27l-3.82-2.12.13-1.1 18.62-1.35v-1.61c-6-.55-12-.9-18-1.79-1.29-.2-3.11-2.24-3.29-3.62-2.25-17-3.42-34-1.4-51.19 1.15-9.8.2-19.84 0-29.78-.09-6.13-1.16-12.33-.54-18.38a94.47 94.47 0 0 1 4.59-21.31c3.13-9 10.7-13.79 19.84-14.46 8.08-.59 12.68 5.67 16.48 11.89a23.75 23.75 0 0 1 3.58 8.69c1.32 9.85 2.37 19.77 3 29.69.63 9.57.2 9.79-9.23 11.77-.28.06-.49.41-1.64 1.45 1.85 1.06 3.39 2.69 5 2.72 4.76.1 7.11 2.42 7.53 6.89 1.19 12.73 2.38 25.46 3.38 38.21.93 11.91.67 24 2.66 35.73 2.75 16.11 5.67 32.08 4.33 48.51-.09 1.16-.33 2.53.16 3.44s2 2.45 2.9 2.36c3.6-.36 7.16-1.25 11.53-2.1-3.94-1.51-4.88-3.49-2.61-6.64 6.6-9.2 9.61-19.74 10.16-30.85.89-18.22 3.39-36 10.32-53.06 5.08-12.51 4.66-12.63 17.95-9.82 4 .84 8 1.29 12 1.92a53.76 53.76 0 0 0 -11.55-5.09c-14.65-5.08-14.3-1.82-11.71-19.32 1.74-11.72 4.09-23.27 10.59-33.5 3.54-5.57 8.23-9.08 15.21-8.45 8.46.76 16.24 7.4 16.93 16.36.73 9.36 1 19.06-.65 28.25-4.37 25.07-9.29 50-9.36 75.61 0 4.85-3.06 6.79-7.44 6.8-2.29 0-4.58-.83-6.88-.89-2.72-.07-5.44.3-8.16.47l.12 1.55a75.94 75.94 0 0 1 9.18.06c9.57 1.17 11 3.2 9.56 12.7-1.78 11.49-3.63 23-5.38 34.45-.7 4.66-3.45 6.47-8.35 5.85 7.74 6.33 8.21 6.3 8.59 12.87.53 8.92.58 17.91.25 26.85-.51 13.77-1.51 27.52-2.34 41.27a28.45 28.45 0 0 1 -.59 3.4h-1.41a42.17 42.17 0 0 1 -1-5.06c-.54-7.56-4-13.12-10.68-16.87q-10.86-6.09-21.41-12.74c-9.54-6-19.81-11.28-28.13-18.71-8.66-7.74-17.06-9.08-27.41-5.48a17.9 17.9 0 0 1 -9.65.71c-9.81-2.48-19.46-5.6-29.15-8.52-10.21-3.08-14.45-1.35-19.52 8.08-12.36 23-1.2 52 23.34 60.59a113.27 113.27 0 0 0 11 3c4.14 1 8.33 1.77 13.19 2.79l-6.09 4.82c4.64.78 8.36 1.4 12.07 2s4.77 2.79 3.58 6.13c-.84 2.34-2 4.55-2.95 6.86-3.15 7.85-4.77 15.89-3.1 24.35 2.62-8 2.18-16.83 7.49-24.42 1.47 2.26 2.56 4 3.65 5.64.65-3.28-.66-6.58.31-8.94s4.24-3.5 6.37-5.09c-11.62-9.47-11.62-9.47-8-17.3-8.52 0-17.34.92-25.9-.18-20.64-2.65-37.11-22.19-35.51-42 .53-6.66 3-13.23 5.12-19.67 1.76-5.41 4.94-5.73 8.22-2.24 3.19-.35 5.9-1.42 8-.73 7.1 2.29 14 5.1 20.94 7.94 4.65 1.91 6.68 5.76 6.74 10.7v10.94c3.83-5.84 8.23-10.61 5-17.75-.36-.81.57-2.84 1.48-3.47 6-4.11 20.14-3.21 25.41 2.09 9.46 9.51 20.77 15.7 33 20.94 19 8.18 31.23 22.38 34 43.39 1.09 8.38 1.11 16.93 1.14 25.4.06 21.17-1.11 42.25-7.38 62.67-5.37 17.45-16.76 29.09-34.81 32.77-9.18 1.86-18.74 1.9-28.14 2.59a65.26 65.26 0 0 1 -8-.37l-.24 1.68c4.39 1.06 8.75 2.82 13.19 3.06 11.29.61 22.5.38 33.1-4.86 6.83-3.38 9.17-1.5 9.79 6.11.22 2.72 1.24 5.39 1.9 8.08h2c.68-1.69 1.85-3.35 2-5.08.81-12.15 5.46-22.82 11.9-32.92a35.79 35.79 0 0 0 4.09-9c7.53-25.17 8.32-51 8.16-77.06-.14-21.43-.22-42.91 1-64.29.69-11.67 1.12-23.11 0-34.77a103.55 103.55 0 0 1 .91-23.25c1.88-14.32 5-28.49 6.69-42.82 3.16-26.4 5.2-52.92 11.44-78.9 3-12.42 3-25.09-1.19-37.43-3.05-9-9.73-13.53-18.84-14.89-9.54-1.42-18.54.08-23.54 9a101.55 101.55 0 0 0 -9.46 23.88c-2.9 11.23-3.45 23.09-6.66 34.21-7.18 24.82-13.28 49.75-14.78 75.66-.35 6-2.48 11.41-7.84 15.67-.5-7.72-.76-14.85-1.46-21.93-1.33-14.03-3.33-28.03-4.33-42.11-2.23-31.51-3.91-63.05-6-94.57-.7-10.55-3.75-20.35-11.92-27.68-3.08-2.71-6.65-4.78-9.98-7.14zm-78.82 359.5.44 1.59c2.59-.51 5.52-.42 7.72-1.63 14.36-7.9 28.56-16.07 43.14-24.34-18.35 6.02-35.51 13.76-51.3 24.38zm78.42 76.61c-2.17-15.91-4.44-32.6-6.77-49.66-3.69 18.05-1.19 34.79 6.77 49.66zm-49-159.9c1.07 6 15.54 10.58 28 8.6z" fill="#fff"/><path d="m827.1 247.44c3.33 2.36 6.94 4.43 10 7.14 8.17 7.33 11.22 17.13 11.92 27.68 2.07 31.52 3.75 63.06 6 94.57 1 14.08 3 28.08 4.43 42.14.7 7.08 1 14.21 1.46 21.93 5.36-4.26 7.49-9.68 7.84-15.67 1.5-25.91 7.6-50.84 14.78-75.66 3.21-11.12 3.76-23 6.66-34.21a101.55 101.55 0 0 1 9.46-23.88c5-9 14-10.45 23.54-9 9.11 1.36 15.79 5.91 18.84 14.89 4.17 12.34 4.17 25 1.19 37.43-6.24 26-8.28 52.5-11.44 78.9-1.78 14.3-4.87 28.47-6.78 42.79a103.55 103.55 0 0 0 -.91 23.25c1.13 11.66.7 23.1 0 34.77-1.26 21.38-1.18 42.86-1 64.29.16 26-.63 51.89-8.16 77.06a35.79 35.79 0 0 1 -4.09 9c-6.44 10.1-11.09 20.77-11.9 32.92-.12 1.73-1.29 3.39-2 5.08h-2c-.66-2.69-1.68-5.36-1.9-8.08-.62-7.61-3-9.49-9.79-6.11-10.6 5.24-21.81 5.47-33.1 4.86-4.44-.24-8.8-2-13.19-3.06l.24-1.68a65.26 65.26 0 0 0 8 .37c9.4-.69 19-.73 28.14-2.59 18.05-3.68 29.44-15.32 34.81-32.77 6.27-20.42 7.44-41.5 7.38-62.67 0-8.47-.05-17-1.14-25.4-2.72-21-14.92-35.21-34-43.39-12.21-5.24-23.52-11.43-33-20.94-5.27-5.3-19.43-6.2-25.41-2.09-.91.63-1.84 2.66-1.48 3.47 3.18 7.14-1.22 11.91-5 17.75 0-4.18 0-7.56 0-10.94-.06-4.94-2.09-8.79-6.74-10.7-6.91-2.84-13.84-5.65-20.94-7.94-2.13-.69-4.84.38-8 .73-3.28-3.49-6.46-3.17-8.22 2.24-2.1 6.44-4.59 13-5.12 19.67-1.6 19.84 14.87 39.38 35.51 42 8.56 1.1 17.38.18 25.9.18-3.62 7.83-3.62 7.83 8 17.3-2.13 1.59-5.44 2.85-6.37 5.09s.34 5.66-.31 8.94c-1.09-1.69-2.18-3.38-3.65-5.64-5.31 7.59-4.87 16.46-7.49 24.42-1.67-8.46-.05-16.5 3.1-24.35.93-2.31 2.11-4.52 2.95-6.86 1.19-3.34 0-5.51-3.58-6.13s-7.43-1.26-12.07-2l6.09-4.82c-4.86-1-9.05-1.81-13.19-2.79a113.27 113.27 0 0 1 -11-3c-24.54-8.56-35.7-37.62-23.34-60.59 5.07-9.43 9.31-11.16 19.52-8.08 9.69 2.92 19.34 6 29.15 8.52a17.9 17.9 0 0 0 9.65-.71c10.35-3.6 18.75-2.26 27.41 5.48 8.32 7.43 18.59 12.7 28.13 18.71q10.53 6.65 21.41 12.74c6.69 3.75 10.14 9.31 10.68 16.87a42.17 42.17 0 0 0 1 5.06h1.41a28.45 28.45 0 0 0 .59-3.4c.83-13.75 1.83-27.5 2.34-41.27.33-8.94.28-17.93-.25-26.85-.38-6.57-.85-6.54-8.59-12.87 4.9.62 7.65-1.19 8.35-5.85 1.75-11.49 3.6-23 5.38-34.45 1.46-9.5 0-11.53-9.56-12.7a75.94 75.94 0 0 0 -9.18-.06l-.12-1.55c2.72-.17 5.44-.54 8.16-.47 2.3.06 4.59.9 6.88.89 4.38 0 7.43-2 7.44-6.8.07-25.59 5-50.54 9.36-75.61 1.61-9.19 1.38-18.89.65-28.25-.69-9-8.47-15.6-16.93-16.36-7-.63-11.67 2.88-15.21 8.45-6.5 10.23-8.85 21.78-10.59 33.5-2.59 17.5-2.94 14.24 11.71 19.32a53.76 53.76 0 0 1 11.55 5.09c-4-.63-8.05-1.08-12-1.92-13.29-2.81-12.87-2.69-17.95 9.82-6.93 17.08-9.43 34.84-10.32 53.06-.55 11.11-3.56 21.65-10.16 30.85-2.27 3.15-1.33 5.13 2.61 6.64-4.37.85-7.93 1.74-11.53 2.1-.91.09-2.31-1.32-2.9-2.36s-.25-2.28-.16-3.44c1.34-16.43-1.58-32.4-4.33-48.51-2-11.72-1.73-23.82-2.66-35.73-1-12.75-2.19-25.48-3.38-38.21-.42-4.47-2.77-6.79-7.53-6.89-1.58 0-3.12-1.66-5-2.72 1.15-1 1.36-1.39 1.64-1.45 9.43-2 9.86-2.2 9.23-11.77-.66-9.92-1.71-19.84-3-29.69a23.75 23.75 0 0 0 -3.58-8.69c-3.8-6.22-8.4-12.48-16.48-11.89-9.14.67-16.71 5.47-19.84 14.46a94.47 94.47 0 0 0 -4.49 21.35c-.62 6.05.45 12.25.54 18.38.16 9.94 1.11 20 0 29.78-2 17.22-.85 34.19 1.4 51.19.18 1.38 2 3.42 3.29 3.62 6 .89 12 1.24 18 1.79v1.61l-18.77 1.35-.13 1.1 3.82 2.12c-5.33 1.74-6.8 5.54-6.63 10.27.41 11 .94 21.93 1.28 32.9a97.82 97.82 0 0 1 -.37 11c-.6 7.19-.67 7.19 6.65 7.86l-18.86 7.12c5.19-8.54 1.51-15.87-1.8-23.46-3.5-8-6.49-16.28-9.47-24.52-2.52-6.94-5.6-12.73-15.26-9.71 9.43-4.61 8.7-11.82 6.77-19.57-5.88-23.53-15.64-45.53-25.4-67.61a116.8 116.8 0 0 0 -5.72-11.61c-2.39-4.07-6.19-5.71-11-5.36-15.24 1.08-21.83 6.93-23.91 22.17a51.77 51.77 0 0 0 6.41 33.66c3.63 6.3 5.36 6.79 12.05 4.42a51.26 51.26 0 0 1 5.45-1.18c-1 1.41-1.21 1.93-1.56 2.1-9.94 4.67-11.69 8.34-8.49 18.85 2.94 9.69 6.12 19.31 9.21 29 1.62 5.08 4 9.23 11.53 8-5.26 4.55-5.19 9.44-4 14.48 3.37 13.72 6.85 27.4 10.2 41.12 1.12 4.6 3 8.15 9.53 7.4-5.84 5.62-11 10.34-18.88 11.05 5.17-8.17 5.18-9.51-1-17-5.49-6.6-11.59-12.72-16.77-19.55-4.28-5.64-7.26-12.26-11.44-18-5.77-7.9-12.06-15.43-18.33-23-.66-.8-2.67-.72-4-.64a23.1 23.1 0 0 0 -4.46 1.27c3.06-9.54 3.1-9.58-3.32-16.9-5.81-6.62-11.74-13.13-17.59-19.7-4.33-4.87-9.58-6.4-15.75-4.24-5.72 2-8.21 6.51-8.75 12.2-.87 9.06 1.36 17.55 5.55 25.47 2.72 5.12 5.88 10 9.08 14.88s5.93 5.28 10.93 2.51l5.9-3.23 1 1.05-4.47 5.33c-3.26 3.83-4.09 8-1.33 12.39 6 9.56 11.77 19.31 18.4 28.43 2.19 3 6.73 4.28 10.32 6.43-3.65 3.6-2.34 8.49-.11 13.71 3 7 5.43 14.29 8.3 21.38 2.74 6.78 4.38 7.36 10.83 4.27-1.43 7.11-3 14-4.18 21a63 63 0 0 0 4.55 37c8 17.79 8.91 37 10.69 56 .86 9.19 2.4 18.57 5.43 27.23 6.67 19.11 21 30.61 40.1 36.36 2.11.63 5.38.52 4.18 3.91-.37 1.05-3.46 1.06-5.24 1.72s-4.46 1.12-5 2.38c-1.81 4.57-2.87 9.44-4.62 15.62-1.37-1.5-3.09-2.49-3.18-3.61-1-13.45-7.79-22.88-18.62-30.78-12.42-9.05-17.09-23-19-37.73-1.75-13.51-2.12-27.21-4.26-40.65a108.57 108.57 0 0 0 -7.59-25.53c-4.57-10.57-6.8-21.23-5-32.53 1.72-11-.79-21-5.23-30.94-4.52-10.14-8.27-20.61-12.5-30.88a36.63 36.63 0 0 0 -3.7-6.41c-6.51-9.63-13.19-19.13-19.61-28.82-6.15-9.27-11.83-18.86-18.09-28.05-8.19-12-12.61-24.77-9.92-39.48 3-16.69 20.08-24.11 33.23-13.42 8.26 6.72 15 15.42 21.9 23.69 15.3 18.4 30.24 37.09 45.36 55.64a24.45 24.45 0 0 0 2.74 2.53l1.42-.62c-3.68-12.52-7.17-25.11-11.1-37.55-8.19-26-17.14-51.72-24.81-77.84-6.26-21.31 8.17-41 29.44-42.14 10-.54 17.24 3.68 21.41 12.39 6.31 13.18 12.81 26.37 17.71 40.09 6.2 17.33 11.19 35.11 16.1 52.87 3.21 11.62 7.36 22.69 14.26 33.86a26.34 26.34 0 0 0 .38-3.39c-1.47-26.07-3-52.13-4.38-78.21-.19-3.6.81-7.24.88-10.87.27-13.28.27-26.56.57-39.84.27-11.6-.23-23.35 1.52-34.74 1.9-12.4 9.82-20.75 22.5-23.91 1.92-.48 3.61-2 5.4-3z"/><path d="m748.28 606.94c15.79-10.62 33-18.36 51.3-24.38-14.58 8.27-28.78 16.44-43.14 24.34-2.2 1.21-5.13 1.12-7.72 1.63z"/><path d="m826.7 683.55c-8-14.87-10.46-31.61-6.77-49.66 2.33 17.11 4.6 33.75 6.77 49.66z"/><path d="m777.67 523.65 28 8.6c-12.46 1.98-26.93-2.56-28-8.6z"/></g></svg>