<svg viewBox="0 0 300 480" xmlns="http://www.w3.org/2000/svg"><g transform="translate(-605.92 -182.89)"><path d="m808.23 662.89h-202.31v-480h300v70.71c-1-3.31-1.82-6.7-3.08-9.91-4.28-10.88-13.8-15.86-25.2-13.56-10.15 2.05-17.77 7.64-22.16 16.86-3.92 8.23-6.89 16.9-10.31 25.37-2.85 7.06-5.77 14.1-8.62 21.17-5.39 13.38-11.07 26.66-16 40.21-4.86 13.24-9 26.75-13.45 40.13a31.9 31.9 0 0 1 -1.84 3.7 19.94 19.94 0 0 1 -.92-2.61c-3.22-22.58-5.8-45.2-4.56-68.08 1.48-27.56 3.08-55.13 4.34-82.7.41-9.08-1.23-18-6.08-25.87-4.3-7-10.15-13-18.31-14.34-12.64-2.12-23.24 3-29.62 14a57.47 57.47 0 0 0 -7.43 21.91c-2.69 23.94-4.36 48-6.23 72-1.72 22.22-3.09 44.46-4.85 66.68-.33 4.16-1.73 8.24-2.63 12.36l-1.36-.1a23.45 23.45 0 0 1 -1.19-3.07c-3.14-13.06-5.91-26.22-9.43-39.18-6.58-24.19-13.27-48.37-20.61-72.34-2-6.34-5.78-12.41-9.88-17.73-6.67-8.65-15.88-12.2-26.93-10.17-11.48 2.1-19.29 8.56-23.1 19.57-3 8.72-1.4 17.44.84 26 4.3 16.48 11.72 32.25 11.16 49.84a30.21 30.21 0 0 0 1.08 7.39c3.55 16.05 7.47 32 10.66 48.13 2.07 10.5 3.1 21.21 4.68 32.36-16.26-4.07-28.46 3.16-39.88 12.79-1.9 1.6-3.77 3.27-5.81 4.71-5.06 3.57-6.78 8.59-7.3 14.56a105.92 105.92 0 0 1 -2.9 17.11c-2.6 10.22-.61 19.11 6.5 26.81a44 44 0 0 0 6 5.3 12.43 12.43 0 0 1 5.18 10.19c.29 6.79 1 13.6 1.93 20.33 2.73 19 5.22 37.83-.15 56.9-2.31 8.2.79 16 7 21.81 8 7.5 12.22 16 9.78 27.14-.23 1.07 1.3 2.53 2 3.81 1.39-.85 3.67-1.46 4-2.62.7-2.48.31-5.25.55-7.89.21-2.45.65-4.88 1-7.32h1.57q1 3.82 2 7.64c.65-10.74 9-3.05 14.24-5.73-2.39-1.65-4-2.9-5.71-3.91-6.43-3.79-13.1-7.2-19.31-11.31-7.5-5-11.05-12.37-10.51-21.34.39-6.29 1.54-12.52 2.25-18.79.54-4.76 1.69-9.62 1.22-14.3-1.54-15.22-3.85-30.32-5.54-45.51-.69-6-2.8-10.73-8.07-14.07-6.4-4.07-9.86-10.15-10.83-17.68-2.75-21.48 7.74-40.87 27-50.65 8.26-4.19 15.86-4.1 22.32 2.65 8 8.38 15.47 17.3 23.22 25.93a14.5 14.5 0 0 1 4 11.86c-1 8.81 1.72 16.66 6 24.26 1.8 3.24 2.61 7 3.89 10.61 3.88-1.53 15.53 2.63 17.8 7.05a6 6 0 0 1 .49 1.92c.77 6.83-4.37 13.49-11.18 13.09a40.44 40.44 0 0 1 -14.64-3.97c-12.46-5.95-22-15.82-32.33-24.75a203 203 0 0 0 -23.92-17.73c-4.46-2.84-9.56-4.5-12.37-9.5-.37-.65-1.85-.68-2.81-1-.32 1.14-1.12 2.41-.84 3.37a7.92 7.92 0 0 0 2.46 3.66c3 2.53 4.32 4.77-1.09 6.82l5 3.64a10.32 10.32 0 0 0 1.64-1.26c2.6-3.24 5.49-2.56 8.32-.5 3.23 2.36 1 4.59-.3 6.87-1 1.78-1.87 3.67-2.8 5.51a8.22 8.22 0 0 0 3.84-2.91c4.14-4.76 5.89-5 10.79-1.1 3.25 2.59 6.28 5.44 9.44 8.13 11.89 10.15 23.75 20.34 38.56 26.18 13.27 5.23 23.56 4.62 28.15-12.66.3-1.12 2.23-2.7 3.23-2.58a39.29 39.29 0 0 1 10.61 2.44c7.1 3 11.67 15 7.32 20.17-6.1 7.27-5.73 15.68-6 24.08-.12 4.22 2.38 5.83 6.68 4.84.23-6.86-6.81-13.93.93-20.55l7.23 9.48.93-.71c-1.26-4.07-2.51-8.14-4-12.84l12.75 1 .19-1.3c-3.17-.67-6.45-1-9.45-2.13-1.51-.56-2.5-2.52-3.73-3.85 1.47-1 2.83-2.43 4.43-2.77 2.22-.48 4.62-.12 6.94-.12-1.76-1.66-3.78-1.84-5.37-2.76-3.06-1.8-6.35-3.59-8.67-6.17-2.49-2.76-2.17-5.77 2.12-7.28 1.61-.57 3-1.85 5.43-3.44-8.62-.44-15.78-.5-22.86-1.23-14.45-1.51-28-5.66-33.86-20.54a72.29 72.29 0 0 1 -4.59-25.18c-.13-10.59 5-19.32 14.23-24.86-.78 6-1.55 12-2.31 17.94l1.46.2c.62-2.89 1.18-5.79 1.86-8.66 1.86-7.77 5.47-9.56 12.69-6.19 5.71 2.67 11.32 5.56 17 8.25 6.58 3.11 8.1 6.19 6 13.12-.83 2.69-2.24 5.2-3.12 7.88-1 3-1.68 6.1-2.49 9.16l1.54.63c1.86-3.41 4-6.71 5.51-10.26s2.43-7.6 3.89-11.3a13.8 13.8 0 0 1 12.07-9.1c5.4-.57 9.66 1.33 12.59 6.23a14.64 14.64 0 0 0 4.64 4.38c15.19 9.85 30.36 19.74 45.72 29.3 8.56 5.32 9.31 7.22 4.18 15.62-.11.18.14.58.24 1l5.27-2c-.37 3.3-.69 6.09-1 9.17l6.87-.61c.1 1 .24 1.64.23 2.28-.25 17.13-.27 34.27-.89 51.38-.38 10.43-.77 21-2.8 31.21-3.85 19.34-16 33.87-29.41 47.64a37.38 37.38 0 0 1 -26.52 11.78 82.35 82.35 0 0 1 -11.43-.38c-6.12-.61-12.22-1.49-18.32-2.26l-.57 1.36c1.93 1.32 3.69 3.26 5.83 3.86 11.95 3.37 24.07 5 36.34 1.62 4.05-1.13 8-2.59 8.8 4.75 1.24-3.75 2.06-6.26 2.89-8.77l1 .4q.64 6.9 1.24 13.79zm-92.4-37.24c-7.57-21.44-4.85-41.08 4.37-60.2-15.06 15.44-17.27 42.73-4.37 60.2zm-5.39-153.92c4.75 4.47 10.61 6.24 17.45 6.41z" fill="#fff"/><path d="m905.92 267.58v395.31h-91.7c-.33-15.82 5.46-29.48 16-40.75a56.77 56.77 0 0 0 15-31.89c2.32-16.45 3.19-33.17 6.42-49.42 3.53-17.73 4.54-35.54 5.64-53.46.5-8.23 2.56-16.37 4-24.53 1-5.71 3-11.39 3-17.09 0-16.76 3.08-32.94 6.71-49.23 9.65-43.52 17.68-87.52 34.93-128.94z" fill="#fff"/><path d="m905.92 267.58c-17.25 41.42-25.28 85.42-34.92 128.94-3.63 16.29-6.68 32.47-6.71 49.23 0 5.7-2 11.38-3 17.09-1.43 8.16-3.49 16.3-4 24.53-1.1 17.92-2.11 35.73-5.64 53.46-3.23 16.25-4.1 33-6.42 49.42a56.77 56.77 0 0 1 -15 31.89c-10.55 11.27-16.34 24.93-16 40.75h-6q-.6-6.85-1.22-13.7l-1-.4c-.83 2.51-1.65 5-2.89 8.77-.82-7.34-4.75-5.88-8.8-4.75-12.27 3.41-24.39 1.75-36.34-1.62-2.14-.6-3.9-2.54-5.83-3.86l.57-1.36c6.1.77 12.2 1.65 18.32 2.26a82.35 82.35 0 0 0 11.43.38 37.38 37.38 0 0 0 26.53-11.78c13.42-13.77 25.56-28.3 29.41-47.64 2-10.19 2.42-20.78 2.8-31.21.62-17.11.64-34.25.89-51.38 0-.64-.13-1.28-.23-2.28l-6.87.61c.34-3.08.66-5.87 1-9.17l-5.27 2c-.1-.4-.35-.8-.24-1 5.13-8.4 4.38-10.3-4.18-15.62-15.36-9.56-30.53-19.45-45.72-29.3a14.64 14.64 0 0 1 -4.64-4.38c-2.93-4.9-7.19-6.8-12.59-6.23a13.8 13.8 0 0 0 -12.07 9.1c-1.46 3.7-2.32 7.65-3.89 11.3s-3.65 6.85-5.51 10.26l-1.54-.63c.81-3.06 1.5-6.16 2.49-9.16.88-2.68 2.29-5.19 3.12-7.88 2.14-6.93.62-10-6-13.12-5.71-2.69-11.32-5.58-17-8.25-7.22-3.37-10.83-1.58-12.69 6.19-.68 2.87-1.24 5.77-1.86 8.66l-1.46-.2c.76-5.95 1.53-11.9 2.31-17.94-9.27 5.54-14.36 14.27-14.23 24.86a72.29 72.29 0 0 0 4.59 25.18c5.84 14.88 19.41 19 33.86 20.54 7.08.73 14.24.79 22.86 1.23-2.45 1.59-3.82 2.87-5.43 3.44-4.29 1.51-4.61 4.52-2.12 7.28 2.32 2.58 5.61 4.37 8.67 6.17 1.59.92 3.61 1.1 5.37 2.76-2.32 0-4.72-.36-6.94.12-1.6.34-3 1.8-4.43 2.77 1.23 1.33 2.22 3.29 3.73 3.85 3 1.12 6.28 1.46 9.45 2.13l-.19 1.3-12.75-1c1.46 4.7 2.71 8.77 4 12.84l-.93.71-7.23-9.48c-7.74 6.62-.7 13.69-.93 20.55-4.3 1-6.8-.62-6.68-4.84.23-8.4-.14-16.81 6-24.08 4.35-5.2-.22-17.15-7.32-20.17a39.29 39.29 0 0 0 -10.61-2.5c-1-.12-2.93 1.46-3.23 2.58-4.59 17.28-14.88 17.89-28.15 12.66-14.81-5.84-26.67-16-38.56-26.18-3.16-2.69-6.19-5.54-9.44-8.13-4.9-3.9-6.65-3.66-10.79 1.1a8.22 8.22 0 0 1 -3.84 2.91c.93-1.84 1.77-3.73 2.8-5.51 1.31-2.28 3.53-4.51.3-6.87-2.83-2.06-5.72-2.74-8.32.5a10.32 10.32 0 0 1 -1.64 1.26l-5-3.64c5.41-2 4.11-4.29 1.09-6.82a7.92 7.92 0 0 1 -2.46-3.66c-.28-1 .52-2.23.84-3.37 1 .32 2.44.35 2.81 1 2.81 5 7.91 6.66 12.37 9.5a203 203 0 0 1 23.92 17.73c10.3 8.93 19.87 18.8 32.33 24.75a40.44 40.44 0 0 0 14.64 4c6.81.4 11.95-6.26 11.18-13.09a6 6 0 0 0 -.49-1.92c-2.27-4.42-13.92-8.58-17.8-7.05-1.28-3.58-2.09-7.37-3.89-10.61-4.24-7.6-7-15.45-6-24.26a14.5 14.5 0 0 0 -4-11.86c-7.75-8.63-15.2-17.55-23.22-25.93-6.46-6.75-14.06-6.84-22.32-2.65-19.27 9.78-29.76 29.17-27 50.65 1 7.53 4.43 13.61 10.83 17.68 5.27 3.34 7.38 8.07 8.07 14.07 1.72 15.17 4 30.27 5.56 45.46.47 4.68-.68 9.54-1.22 14.3-.71 6.27-1.86 12.5-2.25 18.79-.54 9 3 16.38 10.51 21.34 6.21 4.11 12.88 7.52 19.31 11.31 1.73 1 3.32 2.26 5.71 3.91-5.27 2.68-13.59-5-14.24 5.73q-1-3.81-2-7.64h-1.57c-.35 2.44-.79 4.87-1 7.32-.24 2.64.15 5.41-.55 7.89-.33 1.16-2.61 1.77-4 2.62-.71-1.28-2.24-2.74-2-3.81 2.44-11.18-1.74-19.64-9.78-27.14-6.2-5.78-9.3-13.61-7-21.81 5.37-19.07 2.88-37.91.15-56.9-1-6.73-1.64-13.54-1.93-20.33a12.43 12.43 0 0 0 -5.18-10.19 44 44 0 0 1 -6-5.3c-7.11-7.7-9.1-16.59-6.5-26.81a105.92 105.92 0 0 0 2.82-17.07c.52-6 2.24-11 7.3-14.56 2-1.44 3.91-3.11 5.81-4.71 11.42-9.63 23.62-16.86 39.88-12.79-1.58-11.15-2.61-21.86-4.68-32.36-3.19-16.12-7.11-32.08-10.66-48.13a30.21 30.21 0 0 1 -1.08-7.39c.56-17.59-6.86-33.36-11.16-49.84-2.24-8.6-3.85-17.32-.84-26 3.81-11 11.62-17.47 23.1-19.57 11.05-2 20.26 1.52 26.93 10.17 4.1 5.32 7.93 11.39 9.88 17.73 7.34 24 14 48.15 20.61 72.34 3.52 13 6.29 26.12 9.43 39.18a23.45 23.45 0 0 0 1.19 3.07l1.36.1c.9-4.12 2.3-8.2 2.63-12.36 1.76-22.22 3.13-44.46 4.85-66.68 1.87-24 3.54-48.1 6.23-72a57.47 57.47 0 0 1 7.43-21.91c6.38-10.93 17-16.08 29.62-14 8.16 1.36 14 7.31 18.31 14.34 4.85 7.92 6.49 16.79 6.08 25.87-1.26 27.57-2.86 55.14-4.34 82.7-1.24 22.88 1.34 45.5 4.56 68.08a19.94 19.94 0 0 0 .92 2.61 31.9 31.9 0 0 0 1.84-3.7c4.48-13.38 8.59-26.89 13.45-40.13 5-13.55 10.65-26.83 16-40.21 2.85-7.07 5.77-14.11 8.62-21.17 3.42-8.47 6.39-17.14 10.31-25.37 4.39-9.22 12-14.81 22.16-16.86 11.4-2.3 20.92 2.68 25.2 13.56 1.26 3.21 2.07 6.6 3.08 9.91zm-131.31 64.81-.51-1.06c4.08-2.24 8-5 12.29-6.57 3.82-1.38 5.88-3.24 6.1-7.33.9-16.43 1.9-32.86 2.87-49.28.31-5.33-.73-10.1-4.53-12.4 1.94-2.78 4.89-5.12 5.17-7.75.91-8.74 1.66-17.65.93-26.37a71.22 71.22 0 0 0 -5.41-21c-3.08-7.43-10-9.59-17.76-9.44s-14.26 2.32-18 9.48c-8.13 15.61-8.85 32.52-8 49.61.19 3.49 2.27 5.47 6 5.2 3-.21 6-.55 8.93-.75 1.47-.1 2.95 0 4.42 0l.24 1.85c-4.19 1-8.37 2.08-12.58 3-7.21 1.6-9.67 4.24-10.2 11.44-1.07 14.59-2 29.2-3.08 43.8-.39 5.32-.17 10.34 6.48 13.19-6.5 1.75-7.83 5.89-8.4 10.9-1.72 15.36-3.53 30.72-5.64 46-1 6.9-3 13.72 3.41 19.88-5.43.2-9.8 3.91-13.4 1.19 1.57-3.44 4.35-6.55 3.79-8.8-3.55-14.12-4.61-29-12-42-1.41-2.52-1.81-5.68-2.39-8.59-2.73-13.69-5.3-27.41-8-41.09-1.06-5.27-3.5-9.38-11.15-9.27 5.32-3.15 5.43-7.19 4.16-11.15-3.5-10.91-7-21.83-11.12-32.51a36.38 36.38 0 0 0 -7.32-11.17c-6.1-6.61-13.89-8-22.42-5.62-8 2.19-12.94 7.55-14.57 15.46a36.45 36.45 0 0 0 -.52 13.79c1.81 9.44 4.82 18.65 6.91 28.05 1.43 6.41 3.95 11.15 11.93 11-8.93 4.9-8.75 12-6.49 20.11a84 84 0 0 1 2.71 15.67c.8 9.64 4.08 17.41 14 21-6 4-6.59 5.35-5.6 13.17 1.56 12.2 3.14 24.41 5 36.56.44 2.82 1.48 6.1 3.41 8 1.67 1.59 5 1.43 7.48 2-5.9 9.84-2.54 19.21 10.21 27 1.61-3.63 3-7.33 4.83-10.82 5.78-11.13 11.1-13.26 22.69-8.66 6.78 2.69 13.24 6.16 20 9 6.56 2.79 13.57 4.39 20.35 1.57 6.1-2.54 10.67-.91 15.65 2.56 15.81 11 31.69 21.89 47.77 32.47 16.75 11 26.79 25.16 23.66 46.5 1.47-2.81 3-5.69 2.94-8.51a175.92 175.92 0 0 1 9.56-61.78c1.45-4.32.93-9.51.44-14.21-.45-4.33-.41-15.57.81-20q4.37-15.85 8.45-31.78c1.63-6.36 2-12.72-1-17.91 1.8-2.32 4-3.95 4.53-6 3.69-14.82 7-29.76 10.54-44.61 1.13-4.69.25-8.21-4.94-10.48a14.85 14.85 0 0 0 11.94-10.84c3.3-10.75 6.76-21.55 8.71-32.58.9-5.13-.59-11.27-2.7-16.22-4.19-9.79-13.89-12.51-23.19-7.16a25 25 0 0 0 -7.4 6.51c-9 12.08-14.28 25.88-16.9 40.57a24.45 24.45 0 0 1 -6.7 13.48c-2.16 2.24-4.59 4.64-5.65 7.45-3.65 9.62-6.82 19.43-10 29.21-1.84 5.6-1.59 10.84 3.32 14.37-15.53 14.26-21 32-19.58 53l-16.19-4.84-.34-1.2c5-.22 4.93-3.35 4.69-6.66-.8-11.12-1.51-22.24-2.33-33.36-.44-6-1-11.92-1.6-17.88-.95-9.58-3.93-11.47-13.18-8.45z"/><path d="m715.83 625.65c-12.9-17.47-10.69-44.76 4.37-60.2-9.2 19.12-11.94 38.76-4.37 60.2z"/><path d="m710.44 471.73 17.45 6.41c-6.84-.14-12.7-1.94-17.45-6.41z"/><path d="m774.61 332.39 6.51-2.09c9.25-3 12.23-1.13 13.18 8.45.59 6 1.16 11.92 1.6 17.88.82 11.12 1.53 22.24 2.33 33.36.24 3.31.29 6.44-4.69 6.66l.34 1.2 16.19 4.84c-1.38-21 4-38.71 19.58-53-4.91-3.53-5.16-8.77-3.32-14.37 3.22-9.78 6.39-19.59 10-29.21 1.06-2.81 3.49-5.21 5.65-7.45a24.45 24.45 0 0 0 6.68-13.49c2.62-14.69 7.91-28.49 16.9-40.57a25 25 0 0 1 7.4-6.51c9.3-5.35 19-2.63 23.19 7.16 2.11 4.95 3.6 11.09 2.7 16.22-1.95 11-5.41 21.83-8.71 32.58a14.85 14.85 0 0 1 -11.94 10.84c5.19 2.27 6.07 5.79 4.94 10.48-3.58 14.85-6.85 29.79-10.54 44.61-.51 2.06-2.73 3.69-4.53 6 3 5.19 2.65 11.55 1 17.91q-4.08 15.93-8.45 31.78c-1.22 4.39-1.26 15.63-.81 20 .49 4.7 1 9.89-.44 14.21a175.92 175.92 0 0 0 -9.56 61.78c.08 2.82-1.47 5.7-2.94 8.51 3.13-21.34-6.91-35.48-23.66-46.5-16.08-10.58-32-21.48-47.77-32.47-5-3.47-9.55-5.1-15.65-2.56-6.78 2.82-13.79 1.22-20.35-1.57-6.72-2.86-13.18-6.33-20-9-11.59-4.6-16.91-2.47-22.69 8.66-1.81 3.49-3.22 7.19-4.83 10.82-12.75-7.82-16.11-17.19-10.21-27-2.49-.59-5.81-.43-7.48-2-1.93-1.85-3-5.13-3.41-8-1.87-12.15-3.45-24.36-5-36.56-1-7.82-.35-9.15 5.6-13.17-10-3.55-13.23-11.32-14-21a84 84 0 0 0 -2.71-15.67c-2.26-8.09-2.44-15.21 6.49-20.11-8 .15-10.5-4.59-11.93-11-2.09-9.4-5.1-18.61-6.91-28.05a36.45 36.45 0 0 1 .52-13.79c1.63-7.91 6.59-13.27 14.57-15.46 8.53-2.34 16.32-1 22.42 5.62a36.38 36.38 0 0 1 7.32 11.17c4.11 10.68 7.62 21.6 11.12 32.51 1.27 4 1.16 8-4.16 11.15 7.65-.11 10.09 4 11.15 9.27 2.75 13.68 5.32 27.4 8 41.09.58 2.91 1 6.07 2.39 8.59 7.34 13.07 8.4 27.92 12 42 .56 2.25-2.22 5.36-3.79 8.8 3.6 2.72 8-1 13.4-1.19-6.38-6.16-4.37-13-3.41-19.88 2.11-15.3 3.92-30.66 5.64-46 .57-5 1.9-9.15 8.4-10.9-6.65-2.85-6.87-7.87-6.48-13.19 1-14.6 2-29.21 3.08-43.8.53-7.2 3-9.84 10.2-11.44 4.21-.94 8.39-2 12.58-3l-.24-1.85c-1.47 0-3-.08-4.42 0-3 .2-6 .54-8.93.75-3.69.27-5.77-1.71-6-5.2-.89-17.09-.17-34 8-49.61 3.72-7.16 10.39-9.32 18-9.48s14.68 2 17.76 9.44a71.22 71.22 0 0 1 5.41 21c.73 8.72 0 17.63-.93 26.37-.28 2.63-3.23 5-5.17 7.75 3.8 2.3 4.84 7.07 4.53 12.4-1 16.42-2 32.85-2.87 49.28-.22 4.09-2.28 5.95-6.1 7.33-4.32 1.56-8.21 4.33-12.29 6.57zm-12.15 66.83.07 1.38h17v-1.38z" fill="#fff"/><path d="m762.46 399.22h17v1.38h-17z"/></g></svg>