<svg viewBox="0 0 344 480" xmlns="http://www.w3.org/2000/svg"><g transform="translate(-732.03 -148.71)"><path d="m843.7 628.71h-111.7v-480h344v480h-227.31c.56-3.84 1.13-7.67 1.88-12.73 1.11 2.58 1.73 4 2.12 4.92l14.13-4.27c-5.66-3.21-11.05-4.87-16.24-7-17.4-7.28-29.64-19.39-34.22-38.16a119.42 119.42 0 0 1 -3-39.61c1-10.31 2-20.87-2.74-30.42-5.85-11.76-5.55-23.65-3.28-36 .84-4.54 1.77-9.35 1.12-13.82-1.93-13.45 2.37-24.16 12.49-32.86a13.44 13.44 0 0 0 1.9-2.58l-1.48-1.3c-3 2.91-6.12 5.7-9 8.77-4.23 4.57-8.21 4.68-12-.24a23.51 23.51 0 0 1 -3.45-6.58q-3.5-10.11-6.55-20.37c-1.69-5.62.08-10 5.14-13.28 1.53-1 3.14-1.9 5.11-3.08-4.13-2-7.08-1.32-9.62 1.44-2.74 3-5.44 2.59-7.29-.68-6.71-11.98-13.71-23.86-19.71-36.17-3.28-6.66-1.24-9.88 4.62-14.41 4-3.11 7.29-7.21 10.9-10.87l-1.56-1.81c-4.27 3.19-8.6 6.31-12.81 9.58-4.79 3.72-7 3.6-10.86-1.1-9.46-11.45-13.66-24.6-12.21-39.39a15.4 15.4 0 0 1 2.85-7.24c6.82-9.19 19.26-8.79 27.63 1.78 10.81 13.65 20.93 27.88 30.86 42.2 7.27 10.49 13 22.14 20.82 32.18 8.86 11.38 19.09 21.66 24.23 35.55a15 15 0 0 0 2.21 3.3c9.22 12.71 15.71 26.54 17.91 42.25.38 2.69 1.22 6.11 3.1 7.65 7 5.78 11 13.63 15.72 21 5.66 8.78 13.87 11.32 23.84 8.22 1.43-.45 2.83-1 4.29-1.32 3.35-.72 6.1.33 7.26 3.65 2.84 8.09 4.26 16-2.14 23.49-1.81 2.11-2.38 5.29-3.52 8 4.22-3.15 7.15-7.47 11.21-9.31s9.15-1.11 13.09-1.46c-10.56-9-10.56-9-11.7-13.7l13.16 2.54c-2.94-2.31-6.33-3.58-9.35-5.44s-6-3.74-8-6.43c-3.34-4.72-1.12-8.7 4.55-9.45 2-.27 4-.72 6-1.09l-.09-2c-3.09 0-6.33-.6-9.24.11a47 47 0 0 1 -23.17-.32c-24.23-6.17-38.16-30.68-30.87-54.14 2.49-8 8-13.11 14.92-13.69q-2.16 8.86-4.33 17.69a8.52 8.52 0 0 0 2.32-4.53c1.94-7.13 4.84-9.59 12.18-8.78a40.54 40.54 0 0 1 12.78 3.7c10.84 5.15 11.39 6.95 8.51 18.68a107.43 107.43 0 0 0 -1.57 10.77l1.55.26c3-5.75 8-10.6 6.86-18.06-.91-5.81 0-6.94 5.81-8.1 9.17-1.82 9.17-1.82 10.83 4.49 2.85-5.67 3-5.34 8.45-1.58 8 5.57 16.4 10.64 24.79 15.65 7.7 4.59 15.56 8.91 23.44 13.18 7.3 3.95 11.68 9.2 9 18.08 0 .13.4.39.61.59 8.53-3.58 10.84-2.09 11.35 7.32.07 1.16 0 2.33.16 3.49.79 7.16 1.62 14.32 2.43 21.48l1.81.14c.38-1.31 1.16-2.65 1.07-3.93-.42-5.79-1.32-11.56-1.63-17.36-.82-15.82-7.3-27-22.71-33.58-16.92-7.22-33.28-16-47.66-27.73a20.44 20.44 0 0 0 -15.7-4.82c-4.79.48-9.56 1.13-14.35 1.62-4 .41-7.7-.57-8.78-4.78-2.4-9.32-4.47-18.72-6.31-28.15-.75-3.81 1.55-6.43 5.25-7.31 3.87-.93 7.83-1.43 11.74-2.18a32.28 32.28 0 0 0 3.31-1l-.07-2c-2.69-.23-5.41-.77-8.07-.58s-5.14 1.31-7.75 1.71c-4.8.72-5.5-.3-4.89-5.06 1-7.73 2-15.49 2.36-23.26.43-8.63 0-17.3.3-25.93.3-7.8 3.12-9.78 10.85-9.19a128.87 128.87 0 0 0 16.9.33c4.36-.24 8.66-1.43 13-2.2l-.34-1.84c-2.56.3-5.42 0-7.63 1-5.3 2.55-10.54 2.44-16 1.14a61.32 61.32 0 0 0 -10.26-1.9c-3.22-.18-4.59-1.6-4.56-4.55.17-16.46.2-32.92.71-49.36.2-6.68 2.17-8.25 8.74-9.33 3.12-.52 6.25-.93 9.38-1.39l-.15-2c-2.27 0-4.56-.13-6.83 0-7.66.52-10.29-2-10.16-9.73.14-8.14.27-16.29.12-24.43a35.55 35.55 0 0 1 9.25-24.62c7.08-8.16 16.33-8.84 26.08-6.39 8.81 2.2 13 8.89 13.53 17.17.88 13.56.85 27.19.84 40.79 0 4.82-3.32 6.51-7.92 5.82-2.79-.41-4.78.68-4.64 3.65.16 3.32 2.77 2.57 4.9 2.35 6.42-.69 8 .19 8.24 6.64.37 11.11.13 22.25.09 33.38 0 8.14-1.71 16.65.1 24.35 4 17.06 6.37 34.08 6 51.63-.12 6 .23 11.25-8.16 13.89l25.94 5.54c-2.93-3-6.86-5.25-7.23-8-.47-3.39 2-7.19 3.19-10.81.2-.63.44-1.25.62-1.89q4.41-15.58 8.8-31.17c1.11-4 2.73-6.47 7.79-5.13 2.44.65 5.42-.79 8.16-1.28a28 28 0 0 0 -8.56-2.32c-4.33-.73-6.12-3.36-4.79-7.52 4.57-14.22 9.16-28.43 14-42.55 1.72-5 4.92-8.89 12-9-5.13-3.22-6.27-7-4.35-11.36 3.4-7.75 6.79-15.52 10.67-23 3.53-6.84 9.55-10.95 17-12.89 9.31-2.43 16.6 1.81 19.06 11.11a35.35 35.35 0 0 1 1 6.88c.8 14.13-2.92 27.29-8.53 40.08a62.18 62.18 0 0 0 -4.11 11.71c-2.93 13.62-5.41 27.32-8.27 41-1.84 8.78-2 8.75-10.33 5.89-.17-.05-.47.29-.88.56 1.67 1.89 3.35 3.7 4.93 5.59a15 15 0 0 1 3.36 12.58q-3.27 19.67-6.52 39.34c-1 6.11-2.89 11.53-11.58 12.07 9 4.18 11.29 10.9 10.89 18.68-.75 14.27-1.84 28.53-2.86 42.79-1.21 16.74-2 33.54-3.91 50.2-2 17.15-6 34.09-7.69 51.26-3.77 37.44-31.79 63.36-69.2 63-1.84 0-3.68 0-5.51 0a11 11 0 0 0 5.07 3.75c7.94 2.9 15.76 1.36 23.46-1 4.54-1.4 8.92-3 12.26 2.67.57-2.42.93-4 1.3-5.58l1.29.19c0 2.75-.36 5.56.14 8.21.29 1.53 1.95 2.8 3 4.18 1.33-1.36 3.12-2.51 3.87-4.14.62-1.35-.35-3.34 0-4.9 1-4.44 1.9-9 3.68-13.12 1.2-2.8 3.75-5 5.82-7.42 13.6-15.73 21.72-33.47 21.9-54.75.14-17 3.22-33.68 8-50.08 1.68-5.79 2.07-12.06 2.37-18.14.56-11.09 0-22.26 1-33.28 1.35-14 4-27.92 1.57-42.14-.77-4.51-.44-9.32 0-13.93 4.94-50.41 12.65-100.23 30.82-147.91a42.08 42.08 0 0 0 2.44-16.56c-.52-10.64-5.36-19.36-15.55-23.67s-19.78-1.37-27.57 5.93a41.5 41.5 0 0 0 -9.53 13.16c-5.8 13.21-11.2 26.63-16 40.24-5.19 14.88-9.71 30-14.07 45.16-3.91 13.54-7.18 27.26-10.82 40.87a19.87 19.87 0 0 1 -2.05 4.05c-1.6-12.37-3.37-24.53-4.68-36.73-1.21-11.21-2.73-22.47-2.71-33.71 0-29.92 1-59.82 1.25-89.74.1-10.73-4.46-19.2-14.15-24.63-9.85-5.53-19.31-10.32-30.87-3.28-7.59 4.62-14 9.81-16.49 18.38a78 78 0 0 0 -3 18.09c-.76 16.1-.88 32.23-1.4 48.34-.38 11.78-1.12 23.54-1.49 35.32-.6 19.2-1 38.4-1.55 58.42-13.32-8.32-26.42-4.85-39.64-.76-14 4.33-24.66 12.07-29.66 27.28-5.88-7.51-11.47-14.92-15.94-22.95-10.65-19.14-21.58-37.95-35.86-54.54a71.42 71.42 0 0 0 -9.83-9.84c-7.3-5.7-15.33-6.67-23.77-2.26-9 4.69-15.44 11-14.67 22.16 1 14.3 6 27.07 14.29 38.73 2.85 4 6.13 8.18 7.41 12.78a106 106 0 0 0 17.84 35.95 82.06 82.06 0 0 1 14.66 32.4 38.23 38.23 0 0 0 6.29 14.38c5.46 7.21 7.87 14.92 7.12 23.72-.53 6.12-1.46 12.21-2.21 18.31-1.17 9.44-2.55 19 1.49 28 5 11.24 6.31 22.95 6.08 35.05-.17 8.81-.33 17.64.08 26.43.9 19.51 7 36.33 24.34 47.7 8.4 5.49 12.76 13.84 12.46 24.2zm58.37-32.18c-9.33-30.71-8.7-26.87-1.93-62.93-12.72 24.83-11.74 46.17 1.93 62.93zm-7.33-163.93c5.74 5.59 9.29 5.77 12.23.66z" fill="#fff"/><path d="m843.7 628.71c.29-10.36-4.06-18.67-12.46-24.19-17.32-11.37-23.44-28.19-24.34-47.7-.41-8.79-.25-17.62-.08-26.43.23-12.1-1.05-23.81-6.08-35.05-4-9-2.66-18.59-1.49-28 .75-6.1 1.68-12.19 2.21-18.31.75-8.8-1.66-16.51-7.12-23.72a38.23 38.23 0 0 1 -6.29-14.38 82.06 82.06 0 0 0 -14.66-32.4 106 106 0 0 1 -17.84-35.95c-1.28-4.6-4.56-8.75-7.41-12.78-8.24-11.66-13.29-24.43-14.29-38.73-.77-11.13 5.67-17.47 14.67-22.16 8.44-4.41 16.47-3.44 23.77 2.26a71.42 71.42 0 0 1 9.83 9.84c14.28 16.61 25.21 35.42 35.83 54.47 4.47 8 10.06 15.44 15.94 22.95 5-15.21 15.67-22.95 29.66-27.28 13.22-4.09 26.32-7.56 39.64.76.52-20 .95-39.22 1.55-58.42.37-11.78 1.11-23.54 1.49-35.32.52-16.11.64-32.24 1.4-48.34a78 78 0 0 1 3-18.09c2.5-8.57 8.9-13.76 16.49-18.38 11.56-7 21-2.25 30.87 3.28 9.69 5.43 14.25 13.9 14.15 24.63-.27 29.92-1.21 59.82-1.25 89.74 0 11.24 1.5 22.5 2.71 33.71 1.31 12.2 3.08 24.36 4.68 36.73a19.87 19.87 0 0 0 2.05-4.05c3.64-13.61 6.91-27.33 10.82-40.87 4.36-15.15 8.88-30.28 14.07-45.16 4.75-13.61 10.15-27 16-40.24a41.5 41.5 0 0 1 9.53-13.16c7.79-7.3 17.27-10.28 27.57-5.93s15 13 15.55 23.67a42.08 42.08 0 0 1 -2.44 16.56c-18.17 47.68-25.88 97.5-30.82 147.91-.45 4.61-.78 9.42 0 13.93 2.42 14.22-.22 28.1-1.57 42.14-1.06 11-.47 22.19-1 33.28-.3 6.08-.69 12.35-2.37 18.14-4.76 16.4-7.84 33.07-8 50.08-.18 21.28-8.3 39-21.9 54.75-2.07 2.39-4.62 4.62-5.82 7.42-1.78 4.14-2.67 8.68-3.68 13.12-.36 1.56.61 3.55 0 4.9-.75 1.63-2.54 2.78-3.87 4.14-1.05-1.38-2.71-2.65-3-4.18-.5-2.65-.14-5.46-.14-8.21l-1.29-.19c-.37 1.58-.73 3.16-1.3 5.58-3.34-5.66-7.72-4.07-12.26-2.67-7.7 2.38-15.52 3.92-23.46 1a11 11 0 0 1 -5.07-3.75h5.51c37.41.39 65.43-25.53 69.2-63 1.73-17.17 5.69-34.11 7.69-51.26 1.94-16.66 2.7-33.46 3.91-50.2 1-14.26 2.11-28.52 2.86-42.79.4-7.78-1.91-14.5-10.89-18.68 8.69-.54 10.56-6 11.58-12.07q3.25-19.67 6.52-39.34a15 15 0 0 0 -3.36-12.58c-1.58-1.89-3.26-3.7-4.93-5.59.41-.27.71-.61.88-.56 8.32 2.86 8.49 2.89 10.33-5.89 2.86-13.63 5.34-27.33 8.27-41a62.18 62.18 0 0 1 4.11-11.71c5.61-12.79 9.33-25.95 8.53-40.08a35.35 35.35 0 0 0 -1-6.88c-2.46-9.3-9.75-13.54-19.06-11.11-7.41 1.94-13.43 6-17 12.89-3.88 7.52-7.27 15.29-10.67 23-1.92 4.37-.78 8.14 4.35 11.36-7 .1-10.24 4-12 9-4.87 14.12-9.46 28.33-14 42.55-1.33 4.16.46 6.79 4.79 7.52a28 28 0 0 1 8.56 2.32c-2.74.49-5.72 1.93-8.16 1.28-5.06-1.34-6.68 1.16-7.79 5.13q-4.4 15.58-8.8 31.17c-.18.64-.42 1.26-.62 1.89-1.2 3.62-3.66 7.42-3.19 10.81.37 2.71 4.3 4.93 7.23 8l-25.94-5.54c8.39-2.64 8-7.87 8.16-13.89.36-17.55-2-34.57-6-51.63-1.81-7.7-.13-16.21-.1-24.35 0-11.13.28-22.27-.09-33.38-.22-6.45-1.82-7.33-8.24-6.64-2.13.22-4.74 1-4.9-2.35-.14-3 1.85-4.06 4.64-3.65 4.6.69 7.91-1 7.92-5.82 0-13.6 0-27.23-.84-40.79-.53-8.28-4.72-15-13.53-17.17-9.75-2.45-19-1.77-26.08 6.39a35.55 35.55 0 0 0 -9.25 24.62c.15 8.14 0 16.29-.12 24.43-.13 7.69 2.5 10.25 10.16 9.73 2.27-.16 4.56 0 6.83 0l.15 2c-3.13.46-6.26.87-9.38 1.39-6.57 1.08-8.54 2.65-8.74 9.33-.51 16.44-.54 32.9-.71 49.36 0 2.95 1.34 4.37 4.56 4.55a61.32 61.32 0 0 1 10.26 1.9c5.48 1.3 10.72 1.41 16-1.14 2.21-1.05 5.07-.72 7.63-1l.34 1.84c-4.32.77-8.62 2-13 2.2a128.87 128.87 0 0 1 -16.9-.33c-7.73-.59-10.55 1.39-10.85 9.19-.34 8.63.13 17.3-.3 25.93-.39 7.77-1.37 15.53-2.36 23.26-.61 4.76.09 5.78 4.89 5.06 2.61-.4 5.14-1.52 7.75-1.71s5.38.35 8.07.58l.07 2a32.28 32.28 0 0 1 -3.31 1c-3.91.75-7.87 1.25-11.74 2.18-3.7.88-6 3.5-5.25 7.31 1.84 9.43 3.91 18.83 6.31 28.15 1.08 4.21 4.78 5.19 8.78 4.78 4.79-.49 9.56-1.14 14.35-1.62a20.44 20.44 0 0 1 15.69 4.85c14.38 11.77 30.74 20.51 47.66 27.73 15.41 6.57 21.89 17.76 22.71 33.58.31 5.8 1.21 11.57 1.63 17.36.09 1.28-.69 2.62-1.07 3.93l-1.81-.14c-.81-7.16-1.64-14.32-2.43-21.48-.13-1.16-.09-2.33-.16-3.49-.51-9.41-2.82-10.9-11.35-7.32-.21-.2-.64-.46-.61-.59 2.67-8.88-1.71-14.13-9-18.08-7.88-4.27-15.74-8.59-23.44-13.18-8.39-5-16.77-10.08-24.79-15.65-5.41-3.76-5.6-4.09-8.45 1.58-1.66-6.31-1.66-6.31-10.83-4.49-5.78 1.16-6.72 2.29-5.81 8.1 1.17 7.46-3.89 12.31-6.86 18.06l-1.55-.26a107.43 107.43 0 0 1 1.57-10.77c2.88-11.73 2.33-13.53-8.51-18.68a40.54 40.54 0 0 0 -12.78-3.7c-7.34-.81-10.24 1.65-12.18 8.78a8.52 8.52 0 0 1 -2.32 4.53q2.18-8.83 4.33-17.69c-6.91.58-12.43 5.68-14.92 13.69-7.29 23.46 6.64 48 30.87 54.14a47 47 0 0 0 23.17.32c2.91-.71 6.15-.11 9.24-.11l.09 2c-2 .37-4 .82-6 1.09-5.67.75-7.89 4.73-4.55 9.45 1.91 2.69 5.06 4.64 8 6.43s6.41 3.13 9.35 5.44l-13.16-2.54c1.14 4.67 1.14 4.67 11.7 13.7-3.94.35-9.08-.35-13.09 1.46s-7 6.16-11.21 9.31c1.14-2.69 1.71-5.87 3.52-8 6.4-7.46 5-15.4 2.14-23.49-1.16-3.32-3.91-4.37-7.26-3.65-1.46.32-2.86.87-4.29 1.32-10 3.1-18.18.56-23.84-8.22-4.76-7.38-8.68-15.23-15.72-21-1.88-1.54-2.72-5-3.1-7.65-2.2-15.71-8.69-29.54-17.91-42.25a15 15 0 0 1 -2.21-3.3c-5.14-13.89-15.37-24.17-24.23-35.55-7.83-10-13.55-21.69-20.82-32.18-9.93-14.32-20-28.55-30.86-42.2-8.37-10.57-20.81-11-27.63-1.78a15.4 15.4 0 0 0 -2.85 7.24c-1.45 14.79 2.75 27.94 12.21 39.39 3.89 4.7 6.07 4.82 10.86 1.1 4.21-3.27 8.54-6.39 12.81-9.58l1.56 1.81c-3.61 3.66-6.87 7.76-10.9 10.87-5.86 4.53-7.9 7.75-4.62 14.41 6.07 12.31 13 24.19 19.8 36.15 1.85 3.27 4.55 3.65 7.29.68 2.54-2.76 5.49-3.41 9.62-1.44-2 1.18-3.58 2.07-5.11 3.08-5.06 3.32-6.83 7.66-5.14 13.28q3.08 10.24 6.55 20.37a23.51 23.51 0 0 0 3.45 6.58c3.78 4.92 7.76 4.81 12 .24 2.83-3.07 6-5.86 9-8.77l1.48 1.3a13.44 13.44 0 0 1 -1.9 2.58c-10.12 8.7-14.42 19.41-12.49 32.86.65 4.47-.28 9.28-1.12 13.82-2.27 12.34-2.57 24.23 3.28 36 4.75 9.55 3.7 20.11 2.74 30.42a119.42 119.42 0 0 0 3 39.61c4.58 18.77 16.82 30.88 34.22 38.16 5.19 2.16 10.58 3.82 16.24 7l-14.13 4.27c-.39-.89-1-2.34-2.12-4.92-.75 5.06-1.32 8.89-1.88 12.73zm21.81-218.46c3.49-5.19 6.49-10.56 10.31-15.25 4.51-5.43 8.38-5.57 15.11-3.21 6.3 2.21 12.86 3.67 20.3 5.74-1.93-7.77-3.69-14.46-5.23-21.21-2.52-11-5.19-21.93-7.22-33-1.2-6.52-4.42-10.36-11.06-10.35-12 0-23.3 2.88-33.54 9.43-8.52 5.44-11.71 13-10 23 2.88 17.29 13.08 30.9 21.33 44.85zm46.66 57.3-24.73-11.3c6.56 12.93 12.79 15.6 24.73 11.3z"/><path d="m902.07 596.53c-13.67-16.76-14.65-38.1-1.93-62.93-6.77 36.06-7.4 32.22 1.93 62.93z"/><path d="m894.74 432.6 12.23.66c-2.97 5.11-6.49 4.93-12.23-.66z"/><g fill="#fff"><path d="m865.51 410.25c-8.25-13.95-18.45-27.56-21.36-44.82-1.68-10 1.51-17.54 10-23 10.24-6.55 21.52-9.41 33.54-9.43 6.64 0 9.86 3.83 11.06 10.35 2 11.06 4.7 22 7.22 33 1.54 6.75 3.3 13.44 5.23 21.21-7.44-2.07-14-3.53-20.3-5.74-6.73-2.36-10.6-2.22-15.11 3.21-3.79 4.66-6.79 10.03-10.28 15.22z"/><path d="m912.17 467.55c-11.94 4.3-18.14 1.63-24.73-11.3z"/></g></g></svg>