<svg viewBox="0 0 358 480" xmlns="http://www.w3.org/2000/svg"><g transform="translate(-508.57 -147.44)"><path d="m843.63 147.44h22.94v480h-358v-480h326.08c-1.73.89-3.44 1.86-5.21 2.66-14.48 6.6-23.11 17.73-26.76 33.23-3.23 13.72-6.95 27.34-10.86 40.89s-7.29 27-8.68 41.27c-1.45 14.9-6.53 29.44-10 44.13l-2.15.12c-3.31-7.73-6.88-15.36-9.87-23.21-3.22-8.49-9.12-13-18-14.48-16.82-2.78-32.36.46-46.9 9.12-1.5.89-3 1.69-5.26 2.92-.82-3.13-1.64-5.44-2-7.83-2.65-16.13-6.65-31.84-13.24-46.89-7.45-17-14.64-34.18-21.74-51.36-4-9.66-10.91-14.47-21.16-14.08-23.38.87-38.62 18.59-37.12 42.77.91 14.54 6.94 27.19 13.41 39.83a40.48 40.48 0 0 1 4.22 13.06c2.67 21.41 6.67 42.31 15.27 62.23 4 9.24 3.53 19.25 4 30.36-2.93-2.8-5-4.68-6.93-6.64-20.86-20.76-37-45.18-53.9-69.06a162.65 162.65 0 0 0 -18-21.83c-7.55-7.5-17-7.37-26.47-3.33s-15.22 10.9-15.76 21.15c-.28 5.37 0 11.28 1.94 16.14 3.79 9.32 8.79 18.18 13.66 27 3.52 6.39 8.57 12.06 11.34 18.72 11.52 27.73 26 53.83 41.61 79.41a63.52 63.52 0 0 1 9.27 39.09 111.18 111.18 0 0 0 1.56 26.68c4.23 25.38 9.4 50.62 13.7 76 3.4 20.1 13.17 35.45 30.69 46.12 3 1.84 5.44 5.75 6.7 9.22 1.78 4.9 2.23 10.27 3.21 15.29 4.66 1.25 5.82-1.29 5.72-4.72-.07-2.29-.94-4.55-1.19-6.85a53.39 53.39 0 0 1 0-5.8l2-.3q2.16 5 4.33 9.92c.49-8.39.48-8.34 8.62-6.88a31.17 31.17 0 0 0 5.06 0c-1.5-6.16-6.43-6.71-10.77-7.87-22.08-5.87-37.44-19.3-44.23-41.19-2.86-9.24-3.55-19.18-5.06-28.83-1.33-8.5-1.37-17.36-3.82-25.51-8.86-29.59-11-59.55-7.25-90.27-4.54 2.14-7-.59-9.2-4.36-4.28-7.31-8.55-14.65-13.26-21.69-5.07-7.6-6.43-14.28 2-20.89 2.36-1.85 3.93-4.41 1.48-8.18-1.75 2.56-3.4 4.63-4.67 6.92-3.22 5.82-5.86 6.29-9 .49q-10.06-18.58-19-37.77c-2.92-6.28-1.73-8 4.31-11.52.93-.54 1.26-2.14 1.86-3.25-1.5-.67-3-1.94-4.51-1.84-1.14.07-2.37 1.68-3.23 2.85-1.79 2.47-3.37 2.39-5 0-5-7.42-10.37-14.66-15-22.34a41.15 41.15 0 0 1 -5.76-23.4c.34-7.48 3.68-12.93 10.8-15.87s13.72-1.94 19.35 3.38a54.8 54.8 0 0 1 7.22 8.23c4.49 6.39 8.72 13 13 19.51 2.39 3.67 7.06 6.87 1.46 12.42 7.4-1.65 7.3-1.59 10.84 3.85a74.05 74.05 0 0 0 6.36 8.29c6.68 7.61 13.65 15 12.86 27.09 5-4.3 7.89-1.45 10.45 1.53 6.71 7.82 13.16 15.86 19.88 23.68 4.77 5.55 8.11 11.17 2.18 18.44l1.58.73 18-13.68c-9.13 1.06-9.48.65-10.84-8.29s-3-18-4.79-27c-3.32-16.84-3.53-20.26 15.72-29.5.74-.36 1.54-.6 2.32-.89l3.08-1.13c-7.79-2.33-12.24 1.18-16.75 5.12-5.7 5-9.21 3.94-12-3.08a26.76 26.76 0 0 1 -1.4-4.25c-2.6-12.52-5.58-25-7.6-37.59-1.75-10.95.91-14.68 11.28-19.17.37-.16.6-.66.89-1l-.17-1.37c-2 .13-4.28-.37-5.81.51-6.84 3.9-9.06 3.51-13.1-3.31a68.48 68.48 0 0 1 -9.1-45.56c1.45-10.42 7.61-17.65 17.17-21.58 12.69-5.23 20.38-1.38 25.44 11.35 4.9 12.34 10.44 24.43 15.62 36.66 1 2.42 2.56 5.07 2.3 7.45s-2.45 4.51-3.73 6.62c7.14-.61 7.36-.69 8.47 2.41 7.79 21.61 15.26 43.31 15.26 66.71 0 19.37 3.56 38 11.68 55.68 1.9 4.15 3.43 8.47 5.28 13.08-2.36.27-4 .39-5.61.66-9.77 1.58-17.29 6.5-20.47 16.05-6.24 18.72-4.09 36.56 8.1 52.36a21.26 21.26 0 0 0 11.42 7.12c9.86 2.16 20 3 30 4.4 16.57 2.24 20.76 10 13.6 25.17a27.78 27.78 0 0 0 -2.47 6c-.91 4.42-1.43 8.92-2.11 13.39l1.56.35 4.51-13.16 6.32 6.42c-1.8-11.07-1.79-12.84.7-16.69l14.17 9 1.4-2c-3-2.38-6-4.81-9.1-7.11-4.83-3.61-7.65-7.92-5.14-14.13 1.08-2.66-.12-3.67-2.4-4.92-11.65-6.38-23.68-10.2-37.29-10.77-14.68-.62-25.67-8.71-29.1-23.66a82.16 82.16 0 0 1 -1.48-24.65c.7-8.79 6-15.51 14.54-18.66 10.23-3.78 20-.38 30.56 2.32l-2.89 1.68.32 1.21c8.7-1.08 17.39-2.41 26.12-3.13a42.6 42.6 0 0 1 12.69.88c4 .88 5.2 3.73 3.94 8.07-1.42 4.86-1.89 10-2.88 15.68 3.31-6.71 6.26-12.7 9.53-19.35 13.94 16.52 32.87 21.33 50.46 28.34 5.61 2.24 10.16 4.81 12.82 10.12 3.5 7 6.94 14 10 21.17 5.41 12.61 4.85 24.9-.89 37.59a227 227 0 0 0 -12.36 34.67c-3.42 12.81-5.16 26.06-7.77 39.08-3.23 16.07-11.63 28.08-27.31 34.25-12.83 5-26 8.21-39.9 6.87-2-.19-4.1 0-6.16 0l-.44 1.66c2.59 1 5.11 2.34 7.78 2.85a65.48 65.48 0 0 0 34.84-3.08c4.2-1.52 7.87-1.9 9.57 3.28 1.26-2.79 2.46-5.44 3.65-8.1 1.71 4.5 2 8.66 2.94 12.67.4 1.69 2.24 3 3.43 4.54.89-1.61 2.19-3.12 2.59-4.85a20.88 20.88 0 0 0 0-6c-.47-6.73 1.54-12.36 5.39-18.12a81.72 81.72 0 0 0 10.41-21.8c2.55-8.69 3-18 4.61-27 3.43-19.32 11.36-37.13 18.88-55.05a34 34 0 0 0 -.46-28.48c-2.54-5.59-5-11.22-7.26-16.94-4.07-10.38-6.33-21.1-3.88-32.21s2.62-22.38 1.59-33.73a139.84 139.84 0 0 1 -.73-20.35c.85-15.24 3.12-30.44 3.26-45.67a341.77 341.77 0 0 1 6.85-67.35c3.44-16.42 7.55-32.7 10.79-49.15 2.55-12.94-1.64-23.6-12.82-31.15-2.59-1.76-5.1-3.65-7.64-5.48zm-128.29 444.3c-1.4-1.16-2.84-2.27-4.2-3.47-13.77-12.15-25.48-33.62-11.49-57.73 2.65-4.57 4.58-9.57 6.75-14.41a10.79 10.79 0 0 0 .42-2.82l-1.5-.5c-4.71 9.82-9.22 19.75-14.18 29.44a27.15 27.15 0 0 0 -1.79 21.75c4.32 13.09 13.19 22.27 25.99 27.74zm-12-129.82-1.08-2a115.06 115.06 0 0 0 -62.66 35.3c5.16-3.18 10-6.87 15.07-10.23s10.3-6.7 15.68-9.63a164.65 164.65 0 0 1 16.65-7.86c5.32-2.17 10.9-3.74 16.37-5.58zm17.92-33.26h-25.43c4.41 4.46 17.56 4.34 25.46 0zm39.27-39.84-2.46-.49q-2.58 10.73-5.15 21.46l1.58.37zm-32.49 28 1.69.34q2.47-12.13 5-24.26l-1.79-.37zm25.63-26.82c-5 6.27-7.25 15.55-5.75 21.52 1.94-7.31 3.84-14.44 5.75-21.52zm-62.87 2.32-1.53-.16q-.49 10.9-1 21.83l1.37.06z" fill="#fff"/><path d="m843.63 147.44c2.54 1.83 5 3.72 7.64 5.47 11.18 7.55 15.37 18.21 12.82 31.15-3.24 16.45-7.35 32.73-10.79 49.15a341.77 341.77 0 0 0 -6.85 67.35c-.14 15.23-2.41 30.43-3.26 45.67a139.84 139.84 0 0 0 .73 20.35c1 11.35.89 22.54-1.59 33.73s-.19 21.83 3.88 32.21c2.24 5.72 4.72 11.35 7.26 16.94a34 34 0 0 1 .46 28.48c-7.52 17.92-15.45 35.73-18.88 55.05-1.6 9-2.06 18.28-4.61 27a81.72 81.72 0 0 1 -10.44 21.84c-3.85 5.76-5.86 11.39-5.39 18.12a20.88 20.88 0 0 1 0 6c-.4 1.73-1.7 3.24-2.59 4.85-1.19-1.51-3-2.85-3.43-4.54-1-4-1.23-8.17-2.94-12.67-1.19 2.66-2.39 5.31-3.65 8.1-1.7-5.18-5.37-4.8-9.57-3.28a65.48 65.48 0 0 1 -34.84 3.08c-2.67-.51-5.19-1.88-7.78-2.85l.44-1.66c2.06 0 4.13-.16 6.16 0 13.94 1.34 27.07-1.83 39.9-6.87 15.68-6.17 24.08-18.18 27.31-34.25 2.61-13 4.35-26.27 7.77-39.08a227 227 0 0 1 12.36-34.67c5.74-12.69 6.3-25 .89-37.59-3.08-7.17-6.52-14.19-10-21.17-2.66-5.31-7.21-7.88-12.82-10.12-17.59-7-36.52-11.82-50.46-28.34-3.27 6.65-6.22 12.64-9.53 19.35 1-5.68 1.46-10.82 2.88-15.68 1.26-4.34 0-7.19-3.94-8.07a42.6 42.6 0 0 0 -12.69-.88c-8.73.72-17.42 2-26.12 3.13l-.32-1.21 2.89-1.68c-10.56-2.7-20.33-6.1-30.56-2.32-8.56 3.15-13.84 9.87-14.54 18.66a82.16 82.16 0 0 0 1.48 24.65c3.43 14.95 14.42 23 29.1 23.66 13.61.57 25.64 4.39 37.29 10.77 2.28 1.25 3.48 2.26 2.4 4.92-2.51 6.21.31 10.52 5.14 14.13 3.09 2.3 6.07 4.73 9.1 7.11l-1.4 2-14.17-9c-2.49 3.85-2.5 5.62-.7 16.69l-6.32-6.42-4.51 13.16-1.56-.35c.68-4.47 1.2-9 2.11-13.39a27.78 27.78 0 0 1 2.47-6c7.16-15.19 3-22.93-13.6-25.17-10-1.36-20.19-2.24-30-4.4a21.26 21.26 0 0 1 -11.42-7.12c-12.19-15.8-14.34-33.64-8.1-52.36 3.18-9.55 10.7-14.47 20.47-16.05 1.61-.27 3.25-.39 5.61-.66-1.85-4.61-3.38-8.93-5.28-13.08-8.12-17.69-11.67-36.31-11.68-55.68 0-23.4-7.47-45.1-15.26-66.71-1.11-3.1-1.33-3-8.47-2.41 1.28-2.11 3.48-4.26 3.73-6.62s-1.27-5-2.3-7.45c-5.18-12.23-10.72-24.32-15.62-36.66-5.06-12.73-12.75-16.58-25.44-11.35-9.56 3.93-15.72 11.16-17.17 21.58a68.48 68.48 0 0 0 9.1 45.56c4 6.82 6.26 7.21 13.1 3.31 1.53-.88 3.85-.38 5.81-.51l.17 1.37c-.29.34-.52.84-.89 1-10.37 4.49-13 8.22-11.28 19.17 2 12.61 5 25.07 7.6 37.59a26.76 26.76 0 0 0 1.4 4.25c2.76 7 6.27 8.06 12 3.08 4.51-3.94 9-7.45 16.75-5.12l-3.08 1.13c-.78.29-1.58.53-2.32.89-19.25 9.24-19 12.66-15.72 29.5 1.76 9 3.4 18 4.79 27s1.71 9.35 10.84 8.29l-18 13.68-1.58-.73c5.93-7.27 2.59-12.89-2.18-18.44-6.72-7.82-13.17-15.86-19.88-23.68-2.56-3-5.47-5.83-10.45-1.53.79-12.08-6.18-19.48-12.86-27.09a74.05 74.05 0 0 1 -6.36-8.29c-3.54-5.44-3.44-5.5-10.84-3.85 5.6-5.55.93-8.75-1.46-12.42-4.27-6.54-8.5-13.12-13-19.51a54.8 54.8 0 0 0 -7.22-8.23c-5.63-5.32-12.13-6.36-19.35-3.38s-10.46 8.39-10.8 15.87a41.15 41.15 0 0 0 5.76 23.4c4.62 7.68 10 14.92 15 22.34 1.64 2.43 3.22 2.51 5 0 .86-1.17 2.09-2.78 3.23-2.85 1.46-.1 3 1.17 4.51 1.84-.6 1.11-.93 2.71-1.86 3.25-6 3.51-7.23 5.24-4.31 11.52q8.94 19.15 19 37.77c3.14 5.8 5.78 5.33 9-.49 1.27-2.29 2.92-4.36 4.67-6.92 2.45 3.77.88 6.33-1.48 8.18-8.42 6.61-7.06 13.29-2 20.89 4.71 7 9 14.38 13.26 21.69 2.21 3.77 4.66 6.5 9.2 4.36-3.72 30.72-1.61 60.68 7.25 90.27 2.45 8.15 2.49 17 3.82 25.51 1.51 9.65 2.2 19.59 5.06 28.83 6.79 21.89 22.15 35.32 44.23 41.19 4.34 1.16 9.27 1.71 10.77 7.87a31.17 31.17 0 0 1 -5.06 0c-8.14-1.46-8.13-1.51-8.62 6.88q-2.18-5-4.33-9.92l-2 .3a53.39 53.39 0 0 0 0 5.8c.25 2.3 1.12 4.56 1.19 6.85.1 3.43-1.06 6-5.72 4.72-1-5-1.43-10.39-3.21-15.29-1.26-3.47-3.67-7.38-6.7-9.22-17.52-10.67-27.29-26-30.69-46.12-4.3-25.37-9.47-50.61-13.7-76a111.18 111.18 0 0 1 -1.56-26.68 63.52 63.52 0 0 0 -9.27-39.09c-15.58-25.58-30.09-51.68-41.61-79.41-2.77-6.66-7.82-12.33-11.34-18.72-4.87-8.85-9.87-17.71-13.66-27-2-4.86-2.22-10.77-1.94-16.14.54-10.25 6.4-17.17 15.76-21.15s18.92-4.17 26.47 3.33a162.65 162.65 0 0 1 18 21.83c16.88 23.88 33 48.3 53.9 69.06 2 2 4 3.84 6.93 6.64-.44-11.11 0-21.12-4-30.36-8.57-19.95-12.57-40.85-15.28-62.26a40.48 40.48 0 0 0 -4.22-13.06c-6.47-12.64-12.5-25.29-13.41-39.83-1.5-24.18 13.74-41.9 37.12-42.77 10.25-.39 17.16 4.42 21.16 14.08 7.1 17.18 14.29 34.33 21.74 51.36 6.59 15 10.59 30.76 13.24 46.89.4 2.39 1.22 4.7 2 7.83 2.22-1.23 3.76-2 5.26-2.92 14.54-8.66 30.08-11.9 46.9-9.12 8.85 1.47 14.75 6 18 14.48 3 7.85 6.56 15.48 9.87 23.21l2.15-.12c3.5-14.69 8.58-29.23 10-44.13 1.39-14.26 4.76-27.71 8.68-41.27s7.63-27.17 10.86-40.89c3.65-15.5 12.28-26.63 26.76-33.23 1.77-.8 3.48-1.77 5.21-2.66zm-24.54 63.88-.72 1.24a42.94 42.94 0 0 1 -4.78-1.69c-6.29-3-8-2.61-10.35 4.1-4 11.42-7.76 22.92-11.19 34.51-3.22 10.93-4.15 21.69 6.48 30.45-9.35-1.05-11.79.31-13.51 7.16-2.11 8.38-4.4 16.73-6 25.2a26.37 26.37 0 0 0 .54 11.1c1.13 4.39.06 7-4.46 6.76-2.78-.13-5.5-1.33-8.24-2l1.7-1.11c-.34-3.15 0-6.58-1.15-9.41-2.9-7.24-6.45-14.22-9.76-21.3-8.46-18.08-13-20.71-33-19l-.49.05c-19.34 1.94-30.78 11.84-32.83 28.88a69 69 0 0 0 .09 13.93c1.29 15.48 7.48 29.49 13.15 43.72 2.61 6.57 6.79 9.9 13.33 11a50.79 50.79 0 0 0 6.89 1.06c14.63.54 29.27 1 44.21 1.43-1.42-27.6-9.44-54.47-20.27-80.89 2.78 2.48 5.54 5.12 6.86 8.35 3.59 8.75 7.15 17.59 9.63 26.7 3.19 11.63 6.89 23.48 7.49 35.38.79 15.53 7.5 25.28 21.33 31.05 9.33 3.88 18.71 7.69 27.87 11.94 9.47 4.39 14.75 1.9 15.77-8.58.74-7.59.49-15.26.86-22.89.46-9.49 1.34-19-6.18-25.09 1.89-2.82 4.37-4.84 4.57-7.08 1.48-15.87 2.63-31.78 3.57-47.7.3-5-2.65-8-7.64-8.91l-9.48-1.68a9.57 9.57 0 0 1 5.42-1c8.56.44 10.29-.82 11.94-9.52 1.49-7.84 3-15.68 4-23.58 1.34-10.88 1.58-21.92 3.43-32.7 1.93-11.27 5.4-22.26 7.85-33.45 1.57-7.18 2.17-14.49-.74-21.6-3.76-9.18-13.36-13.76-21.87-10.07s-15.77 9.52-19.41 18.44c-2.37 5.81-3.85 12-5.67 18-1.75 5.83.08 10.4 4.91 14 2.03 1.48 3.9 3.19 5.85 4.8z"/><path d="m715.34 591.74c-12.8-5.47-21.67-14.65-26-27.78a27.15 27.15 0 0 1 1.79-21.71c5-9.69 9.47-19.62 14.18-29.44l1.5.5a10.79 10.79 0 0 1 -.42 2.82c-2.17 4.84-4.1 9.84-6.75 14.41-14 24.11-2.28 45.58 11.49 57.73 1.37 1.2 2.81 2.31 4.21 3.47z"/><path d="m703.37 461.92c-5.47 1.84-11 3.41-16.38 5.58a164.65 164.65 0 0 0 -16.61 7.87c-5.38 2.93-10.57 6.23-15.68 9.63s-9.91 7.05-15.07 10.23a115.06 115.06 0 0 1 62.66-35.3z"/><path d="m721.29 428.66c-7.9 4.35-21 4.46-25.46 0z"/><path d="m760.56 388.82-6 21.34-1.58-.37q2.56-10.74 5.15-21.46z"/><path d="m728.07 416.85 4.86-24.29 1.79.37q-2.47 12.12-5 24.26z"/><path d="m753.67 390c-1.91 7.12-3.81 14.25-5.75 21.52-1.5-6.01.76-15.29 5.75-21.52z"/><path d="m690.8 392.28-1.14 21.72-1.37-.06q.5-10.92 1-21.83z"/><path d="m819.09 211.32c-2-1.61-3.82-3.32-5.85-4.81-4.83-3.57-6.66-8.14-4.91-14 1.82-6 3.3-12.21 5.67-18 3.64-8.92 10.74-14.69 19.39-18.44s18.11.89 21.87 10.07c2.91 7.11 2.31 14.42.74 21.6-2.45 11.19-5.92 22.18-7.85 33.45-1.85 10.78-2.09 21.82-3.43 32.7-1 7.9-2.49 15.74-4 23.58-1.65 8.7-3.38 10-11.94 9.52a9.57 9.57 0 0 0 -5.42 1l9.51 1.68c5 .88 7.94 3.93 7.64 8.91-.94 15.92-2.09 31.83-3.57 47.7-.2 2.24-2.68 4.26-4.57 7.08 7.52 6.06 6.64 15.6 6.18 25.09-.37 7.63-.12 15.3-.86 22.89-1 10.48-6.3 13-15.77 8.58-9.16-4.25-18.54-8.06-27.87-11.94-13.83-5.77-20.54-15.52-21.33-31.05-.6-11.9-4.3-23.75-7.49-35.38-2.48-9.11-6-17.95-9.63-26.7-1.32-3.23-4.08-5.87-6.86-8.35 10.85 26.5 18.87 53.32 20.26 80.92-14.94-.47-29.58-.89-44.21-1.43a50.79 50.79 0 0 1 -6.89-1.06c-6.54-1.14-10.72-4.47-13.33-11-5.67-14.23-11.86-28.24-13.15-43.72a69 69 0 0 1 -.09-13.93c2-17 13.49-26.94 32.83-28.88l.49-.05c19.93-1.73 24.51.9 33 19 3.31 7.08 6.86 14.06 9.76 21.3 1.14 2.83.81 6.26 1.15 9.41l-1.7 1.11c2.74.71 5.46 1.91 8.24 2 4.52.21 5.59-2.37 4.46-6.76a26.37 26.37 0 0 1 -.54-11.1c1.6-8.47 3.89-16.82 6-25.2 1.72-6.85 4.16-8.21 13.51-7.16-10.63-8.76-9.7-19.52-6.48-30.45 3.43-11.59 7.22-23.09 11.19-34.51 2.33-6.71 4.06-7.14 10.35-4.1a42.94 42.94 0 0 0 4.78 1.69zm-78 140.86-33.94 8c3.51 2.38 18.4-1.18 33.98-8z" fill="#fff"/><path d="m741.13 352.18c-15.58 6.82-30.47 10.38-33.94 8z"/></g></svg>