<svg viewBox="0 0 480 365" xmlns="http://www.w3.org/2000/svg"><g transform="translate(-340 -194.5)"><path d="m340 529.58v-335.08h480v365h-480v-27.92c13.5 0 27-.12 40.49.12 3.67.07 5.23-1.18 6.32-4.57 5.26-16.44 10.76-32.81 16.19-49.21 5.73-17.3 11.48-34.61 17.29-52.12h6.23c35.83 0 71.66.1 107.49-.12 4.61 0 6.54 1.26 8 5.68 10.64 32 21.65 63.82 32.39 95.77 1.12 3.34 2.59 4.65 6.28 4.57 12.32-.25 24.66-.08 37-.1 1.43 0 2.85-.18 4.89-.31-2.61-7.66-5.05-14.85-7.51-22q-53.06-155.05-106.06-310.11c-1.13-3.3-2.73-4.23-6.07-4.19-14.33.17-28.66.24-43 0-4.1-.08-5.69 1.34-7 5.1q-53.93 158.91-108.18 317.72c-1.36 4-3.16 7.85-4.75 11.77zm359.53-225.15c-1.38-.27-2.35-.38-3.28-.64-16.34-4.7-27.26.14-34 15.67-2.37 5.49-5.81 8.26-11.7 9.35-13.76 2.54-20.81 13.51-18.07 27.21.87 4.39 2 8.76 2.53 13.19 1.78 14 3 28 5.1 41.93 3.64 23.86 13.89 44.53 32.75 59.86 12.1 9.85 20.81 22 27.64 35.52 7.85 15.57 14.9 31.53 22.35 47.3a49.77 49.77 0 0 0 2.87 4.71c1-1.13 1.28-1.92 1.11-2.61-5.17-21.79-12.69-42.65-25-61.56-4.23-6.51-4-7.62 3.14-11.05 5.07-2.43 10.09-5 15.13-7.47l-1-2-22.89 10a143.36 143.36 0 0 1 14.79-11.7c5.06-3.48 11.36-5.33 14.35-11.46l-7.28 4.23c-1-1.6-1.79-2.79-2.87-4.47-2.43 2.52-4.4 5-6.85 6.94-2.28 1.78-5 3.85-7.66 4.18-10.95 1.33-20.79-1.27-28.63-9.66-13.58-14.52-21.74-31.95-25.54-51.06-1.84-9.29-.32-19.25-.32-28.9l1.18-.53c1.83 2.62 4.63 5.07 5.14 7.93.3 1.7-3 4-4.53 5.93 1.06 1.65 2.56 3.14 3 4.89s-.18 4-.33 5.95a17.72 17.72 0 0 0 5.55-5.89c1.69-2.72 3.21-3 5.29-.33a103.79 103.79 0 0 0 7.87 9c7.56 7.54 16.68 7.31 24.18-.35 1.49-1.52 3-3.65 4.82-4.15 7-1.88 14.25-2.84 18.95-9.73l1 1.07v11.88a74.09 74.09 0 0 0 4.74-12.1c1.59-4.74 4.48-8 9.75-8.89a7 7 0 0 0 3.8-2.06c4.2-4.7 4.13-4.76 9.22-.49 6.93 5.81 12.69 5.29 18.49-1.68 1-1.23 2.08-2.44 3.7-4.34l7 12.76.83-.41c-1.36-4.16-2.73-8.33-4.35-13.29l5 2.84a39.45 39.45 0 0 0 -4.62-8.26c-1.85-2.7-3-5.1.54-7.63.91-.64 1.2-3.06.84-4.42a29.36 29.36 0 0 1 2.6-22.19c2.29-4.31 2.69-8.94.07-13.35-6.21-10.49-3.5-20.56 1.68-30.28 3.93-7.35 15.87-13.48 23-9.37-2.06 3.19-4.69 6.15-6 9.61a50 50 0 0 0 -3.44 14.17c-.25 3.42 2 6.46 6.42 6.81-5.09-12.81-3.62-19.79 5.67-25.68-.7 7.27 2.31 14.91-4.56 19.09 2.1 3.94 4 7.26 5.66 10.72 1.2 2.55 1.73 5.41 3 7.9 2.32 4.51 3.07 8.52-2.47 11.53 5.8 1.58 6.33 1.91 5.1 5.6-5.48 16.47-4.1 33-1.5 49.76a37.33 37.33 0 0 1 -.9 16.2c-4.28 13.78-9.28 27.36-14.5 40.82-5.8 15-19.88 22.94-34.43 20.16-15.43-2.94-26.14-15.88-26.4-31.85 0-1.36-.11-2.73-.17-4.1l-1.48-.13-1.52 10.43-3.25-6.37c.21 8.25 3.44 15.15 8.61 21.26 1.23 1.46 2.79 3.27 2.84 5 .12 3.91 2.49 5.93 5.43 7a44.32 44.32 0 0 0 11.11 2.44c11.47 1.06 15.55 4.36 18.42 15.4 1.42 5.44 3 10.83 4.5 16.24l1.24-.32q-2.31-11.56-4.6-23.11l.44-.13 5.08 13a15.54 15.54 0 0 0 -.95-6.79 47.76 47.76 0 0 1 -1.9-6.69c-.21-1.38.46-2.88.74-4.32 1.18 1.05 3.09 1.92 3.43 3.19 6.19 23.65 19.17 43.68 33.43 63 .9 1.22 2 2.33 3 3.49l1.19-.73c-.23-5.87-3.19-10.72-6.81-15.16-12.86-15.8-18.55-34.31-20.75-54.13a19.6 19.6 0 0 1 .92-9.25c5.78-14 11.33-28.08 18.18-41.51 8.17-16 9.56-32.3 5.22-49.32-2.69-10.55-2.37-20.65 2.35-30.6 2.87-6 2.38-12-.32-18.28a60.67 60.67 0 0 1 -4.66-16.16c-.84-6.53-.45-13.24-.42-19.86 0-6.26-.82-12.06-7.07-15.35-10.41-5.47-28.15.21-33.69 10.73-3.24 6.15-3.23 6.12-9.83 3.56-5.85-2.26-12.24-4.54-17.81-.88-8.33 5.47-17 5.92-26.33 4.76-7.7-.95-14.61-.01-17.3 8.83z" fill="#fff"/><path d="m340 529.58c1.59-3.92 3.39-7.77 4.75-11.77q54.2-158.81 108.25-317.76c1.27-3.76 2.86-5.18 7-5.1 14.33.28 28.66.21 43 0 3.34 0 4.94.89 6.07 4.19q52.93 155.07 106.07 310.08c2.46 7.18 4.9 14.37 7.51 22-2 .13-3.46.3-4.89.31-12.33 0-24.67-.15-37 .1-3.69.08-5.16-1.23-6.28-4.57-10.74-31.95-21.75-63.8-32.39-95.77-1.47-4.42-3.4-5.71-8-5.68-35.83.22-71.66.12-107.49.12h-6.23c-5.81 17.51-11.56 34.82-17.29 52.12-5.43 16.4-10.93 32.77-16.19 49.21-1.09 3.39-2.65 4.64-6.32 4.57-13.49-.24-27-.11-40.49-.12zm190.61-138c-16.82-52.87-37.61-103.9-50.75-157.58-13 53.66-33.38 104.8-50.28 157.5z"/><path d="m699.53 304.43c2.69-8.84 9.6-9.78 17.23-8.82 9.31 1.16 18 .71 26.33-4.76 5.57-3.66 12-1.38 17.81.88 6.6 2.56 6.59 2.59 9.83-3.56 5.54-10.52 23.28-16.2 33.69-10.73 6.25 3.29 7.09 9.09 7.07 15.35 0 6.62-.42 13.33.42 19.86a60.67 60.67 0 0 0 4.66 16.16c2.7 6.24 3.19 12.23.32 18.28-4.72 10-5 20.05-2.35 30.6 4.34 17 3 33.32-5.22 49.32-6.85 13.43-12.4 27.55-18.18 41.51a19.6 19.6 0 0 0 -.92 9.25c2.2 19.82 7.89 38.33 20.75 54.13 3.62 4.44 6.58 9.29 6.81 15.16l-1.19.73c-1-1.16-2.05-2.27-3-3.49-14.26-19.36-27.24-39.39-33.43-63-.34-1.27-2.25-2.14-3.43-3.19-.28 1.44-.95 2.94-.74 4.32a47.76 47.76 0 0 0 1.9 6.69 15.54 15.54 0 0 1 .95 6.79l-5.08-13-.44.13q2.29 11.55 4.6 23.11l-1.24.32c-1.5-5.41-3.08-10.8-4.5-16.24-2.87-11-7-14.34-18.42-15.4a44.32 44.32 0 0 1 -11.11-2.44c-2.94-1.08-5.31-3.1-5.43-7 0-1.69-1.61-3.5-2.84-5-5.17-6.11-8.4-13-8.61-21.26l3.25 6.37 1.52-10.43 1.48.13c.06 1.37.15 2.74.17 4.1.26 16 11 28.91 26.4 31.85 14.55 2.78 28.63-5.19 34.43-20.16 5.22-13.46 10.22-27 14.5-40.82a37.33 37.33 0 0 0 .9-16.2c-2.6-16.74-4-33.29 1.5-49.76 1.23-3.69.7-4-5.1-5.6 5.54-3 4.79-7 2.47-11.53-1.28-2.49-1.81-5.35-3-7.9-1.62-3.46-3.56-6.78-5.66-10.72 6.87-4.18 3.86-11.82 4.56-19.09-9.29 5.89-10.76 12.87-5.67 25.68-4.47-.35-6.67-3.39-6.42-6.81a50 50 0 0 1 3.44-14.17c1.35-3.46 4-6.42 6-9.61-7.18-4.11-19.12 2-23 9.37-5.18 9.72-7.89 19.79-1.68 30.28 2.62 4.41 2.22 9-.07 13.35a29.36 29.36 0 0 0 -2.6 22.19c.36 1.36.07 3.78-.84 4.42-3.54 2.53-2.39 4.93-.54 7.63a39.45 39.45 0 0 1 4.62 8.26l-5-2.84c1.62 5 3 9.13 4.35 13.29l-.83.41-7-12.76c-1.62 1.9-2.67 3.11-3.7 4.34-5.8 7-11.56 7.49-18.49 1.68-5.09-4.27-5-4.21-9.22.49a7 7 0 0 1 -3.8 2.06c-5.27.86-8.16 4.15-9.75 8.89a74.09 74.09 0 0 1 -4.74 12.1v-11.88l-1-1.07c-4.7 6.89-12 7.85-18.95 9.73-1.85.5-3.33 2.63-4.82 4.15-7.5 7.66-16.62 7.89-24.18.35a103.79 103.79 0 0 1 -7.87-9c-2.08-2.62-3.6-2.39-5.29.33a17.72 17.72 0 0 1 -5.55 5.89c.15-2 .76-4.09.33-5.95s-1.91-3.24-3-4.89c1.54-1.89 4.83-4.23 4.53-5.93-.51-2.86-3.31-5.31-5.14-7.93l-1.18.53c0 9.65-1.52 19.61.32 28.9 3.8 19.11 12 36.54 25.54 51.06 7.84 8.39 17.68 11 28.63 9.66 2.7-.33 5.38-2.4 7.66-4.18 2.45-1.9 4.42-4.42 6.85-6.94 1.08 1.68 1.85 2.87 2.87 4.47l7.28-4.23c-3 6.13-9.29 8-14.35 11.46a143.36 143.36 0 0 0 -14.72 11.74l22.89-10 1 2c-5 2.49-10.06 5-15.13 7.47-7.15 3.43-7.37 4.54-3.14 11.05 12.29 18.91 19.81 39.77 25 61.56.17.69-.08 1.48-1.11 2.61a49.77 49.77 0 0 1 -2.87-4.71c-7.45-15.77-14.5-31.73-22.35-47.3-6.83-13.57-15.5-25.69-27.64-35.57-18.88-15.36-29.11-36-32.7-59.89-2.09-13.92-3.32-28-5.1-41.93-.57-4.43-1.66-8.8-2.53-13.19-2.74-13.7 4.31-24.67 18.07-27.21 5.89-1.09 9.33-3.86 11.7-9.35 6.69-15.53 17.61-20.37 34-15.67.88.29 1.85.4 3.23.67zm-10.34 77c9.1-6.44 13.08-7.54 19.6-5.42-3.47.73-6.37 1.17-9.17 2-3.57 1-6.29 3.12-6.66 7.17-.4 4.46 3.73 9.36 9.22 11.06 4.6 1.42 8.06-.16 10.68-4.86 2.72-4.86 2.47-9.74.65-14.87-3.11-8.75-6-17.59-8.84-26.42-2.19-6.74-4.24-13.53-6.45-20.63-1.91.72-3.45 1.23-4.92 1.89s-3 1.53-4.54 2.3l-1-1.54c2.08-1.41 4.13-2.84 6.23-4.21 1.34-.86 3.71-1.43 3.93-2.47.84-4.1 2.53-8.54-1.2-12.23-4-3.93-11.06-5.47-15.22-3.14-7.23 4-12 9.85-12.85 18.4-.31 3.34-.62 6.68-.94 10.17-2.72-1.09-4.81-2.16-7-2.78-8.54-2.39-19.81 3.46-20.56 10.95-.9 9 1 17.46 6.89 24.78 4.56 5.67 9.06 11.42 13.24 17.38 2.61 3.71 4.92 5 8.75 1.56 5-4.41 10.4-4.77 16-.87a26.15 26.15 0 0 0 2.55 1.35l-17.78-48.41 2-.81zm75.24-15.6c1.92-8.48 3.19-16.93 5.86-24.91 2-5.9 2.84-10.81.11-16.9-2.53-5.63-2.93-12.21-4.23-18.38a8.93 8.93 0 0 0 -6.8-7.18c-8-2.32-17.43 1.74-20.1 9.68a72.3 72.3 0 0 0 -3.06 17.53c-.62 8.35-2.18 9.71 8.48 7.82 2-.35 4.2.22 6.31.36l-.14 1.94c-2.22.13-4.61-.2-6.62.51-2.79 1-6.92 2.24-7.64 4.34a22.43 22.43 0 0 0 2.69 20c3.19 4.64 8.6 1 13 .5a18.87 18.87 0 0 0 2-.39c6.87-1.52 7.47-1.22 10.14 5.05zm-28.7.65c-.9-3.58-1-5.79-2-7.59-3-5.69-3.59-11.62-3-17.87.77-7.74 1.86-15.5 1.85-23.25 0-8.65-4.91-13.13-14.1-14.39-6.88-.94-10.86 1.75-13.73 10.06-1.21 3.5-1.48 7.33-2.21 11.21l3.3.42c-.76 1.81-2.4 3.74-2 5.17 3.14 12.43 6.64 24.77 10.19 37.68 7.37-3.8 13.55-7.02 21.7-1.47zm25.88 5.38c0-6.63-.32-7-7-6.83a4.52 4.52 0 0 0 -1.48.08c-3.46 1.32-6.9 2.69-10.34 4.05 1.85 3.54 3.14 7.57 5.7 10.5 3.51 4 9.05 3 11.65-1.67 1.02-1.8 1.02-4.1 1.47-6.16zm-82.14 37.26c4.28.09 9.31-3.92 9.33-7.43 0-4.55-7.35-11.13-12.57-11.15-3.73 0-5.38 2.24-5.56 5.66-.36 6.62 3.91 12.8 8.8 12.89zm48-42.61c-6.27-.11-10.61 2.26-10.61 5.79 0 4.64 5.73 9.72 10.94 9.71 5.43 0 8.46-2.22 8.51-6.2.1-5.5-3.45-9.23-8.81-9.33z"/><g fill="#fff"><path d="m530.61 391.54h-101c16.9-52.7 37.24-103.84 50.28-157.5 13.11 53.64 33.9 104.67 50.72 157.5z"/><path d="m689.19 381.4-17.48-39.67-2 .81 17.8 48.46a26.15 26.15 0 0 1 -2.51-1.4c-5.56-3.9-11-3.54-16 .87-3.83 3.4-6.14 2.15-8.75-1.56-4.18-6-8.68-11.71-13.24-17.38-5.88-7.32-7.79-15.74-6.89-24.78.75-7.49 12-13.34 20.56-10.95 2.21.62 4.3 1.69 7 2.78.32-3.49.63-6.83.94-10.17.8-8.55 5.62-14.36 12.85-18.4 4.16-2.33 11.25-.79 15.22 3.14 3.73 3.69 2 8.13 1.2 12.23-.22 1-2.59 1.61-3.93 2.47-2.1 1.37-4.15 2.8-6.23 4.21l1 1.54c1.51-.77 3-1.61 4.54-2.3s3-1.17 4.92-1.89c2.21 7.1 4.26 13.89 6.45 20.63 2.87 8.83 5.73 17.67 8.84 26.42 1.82 5.13 2.07 10-.65 14.87-2.62 4.7-6.08 6.28-10.68 4.86-5.49-1.7-9.62-6.6-9.22-11.06.37-4.05 3.09-6.13 6.66-7.17 2.8-.81 5.7-1.25 9.17-2-6.49-2.1-10.47-.96-19.57 5.44z"/><path d="m764.43 365.8c-2.67-6.27-3.27-6.57-10.15-5.06a18.87 18.87 0 0 1 -2 .39c-4.43.47-9.84 4.14-13-.5a22.43 22.43 0 0 1 -2.69-20c.72-2.1 4.85-3.34 7.64-4.34 2-.71 4.4-.38 6.62-.51l.14-1.94c-2.11-.14-4.29-.71-6.31-.36-10.66 1.89-9.1.53-8.48-7.82a72.3 72.3 0 0 1 3.06-17.53c2.67-7.94 12.05-12 20.1-9.68a8.93 8.93 0 0 1 6.8 7.18c1.3 6.17 1.7 12.75 4.23 18.38 2.73 6.09 1.86 11-.11 16.9-2.66 7.96-3.93 16.41-5.85 24.89z"/><path d="m735.73 366.45c-8.15-5.55-14.33-2.33-21.67 1.44-3.55-12.91-7-25.25-10.19-37.68-.37-1.43 1.27-3.36 2-5.17l-3.3-.42c.73-3.88 1-7.71 2.21-11.21 2.87-8.31 6.85-11 13.73-10.06 9.19 1.26 14.09 5.74 14.1 14.39 0 7.75-1.08 15.51-1.85 23.25-.62 6.25 0 12.18 3 17.87.93 1.8 1.07 4.01 1.97 7.59z"/><path d="m761.61 371.83c-.45 2.06-.45 4.36-1.43 6.13-2.6 4.69-8.14 5.68-11.65 1.67-2.56-2.93-3.85-7-5.7-10.5 3.44-1.36 6.88-2.73 10.34-4.05a4.52 4.52 0 0 1 1.48-.08c6.64-.17 7.01.2 6.96 6.83z"/><path d="m679.47 409.09c-4.89-.1-9.16-6.27-8.8-12.92.18-3.42 1.83-5.67 5.56-5.66 5.22 0 12.59 6.6 12.57 11.15-.02 3.51-5.05 7.52-9.33 7.43z"/><path d="m727.5 366.48c5.36.1 8.91 3.83 8.84 9.3-.05 4-3.08 6.19-8.51 6.2-5.21 0-10.94-5.07-10.94-9.71 0-3.53 4.34-5.9 10.61-5.79z"/></g></g></svg>