<svg viewBox="0 0 197 365" xmlns="http://www.w3.org/2000/svg"><g transform="translate(-917 -331)"><path d="m1019 696h-102v-365h197v365h-93a179.77 179.77 0 0 0 -25.39-64.62c-3.86-6-3.62-7.36 2.85-10.5 5.25-2.55 10.47-5.17 15.71-7.76l-.92-2-22.93 10a148.23 148.23 0 0 1 14.59-11.65c5.08-3.51 11.42-5.35 14.45-11.57l-7.17 4.22-2.87-3.92a89.63 89.63 0 0 1 -7.24 6.74c-2.2 1.65-4.73 3.59-7.29 3.9-10.95 1.31-20.8-1.21-28.66-9.61-13.61-14.53-21.78-32-25.59-51.16-1.86-9.34-.33-19.35-.33-29.06l1.1-.59c1.84 2.59 4.65 5 5.18 7.85.32 1.74-2.85 4.13-3.69 5.23 1 4.32 1.82 8 2.75 12a52.91 52.91 0 0 0 3.53-4.39c3.57-5.51 3.53-5.52 7.83-.28 1.79 2.19 3.62 4.37 5.59 6.4 8.3 8.56 17.37 8.41 25.61-.21 1.45-1.53 3.16-3.4 5-3.82 6.82-1.5 13.49-3.06 19-8.48v12a64.32 64.32 0 0 0 4.83-12c1.57-4.74 4.38-8.08 9.65-9a7.47 7.47 0 0 0 4.15-2.36c3.87-4.7 3.78-4.78 8.52-.62 7.25 6.34 13.06 5.86 19.21-1.55 1-1.2 2.1-2.29 3.63-3.95l6.85 12.73.87-.37-4.37-13.29 5.13 2.68a39.81 39.81 0 0 0 -4.41-7.69c-2-2.9-3.7-5.69.48-8.45.79-.52 1-2.81.63-4.05a29.78 29.78 0 0 1 2.66-22.72c2.12-4 2.7-8.44.21-12.45-5.86-9.46-4.09-18.89-.09-28.21 4.23-9.88 15.25-15.41 24.67-12.36-2.11 3.29-4.7 6.25-6 9.69a52.32 52.32 0 0 0 -3.56 14.19c-.3 3.49 2 6.46 6.3 7.1-4.74-13.73-3-21.49 5.55-25.38 1 10.72.35 13.18-4.33 18.78 2.08 3.86 4.09 7.32 5.83 10.93 1.08 2.23 1.55 4.76 2.61 7 2.16 4.55 4.22 9-3.8 12.82 5.9-.12 8.18 1.06 6.7 5.31-5.52 16-4 32.1-1.76 48.4.8 5.79.88 12.19-.77 17.69-4.11 13.69-9.14 27.12-14.3 40.47-5.82 15.06-19.83 23.17-34.3 20.45-15.67-2.94-26.4-16-26.6-32.27 0-1.29-.22-2.58-.33-3.87h-1.5c-.35 3.1-.7 6.2-1.18 10.41l-4.15-7.54c1 9.51 4 16 9.54 22.62 1.14 1.34 2.65 3 2.66 4.54 0 4.4 2.82 6.41 6.12 7.58a44.47 44.47 0 0 0 10.69 2.14c11.14 1 15.31 4.48 18.09 15.2 1.45 5.57 3.07 11.09 4.61 16.64l1.17-.28q-2.26-11.58-4.52-23.14l.47-.11 5 12.68c-.32-4.65-1.78-8.87-2.78-13.19-.32-1.4.58-3.08.92-4.63 1.13 1.17 2.93 2.16 3.28 3.53 6.25 24.07 19.62 44.31 34.07 64a37.68 37.68 0 0 0 3.55 3.41c-.46-7.44-3.24-12.28-6.81-16.66-12.89-15.81-18.65-34.35-20.88-54.22-.34-3-.32-6.53.82-9.29 5.83-14.15 11.42-28.46 18.35-42.08 8.09-15.9 9.45-32.1 5.19-49-2.71-10.76-2.41-21 2.36-31.16 2.52-5.35 2.91-11 .2-16.43-5.54-11.1-6.7-22.88-5.94-35 .18-3 .71-6.33-.37-8.88-1.47-3.45-3.69-7.44-6.74-9.18-10.07-5.76-27.72.14-33.25 10.4-3.43 6.37-3.41 6.32-10.15 3.75-6-2.28-12.42-4.38-18.26-.5-7.65 5.09-15.76 5.66-24.4 4.58-8-1-15.64-.83-18.56 8.72a22.31 22.31 0 0 1 -2.49-.37c-17.76-5-27.79-.41-35.21 16.54-2 4.53-4.94 7-9.91 8-15.41 2.9-22.32 13.55-19.09 28.76.86 4.06 1.76 8.13 2.28 12.25 1.77 14 3 28.09 5.12 42 3.62 23.9 13.92 44.57 32.79 60a97.61 97.61 0 0 1 25.67 32.13c9.13 18.23 17.53 36.9 26.27 55.41z" fill="#fff"/><path d="m1019 696c-8.74-18.51-17.14-37.18-26.35-55.46a97.61 97.61 0 0 0 -25.65-32.13c-18.87-15.43-29.17-36.1-32.79-60-2.12-13.95-3.35-28-5.12-42-.52-4.12-1.42-8.19-2.28-12.25-3.23-15.21 3.68-25.86 19.09-28.76 5-.93 7.93-3.44 9.91-8 7.42-16.95 17.45-21.58 35.21-16.54a22.31 22.31 0 0 0 2.49.37c2.92-9.55 10.53-9.73 18.56-8.72 8.64 1.08 16.75.51 24.4-4.58 5.84-3.88 12.24-1.78 18.26.5 6.74 2.57 6.72 2.62 10.15-3.75 5.53-10.26 23.18-16.16 33.25-10.4 3.05 1.74 5.27 5.73 6.74 9.18 1.08 2.55.55 5.9.37 8.88-.76 12.15.4 23.93 5.94 35 2.71 5.44 2.32 11.08-.2 16.43-4.77 10.14-5.07 20.4-2.36 31.16 4.26 16.88 2.9 33.08-5.19 49-6.93 13.62-12.52 27.93-18.35 42.08-1.14 2.76-1.16 6.24-.82 9.29 2.23 19.87 8 38.41 20.88 54.22 3.57 4.38 6.35 9.22 6.81 16.66a37.68 37.68 0 0 1 -3.55-3.41c-14.45-19.67-27.82-39.91-34.07-64-.35-1.37-2.15-2.36-3.28-3.53-.34 1.55-1.24 3.23-.92 4.63 1 4.32 2.46 8.54 2.78 13.19l-5-12.68-.47.11q2.26 11.57 4.52 23.14l-1.17.28c-1.54-5.55-3.16-11.07-4.61-16.64-2.78-10.72-7-14.16-18.09-15.2a44.47 44.47 0 0 1 -10.69-2.07c-3.3-1.17-6.11-3.18-6.12-7.58 0-1.53-1.52-3.2-2.66-4.54-5.58-6.61-8.54-13.11-9.54-22.62l4.15 7.54c.48-4.21.83-7.31 1.18-10.41h1.5c.11 1.29.32 2.58.33 3.87.2 16.3 10.93 29.33 26.6 32.27 14.47 2.72 28.48-5.39 34.3-20.45 5.16-13.35 10.19-26.78 14.3-40.47 1.65-5.5 1.57-11.9.77-17.69-2.25-16.3-3.76-32.44 1.76-48.4 1.48-4.25-.8-5.43-6.7-5.31 8-3.86 6-8.27 3.8-12.82-1.06-2.24-1.53-4.77-2.61-7-1.74-3.61-3.75-7.07-5.83-10.93 4.68-5.6 5.3-8.06 4.33-18.78-8.53 3.89-10.29 11.65-5.55 25.38-4.34-.64-6.6-3.61-6.3-7.1a52.32 52.32 0 0 1 3.56-14.19c1.35-3.44 3.94-6.4 6-9.69-9.42-3.05-20.44 2.48-24.67 12.36-4 9.32-5.77 18.75.09 28.21 2.49 4 1.91 8.45-.21 12.45a29.78 29.78 0 0 0 -2.66 22.72c.35 1.24.16 3.53-.63 4.05-4.18 2.76-2.43 5.55-.48 8.45a39.81 39.81 0 0 1 4.41 7.69l-5.13-2.68 4.37 13.29-.87.37-6.85-12.73c-1.53 1.66-2.64 2.75-3.63 3.95-6.15 7.41-12 7.89-19.21 1.55-4.74-4.16-4.65-4.08-8.52.62a7.47 7.47 0 0 1 -4.15 2.36c-5.27 1-8.08 4.29-9.65 9a64.32 64.32 0 0 1 -4.83 12v-12c-5.46 5.42-12.13 7-19 8.48-1.88.42-3.59 2.29-5 3.82-8.24 8.62-17.31 8.77-25.61.21-2-2-3.8-4.21-5.59-6.4-4.3-5.24-4.26-5.23-7.83.28a52.91 52.91 0 0 1 -3.53 4.39c-.93-4-1.77-7.7-2.75-12 .84-1.1 4-3.49 3.69-5.23-.53-2.84-3.34-5.26-5.18-7.85l-1.1.59c0 9.71-1.53 19.72.33 29.06 3.81 19.15 12 36.63 25.59 51.16 7.86 8.4 17.71 10.92 28.66 9.61 2.56-.31 5.09-2.25 7.29-3.9a89.63 89.63 0 0 0 7.24-6.74l2.87 3.92 7.17-4.22c-3 6.22-9.37 8.06-14.45 11.57a148.23 148.23 0 0 0 -14.59 11.65l22.93-10 .92 2c-5.24 2.59-10.46 5.21-15.71 7.76-6.47 3.14-6.71 4.46-2.85 10.5a179.77 179.77 0 0 1 25.45 64.6zm-57.28-220.51c-2.5-1-4.57-2.08-6.76-2.73-8.46-2.5-20 3.18-20.8 10.63-1 9.23.94 17.83 7 25.29 4.49 5.54 8.79 11.25 13 17 3.61 4.93 4.1 5.27 9 1.61 5.14-3.87 10.19-4.53 15.62-.8a24.67 24.67 0 0 0 2.74 1.45l-17.69-48.42 2-.79c5.78 13.11 11.55 26.22 17.38 39.46 10.34-6.59 14-7.54 19.48-5-2.73.46-5 .74-7.25 1.25-5.51 1.24-8.49 4.28-8.43 8.4.07 4.43 4.59 9.27 9.91 10.62 4.95 1.25 7.92-1.28 10.12-5.27 2.7-4.88 2.32-9.78.48-14.92-3-8.44-5.78-17-8.54-25.54-2.29-7.05-4.42-14.16-6.74-21.63l-9.54 4.3-.94-1.66c2.32-1.43 4.65-2.86 7-4.32 1.19-.75 3.19-1.41 3.36-2.37.74-4.14 2.46-8.58-1.42-12.21s-10.81-5.34-14.81-3.14c-7.07 3.87-12 9.43-13 17.8-.54 3.56-.81 7.15-1.17 10.99zm96.7 27.56c1.8-8.14 2.91-16.13 5.43-23.65 2.28-6.82 3.43-12.82.24-19.85-2.42-5.33-2.72-11.61-4-17.45-1-4.54-4.17-6.58-8.52-7.22-8.4-1.22-16 2.82-18.62 10.81a61.47 61.47 0 0 0 -2.69 14.65c-.77 10.58-.58 10.54 9.76 9.85 1.65-.11 3.36.53 5 .82l-.33 1.39c-16.13 2.91-17.44 4.83-13.72 20.12 1.6 6.57 3.2 7.7 9.78 6.66 2.62-.41 5.22-1 7.82-1.58 6.56-1.4 7.35-.99 9.85 5.45zm-29 0c-.47-2.6-.37-4.37-1.09-5.71-4.87-9.09-3.76-18.58-2.62-28.25a85 85 0 0 0 .35-18.31c-.58-5.71-4.94-8.7-10.42-10-4.67-1.09-9.34-2-12.86 2.38a24.57 24.57 0 0 0 -5.51 18.35l2.06.33c-.53 2.52-1.27 4.55-1.31 6.59a19.13 19.13 0 0 0 1 5.86c3.11 10.05 6.31 20.07 9.58 30.41 7.03-3.98 13.22-6.61 20.78-1.64zm26 4.37c1-3.52-.28-5.45-4.65-5.51-6.79-.11-13.89 2.23-14.08 5-.26 3.94 6.56 11.76 10.51 12.05 4.8.41 7.8-3.65 8.17-11.53zm-81.93 38.75c4.28.1 9.32-3.9 9.35-7.42.05-4.52-7.34-11.17-12.53-11.21-3.73 0-5.4 2.21-5.59 5.64-.43 6.63 3.86 12.88 8.72 13zm48.13-27.17c5.34.09 8.58-2.15 8.72-6 .2-5.46-3.31-9.34-8.63-9.53-6.06-.22-10.7 2.17-10.82 5.59-.16 4.59 5.51 9.85 10.73 9.94z"/><g fill="#fff"><path d="m961.72 475.49c.36-3.84.63-7.43 1-11 1-8.37 5.92-13.93 13-17.8 4-2.2 10.78-.63 14.81 3.14s2.16 8.07 1.42 12.21c-.17 1-2.17 1.62-3.36 2.37-2.3 1.46-4.63 2.89-7 4.32l.94 1.66 9.54-4.3c2.32 7.47 4.45 14.58 6.74 21.63 2.76 8.54 5.51 17.1 8.54 25.54 1.84 5.14 2.22 10-.48 14.92-2.2 4-5.17 6.52-10.12 5.27-5.32-1.35-9.84-6.19-9.91-10.62-.06-4.12 2.92-7.16 8.43-8.4 2.23-.51 4.52-.79 7.25-1.25-5.47-2.54-9.14-1.59-19.48 5-5.83-13.24-11.6-26.35-17.38-39.46l-2 .79 17.69 48.42a24.67 24.67 0 0 1 -2.74-1.45c-5.43-3.73-10.48-3.07-15.62.8-4.87 3.66-5.36 3.32-9-1.61-4.21-5.75-8.51-11.46-13-17-6-7.46-8-16.06-7-25.29.84-7.45 12.34-13.13 20.8-10.63 2.36.66 4.43 1.72 6.93 2.74z"/><path d="m1058.42 503.05c-2.5-6.44-3.29-6.85-9.82-5.45-2.6.56-5.2 1.17-7.82 1.58-6.58 1-8.18-.09-9.78-6.66-3.72-15.29-2.41-17.21 13.72-20.12l.33-1.39c-1.68-.29-3.39-.93-5-.82-10.34.69-10.53.73-9.76-9.85a61.47 61.47 0 0 1 2.69-14.65c2.67-8 10.22-12 18.62-10.81 4.35.64 7.51 2.68 8.52 7.22 1.29 5.84 1.59 12.12 4 17.45 3.19 7 2 13-.24 19.85-2.55 7.52-3.66 15.51-5.46 23.65z"/><path d="m1029.38 503.06c-7.56-5-13.75-2.34-20.78 1.68-3.27-10.34-6.47-20.36-9.58-30.41a19.13 19.13 0 0 1 -1-5.86c0-2 .78-4.07 1.31-6.59l-2.06-.33a24.57 24.57 0 0 1 5.51-18.35c3.52-4.38 8.19-3.47 12.86-2.38 5.48 1.27 9.84 4.26 10.42 10a85 85 0 0 1 -.35 18.31c-1.14 9.67-2.25 19.16 2.62 28.25.67 1.31.58 3.08 1.05 5.68z"/><path d="m1055.37 507.43c-.42 7.88-3.39 11.94-8.22 11.58-4-.29-10.77-8.11-10.51-12.05.19-2.81 7.29-5.15 14.08-5 4.37.04 5.6 1.95 4.65 5.47z"/><path d="m973.44 546.18c-4.86-.12-9.15-6.37-8.77-13 .19-3.43 1.86-5.67 5.59-5.64 5.19 0 12.58 6.69 12.53 11.21-.03 3.53-5.07 7.53-9.35 7.43z"/><path d="m1021.62 519c-5.22-.09-10.89-5.35-10.73-9.95.12-3.42 4.76-5.81 10.82-5.59 5.32.19 8.83 4.07 8.63 9.53-.14 3.86-3.34 6.1-8.72 6.01z"/></g></g></svg>