<svg viewBox="0 0 480 417" xmlns="http://www.w3.org/2000/svg"><g transform="translate(-359.76 -196.03)"><path d="m839.76 440.44v172.56h-480v-417h393.24c-6.69 3.58-14 7.49-15.59 15.19-2.23 11.06-8 13.07-18.25 12.22-10.7-.89-16.73 5.25-18.9 15.94-.53 2.6-.82 5.25-1.15 7.88-.73 5.71-1.64 6.48-7.34 6.1-13.15-.89-19.59 3.29-21.62 16.31-1.36 8.73-.42 17.81-.56 26.74-.06 3.8-.15 7.6-.38 11.39-.49 8.4-1.92 16.84-1.45 25.18 1.31 22.76 3.64 45.48-4.87 67.5a23.68 23.68 0 0 0 -.93 4.38c-6.8 37.95.23 74.4 12.25 110.24 2.3 6.85 6.33 13 12.87 16.63 9.62 5.33 14.69 13.64 16.91 24 3.17 14.84 5 29.82 4.4 45-.13 3.29-.29 6.57-.44 9.85l1.66.66c.78-1.53 2-3 2.29-4.62 3.61-19.84 4.2-39.6-1.8-59.18-.39-1.28 0-3.85.73-4.23a92.69 92.69 0 0 1 14.06-5.85c4.89-1.47 8.29-4 10.47-9.63-6.13 1.43-11.23 2.79-16.4 3.79-15.59 3-31.81-5.61-37.76-20.23-3.07-7.53-6-15.15-8.43-22.89-7.56-23.73-11.8-48-6.4-72.67 2.87-13.15 8-25.8 12.19-38.73l-3.42-.29c0-8.43-.21-16.7.06-24.95.26-7.89 3.05-10.57 11-11.2a32 32 0 0 1 7.45.31c5.08.8 7.83 4.07 8.5 9a16.71 16.71 0 0 1 -5.48 15.3c-3.05 2.81-6.18 5.54-9.18 8.4a10.17 10.17 0 0 0 -1.45 2.49l.8.85 15.83-8.12c-5.41 16.72-1 29 14 37.27l-9.08 6.12.31.72 10.3-2.58.62 1.55-10.69 6.82.87 1.44c4.24-2.39 9.32-4 12.53-7.36 5.67-6 11.26-4.19 17.19-1.68 3.68 1.55 5.15 4.09 2.26 7.81a19.46 19.46 0 0 0 -1.74 3.44 7.16 7.16 0 0 0 3.78-2.05c4.09-3.35 7.33-2.25 8.9 2.84 1.11 3.58-1 5.54-3.27 7.64-7.52 6.91-10.66 15.43-9.55 26.82 5.69-9.4 5.74-21.11 16.48-26l3.89 8.42c1.93-6.71 2.7-7.25 8-3.95 4.84 3 9.32 6.56 14.22 10.06l3-7.15c-5.36-2.61-10.38-4.5-14.8-7.32-8.83-5.63-17.48-11.5-21.21-22.27-.72-2.08-4-3.91-6.41-4.65-6.63-2-13.57-3-20.16-5.05-13-4.15-19-18-13.28-30.54 1.21-2.66 3.09-5 4.67-7.52l1.1.59v5.94c5.72-8.07 5.72-8.07 15.34-5.07 1.58.49 3.19.91 4.78 1.39 8 2.42 9.22 5.52 5 12.69-2.32 3.94-5.75 4.4-9.89 3.85s-8.32-.62-12.49-.9l-.11 1.63c3.38.61 6.85.95 10.14 1.88 8.41 2.4 11 1.35 14.48-6.34 2.94-6.53 6.23-8.12 13.1-6.09 4.62 1.36 9.18 2.89 13.73 4.47 2.92 1 6.64 1.51 8.4 3.59s1.41 5.77 2 8.76c1-.95 2.16-2.75 3.72-3.25 2.06-.66 5.19-1.29 6.57-.24q14.22 10.88 27.83 22.56c6 5.16 6.12 8.76 1.67 15.64-1.79 2.76-3.48 5.6-5.21 8.41l1.34.9 9.12-13.58 1.35.21c.8 7.05 2.1 14.09 2.29 21.16.34 12.11-.52 24.27.07 36.37.47 9.67-1.74 18.29-5.83 26.89-5.42 11.41-12.88 18.87-26.46 20.06-12.25 1.08-24.3 3.5-36.61.46-5.65-1.4-9.09-4.58-10.3-10.16-1.3-6-2.44-12-3.67-18.06-.67-3.33-1.38-6.65-2.07-10l-1.37.23c.41 6.44.47 12.93 1.31 19.31 2.34 17.86 4.79 20.73 22.35 25.1 7.86 2 16 2.72 24 4.25 1.55.3 2.91 1.65 4.36 2.51-1 1.2-2 2.38-2.95 3.6-.59.75-1.09 1.58-1.57 2.27l7.19 2.53 5.3-4.4c1.45 20.27 2.78 39 4.12 57.67l2 .12c.45-3.75 1.18-7.49 1.31-11.25.56-15.75.86-31.51 1.41-47.25a19.58 19.58 0 0 1 7-14.37 41.17 41.17 0 0 0 13.13-21.35c2.63-11.29 4.51-22.78 6.18-34.26 1.41-9.82 2.09-19.74 3.1-29.62zm-478-216.92v20.57q0 169.34-.1 338.67c0 4.49.86 6.51 5.76 6.75 20.07 1 40.11 2.9 60.19 3.45 29.15.81 58.19-.82 86.53-8.56 21.5-5.87 41.07-15.2 56.25-32.22 29.65-33.25 34-85.29 9.78-120.22-13.8-19.91-33-32.29-55.91-39.45-1.59-.5-3.17-1.05-5.77-1.91l6.21-2.67a103.2 103.2 0 0 0 38.71-28.16c28.81-33.94 23.47-90.65-12.78-117.34-22.36-16.46-47.53-23.08-74.41-25.28-28.27-2.32-56.48-.84-84.63 2.09-9.91 1.03-19.71 2.76-29.87 4.28z" fill="#fff"/><path d="m839.76 440.44c-1 9.88-1.69 19.8-3.12 29.62-1.67 11.48-3.55 23-6.18 34.26a41.17 41.17 0 0 1 -13.13 21.35 19.58 19.58 0 0 0 -7 14.37c-.55 15.74-.85 31.5-1.41 47.25-.13 3.76-.86 7.5-1.31 11.25l-2-.12c-1.34-18.7-2.67-37.4-4.12-57.67l-5.3 4.4-7.19-2.53c.48-.69 1-1.52 1.57-2.27.95-1.22 2-2.4 2.95-3.6-1.45-.86-2.81-2.21-4.36-2.51-8-1.53-16.13-2.3-24-4.25-17.56-4.37-20-7.24-22.35-25.1-.84-6.38-.9-12.87-1.31-19.31l1.37-.23c.69 3.33 1.4 6.65 2.07 10 1.23 6 2.37 12.06 3.67 18.06 1.21 5.58 4.65 8.76 10.3 10.16 12.31 3 24.36.62 36.61-.46 13.58-1.19 21-8.65 26.46-20.06 4.09-8.6 6.3-17.22 5.83-26.89-.59-12.1.27-24.26-.07-36.37-.19-7.07-1.49-14.11-2.29-21.16l-1.35-.21-9.1 13.58-1.28-.79c1.73-2.81 3.42-5.65 5.21-8.41 4.45-6.88 4.35-10.48-1.67-15.64q-13.59-11.67-27.83-22.56c-1.38-1.05-4.51-.42-6.57.24-1.56.5-2.7 2.3-3.72 3.25-.58-3-.27-6.74-2-8.76s-5.48-2.58-8.4-3.59c-4.55-1.58-9.11-3.11-13.73-4.47-6.87-2-10.16-.44-13.1 6.09-3.46 7.69-6.07 8.74-14.48 6.34-3.29-.93-6.76-1.27-10.14-1.88l.11-1.63c4.17.28 8.36.34 12.49.9s7.57.09 9.89-3.85c4.22-7.17 3-10.27-5-12.69-1.59-.48-3.2-.9-4.78-1.39-9.62-3-9.62-3-15.34 5.07v-5.94l-1.1-.59c-1.58 2.5-3.46 4.86-4.67 7.52-5.69 12.51.24 26.39 13.28 30.54 6.59 2.1 13.53 3.05 20.16 5.05 2.44.74 5.69 2.57 6.41 4.65 3.73 10.77 12.38 16.64 21.21 22.27 4.42 2.82 9.44 4.71 14.8 7.32l-3 7.15c-4.9-3.5-9.38-7.07-14.22-10.06-5.35-3.3-6.12-2.76-8 3.95l-3.89-8.42c-10.74 4.92-10.79 16.63-16.48 26-1.11-11.39 2-19.91 9.55-26.82 2.29-2.1 4.38-4.06 3.27-7.64-1.57-5.09-4.81-6.19-8.9-2.84a7.16 7.16 0 0 1 -3.78 2.05 19.46 19.46 0 0 1 1.7-3.42c2.89-3.72 1.42-6.26-2.26-7.81-5.93-2.51-11.52-4.28-17.19 1.68-3.21 3.37-8.29 5-12.53 7.36l-.87-1.44 10.66-6.79-.62-1.55-10.3 2.55-.31-.72 9.08-6.12c-15.09-8.24-19.46-20.55-14-37.27l-15.88 8.11-.8-.85a10.17 10.17 0 0 1 1.45-2.49c3-2.86 6.13-5.59 9.18-8.4a16.71 16.71 0 0 0 5.48-15.3c-.67-5-3.42-8.25-8.5-9a32 32 0 0 0 -7.45-.31c-7.94.63-10.73 3.31-11 11.2-.27 8.25-.06 16.52-.06 24.95l3.42.29c-4.15 12.93-9.32 25.58-12.19 38.73-5.4 24.69-1.16 48.94 6.4 72.67 2.47 7.74 5.36 15.36 8.43 22.89 6 14.62 22.17 23.25 37.76 20.23 5.17-1 10.27-2.36 16.4-3.79-2.18 5.64-5.58 8.16-10.47 9.63a92.69 92.69 0 0 0 -14.06 5.85c-.78.38-1.12 3-.73 4.23 6 19.58 5.41 39.34 1.8 59.18-.29 1.62-1.51 3.09-2.29 4.62l-1.66-.66c.15-3.28.31-6.56.44-9.85.58-15.2-1.23-30.18-4.4-45-2.22-10.38-7.29-18.69-16.91-24-6.54-3.63-10.57-9.78-12.87-16.63-12-35.84-19-72.29-12.25-110.24a23.68 23.68 0 0 1 .93-4.38c8.51-22 6.18-44.74 4.87-67.5-.47-8.34 1-16.78 1.45-25.18.23-3.79.32-7.59.38-11.39.14-8.93-.8-18 .56-26.74 2-13 8.47-17.2 21.62-16.31 5.7.38 6.61-.39 7.34-6.1.33-2.63.62-5.28 1.15-7.88 2.17-10.69 8.2-16.83 18.9-15.94 10.29.85 16-1.16 18.25-12.22 1.55-7.7 8.9-11.61 15.59-15.19h10c8.67 5.34 15.58 11.83 14.75 23.7 2-1.09 3.27-1.79 4.55-2.51 7.94-4.45 15.53-3.61 21.72 3 2.66 2.86 5.31 6.3 6.38 9.93 2.65 9 5.31 18.24 6.29 27.54 2.16 20.47 3.11 41 8.24 61.14 1.24 4.85.37 10.21.74 15.32.39 5.39.58 10.87 1.76 16.1 2.73 12.13 6.35 24.07 8.94 36.22 1.75 8.21 2.36 16.67 3.47 25zm-29.66-94.54-.72 1.72c-27.47-7.65-53.66-3.15-80.5 7.94 18.35 8.81 35.1 18.93 55 8.8l-5.13 4.09c4.22 3.46 8.1 6.52 11.82 9.74 9.66 8.36 19 17.06 29 25.11 6.13 5 10.49 10.66 11.41 18.53.69 5.93.86 11.92 1.33 18.79a18.67 18.67 0 0 0 1-2.63c.24-1.48.39-3 .56-4.45 1.93-17.18-1.25-33.71-6.12-50.1-5.75-19.44-11.35-38.98-10.75-59.55.17-6.09-.42-11.78-3-17.42-1.48-3.18-1.87-7-2.12-10.59-.88-11.88-.97-23.88-2.18-35.79-1.16-11.52-2.39-23.19-8.76-33.44-2.45-3.94-5.45-6.7-10.56-5.72-5.3 1-9.5 3.56-10.52 9.16a114 114 0 0 0 -1.19 13.85c-.56 9.41-.52 9.4 8.82 8.9 5.24-.28 10.18.44 14.23 4.11a90.66 90.66 0 0 1 -9.4-.89c-8.31-.86-12.11 1.5-13.24 9.68a139.71 139.71 0 0 0 -1 22.32c.16 7.43 2.76 9 10.08 8.63 5.1-.27 10.25.3 15.37.5-6.76 1.94-13.38 2.72-19.92 4-1.18.22-2.74 2.29-2.84 3.61-.48 6.28-.48 12.59-.73 18.89-.43 10.65 2.14 13.66 12.47 16.24 5.99 1.45 11.74 3.93 17.59 5.97zm-43.84-48.19-.06 2.48c-3.9.31-7.83.41-11.69 1-6.59 1-9 3-9.59 9.43a227 227 0 0 0 -.8 23.34c.06 8.25 2.59 10.27 10.81 8.65 5.84-1.15 11.6-2.84 17.31-4.54 3.2-1 4.68-3.2 4.33-6.84-.42-4.28-.11-8.63-.41-12.92-.56-8.06-1.37-16.1-2-24.15-.42-5.61-1.75-11.41-.81-16.81 3.78-21.82-1.84-43-3.81-64.36-.43-4.61-3.68-8-8.6-9.31-5.19-1.42-9.69-.31-13.1 3.66a37.26 37.26 0 0 0 -5.81 9.17c-3.89 8.94-1.84 18.33-1.34 27.56.31 5.58.93 6 6.44 4.37 6.69-2 13.17-1.31 19.69.66-4.83.82-9.7 1-14.53 1.51-8.26.9-11 3.26-11.26 11.66a160.1 160.1 0 0 0 1.37 25.73c1.39 10.32 3.79 11.44 14.17 9.69 3.13-.57 6.43-.03 9.69.02zm-34.3-29-.06 2c-3.29 0-6.59 0-9.88 0-10.7-.08-16.43 4.7-16.62 15.39-.17 9.75.83 19.53 1.62 29.27.08 1 2.35 2.82 3.39 2.67 7.37-1 14.67-2.46 22-3.72 8-1.38 10.21-4.08 8.33-11.93-4.32-18.08-4.88-36.42-4.85-54.87a31 31 0 0 0 -2.32-11.07c-2.31-5.92-6.5-8.21-12-7.44-7.94 1.12-15 8-15.47 15.94-.45 6.94-.17 13.93-.09 20.9 0 3.47 2.12 4.65 5.33 4 2.28-.45 4.51-1.45 6.79-1.52 4.62-.11 9.23.23 13.87.38zm-25.84 85.14c6 .19 11.22.43 16.45.46a7.59 7.59 0 0 0 3.69-1.11c2.83-1.66 5.87-3.19 8.22-5.42 2.17-2 4.74-4.83 5-7.5.6-6 .08-12.2-.36-18.3-.24-3.45-2.6-5.55-6.11-5-6.86 1-13.83 1.82-20.38 3.91-2.71.87-5.66 4.51-6.39 7.42a57.25 57.25 0 0 0 -.12 25.54zm-4-34.92c0-4.32.57-8.75-.22-12.91-.47-2.44-2.68-5.61-4.87-6.46-7.42-2.88-19.42 2.7-21 10.42s-1.31 15.72-1.46 23.61c-.06 3.19 2.38 4.5 5.49 4.42 5.31-.15 10.63-.31 15.94-.39 4.13-.07 6.07-2.28 6.15-6.23.06-4.15-.01-8.31-.01-12.46zm-25.12-18.37c6.43-1.43 12.22-2.54 17.9-4.05 3.68-1 6.25-3.57 5.82-7.56-.75-7.05-1.73-14.09-3.11-21-.85-4.25-3.4-7.42-8.19-8.22s-7.22 2.43-9.53 5.7c-7.89 11.23-4.83 23.29-2.89 35.13z"/><path d="m839.76 411.51c-1.11-8.34-1.72-16.8-3.47-25-2.59-12.15-6.21-24.09-8.94-36.22-1.18-5.23-1.37-10.71-1.76-16.1-.37-5.11.5-10.47-.74-15.32-5.13-20.1-6.08-40.67-8.24-61.14-1-9.3-3.64-18.51-6.29-27.54-1.07-3.63-3.72-7.07-6.38-9.93-6.19-6.64-13.78-7.48-21.72-3-1.28.72-2.56 1.42-4.55 2.51.83-11.87-6.08-18.36-14.75-23.7h76.84z" fill="#fff"/><path d="m361.72 223.52c10.16-1.48 20-3.25 29.83-4.28 28.15-2.93 56.36-4.41 84.63-2.09 26.88 2.2 52.05 8.82 74.41 25.28 36.25 26.69 41.59 83.4 12.78 117.34a103.2 103.2 0 0 1 -38.71 28.16l-6.21 2.67c2.6.86 4.18 1.41 5.77 1.91 22.87 7.16 42.11 19.54 55.91 39.45 24.21 34.93 19.87 87-9.78 120.22-15.18 17-34.75 26.35-56.25 32.22-28.34 7.74-57.38 9.37-86.53 8.56-20.08-.55-40.12-2.44-60.19-3.45-4.9-.24-5.76-2.26-5.76-6.75q.19-169.33.1-338.67zm48.43 188.59a15.54 15.54 0 0 0 -.43 2.17q0 67.83-.08 135.65c0 3.2 1.37 4 4.1 4.16 9.13.45 18.24 1.18 27.38 1.44 18.19.5 36.2-.68 53.77-6 43.05-13.15 62.61-56.32 43.33-96.5-8.86-18.47-25-28.3-43.72-34.51-27.5-9.14-55.96-5.52-84.35-6.41zm-.21-36.75c1.38.12 2.5.3 3.62.3 14.79 0 29.63.64 44.36-.29a136.93 136.93 0 0 0 31.75-5.46c31.56-9.77 47.38-35.27 42.77-67.8-3.06-21.6-16.08-35.25-36.1-42.3-26.27-9.26-53.31-7.5-80.37-4.66-5 .51-6.44 2.4-6.41 7.39.22 35.73.12 71.45.13 107.18 0 1.79.16 3.57.25 5.64z"/><g fill="#fff"><path d="m810.1 345.9c-5.85-2-11.6-4.52-17.58-6-10.33-2.58-12.9-5.59-12.47-16.24.25-6.3.25-12.61.73-18.89.1-1.32 1.66-3.39 2.84-3.61 6.54-1.24 13.16-2 19.92-4-5.12-.2-10.27-.77-15.37-.5-7.32.4-9.92-1.2-10.08-8.63a139.71 139.71 0 0 1 1-22.32c1.13-8.18 4.93-10.54 13.24-9.68a90.66 90.66 0 0 0 9.4.89c-4.05-3.67-9-4.39-14.23-4.11-9.34.5-9.38.51-8.82-8.9a114 114 0 0 1 1.19-13.85c1-5.6 5.22-8.14 10.52-9.16 5.11-1 8.11 1.78 10.56 5.72 6.37 10.25 7.6 21.92 8.76 33.44 1.21 11.88 1.3 23.87 2.12 35.79.25 3.58.64 7.41 2.12 10.59 2.63 5.64 3.22 11.33 3 17.42-.59 20.57 5 40.11 10.74 59.55 4.87 16.39 8 32.92 6.12 50.1-.17 1.48-.32 3-.56 4.45a18.67 18.67 0 0 1 -1 2.63c-.47-6.87-.64-12.86-1.33-18.79-.92-7.87-5.28-13.56-11.41-18.53-9.92-8.05-19.31-16.75-29-25.11-3.72-3.22-7.6-6.28-11.82-9.74l5.13-4.09c-19.94 10.13-36.69 0-55-8.8 26.84-11.09 53-15.59 80.5-7.94z"/><path d="m766.26 297.71c-3.24 0-6.56-.59-9.69-.06-10.38 1.75-12.78.63-14.17-9.69a160.1 160.1 0 0 1 -1.35-25.71c.24-8.4 3-10.76 11.26-11.66 4.83-.53 9.7-.69 14.53-1.51-6.52-2-13-2.69-19.69-.66-5.51 1.68-6.13 1.21-6.44-4.37-.5-9.23-2.55-18.62 1.34-27.56a37.26 37.26 0 0 1 5.81-9.17c3.41-4 7.91-5.08 13.1-3.66 4.92 1.34 8.17 4.7 8.6 9.31 2 21.39 7.59 42.54 3.81 64.36-.94 5.4.39 11.2.81 16.81.61 8.05 1.42 16.09 2 24.15.3 4.29 0 8.64.41 12.92.35 3.64-1.13 5.88-4.33 6.84-5.71 1.7-11.47 3.39-17.31 4.54-8.22 1.62-10.75-.4-10.81-8.65a227 227 0 0 1 .8-23.34c.61-6.47 3-8.46 9.59-9.43 3.86-.57 7.79-.67 11.69-1z"/><path d="m732 268.71c-4.6-.15-9.21-.49-13.8-.37-2.28.07-4.51 1.07-6.79 1.52-3.21.62-5.29-.56-5.33-4-.08-7-.36-14 .09-20.9.52-8 7.53-14.82 15.47-15.94 5.48-.77 9.67 1.52 12 7.44a31 31 0 0 1 2.32 11.07c0 18.45.53 36.79 4.85 54.87 1.88 7.85-.37 10.55-8.33 11.93-7.34 1.26-14.64 2.71-22 3.72-1 .15-3.31-1.64-3.39-2.67-.79-9.74-1.79-19.52-1.62-29.27.19-10.69 5.92-15.47 16.62-15.39h9.88z"/><path d="m706.12 353.85a57.25 57.25 0 0 1 .13-25.58c.73-2.91 3.68-6.55 6.39-7.42 6.55-2.09 13.52-2.91 20.38-3.91 3.51-.51 5.87 1.59 6.11 5 .44 6.1 1 12.27.36 18.3-.27 2.67-2.84 5.45-5 7.5-2.35 2.23-5.39 3.76-8.22 5.42a7.59 7.59 0 0 1 -3.69 1.11c-5.24.01-10.47-.27-16.46-.42z"/><path d="m702.14 318.93c0 4.15.07 8.31 0 12.46-.08 3.95-2 6.16-6.15 6.23-5.31.08-10.63.24-15.94.39-3.11.08-5.55-1.23-5.49-4.42.15-7.89-.14-16 1.46-23.61s13.61-13.3 21-10.42c2.19.85 4.4 4 4.87 6.46.79 4.16.22 8.59.22 12.91z"/><path d="m677 300.56c-2-11.84-5.06-23.9 2.89-35.16 2.31-3.27 4.62-6.52 9.53-5.7s7.34 4 8.19 8.22c1.38 6.94 2.36 14 3.11 21 .43 4-2.14 6.59-5.82 7.56-5.65 1.52-11.44 2.65-17.9 4.08z"/><path d="m410.15 412.11c28.39.88 56.82-2.73 84.35 6.37 18.77 6.21 34.86 16 43.72 34.51 19.28 40.18-.28 83.35-43.33 96.5-17.57 5.36-35.58 6.54-53.77 6-9.14-.26-18.25-1-27.38-1.44-2.73-.14-4.11-1-4.1-4.16q.15-67.81.08-135.65a15.54 15.54 0 0 1 .43-2.13z"/><path d="m409.94 375.36c-.09-2.07-.25-3.85-.25-5.64 0-35.73.09-71.45-.13-107.18 0-5 1.44-6.88 6.41-7.39 27.06-2.84 54.1-4.6 80.37 4.66 20 7.05 33 20.7 36.1 42.3 4.61 32.53-11.21 58-42.77 67.8a136.93 136.93 0 0 1 -31.75 5.46c-14.73.93-29.57.29-44.36.29-1.12 0-2.24-.18-3.62-.3z"/></g></g></svg>