<svg viewBox="0 0 251 276" xmlns="http://www.w3.org/2000/svg"><g transform="translate(-1091 -368)"><path d="m1197 644h-106v-276h251v108c-2.69-6.54-7.07-11.34-14.29-12.51-12.56-2-25.32-1.64-35.14 7-8.61 7.57-17.68 12.2-28.86 13.87-5.53.82-10.71 3.9-16.24 4.71-2.94.43-7.33-.92-9.12-3.08-1.59-1.91-1-6.15-.44-9.19a157.83 157.83 0 0 1 4.4-17.8c1.43-4.67 2.67-9.77 5.48-13.58 10.85-14.65 34.26-22.16 52.06-17.38 13.47 3.61 26.36-5.06 27.54-18.51.64-7.37-2.3-12.7-9.13-15.54-17.53-7.29-35.14-14.35-52.67-21.63a20.83 20.83 0 0 0 -16.46-.14c-12.67 5.07-25.32 10.24-38.16 14.84-5.39 1.94-9.91 4.57-13.4 9.05-12.68 16.3-25.93 32.2-37.81 49.07a103.88 103.88 0 0 0 -13.38 27.7c-9.44 29.33-18.85 58.63-31.59 86.76a81.77 81.77 0 0 0 -4.56 13.72c-4.47 17.74-8.75 35.53-13.08 53.32-.43 1.76-1.43 3.87-.86 5.28.68 1.66 2.72 2.84 4.38 3.92a5.74 5.74 0 0 0 2.46-2.65c4.16-15.92 8.19-31.87 12.2-47.83 1.07-4.23 3.12-6.87 8-6.3 1.1.13 2.33-.84 3.5-1.3-.62-1-1-2.56-1.9-3-7.43-3.83-7.47-5.94-4-14.78.8-2 1.86-3.91 2.71-5.9 8.59-20.21 18.1-40.1 25.46-60.75 6.92-19.42 14.26-38.21 27.15-54.66 7-9 12.4-19.33 18.79-28.88 5.56-8.31 13-14.16 23-16.36 5.37-1.17 10.61-2.88 16-4.07 16.64-3.69 33.09-4 48.74 4 1.91 1 3.14 3.26 5.27 5.58l4.76.21 4 2.78 6.42.41c2 7.49-2.15 13.32-11.1 15.67-11.13 2.95-11.13 2.95-9.27-8.62 1.62-10-3.79-15.73-13.85-14.87a54.77 54.77 0 0 1 -10 .36c-15.85-1.58-30.7 2.49-45.43 7.55a33.75 33.75 0 0 0 -17.58 13.28c-8.23 12.13-16.66 24.12-24.91 36.22a34.81 34.81 0 0 0 -2.49 5.31l1.66 1c5.67-7.31 11.46-14.54 17-22s11-15.23 16.52-23c1.81 2.24 3 3.66 4.12 5.08l.92-.53-.35-7.74 1.79-1c.83 1.75 1.65 3.51 2.92 6.19 1.87-7.64 3.31-9.67 8.9-11.08 7.24-1.84 14.62-3.19 22-4.49a11.9 11.9 0 0 1 10.94 3.55c1.45 1.42 3.8 1.94 5.74 2.86l.41-1.06c-1.39-1.46-2.77-2.93-4.65-4.92 4.33-.75 7.74-1.5 11.19-1.92 7.7-.93 12 4.31 9.82 11.86-2 7-8.21 12.59-15.58 12.77-8.28.21-16.6-.34-24.88-.88-3.26-.21-4.84.15-4.91 4-.27 14.21-10.17 22.46-24.41 20.72a30.09 30.09 0 0 0 -3.8 0l-.34 1.58 5.38 2.72c-2.26 4.34-9 4.06-10.11 9.27l1.12 1.53 9.9-6c.39 1.89 1.31 3.65 1 5.13a230.21 230.21 0 0 1 -5.85 22.51c-2 5.81-6.7 8.35-13.06 7.72-3.34-.32-6.75-.05-11.1-.05 3.59 4.74 7.23 4.25 10.92 3.81 8.36-1 10.72.69 12.6 8.92a15.66 15.66 0 0 1 .64 3.93c-.46 13.61-.71 27.24-1.64 40.82a25.52 25.52 0 0 1 -9.48 18.15 13.08 13.08 0 0 0 -1.88 2.87c5.33.19 11.08-3.94 12.58-10.41a252.41 252.41 0 0 0 5.2-30.87c.48-4.62 1.61-7.71 5.56-10.21s7.35-5.65 11-8.51c-8.06-.51-11.24 6.72-17.27 10.38v-29l-1.39-.6c2.43-7.32 6.07-14.11 6.71-21.17.94-10.38 4.76-17.94 13.17-24.11 5.29-3.88 9.26-9.53 14-14.17 3.19-3.11 7-4.64 12.76-2.72-4.38 4.52-7.77 8.64-11.79 12-3.84 3.2-8.34 5.61-13.57 9l6.13 1c-2.33 17.56.33 20.86-15.15 29.25.26.16.49.41.75.46 1.77.37 3.54.7 5.32 1-1.27 1.27-2.49 2.59-3.83 3.79-1.15 1-2.44 1.93-3.67 2.89l.64 1.19a13.58 13.58 0 0 0 3.15-.37c6.82-2.48 8.23-2.05 12.49 3.81 4.5 6.2 7.56 12.79 7.37 20.75-.07 3.08 1.31 6.19 2 9.28l2.12-.37v-21.44l1.36-.42c1.78 4.6 3.57 9.19 5.33 13.72 6-1.24 6.35-1.53 5.33-6.08-3.19-14.14-2.23-12.59 10-16 6.43-1.81 9.42-.47 12.68 5.48 1.16 2.11 2.43 4.15 3.65 6.22.44-5.62 3.58-1.44 5.6-1.76-.9-2.61-1.68-4.95-2.51-7.26-2.77-7.75-1.71-11.11 5.11-15.61a48.09 48.09 0 0 1 26.44-7.84c4.09-.05 7.58 1.07 9.63 5s1.19 7.49-1.14 10.82c-5.65 8-11.28 16.1-17.17 24-8.93 11.9-20 19.88-35.54 21.59-14.28 1.57-25.33 9.29-31.2 22.78a29.43 29.43 0 0 1 -16.13 16.16 234.76 234.76 0 0 1 -22.55 7.84c-4.53 1.38-9.3 1.95-14.32 2.95 4.73 7.23-1.27 13.52-.6 20.56 1.81-4.47 3.46-8.52 5.1-12.58-.51 8.45-1.87 16.43-3.1 24.44-.25 1.6-.66 4.08.18 4.8 4.28 3.71 3 8.45 3.2 13 .22 3.85.87 7.79 1.32 11.74zm-51.48-66.3-.36 1.27c2.22 2.55 5.34 4.77 6.5 7.74 2.53 6.48 6.66 7.59 12.92 6.38 9.91-1.92 19-5 25.1-13.69.88-1.26 1.25-2.87 2.35-5.49a28.37 28.37 0 0 0 -3.67 1.3c-10.71 6.17-21.89 7.19-33.69 3.52-2.87-.9-6.09-.73-9.15-1.03z" fill="#fff"/><path d="m1342 485v159h-144c.35-2.59.8-5.17 1-7.77 1-10.91 1.45-21.87 2.85-32.72 1.44-11.15 8.18-18.33 19-21.44a48.12 48.12 0 0 0 28.42-21.43c7.11-11.46 17.22-18 30.32-20.73 14.57-3 26.13-10.77 35.06-22.91 5.19-7.05 11.69-13.13 17.47-19.77 3.41-3.96 6.58-8.15 9.88-12.23z" fill="#fff"/><path d="m1342 485c-3.3 4.08-6.47 8.27-9.91 12.23-5.78 6.64-12.28 12.72-17.47 19.77-8.93 12.14-20.49 19.87-35.06 22.91-13.1 2.74-23.21 9.27-30.32 20.73a48.12 48.12 0 0 1 -28.42 21.43c-10.77 3.11-17.51 10.29-19 21.44-1.4 10.85-1.9 21.81-2.85 32.72-.22 2.6-.67 5.18-1 7.77h-1c-.45-4-1.1-7.89-1.3-11.85-.23-4.55 1.08-9.29-3.2-13-.84-.72-.43-3.2-.18-4.8 1.23-8 2.59-16 3.1-24.44-1.64 4.06-3.29 8.11-5.1 12.58-.67-7 5.33-13.33.6-20.56 5-1 9.79-1.57 14.32-2.95a234.76 234.76 0 0 0 22.55-7.84 29.43 29.43 0 0 0 16.16-16.14c5.87-13.49 16.92-21.21 31.2-22.78 15.55-1.71 26.61-9.69 35.54-21.59 5.89-7.86 11.52-15.92 17.17-24 2.33-3.33 3.16-7 1.14-10.82s-5.54-5-9.63-5a48.09 48.09 0 0 0 -26.44 7.84c-6.82 4.5-7.88 7.86-5.11 15.61.83 2.31 1.61 4.65 2.51 7.26-2 .32-5.16-3.86-5.6 1.76-1.22-2.07-2.49-4.11-3.65-6.22-3.26-5.95-6.25-7.29-12.68-5.48-12.24 3.45-13.2 1.9-10 16 1 4.55.7 4.84-5.33 6.08-1.76-4.53-3.55-9.12-5.33-13.72l-1.36.42v21.66l-2.12.37c-.71-3.09-2.09-6.2-2-9.28.19-8-2.87-14.55-7.37-20.75-4.26-5.86-5.67-6.29-12.49-3.81a13.58 13.58 0 0 1 -3.15.37l-.64-1.19c1.23-1 2.52-1.85 3.67-2.89 1.34-1.2 2.56-2.52 3.83-3.79-1.78-.33-3.55-.66-5.32-1-.26-.05-.49-.3-.75-.46 15.48-8.39 12.82-11.69 15.15-29.25l-6.13-1c5.23-3.43 9.73-5.84 13.57-9 4-3.37 7.41-7.49 11.79-12-5.75-1.92-9.57-.39-12.76 2.72-4.77 4.64-8.74 10.29-14 14.17-8.41 6.17-12.23 13.73-13.17 24.11-.64 7.06-4.28 13.85-6.71 21.17l1.39.6v29c6-3.66 9.21-10.89 17.27-10.38-3.65 2.86-7.1 6-11 8.51s-5.08 5.59-5.56 10.21a252.41 252.41 0 0 1 -5.2 30.87c-1.5 6.47-7.25 10.6-12.58 10.41a13.08 13.08 0 0 1 1.88-2.87 25.52 25.52 0 0 0 9.48-18.15c.93-13.58 1.18-27.21 1.64-40.82a15.66 15.66 0 0 0 -.64-3.93c-1.88-8.23-4.24-9.92-12.6-8.92-3.69.44-7.33.93-10.92-3.81 4.35 0 7.76-.27 11.1.05 6.36.63 11.08-1.91 13.06-7.72a230.21 230.21 0 0 0 5.85-22.51c.34-1.48-.58-3.24-1-5.13l-9.9 6-1.12-1.53c1.08-5.21 7.85-4.93 10.11-9.27l-5.38-2.72.34-1.58a30.09 30.09 0 0 1 3.8 0c14.24 1.74 24.14-6.51 24.41-20.72.07-3.87 1.65-4.23 4.91-4 8.28.54 16.6 1.09 24.88.88 7.37-.18 13.58-5.78 15.58-12.77 2.16-7.55-2.12-12.79-9.82-11.86-3.45.42-6.86 1.17-11.19 1.92 1.88 2 3.26 3.46 4.65 4.92l-.41 1.06c-1.94-.92-4.29-1.44-5.74-2.86a11.9 11.9 0 0 0 -10.94-3.55c-7.36 1.3-14.74 2.65-22 4.49-5.59 1.41-7 3.44-8.9 11.08-1.27-2.68-2.09-4.44-2.92-6.19l-1.79 1 .35 7.74-.92.53c-1.16-1.42-2.31-2.84-4.12-5.08-5.55 7.74-10.91 15.45-16.52 23s-11.32 14.65-17 22l-1.66-1a34.81 34.81 0 0 1 2.49-5.31c8.25-12.1 16.68-24.09 24.91-36.22a33.75 33.75 0 0 1 17.58-13.28c14.73-5.06 29.58-9.13 45.43-7.55a54.77 54.77 0 0 0 10-.36c10.06-.86 15.47 4.89 13.85 14.87-1.88 11.44-1.88 11.44 9.33 8.44 9-2.35 13.07-8.18 11.1-15.67l-6.42-.41 5-.85.24-1.82-11.55-3.37a16.88 16.88 0 0 0 1.14 2.32 11.38 11.38 0 0 0 1.14.94l-4.76-.21c-2.13-2.32-3.36-4.61-5.27-5.58-15.65-8-32.1-7.68-48.74-4-5.36 1.19-10.6 2.9-16 4.07-10 2.2-17.48 8.05-23 16.36-6.39 9.55-11.74 19.87-18.79 28.88-12.89 16.45-20.23 35.24-27.15 54.66-7.36 20.65-16.87 40.54-25.46 60.75-.85 2-1.91 3.89-2.71 5.9-3.51 8.84-3.47 11 4 14.78.91.47 1.28 2 1.9 3-1.17.46-2.4 1.43-3.5 1.3-4.9-.57-6.95 2.07-8 6.3-4 16-8 31.91-12.2 47.83a5.74 5.74 0 0 1 -2.46 2.65c-1.66-1.08-3.7-2.26-4.38-3.92-.57-1.41.43-3.52.86-5.28 4.33-17.79 8.61-35.58 13.08-53.32a81.77 81.77 0 0 1 4.56-13.72c12.74-28.13 22.15-57.43 31.59-86.76a103.88 103.88 0 0 1 13.38-27.7c11.88-16.87 25.13-32.77 37.81-49.07 3.49-4.48 8-7.11 13.4-9.05 12.84-4.6 25.49-9.77 38.16-14.84a20.83 20.83 0 0 1 16.46.14c17.53 7.28 35.14 14.34 52.67 21.63 6.83 2.84 9.77 8.17 9.13 15.54-1.18 13.45-14.07 22.12-27.54 18.51-17.8-4.78-41.21 2.73-52.06 17.38-2.81 3.81-4 8.91-5.48 13.58a157.83 157.83 0 0 0 -4.4 17.8c-.56 3-1.15 7.28.44 9.19 1.79 2.16 6.18 3.51 9.12 3.08 5.53-.81 10.71-3.89 16.24-4.71 11.18-1.67 20.25-6.3 28.86-13.87 9.82-8.64 22.58-9 35.14-7 7.22 1.17 11.6 6 14.29 12.51zm-34.87-89c3.89 8.79 2.5 16.12-4.36 22.47-.7.66-1.38 2.48-1 2.9a6 6 0 0 0 3.53 2.22c7.38.71 16.58-8.83 15.71-16.22-.13-1.15-1.23-3.2-1.67-3.15-6.42.78-9.09-3.7-12.21-8.22zm-60.05-15.59.06 1.86 11.17-1.29-.19-1.75z"/><path d="m1145.52 577.7c3.06.31 6.28.13 9.15 1 11.8 3.67 23 2.65 33.69-3.52a28.37 28.37 0 0 1 3.67-1.3c-1.1 2.62-1.47 4.23-2.35 5.49-6.1 8.68-15.19 11.77-25.1 13.69-6.26 1.21-10.39.1-12.92-6.38-1.16-3-4.28-5.19-6.5-7.74z"/><g fill="#fff"><path d="m1292.88 399.15a11.38 11.38 0 0 1 -1.14-.94 16.88 16.88 0 0 1 -1.14-2.32l11.55 3.37-.24 1.82-5 .85z"/><path d="m1307.13 396c3.12 4.56 5.79 9 12.18 8.22.44-.05 1.54 2 1.67 3.15.87 7.39-8.33 16.93-15.71 16.22a6 6 0 0 1 -3.53-2.22c-.35-.42.33-2.24 1-2.9 6.89-6.39 8.26-13.72 4.39-22.47z"/><path d="m1247.08 380.37 11-1.18.19 1.75-11.17 1.29z"/></g></g></svg>