<svg viewBox="0 0 182 374" xmlns="http://www.w3.org/2000/svg"><g transform="translate(-1080 -296)"><path d="m1233.13 670h-153.13v-374h182v374h-26.87a75.45 75.45 0 0 0 -1.35-8.79c-3-11-4.22-21.87-.61-33 2.86-8.78 8.94-15.07 15.64-20.93 9.52-8.33 13.16-18.79 12-31.29-1.35-14.75-2.46-29.54-3.48-44.32-1-15.11-.53-30.46-3-45.31-6.52-39.08-14.54-77.9-21.42-116.92-2.69-15.23-3.45-30.79-6.08-46a37.82 37.82 0 0 0 -7.53-17.07c-10.89-13.13-31.58-8.17-38.42 8.69-5.1 12.61-4 25.39-1.31 38.34 2.78 13.52 5.4 27.1 7.36 40.75.76 5.32-.48 10.93-.81 16.41l-1.79.25c-2.62-2.5-5-5.32-7.93-7.4-2.75-1.95-6-4.32-9.13-4.42-12.26-.42-23.09 2.9-29.89 14.36-.81 1.36-2.7 3-4 3-11.42-.45-18.08 6.4-23.74 14.9-3.49 5.24-7.34 9.9-13.89 11.48-1.15.28-2.17 1.43-3 2.37-8.75 9.33-9.69 19.86-5.15 31.49 2 5.23 4.14 10.69 4.67 16.19 1.55 16.05 3.06 32.16 3.23 48.27.26 24.82 8.12 47 20.51 68.05 6.1 10.36 10 21.34 9.09 33.68-.48 6.45-.5 13-.59 19.42 0 1 .7 2.61 1.28 2.71a4.35 4.35 0 0 0 3.48-.93 7.46 7.46 0 0 0 1.52-4.13c.55-7.13 1.11-14.27 1.3-21.41.14-5.58 1.22-10.28 7.77-12l-2.65-3c7.19-.23 12.49-2.84 16.1-7.37-5.83-.47-12.06.18-17.44-1.65-10.44-3.54-17.26-11.72-21.82-21.55-9.17-19.78-11.64-40.94-11.42-62.39 0-4.77 3.29-9.51 5.11-14.25a34.35 34.35 0 0 1 1.68-3.16l-7.58 2-1.13-16.84 1.42-.49c1.2 1.06 2.46 2.06 3.61 3.18 3.21 3.14 6.17 6.58 9.61 9.44 9.69 8.08 14 9.51 23.34-.23a5.72 5.72 0 0 1 4.24-1.58c4.8.7 9.54 1.86 13.87 2.75-2.23 6-4.75 12.71-7.27 19.45l.77.41 13.42-18.28c1.74 4.25 2.37 7.78 4.34 10.23 5.78 7.19 5.19 14 1 21.76-2.1 3.9-2.47 8.72-3.62 13.12l2 .53c.67-2.14 1.29-4.3 2-6.42 1.19-3.47 2.12-7.06 3.74-10.32 2.5-5 6.34-5.58 10.42-1.67s6.6 8 5.75 14.13c-.45 3.26 1.29 6.82 2 10.24l1.71-.33c.45-3.3.89-6.6 1.41-10.37l7.41 4.48.41-.71-6.31-10.26 6.48-1c-4.13-3.11-8.49-5-12.66-7.28-10-5.46-18.77-12.51-19-24.92-.1-6.61 1.64-13.56 4-19.79 2.56-6.67 8.54-10 17-10.85l-4.7 4.39c3.67.35 7.58-.35 10.22 1.16 9.82 5.64 10.42 16.28 1.84 23.63-3.64 3.11-4.44 5-3.7 9.82 5.84-7.1 11.31-13.77 17.63-21.47 2.53 2.63 6.84 5.58 9 9.66 3.89 7.33-1.76 13.09-5.64 19.23 6.13 2.61 9.75-.85 13.25-4.38a11.34 11.34 0 0 1 2.31 1.55c11 12.91 19.34 27.14 20.74 44.52 1.87 23.25-14.39 43.21-37.29 46.87-11.45 1.83-21.28-3-31.55-6-7.35-2.16-11.43-7.82-12.91-15.21-.84-4.24-1.15-8.58-1.91-12.83a21.88 21.88 0 0 0 -1.76-4.36l-1.42.42c.25 5.6.2 11.22.81 16.77 1.09 9.87 6.65 16.64 15.87 20a175.38 175.38 0 0 0 20.14 5.78c5 1.14 10.11 1.46 15.83 2.24l-3.48 3.25 4.81 1.75v1.11l-7.39 1.65a11.28 11.28 0 0 0 5.7 1.81c2.85.13 4.34 1.31 4.3 4.26a47.89 47.89 0 0 0 10.63 30.93zm-42.32-148.51c-4.55-5-9-9.78-13.55-14.77 2.64 6.95 6.85 12.06 13.55 14.77z" fill="#fff"/><path d="m1233.13 670a47.89 47.89 0 0 1 -10.63-31c0-2.95-1.45-4.13-4.3-4.26a11.28 11.28 0 0 1 -5.7-1.81l7.57-1.71v-1.11l-4.81-1.75 3.48-3.25c-5.72-.78-10.87-1.1-15.83-2.24a175.38 175.38 0 0 1 -20.14-5.78c-9.22-3.33-14.78-10.1-15.87-20-.61-5.55-.56-11.17-.81-16.77l1.42-.42a21.88 21.88 0 0 1 1.76 4.36c.76 4.25 1.07 8.59 1.91 12.83 1.48 7.39 5.56 13.05 12.91 15.21 10.27 3 20.1 7.82 31.55 6 22.9-3.66 39.16-23.62 37.29-46.87-1.4-17.38-9.69-31.61-20.74-44.52a11.34 11.34 0 0 0 -2.31-1.55c-3.5 3.53-7.12 7-13.25 4.38 3.88-6.14 9.53-11.9 5.64-19.23-2.17-4.08-6.48-7-9-9.66-6.32 7.7-11.79 14.37-17.63 21.47-.74-4.83.06-6.71 3.7-9.82 8.58-7.35 8-18-1.84-23.63-2.64-1.51-6.55-.81-10.22-1.16l4.7-4.39c-8.49.88-14.47 4.18-17 10.85-2.39 6.23-4.13 13.18-4 19.79.2 12.41 8.92 19.46 19 24.92 4.17 2.27 8.53 4.17 12.66 7.28l-6.48 1 6.31 10.26-.41.71-7.41-4.48c-.52 3.77-1 7.07-1.41 10.37l-1.71.33c-.75-3.42-2.49-7-2-10.24.85-6.14-1.78-10.32-5.75-14.13s-7.92-3.37-10.42 1.67c-1.62 3.26-2.55 6.85-3.74 10.32-.73 2.12-1.35 4.28-2 6.42l-2-.53c1.15-4.4 1.52-9.22 3.62-13.12 4.15-7.73 4.74-14.57-1-21.76-2-2.45-2.6-6-4.34-10.23l-13.42 18.28-.77-.41c2.52-6.74 5-13.47 7.27-19.45-4.33-.89-9.07-2.05-13.87-2.75a5.72 5.72 0 0 0 -4.24 1.58c-9.29 9.74-13.65 8.31-23.34.23-3.44-2.86-6.4-6.3-9.61-9.44-1.15-1.12-2.41-2.12-3.61-3.18l-1.42.49 1.13 16.84 7.58-2a34.35 34.35 0 0 0 -1.68 3.16c-1.82 4.74-5.06 9.48-5.11 14.25-.22 21.45 2.25 42.61 11.42 62.39 4.56 9.83 11.38 18 21.82 21.55 5.38 1.83 11.61 1.18 17.44 1.65-3.61 4.53-8.91 7.14-16.1 7.37l2.65 3c-6.55 1.7-7.63 6.4-7.77 12-.19 7.14-.75 14.28-1.3 21.41a7.46 7.46 0 0 1 -1.52 4.13 4.35 4.35 0 0 1 -3.48.93c-.58-.1-1.29-1.76-1.28-2.71.09-6.47.11-13 .59-19.42.91-12.34-3-23.32-9.09-33.68-12.39-21-20.25-43.23-20.51-68.05-.17-16.11-1.68-32.22-3.23-48.27-.53-5.5-2.63-11-4.67-16.19-4.54-11.63-3.6-22.16 5.15-31.49.88-.94 1.9-2.09 3-2.37 6.55-1.58 10.4-6.24 13.89-11.48 5.66-8.5 12.32-15.35 23.74-14.9 1.33.05 3.22-1.61 4-3 6.8-11.46 17.63-14.78 29.89-14.36 3.11.1 6.38 2.47 9.13 4.42 2.92 2.08 5.31 4.9 7.93 7.4l1.79-.25c.33-5.48 1.57-11.09.81-16.41-2-13.65-4.58-27.23-7.36-40.75-2.65-13-3.79-25.73 1.31-38.34 6.84-16.86 27.53-21.82 38.42-8.69a37.82 37.82 0 0 1 7.53 17.07c2.63 15.24 3.39 30.8 6.08 46 6.88 39 14.9 77.84 21.42 116.92 2.47 14.85 2 30.2 3 45.31 1 14.78 2.13 29.57 3.48 44.32 1.15 12.5-2.49 23-12 31.29-6.7 5.86-12.78 12.15-15.64 20.93-3.61 11.09-2.38 22 .61 33a75.45 75.45 0 0 1 1.35 8.79zm-48.13-191c4.23.5 5.89-1.38 5.2-5.54-.19-1.14-.08-2.34-.31-3.48-3.6-17.44-7.05-34.92-10.93-52.3-1.68-7.51-9.26-13.32-15.38-12.74-13.76 1.31-21.2 10.37-19.73 24 .07.67.14 1.33.2 2 1.92 20.6 7.78 39.81 19.8 56.92 4.52 6.43 4.35 6.43 9.6.9a72.12 72.12 0 0 1 6.15-5.08c1.87-1.57 3.68-3.21 5.52-4.81zm24 12.45c5.42-6.75 5.42-6.75 8.7-3.6-4.06 6.91-3.72 7.08 1.83 13a123.64 123.64 0 0 1 11.54 15c3.35 4.95 5.89 10.45 9.26 15.39 2 3 5 5.39 7.54 8.06 1.19-6.34 1.15-11.94 1.2-17.54.13-16.51 0-32.95-4-49.16-2.31-9.34-3.75-18.89-5.38-28.38-.79-4.62-2.59-6.1-7.5-5.74-3 .22-6.09 0-9.14 0a18.53 18.53 0 0 1 6-3c7.18-2.71 9-5.85 7.61-13.47-.58-3.28-1.26-6.54-2-9.8-3.38-16-6.66-31.93-10.21-47.85-1.68-7.5-3.43-8.7-11.16-8.3a98 98 0 0 0 -13.88 1.59c-7.14 1.4-9.61 4.59-9.21 11.92.3 5.47 1.08 10.93 1.87 16.37.58 4 3.37 5.49 7.17 5.47 5.33 0 10.67-.1 16-.05a16.18 16.18 0 0 1 3.31.71 123.73 123.73 0 0 1 -18.86 7c-4 1.16-5.74 3.71-5.66 7.7.11 5 .47 10 .32 15a8.56 8.56 0 0 0 4.42 8.25c3.25 2 6.24 4.5 9.35 6.78l-.77 1.51a70 70 0 0 1 -6.94-1.64c-2-.69-3.86-2-5.88-2.74-5.33-1.95-7.87 0-6.85 5.53a128.79 128.79 0 0 0 4.14 16.41c2.25 7 5.38 13.68 3.48 21.34-.24 1 .62 2.59 1.46 3.38 3.99 3.6 8.02 7.06 12.29 10.84zm-53.75-8.23c-.71-1.63-1.48-3.6-2.41-5.5a134 134 0 0 1 -13.14-44.81c-1-9-6.17-12.2-13.53-8.64a21.82 21.82 0 0 0 -11.4 25.08 143.32 143.32 0 0 0 25.91 50.22 23 23 0 0 0 5.35 5.16c5.45 3.43 12.21.79 15.25-5.65 2.4-5.07-.14-10.78-6-12.91l2.08 6.49c-4.14-3.11-6.38-7.76-12.17-4.45l.24-2.4zm31.77-148.83h-.83q.93 8.91 1.86 17.82c.41 3.83 2.58 4.9 6.25 4.35q11.58-1.74 23.21-3.06c4-.45 5.74-2.37 4.88-6.31-2.19-9.89-4-19.89-6.91-29.57-1-3.21-4.15-6.57-7.2-8.19-9.08-4.81-20 2.58-21.2 14a108.21 108.21 0 0 0 -.01 10.94zm-56.33 159.27c-6.18-12.12-12.25-24.07-18.37-36a36.74 36.74 0 0 0 -3.34-5.56c-2.61-3.45-6.1-3.89-9.65-1.45-7.09 4.86-10.2 15.51-6.26 23.18 6 11.61 13.1 22.51 23 31.18a30.9 30.9 0 0 0 9.4 5.41c3.45 1.3 8.63-2.19 10.15-6.33s-2.49-7.29-4.46-7.64c-2.71-.48-6.66 1.54-8.75 3.74-1.33 1.41-.25 5.09-.25 7.81-.81-1.36-3.21-3.55-2.88-5.2 1.28-5.95 6.3-8.09 11.46-9.16z"/><path d="m1190.81 521.49c-6.7-2.71-10.91-7.82-13.55-14.77 4.59 4.99 9 9.81 13.55 14.77z"/><g fill="#fff"><path d="m1209.05 491.43c-4.27-3.78-8.3-7.24-12.16-10.88-.84-.79-1.7-2.41-1.46-3.38 1.9-7.66-1.23-14.37-3.48-21.34a128.79 128.79 0 0 1 -4.14-16.41c-1-5.57 1.52-7.48 6.85-5.53 2 .75 3.84 2.05 5.88 2.74a70 70 0 0 0 6.94 1.64l.77-1.51c-3.11-2.28-6.1-4.74-9.35-6.78a8.56 8.56 0 0 1 -4.42-8.25c.15-5-.21-10-.32-15-.08-4 1.66-6.54 5.66-7.7a123.73 123.73 0 0 0 18.86-7 16.18 16.18 0 0 0 -3.31-.71c-5.33-.05-10.67 0-16 .05-3.8 0-6.59-1.49-7.17-5.47-.79-5.44-1.57-10.9-1.87-16.37-.4-7.33 2.07-10.52 9.21-11.92a98 98 0 0 1 13.88-1.59c7.73-.4 9.48.8 11.16 8.3 3.55 15.92 6.83 31.9 10.21 47.85.69 3.26 1.37 6.52 2 9.8 1.35 7.62-.43 10.76-7.61 13.47a18.53 18.53 0 0 0 -6 3c3.05 0 6.11.18 9.14 0 4.91-.36 6.71 1.12 7.5 5.74 1.63 9.49 3.07 19 5.38 28.38 4 16.21 4.12 32.65 4 49.16 0 5.6 0 11.2-1.2 17.54-2.55-2.67-5.49-5.06-7.54-8.06-3.37-4.94-5.91-10.44-9.26-15.39a123.64 123.64 0 0 0 -11.54-15c-5.55-5.95-5.89-6.12-1.83-13-3.36-3.13-3.36-3.13-8.78 3.62z"/><path d="m1185.14 478.85c-1.84 1.6-3.65 3.24-5.52 4.81a72.12 72.12 0 0 0 -6.15 5.08c-5.25 5.53-5.08 5.53-9.6-.9-12-17.11-17.88-36.32-19.8-56.92-.06-.66-.13-1.32-.2-2-1.47-13.64 6-22.7 19.73-24 6.12-.58 13.7 5.23 15.38 12.74 3.88 17.38 7.33 34.86 10.93 52.3.23 1.14.12 2.34.31 3.48.69 4.16-1 6-5.2 5.54-1-4-2.65-7.59-7.14-8.56-3.15-.68-10.12 3.45-11.65 7.37-.84 2.14-.15 4.88-.15 7.36l1.62-.06c.12-1.57-.34-3.59.48-4.6 2.16-2.69 4.52-5.56 7.46-7.19s4.4 1.55 6 3.74c.65.96 2.3 1.22 3.5 1.81zm-27.6-27.49.88 1.57 13.86-7.36-1.17-2z"/><path d="m1155.3 483.2-9.79 2.59-.24 2.4c5.79-3.31 8 1.34 12.17 4.45l-2.08-6.49c5.83 2.13 8.37 7.84 6 12.91-3 6.44-9.8 9.08-15.25 5.65a23 23 0 0 1 -5.35-5.16 143.32 143.32 0 0 1 -25.91-50.22 21.82 21.82 0 0 1 11.4-25.08c7.36-3.56 12.55-.4 13.53 8.64a134 134 0 0 0 13.14 44.81c.9 1.9 1.67 3.87 2.38 5.5z"/><path d="m1187.07 334.37a108.21 108.21 0 0 1 .06-11c1.15-11.38 12.12-18.77 21.2-14 3.05 1.62 6.25 5 7.2 8.19 2.88 9.68 4.72 19.68 6.91 29.57.86 3.94-.89 5.86-4.88 6.31q-11.62 1.34-23.21 3.06c-3.67.55-5.84-.52-6.25-4.35q-.94-8.91-1.86-17.82z"/><path d="m1130.74 493.64c-5.16 1.07-10.18 3.21-11.38 9.15-.33 1.65 2.07 3.84 2.88 5.2 0-2.72-1.08-6.4.25-7.81 2.09-2.2 6-4.22 8.75-3.74 2 .35 6 3.4 4.46 7.64s-6.7 7.63-10.15 6.33a30.9 30.9 0 0 1 -9.4-5.41c-9.93-8.67-17.06-19.57-23-31.18-3.94-7.67-.83-18.32 6.26-23.18 3.55-2.44 7-2 9.65 1.45a36.74 36.74 0 0 1 3.34 5.56c6.09 11.92 12.16 23.87 18.34 35.99zm-23.4-3 13-12.37-1.16-1.17c-5.01 2.9-11.7 3.98-11.84 13.56z"/></g><path d="m1185.14 478.85c-1.2-.59-2.85-.85-3.53-1.81-1.57-2.19-2.92-5.43-6-3.74s-5.3 4.5-7.46 7.19c-.82 1-.36 3-.48 4.6l-1.62.06c0-2.48-.69-5.22.15-7.36 1.53-3.92 8.5-8.05 11.65-7.37 4.49 1 6.14 4.54 7.14 8.56z"/><path d="m1157.54 451.36 13.57-7.83 1.17 2-13.86 7.36z"/><path d="m1107.34 490.66c.14-9.58 6.83-10.71 11.86-13.54l1.16 1.17z"/></g></svg>