<svg viewBox="0 0 480 400" xmlns="http://www.w3.org/2000/svg"><g transform="translate(-289.65 -113)"><path d="m769.65 380v133h-479.57q0-198 .1-396c0-1.25-2.06-4.31 1.89-4 0 1.33-.08 2.66-.08 4q0 168.72 0 337.44v5.2h194.17v-37.3h-149.16v-124.69h5.73c40.87 0 81.75-.07 122.62.1 4.35 0 5.87-1.08 5.63-5.56-.37-6.81-.1-13.66-.1-20.49 0-3.58 0-7.16 0-11.27h-133.8v-109.43h141.44v-38h291.13v258c-3.74-16.75-11.56-31.36-22.43-44.55-5.21-6.32-10.79-11.68-19-13.65-3.68-.89-5.12-3.37-4.25-7.14.44-1.95.71-3.94 1.23-5.87 4-14.8 5.09-29.19.78-44.6-5.51-19.71-23.5-30.95-39.73-27.72a8.12 8.12 0 0 1 -6.38-2.32c-5.51-6-12.22-8.91-20.21-9.4-5.29-.33-10.57-1-15.86-1.21-3.36-.11-7.31-.57-10 .94-5 2.85-9.28 7-14.36 11a7.07 7.07 0 0 1 -1.5-.93c-6.88-5.58-14.37-6.33-22.43-3-2.76 1.15-5.55 2.26-8.39 3.17-12 3.85-20.33 11-22 24.27-.46 3.57-2.1 5.83-6.38 6.2-3.16.27-6.32 2-9.21 3.51-17.34 9.36-17.39 9.71-16.34 29.51q1.58 29.38 2.74 58.79c.33 8.66 2.12 16.75 6.55 24.28a24.28 24.28 0 0 1 2.75 7.4c4.88 24.53 12.75 47.92 26.32 69.08 4.73 7.37 9.07 15.49 18.45 17.94 3.94 1 4.83 3 4.57 6.76-.77 11.3-1.24 22.62-1.77 33.93a32.26 32.26 0 0 0 .38 4.25l1.57.07c.41-1.66.92-3.31 1.21-5 1-5.75 1.73-11.53 2.8-17.26 2.17-11.73 1.8-10 11.42-11.59.18 0 .29-.47.72-1.18l-5.36-1.39v-1l16.66-.84-.1-1.33-15.71-2.12-.11-1.56c15.28 2.06 28-2.4 37.77-14.25-4.21 1.35-8.22 3.21-12.27 5-21.68 9.3-43.4 2.84-56.47-16.66-11.36-17-18.11-35.82-23-55.46-2.3-9.11-1.79-10.65 5.59-16.07 1-.74 1.95-1.61 3.76-3.12-2.62-.55-4.3-1.06-6-1.24-4.4-.46-7-2.87-7.82-7.13-1.43-7.86-2.82-15.73-4-23.64-.69-4.69 1.34-8 5.94-9.66 2.4-.87 4.69-2.07 7-3.11l-.34-.92-10.44 2.96c-1.75-5.52-4.17-10.46-4.76-15.61-1-8.73-1-17.59-1.15-26.4a14.9 14.9 0 0 1 7.58-13.73 78 78 0 0 1 11.09-5.54c5.23-2.06 10.36-1.43 15.29 1.44 10.62 6.19 21.3 12.26 32 18.36 5.17 2.95 5.26 3.33 1.77 8.13l2.42 1.08-12.36 10.88.81.93c1.46-1 3-1.95 4.37-3.06 2.85-2.28 5.42-5 8.55-6.8 1.52-.87 5.37-.69 5.9.27 3 5.59 5.43 11.56 8 17.39-6.36-.64-10.48 1.85-12.68 7.49a19.16 19.16 0 0 1 -2.19 3.83c-3.75 5.35-1.88 9.6 4.9 10.69-.21-.49-.29-1-.59-1.28-2.79-2.45-4.34-5.6-2.08-8.76 2-2.82 5.13-4.84 7.76-7.21q2.73 3.79 5.47 7.58c.24.34.53.63 1.14 1.34-.67-5-1.26-9.39-1.85-13.81 1.68 4.34 4.29 8.56 4.85 13 1.08 8.47-4.53 14.45-13.08 14.77a26.18 26.18 0 0 1 -9.26-1.32c-10-3.41-16.41-11-21.8-19.58-4.47-7.1-10.1-11.83-18.79-13.3-7.68-1.3-15.07-4.08-15-14.28 0-.84-1.56-2.31-2.47-2.37a4 4 0 0 0 -2.91 2 46.51 46.51 0 0 0 -2.35 6.37l15.9 11.93-2.13 4.75c2.31-1 4-2.45 5.15-2.12 6.63 1.85 13.53 3 18.41 9 4.59 5.62 9.94 10.62 15 15.91 1.85 1.95 3.67 3.92 4.88 5.21l-31.06 15.24c.35.75.71 1.5 1.07 2.25 7.37-3.52 14.62-7.33 22.14-10.49 7.81-3.28 16-2.87 24.9-1.62-4.19 9.43-3 17.46 4.15 23.68-5 6.83-9.58 13.15-14.2 19.48l1.06.74 4.84-5.3.68.42-1 4.26a70.65 70.65 0 0 0 9.16-12c2.09-3.26 4.51-3.65 8-2.1a53.75 53.75 0 0 0 13.1 4.29c7.82 1.21 7.87.85 6.93 8.59 0 .15.45.37.52.43 2-2.7 3.55-6.86 6.21-7.82 8.17-2.94 16.78-4.66 25.13-6.84 4.74 11.54 4.74 11.54 8.78 12-.9-2.38-1.91-4.65-2.61-7-1.05-3.48.07-4.78 3.73-3.52 6.44 2.21 12.89 4.4 19.41 6.33 2.41.72 5 .69 7.55 1l.05-.6-24.83-9.86c14-6.31 14-6.31 16.14-10.55-14.27 3.41-27.52 6.86-40.91 9.69-8.53 1.8-17.28 3.95-25.87 3.7-14.81-.43-25.3-15-21.24-27.79l6.69 12.86 1.26-.72c-1.43-3-2.93-5.92-4.26-8.94-2.09-4.75-1.79-6 1.69-8.63l.6 3c10.54-12.28 11-12.61 15.65-11.88l-6.34 5.18a46.67 46.67 0 0 0 10.74-4.43c3.92-2.18 6.08-1 7.5 3.07 2.4 7 5.06 13.84 7.64 20.8 5.55-8.47 1.14-19.79-11.46-28.89 2.27-1.29 4.36-2.51 6.48-3.68 13.86-7.65 18.44-6 24.45 8.85 1.44 3.55 2.65 7.2 4 10.81l1-.28c-.38-2.63-.77-5.27-1.29-8.82l3.71 4.44.91-.6-5.37-14-1.26.38q.5 3 1 5.93a11 11 0 0 1 -3.24-4.94 47.73 47.73 0 0 1 -1.25-5.05c1.89-.18 3.85-.75 5.67-.45 9.58 1.58 18.87 1.9 28.49-1 12.9-3.88 24.77 4.51 27.07 18 .29 1.66.56 3.31.84 5l1.31-.16v-8.19c7.2 9.54 11.58 20.06 14.85 31.06 2.23 7.53 1.12 14.79-2.32 21.81s-6.55 13.83-9.75 20.78c-6 13-11.94 26-21.25 37.11-4 4.75-8.88 7.5-15 7.62-7.47.14-15 .47-22.4-.1-11.58-.88-23.46-2.72-30.69-12.93-7.41-10.48-16.29-21.08-11-36.39-6.32 5.88-8.19 12.75-4.83 19.51a150.09 150.09 0 0 0 10.95 18.37c6.89 10 16 16.67 28.63 17.74 6.24.52 12.43 1.82 18.63 2.82.51.09.93.65 2.23 1.6-8.2 1.27-16.11-1.8-22.7 3.63l24.36 1.46v1.32l-9.62 1.76c10.52 1.6 10.61 1.63 10.14 11.32-.35 7.1-.92 14.19-1.38 21.28l1.71.51a59 59 0 0 0 2.44-7.14c2.18-10.42 4-20.92 6.43-31.26a9.38 9.38 0 0 1 4.9-5.55 31.26 31.26 0 0 0 15.62-14.08c3.73-6.68 7.46-13.37 10.8-20.25 7.73-16.15 15.34-32.39 23.05-48.59zm-108.47-17.24-14.29 4.74c6.27.83 10.88 1.07 14.29-4.74z" fill="#fff"/><path d="m478.52 113v38h-141.44v109.43h133.84v11.27c0 6.83-.27 13.68.1 20.49.24 4.48-1.28 5.58-5.63 5.56-40.87-.17-81.75-.1-122.62-.1h-5.77v124.7h149.16v37.3h-194.16v-5.2q0-168.72 0-337.44c0-1.33.06-2.66.08-4h2a58.08 58.08 0 0 0 5.86.57q85.86 0 171.71 0a40.31 40.31 0 0 0 4.88-.57z"/><path d="m769.65 380c-7.71 16.19-15.32 32.43-23.17 48.56-3.34 6.88-7.07 13.57-10.8 20.25a31.26 31.26 0 0 1 -15.62 14.08 9.38 9.38 0 0 0 -4.9 5.55c-2.44 10.34-4.25 20.84-6.43 31.26a59 59 0 0 1 -2.44 7.14l-1.71-.51c.46-7.09 1-14.18 1.38-21.28.47-9.69.38-9.72-10.14-11.32l9.62-1.76v-1.43l-24.36-1.46c6.59-5.43 14.5-2.36 22.7-3.63-1.3-.95-1.72-1.51-2.23-1.6-6.2-1-12.39-2.3-18.63-2.82-12.64-1.07-21.74-7.72-28.63-17.74a150.09 150.09 0 0 1 -10.95-18.37c-3.36-6.76-1.49-13.63 4.83-19.51-5.32 15.31 3.56 25.91 11 36.39 7.23 10.21 19.11 12.05 30.69 12.93 7.43.57 14.93.24 22.4.1 6.16-.12 11-2.87 15-7.62 9.31-11.11 15.26-24.11 21.25-37.11 3.2-6.95 6.38-13.91 9.75-20.78s4.55-14.28 2.32-21.81c-3.27-11-7.65-21.52-14.85-31.06v8.19l-1.31.16c-.28-1.66-.55-3.31-.84-5-2.3-13.45-14.17-21.84-27.07-18-9.62 2.91-18.91 2.59-28.49 1-1.82-.3-3.78.27-5.67.45a47.73 47.73 0 0 0 1.25 5.05 11 11 0 0 0 3.24 4.94q-.48-3-1-5.93l1.26-.38 5.37 14-.91.6-3.71-4.44c.52 3.55.91 6.19 1.29 8.82l-1 .28c-1.31-3.61-2.52-7.26-4-10.81-6-14.86-10.59-16.5-24.45-8.85-2.12 1.17-4.21 2.39-6.48 3.68 12.6 9.1 17 20.42 11.46 28.89-2.58-7-5.24-13.84-7.64-20.8-1.42-4.09-3.58-5.25-7.5-3.07a46.67 46.67 0 0 1 -10.74 4.43l6.34-5.18c-4.67-.73-5.11-.4-15.65 11.88l-.6-3c-3.48 2.6-3.78 3.88-1.69 8.63 1.33 3 2.83 6 4.26 8.94l-1.26.72-6.69-12.86c-4.06 12.81 6.43 27.36 21.24 27.79 8.59.25 17.34-1.9 25.87-3.7 13.39-2.83 26.64-6.28 40.91-9.69-2.17 4.24-2.17 4.24-16.14 10.55l24.83 9.86-.05.6c-2.52-.31-5.14-.28-7.55-1-6.52-1.93-13-4.12-19.41-6.33-3.66-1.26-4.78 0-3.73 3.52.7 2.36 1.71 4.63 2.61 7-4-.42-4-.42-8.78-12-8.35 2.18-17 3.9-25.13 6.84-2.66 1-4.17 5.12-6.21 7.82-.07-.06-.54-.28-.52-.43.94-7.74.89-7.38-6.93-8.59a53.75 53.75 0 0 1 -13.1-4.29c-3.54-1.55-6-1.16-8 2.1a70.65 70.65 0 0 1 -9.16 12l1-4.26-.68-.42-4.84 5.3-1.06-.74c4.62-6.33 9.23-12.65 14.2-19.48-7.16-6.22-8.34-14.25-4.15-23.68-8.88-1.25-17.09-1.66-24.9 1.62-7.52 3.16-14.77 7-22.14 10.49-.36-.75-.72-1.5-1.07-2.25l31.06-15.24c-1.21-1.29-3-3.26-4.88-5.21-5-5.29-10.37-10.29-15-15.91-4.88-6-11.78-7.11-18.41-9-1.17-.33-2.84 1.12-5.15 2.12l2.13-4.75-15.9-11.93a46.51 46.51 0 0 1 2.35-6.37 4 4 0 0 1 2.91-2c.91.06 2.48 1.53 2.47 2.37-.08 10.2 7.31 13 15 14.28 8.69 1.47 14.32 6.2 18.79 13.3 5.39 8.58 11.85 16.17 21.8 19.58a26.18 26.18 0 0 0 9.26 1.32c8.55-.32 14.16-6.3 13.08-14.77-.56-4.47-3.17-8.69-4.85-13l.13.14c-2.61-5.84-5-11.81-8-17.4-.53-1-4.38-1.14-5.9-.27-3.13 1.77-5.7 4.52-8.55 6.8-1.39 1.11-2.91 2-4.37 3.06l-.81-.93 12.36-10.88-2.42-1.08c3.49-4.8 3.4-5.18-1.77-8.13-10.66-6.1-21.34-12.17-32-18.36-4.93-2.87-10.06-3.5-15.29-1.44a78 78 0 0 0 -11.09 5.54 14.9 14.9 0 0 0 -7.58 13.73c.19 8.81.15 17.67 1.15 26.4.59 5.15 3 10.09 4.76 15.61l10.45-3.05.34.92c-2.34 1-4.63 2.24-7 3.11-4.6 1.67-6.63 5-5.94 9.66 1.16 7.91 2.55 15.78 4 23.64.78 4.26 3.42 6.67 7.82 7.13 1.7.18 3.38.69 6 1.24-1.81 1.51-2.75 2.38-3.76 3.12-7.38 5.42-7.89 7-5.59 16.07 4.94 19.64 11.69 38.5 23 55.46 13.07 19.5 34.79 26 56.47 16.66 4.05-1.74 8.06-3.6 12.27-5-9.78 11.85-22.49 16.31-37.77 14.25l.11 1.56 15.67 2.25.1 1.33-16.66.84v1l5.36 1.39c-.43.71-.54 1.15-.72 1.18-9.62 1.59-9.25-.14-11.42 11.59-1.07 5.73-1.84 11.51-2.8 17.26-.29 1.68-.8 3.33-1.21 5l-1.57-.07a32.26 32.26 0 0 1 -.38-4.25c.53-11.31 1-22.63 1.77-33.93.26-3.77-.63-5.72-4.57-6.76-9.38-2.45-13.72-10.57-18.45-17.94-13.57-21.16-21.44-44.55-26.32-69.08a24.28 24.28 0 0 0 -2.75-7.4c-4.43-7.53-6.22-15.62-6.55-24.28q-1.12-29.41-2.74-58.79c-1-19.8-1-20.15 16.34-29.51 2.89-1.56 6-3.24 9.21-3.51 4.28-.37 5.92-2.63 6.38-6.2 1.7-13.3 10-20.42 22-24.27 2.84-.91 5.63-2 8.39-3.17 8.06-3.36 15.55-2.61 22.43 3a7.07 7.07 0 0 0 1.5.93c5.08-4 9.35-8.19 14.36-11 2.66-1.51 6.61-1.05 10-.94 5.29.17 10.57.88 15.86 1.21 8 .49 14.7 3.37 20.21 9.4a8.12 8.12 0 0 0 6.38 2.32c16.23-3.23 34.22 8 39.73 27.72 4.31 15.41 3.2 29.8-.78 44.6-.52 1.93-.79 3.92-1.23 5.87-.87 3.77.57 6.25 4.25 7.14 8.23 2 13.81 7.33 19 13.65 10.87 13.19 18.69 27.8 22.43 44.55zm-142.93-109.17-.81-1.25c3.65-2.5 7.23-5.12 11-7.49 3.36-2.12 4.23-4.54 1.56-7.75-4.14-5-7.94-10.32-12.53-14.84-9-8.87-19.06-14.79-32.06-7.72a11.36 11.36 0 0 1 -3.31 1.07c-10.93 2.11-16.57 9.34-19.7 19.55-1.48 4.81-.26 7.32 4 9.61 10.53 5.67 20.88 11.66 31.27 17.59 8.61 4.92 15.36 11.61 19.36 20.84 2.44 5.64 4.93 11.28 7.09 17 2 5.35 6 8.32 11.11 9.9 6.47 2 15.57-3.41 15.21-9.71-.34-6.14-2.43-12.23-4.2-18.21-.34-1.13-3.16-2.64-4.2-2.25-4.62 1.72-9.57 3.39-13.24 6.47-1.78 1.5-1 6.06-1.4 9.23 0 .21-.37.38-.56.56-3-4.64-3.18-8.11.71-11.18s8.44-5.14 12.59-7.83c1.35-.88 3.49-2.57 3.3-3.47-1.82-8.71-4-17.32-6.36-26.74l-20 12.85-.86-1.31c2.77-2 5.51-4.09 8.31-6.06s5.81-4 8.72-6l-.74-1.21zm49.18 21.71c-2.28 0-4.56 0-6.84 0-5.61 0-7.09 1.68-6.24 7.3.42 2.79 2.16 5.76 1.58 8.25-1.45 6.23 2.54 6.95 6.67 7.83a34.52 34.52 0 0 0 6.4.76c7.31.15 8-.66 7.69-8a6.89 6.89 0 0 1 .13-2c1.46-5.62.71-10.83-3.83-16.09 6.42.49 6.25-3.08 5.73-6.87-.8-5.77-1.78-11.53-2.35-17.32-.44-4.45-2.37-6.61-7-6.41s-9.41 0-14.11 0v-2.07c4.61 0 9.23-.18 13.82.05 5.76.29 6.74-.49 5.34-6.14a155.85 155.85 0 0 0 -5.3-17.65c-2.18-5.75-6.59-10-12.7-10.85a136.81 136.81 0 0 0 -23.31-1.34c-3.51.1-7.43 1.94-10.32 4.12-5.22 3.93-5 6.59-.71 11.56 6.1 7 12.12 14.08 18.24 21.06a21.27 21.27 0 0 0 2.92 2.53c-.23 2.77-.93 5-.51 7.08 1.76 8.63 3.81 17.2 5.88 25.76.54 2.25 1.51 4.4 2.64 7.61 2.64-11.31 5.97-13.23 16.18-9.17zm30-20.85.13-1.36 15.74 2.57.23-1.36-14-3.43a14.63 14.63 0 0 1 7.61-.23c5.58 1.08 6.54.35 5.49-5-.86-4.4-1.33-9.12-3.34-13s-5.06-8-8.7-9.49c-6.66-2.67-14.06-3.57-21.21-4.9-2.52-.47-4.13 1.08-3.84 3.88a18.9 18.9 0 0 0 .83 4.9c5.29 13.62 6.57 27.75 6 42.22-.17 4.6.55 9.24.91 14.66 7.89-8.07 14.82-8.52 21.31-2-2.68-.88-5.12-2.08-7.66-2.37-2-.23-5.09-.05-6 1.18a100.91 100.91 0 0 0 -7.67 13.81c-.35.73.77 2.42 1.53 3.41 4.39 5.69 10.48 4.4 16 3.08 2.43-.57 5.61-3.17 6.21-5.44 2.85-10.75 5-21.69 7.22-32.6.73-3.57-1.15-5.65-4.74-6.26-3.95-.74-8.03-1.53-12.06-2.27z"/><path d="m476.52 113a40.31 40.31 0 0 1 -4.88.57q-85.86 0-171.71 0a58.08 58.08 0 0 1 -5.86-.57z" fill="#fff"/><path d="m625.37 312.35c.59 4.42 1.18 8.84 1.85 13.81-.61-.71-.9-1-1.14-1.34q-2.75-3.78-5.47-7.58c-2.63 2.37-5.75 4.39-7.76 7.21-2.26 3.16-.71 6.31 2.08 8.76.3.26.38.79.59 1.28-6.78-1.09-8.65-5.34-4.9-10.69a19.16 19.16 0 0 0 2.19-3.83c2.2-5.64 6.32-8.13 12.68-7.49z"/><path d="m661.18 362.76c-3.41 5.81-8 5.57-14.29 4.74z"/><g fill="#fff"><path d="m626.72 270.83 14.21-8.3.74 1.21c-2.91 2-5.85 3.94-8.72 6s-5.54 4-8.31 6.06l.86 1.31 20-12.85c2.31 9.42 4.54 18 6.36 26.74.19.9-2 2.59-3.3 3.47-4.15 2.69-8.74 4.78-12.59 7.83s-3.75 6.54-.71 11.18c.19-.18.53-.35.56-.56.41-3.17-.38-7.73 1.4-9.23 3.67-3.08 8.62-4.75 13.24-6.47 1-.39 3.86 1.12 4.2 2.25 1.77 6 3.86 12.07 4.2 18.21.36 6.3-8.74 11.72-15.21 9.71-5.08-1.58-9.1-4.55-11.11-9.9-2.16-5.75-4.65-11.39-7.09-17-4-9.23-10.75-15.92-19.36-20.84-10.39-5.93-20.74-11.92-31.27-17.59-4.25-2.29-5.47-4.8-4-9.61 3.13-10.21 8.77-17.44 19.7-19.55a11.36 11.36 0 0 0 3.31-1.07c13-7.07 23-1.15 32.06 7.72 4.59 4.52 8.39 9.86 12.53 14.84 2.67 3.21 1.8 5.63-1.56 7.75-3.74 2.37-7.32 5-11 7.49z"/><path d="m675.9 292.54c-10.21-4.06-13.54-2.14-16.15 9.27-1.13-3.21-2.1-5.36-2.64-7.61-2.07-8.56-4.12-17.13-5.88-25.76-.42-2 .28-4.31.51-7.08a21.27 21.27 0 0 1 -2.92-2.53c-6.12-7-12.14-14.06-18.24-21.06-4.33-5-4.51-7.63.71-11.56 2.89-2.18 6.81-4 10.32-4.12a136.81 136.81 0 0 1 23.31 1.34c6.11.86 10.52 5.1 12.7 10.85a155.85 155.85 0 0 1 5.3 17.65c1.4 5.65.42 6.43-5.34 6.14-4.59-.23-9.21-.05-13.82-.05v2.07c4.7 0 9.41.15 14.11 0s6.55 2 7 6.41c.57 5.79 1.55 11.55 2.35 17.32.52 3.79.69 7.36-5.73 6.87 4.54 5.26 5.29 10.47 3.83 16.09a6.89 6.89 0 0 0 -.13 2c.34 7.31-.38 8.12-7.69 8a34.52 34.52 0 0 1 -6.4-.76c-4.13-.88-8.12-1.6-6.67-7.83.58-2.49-1.16-5.46-1.58-8.25-.85-5.62.63-7.27 6.24-7.3 2.25-.11 4.53-.1 6.81-.1z"/><path d="m705.89 271.69c4 .74 8.06 1.53 12.11 2.21 3.59.61 5.47 2.69 4.74 6.26-2.21 10.91-4.37 21.85-7.22 32.6-.6 2.27-3.78 4.87-6.21 5.44-5.55 1.32-11.64 2.61-16-3.08-.76-1-1.88-2.68-1.53-3.41a100.91 100.91 0 0 1 7.67-13.81c.86-1.23 4-1.41 6-1.18 2.54.29 5 1.49 7.66 2.37-6.49-6.48-13.42-6-21.31 2-.36-5.42-1.08-10.06-.91-14.66.56-14.47-.72-28.6-6-42.22a18.9 18.9 0 0 1 -.83-4.9c-.29-2.8 1.32-4.35 3.84-3.88 7.15 1.33 14.55 2.23 21.21 4.9 3.64 1.45 6.75 5.74 8.7 9.49s2.48 8.58 3.34 13c1.05 5.39.09 6.12-5.49 5a14.63 14.63 0 0 0 -7.61.23l14 3.43-.23 1.36-15.82-2.51z"/></g></g></svg>