<svg viewBox="0 0 244 306" xmlns="http://www.w3.org/2000/svg"><g transform="translate(-1185 -382)"><path d="m1429 556v132h-175c1.2-7.56 2.26-15.14 3.63-22.66 1.94-10.67 1.62-10.18 11.14-11.29.31 0 .56-.56 1.22-1.26l-5.6-1.49.06-1.53h16.67v-1.48l-15.91-2.39c21.79-2.16 32.63-6.45 38-16.36-4.63 2.08-8.8 4.06-13.06 5.84-20.59 8.58-42.1 2.75-54.69-15-12.93-18.22-20-38.94-25.22-60.4-1.21-5 .11-9.19 4.81-12 1.62-1 3.06-2.22 5.69-4.16a52.53 52.53 0 0 0 -6-1.26c-4.92-.34-7.55-3-8.37-7.74-1.31-7.54-2.66-15.07-3.82-22.64-.76-4.89 1.14-8.37 6-10.11 2.38-.84 4.63-2 6.93-3.07l-.36-.91-10.42 3c-1.77-5.58-4.19-10.52-4.78-15.67-1-8.73-.92-17.58-1.15-26.39a14.71 14.71 0 0 1 6.81-13.18 67.16 67.16 0 0 1 12-6c5.23-2.09 10.39-1.4 15.33 1.47 10.64 6.19 21.35 12.25 32 18.35 5.15 2.94 5.25 3.31 1.81 8.09l2.19 1.25-12.18 10.77 1 1.12 11.82-9.7c2.3-1.88 5.29-3.06 6.92-.15 3.1 5.57 5.37 11.6 8 17.42-6.38-.64-10.51 1.86-12.72 7.5a19 19 0 0 1 -2.2 3.83c-3.75 5.35-1.87 9.6 4.93 10.69-.22-.49-.29-1-.6-1.28-2.79-2.45-4.35-5.6-2.09-8.76 2-2.82 5.15-4.84 7.79-7.21q2.73 3.79 5.48 7.58c.24.34.54.63 1.14 1.34-.66-5-1.25-9.39-1.85-13.81 1.69 4.34 4.3 8.56 4.87 13 1.08 8.47-4.55 14.45-13.13 14.77a26.1 26.1 0 0 1 -9.28-1.32c-10-3.41-16.46-11-21.87-19.58-4.48-7.1-10.13-11.83-18.84-13.3-7.7-1.3-15.12-4.08-15-14.28 0-.84-1.57-2.31-2.49-2.37a4 4 0 0 0 -2.91 2 45.2 45.2 0 0 0 -2.36 6.37l16 11.93-2.14 4.75c2.32-1 4-2.45 5.17-2.12 6.65 1.85 13.57 3 18.46 9 4.61 5.62 10 10.62 15 15.91 1.86 2 3.69 3.92 4.9 5.21l-31.15 15.24.81 2.18c15.09-6 29-17.2 47.21-11.53-4 8.92-2.79 17 4.4 23.17l-14.24 19.48 1.05.74 4.87-5.31.68.42-1 4.29a72.33 72.33 0 0 0 9.19-12c2.1-3.26 4.52-3.64 8.07-2.09a54 54 0 0 0 13.14 4.28c7.84 1.21 7.89.86 7 8.59 0 .16.45.37.52.43 2-2.7 3.57-6.85 6.23-7.81 8.2-3 16.83-4.67 25.21-6.85 4.75 11.54 4.75 11.54 8.8 12-.9-2.38-1.91-4.65-2.62-7-1-3.48.07-4.77 3.75-3.52 6.45 2.21 12.92 4.4 19.47 6.34 2.41.71 5 .68 7.57 1v-.6l-25.25-10c6.65-3 13.06-3 16.5-9.55-9.87 1.73-19 3.15-28.12 5-4.37.89-8.5 3-12.88 3.83-8.6 1.6-17.34 3.94-26 3.7-14.85-.44-25.38-15-21.3-27.8l6.7 12.85 1.27-.71c-1.43-3-2.94-5.92-4.28-8.94-2.09-4.75-1.79-6 1.7-8.63.18.92.36 1.81.6 3 10.57-12.28 11-12.61 15.7-11.88l-6.36 5.18a47.17 47.17 0 0 0 10.78-4.43c3.93-2.18 6.1-1 7.51 3.07 2.41 7 5.09 13.84 7.67 20.8 5.57-8.47 1.14-19.79-11.1-28.61.15-.27.24-.65.47-.79 1.86-1.09 3.75-2.13 5.64-3.17 13.9-7.65 18.49-6 24.52 8.85 1.44 3.55 2.65 7.2 4 10.81l1-.28c-.38-2.64-.77-5.27-1.29-8.82 1.67 2 2.7 3.21 3.72 4.44l.92-.6-5.39-14-1.26.38 1 5.93a11.08 11.08 0 0 1 -3.25-4.94 47.73 47.73 0 0 1 -1.25-5.05c1.9-.18 3.86-.75 5.69-.45 9.61 1.58 18.92 1.9 28.58-1 12.93-3.89 24.83 4.51 27.15 18l.84 5 1.31-.14v-8.22c7.22 9.55 11.61 20.08 14.89 31.08 2.24 7.52 1.13 14.78-2.32 21.8-3.38 6.87-6.57 13.83-9.79 20.78-6 13-12 26-21.31 37.11-4 4.76-8.9 7.51-15.08 7.63-7.49.13-15 .46-22.47-.1-11.61-.88-23.53-2.73-30.77-12.94-7.44-10.48-16.35-21.08-11-36.39-6.34 5.89-8.22 12.75-4.85 19.52a150.38 150.38 0 0 0 11 18.37c6.91 10 16 16.67 28.71 17.73 6.27.53 12.47 1.82 18.69 2.83.51.08.94.64 2.24 1.59-8.23 1.27-16.16-1.79-22.77 3.64l24.43 1.46v1.29l-9.65 1.77c10.55 1.6 10.65 1.63 10.17 11.32-.35 7.1-.92 14.19-1.39 21.28l1.72.53a58.72 58.72 0 0 0 2.45-7.16c2.19-10.42 4-20.92 6.45-31.27a9.41 9.41 0 0 1 4.92-5.55 31.32 31.32 0 0 0 15.66-14.07c3.74-6.68 7.48-13.38 10.84-20.26 7.63-16.15 15.27-32.39 23-48.59zm-109.61-17-12.76 4.23c7.73 1.57 10.43.59 12.76-4.23z" fill="#fff"/><path d="m1252 688h-67v-306h244v165c-3.81-17.47-12.29-32.5-23.74-46.08-4.62-5.49-9.75-10-16.83-11.81-4.64-1.15-6.36-3.72-5-8.38.55-1.92.63-4 1.2-5.87a76.6 76.6 0 0 0 0-45.51c-4.91-16.29-21.43-29-38.63-25.79-3 .58-5.38 0-7.46-2.55-4.89-6.08-11.6-8.68-19.22-9.22-5.14-.36-10.44-.07-15.39-1.22-9.56-2.22-16 1.89-21.52 8.88-1 1.23-1.86 2.53-2.74 3.74-14.55-8.42-14.7-8.43-30.72-2.48-.32.12-.63.22-1 .32-13.09 3.9-22.64 11.14-24.35 25.8a2.46 2.46 0 0 1 -.49 1.4c-1.29 1.26-2.49 2.85-4.06 3.55-3.76 1.67-8 2.44-11.55 4.4-16.9 9.3-16.76 9.43-15.74 28.87 1.08 20.42 1.47 40.87 3.09 61.24.57 7.24 3.79 14.28 5.93 21.37.91 3 2.57 5.78 3.2 8.81 5 24.14 12.71 47.22 26.14 68.09 5.2 8.09 10.1 16.57 20.67 19.1 1.21.29 2.48 3.29 2.5 5.05 0 5.31-.64 10.63-.82 15.95-.24 7.78-.32 15.56-.47 23.34z" fill="#fff"/><path d="m1252 688c.15-7.78.23-15.56.49-23.34.18-5.32.86-10.64.82-15.95 0-1.76-1.29-4.76-2.5-5.05-10.57-2.53-15.47-11-20.67-19.1-13.43-20.87-21.16-43.95-26.14-68.09-.63-3-2.29-5.82-3.2-8.81-2.14-7.09-5.36-14.13-5.93-21.37-1.62-20.37-2-40.82-3.09-61.24-1-19.44-1.16-19.57 15.74-28.87 3.57-2 7.79-2.73 11.55-4.4 1.57-.7 2.77-2.29 4.06-3.55a2.46 2.46 0 0 0 .49-1.4c1.71-14.66 11.26-21.9 24.35-25.8.32-.1.63-.2 1-.32 16-5.95 16.17-5.94 30.72 2.48.88-1.21 1.77-2.51 2.74-3.74 5.49-7 12-11.1 21.52-8.88 4.95 1.15 10.25.86 15.39 1.22 7.62.54 14.33 3.14 19.22 9.22 2.08 2.58 4.44 3.13 7.46 2.55 17.2-3.25 33.72 9.5 38.63 25.79a76.6 76.6 0 0 1 0 45.51c-.57 1.91-.65 3.95-1.2 5.87-1.31 4.66.41 7.23 5 8.38 7.08 1.77 12.21 6.32 16.83 11.81 11.45 13.58 19.93 28.61 23.74 46.08v9c-7.73 16.2-15.37 32.44-23.23 48.56-3.36 6.88-7.1 13.58-10.84 20.26a31.32 31.32 0 0 1 -15.66 14.07 9.41 9.41 0 0 0 -4.92 5.55c-2.45 10.35-4.26 20.85-6.45 31.27a58.72 58.72 0 0 1 -2.45 7.16l-1.72-.53c.47-7.09 1-14.18 1.39-21.28.48-9.69.38-9.72-10.17-11.32l9.65-1.77v-1.42l-24.43-1.46c6.61-5.43 14.54-2.37 22.77-3.64-1.3-1-1.73-1.51-2.24-1.59-6.22-1-12.42-2.3-18.69-2.83-12.67-1.06-21.8-7.72-28.71-17.73a150.38 150.38 0 0 1 -11-18.37c-3.37-6.77-1.49-13.63 4.85-19.52-5.34 15.31 3.57 25.91 11 36.39 7.24 10.21 19.16 12.06 30.77 12.94 7.45.56 15 .23 22.47.1 6.18-.12 11.08-2.87 15.08-7.63 9.35-11.1 15.31-24.11 21.31-37.11 3.22-7 6.41-13.91 9.79-20.78 3.45-7 4.56-14.28 2.32-21.8-3.28-11-7.67-21.53-14.89-31.08v8.22l-1.31.14-.84-5c-2.32-13.45-14.22-21.85-27.15-18-9.66 2.91-19 2.59-28.58 1-1.83-.3-3.79.27-5.69.45a47.73 47.73 0 0 0 1.25 5.05 11.08 11.08 0 0 0 3.25 4.94l-1-5.93 1.26-.38 5.39 14-.92.6c-1-1.23-2-2.45-3.72-4.44.52 3.55.91 6.18 1.29 8.82l-1 .28c-1.32-3.61-2.53-7.26-4-10.81-6-14.86-10.62-16.5-24.52-8.85-1.89 1-3.78 2.08-5.64 3.17-.23.14-.32.52-.47.79 12.24 8.82 16.67 20.14 11.1 28.61-2.58-7-5.26-13.83-7.67-20.8-1.41-4.09-3.58-5.25-7.51-3.07a47.17 47.17 0 0 1 -10.78 4.43l6.36-5.18c-4.68-.73-5.13-.4-15.7 11.88-.24-1.2-.42-2.09-.6-3-3.49 2.6-3.79 3.88-1.7 8.63 1.34 3 2.85 6 4.28 8.94l-1.27.71-6.7-12.85c-4.08 12.81 6.45 27.36 21.3 27.8 8.61.24 17.35-2.1 26-3.7 4.38-.82 8.51-2.94 12.88-3.83 9.08-1.85 18.25-3.27 28.12-5-3.44 6.55-9.85 6.59-16.5 9.55l25.25 10v.6c-2.53-.31-5.16-.28-7.57-1-6.55-1.94-13-4.13-19.47-6.34-3.68-1.25-4.8 0-3.75 3.52.71 2.36 1.72 4.63 2.62 7-4-.42-4-.42-8.8-12-8.38 2.18-17 3.9-25.21 6.85-2.66 1-4.18 5.11-6.23 7.81-.07-.06-.54-.27-.52-.43.94-7.73.89-7.38-7-8.59a54 54 0 0 1 -13.14-4.28c-3.55-1.55-6-1.17-8.07 2.09a72.33 72.33 0 0 1 -9.19 12l1-4.29-.68-.42-4.87 5.31-1.05-.74 14.24-19.48c-7.19-6.22-8.37-14.25-4.4-23.17-18.2-5.67-32.12 5.53-47.21 11.53l-.81-2.18 31.15-15.24c-1.21-1.29-3-3.26-4.9-5.21-5-5.29-10.39-10.29-15-15.91-4.89-6-11.81-7.11-18.46-9-1.18-.33-2.85 1.11-5.17 2.12l2.14-4.75-16-11.93a45.2 45.2 0 0 1 2.36-6.37 4 4 0 0 1 2.91-2c.92.06 2.49 1.53 2.49 2.37-.09 10.2 7.33 13 15 14.28 8.71 1.47 14.36 6.2 18.84 13.3 5.41 8.58 11.88 16.17 21.87 19.58a26.1 26.1 0 0 0 9.28 1.32c8.58-.32 14.21-6.3 13.13-14.77-.57-4.47-3.18-8.69-4.87-13l.13.14c-2.61-5.84-4.88-11.87-8-17.44-1.63-2.91-4.62-1.73-6.92.15l-11.82 9.7-1-1.12 12.36-10.62-2.19-1.25c3.44-4.78 3.34-5.15-1.81-8.09-10.69-6.1-21.4-12.16-32-18.35-4.94-2.87-10.1-3.56-15.33-1.47a67.16 67.16 0 0 0 -12 6 14.71 14.71 0 0 0 -6.81 13.18c.23 8.81.15 17.66 1.15 26.39.59 5.15 3 10.09 4.78 15.67l10.42-3 .36.91c-2.3 1-4.55 2.23-6.93 3.07-4.86 1.74-6.76 5.22-6 10.11 1.16 7.57 2.51 15.1 3.82 22.64.82 4.69 3.45 7.4 8.37 7.74a52.53 52.53 0 0 1 6 1.26c-2.63 1.94-4.07 3.2-5.69 4.16-4.7 2.8-6 7-4.81 12 5.2 21.46 12.29 42.18 25.22 60.4 12.59 17.76 34.1 23.59 54.69 15 4.26-1.78 8.43-3.76 13.06-5.84-5.33 9.91-16.17 14.2-38 16.36l15.91 2.39v1.48h-16.67l-.06 1.53 5.6 1.49c-.66.7-.91 1.23-1.22 1.26-9.52 1.11-9.2.62-11.14 11.29-1.37 7.52-2.43 15.1-3.63 22.66zm33.72-241.27-.92-1.07c3.75-2.59 7.44-5.25 11.26-7.73 3.15-2 4-4.39 1.47-7.41-4.36-5.24-8.41-10.81-13.25-15.56-9-8.83-19.14-14.11-31.86-7.11a9.49 9.49 0 0 1 -2.83.92c-11.19 2.1-16.95 9.46-20.08 19.87-1.38 4.61-.16 7.06 3.89 9.24 9.68 5.19 19.13 10.81 28.8 16 10.94 5.93 19.29 14.07 23.71 25.94 1.86 5 4 9.87 6.11 14.76 4.08 9.4 15.32 12 22.81 5.22 5-4.45 3.56-10 2.36-15.37-2.77-12.29-4.76-13.23-16-8.38-4.75 2.05-8 4.77-6.44 10.59.24.88-.19 1.93-.4 3.6-3.35-6.49-3.19-9.29 1.51-12.85a63.66 63.66 0 0 1 12-6.93c2.64-1.21 3.63-2.61 3-5.33-1-4.21-1.9-8.46-3-12.63-1.08-3.88-2.43-7.7-3.82-12l-19.51 12.5-.89-1.44 17.47-12.16c-1.06-.13-1.65-.4-2-.22-4.47 2.47-8.93 5.02-13.39 7.55zm49.13 21.81c-2.13 0-4.25 0-6.37 0-6.18 0-7.52 1.72-6.59 7.94.55 3.73.72 7.52 1.37 11.23.19 1.05 1.32 2.58 2.23 2.75a94 94 0 0 0 14.7 2c1.57.05 4.76-2.57 4.57-3.37-1.66-7.26 3.61-15.51-4.76-22.34 6.47.2 6.93-2.78 6.36-6.59-.88-5.76-1.9-11.52-2.37-17.32-.41-5.05-2.74-7.05-7.71-6.79-4.5.24-9 .05-13.56.05v-2c5 0 10-.14 15 0 3.64.13 5.57-1 4.48-4.9-1.8-6.39-3.31-12.9-5.64-19.1-2.16-5.74-6.67-9.89-12.82-10.77a130.15 130.15 0 0 0 -22.39-1.39 21.2 21.2 0 0 0 -11 4c-5.5 3.89-5.34 6.82-.87 11.92 6.13 7 12.16 14.08 18.3 21.06a18.88 18.88 0 0 0 2.88 2.38c-.22 2.65-1 5.07-.52 7.26 1.71 8.47 3.76 16.88 5.79 25.28.58 2.37 1.55 4.64 2.34 7 2.13-11.97 8.99-11.68 16.58-8.3zm37.54 6.41a6.28 6.28 0 0 1 -1.57-.14c-10.6-4.09-18.79 1-20 12.64a5.75 5.75 0 0 0 1.4 3.51c4.5 5.9 10.75 4.52 16.51 3.18 2.3-.54 5.3-3 5.87-5.21 2.83-10.76 5-21.68 7.3-32.59.72-3.49-.9-5.77-4.56-6.41-4.14-.74-8.27-1.53-12.41-2.3l.21-1.32 15.86 2.69.28-1.34-14.28-3.66a3.37 3.37 0 0 1 2.64-1c2 .25 3.93.62 5.89 1 4.58.82 5.53-.05 4.88-4.5-2.89-20.05-7.2-24.34-27.36-27.29l-.5-.08c-10.1-1.43-11.54.15-8.11 9.81a97 97 0 0 1 5.48 36.3c-.21 6 .42 12 .7 18.83 8.45-8.02 14.43-8.44 21.77-2.07z"/><path d="m1284.29 488.34c.6 4.42 1.19 8.84 1.85 13.81-.6-.71-.9-1-1.14-1.34q-2.74-3.78-5.48-7.58c-2.64 2.37-5.77 4.39-7.79 7.21-2.26 3.16-.7 6.31 2.09 8.76.31.26.38.79.6 1.28-6.8-1.09-8.68-5.34-4.93-10.69a19 19 0 0 0 2.2-3.83c2.21-5.64 6.34-8.14 12.72-7.5a1.35 1.35 0 0 1 -.12-.12z"/><path d="m1319.39 539c-2.33 4.8-5 5.78-12.76 4.23z"/><g fill="#fff"><path d="m1285.72 446.73c4.46-2.53 8.92-5.08 13.41-7.57.33-.18.92.09 2 .22l-17.47 12.16.89 1.44 19.45-12.46c1.39 4.32 2.74 8.14 3.82 12 1.15 4.17 2 8.42 3 12.63.66 2.72-.33 4.12-3 5.33a63.66 63.66 0 0 0 -12 6.93c-4.7 3.56-4.86 6.36-1.51 12.85.21-1.67.64-2.72.4-3.6-1.52-5.82 1.69-8.54 6.44-10.59 11.22-4.85 13.21-3.91 16 8.38 1.2 5.37 2.6 10.92-2.36 15.37-7.49 6.74-18.73 4.18-22.81-5.22-2.12-4.89-4.25-9.78-6.11-14.76-4.42-11.87-12.77-20-23.71-25.94-9.67-5.23-19.12-10.85-28.8-16-4.05-2.18-5.27-4.63-3.89-9.24 3.13-10.41 8.89-17.77 20.08-19.87a9.49 9.49 0 0 0 2.83-.92c12.72-7 22.86-1.72 31.86 7.11 4.84 4.75 8.89 10.32 13.25 15.56 2.51 3 1.68 5.37-1.47 7.41-3.82 2.48-7.51 5.14-11.26 7.73z"/><path d="m1334.85 468.54c-7.59-3.38-14.45-3.67-16.45 8.25-.79-2.31-1.76-4.58-2.34-7-2-8.4-4.08-16.81-5.79-25.28-.44-2.19.3-4.61.52-7.26a18.88 18.88 0 0 1 -2.88-2.38c-6.14-7-12.17-14.06-18.3-21.06-4.47-5.1-4.63-8 .87-11.92a21.2 21.2 0 0 1 11-4 130.15 130.15 0 0 1 22.39 1.39c6.15.88 10.66 5 12.82 10.77 2.33 6.2 3.84 12.71 5.64 19.1 1.09 3.92-.84 5-4.48 4.9-5-.18-10 0-15 0v2c4.53 0 9.06.19 13.56-.05 5-.26 7.3 1.74 7.71 6.79.47 5.8 1.49 11.56 2.37 17.32.57 3.81.11 6.79-6.36 6.59 8.37 6.83 3.1 15.08 4.76 22.34.19.8-3 3.42-4.57 3.37a94 94 0 0 1 -14.7-2c-.91-.17-2-1.7-2.23-2.75-.65-3.71-.82-7.5-1.37-11.23-.93-6.22.41-7.92 6.59-7.94 1.99.04 4.11.05 6.24.05z"/><path d="m1372.39 475c-7.34-6.32-13.32-5.9-21.75 2.13-.28-6.79-.91-12.82-.7-18.83a97 97 0 0 0 -5.48-36.3c-3.43-9.66-2-11.24 8.11-9.81l.5.08c20.16 2.95 24.47 7.24 27.36 27.29.65 4.45-.3 5.32-4.88 4.5-2-.35-3.92-.72-5.89-1a3.37 3.37 0 0 0 -2.64 1l14.29 3.64-.31 1.3-15.84-2.67-.21 1.32c4.14.77 8.27 1.56 12.41 2.3 3.66.64 5.28 2.92 4.56 6.41-2.26 10.91-4.47 21.83-7.3 32.59-.57 2.17-3.57 4.67-5.87 5.21-5.76 1.34-12 2.72-16.51-3.18a5.75 5.75 0 0 1 -1.4-3.51c1.16-11.61 9.35-16.73 20-12.64a6.28 6.28 0 0 0 1.55.17z"/></g></g></svg>