<svg viewBox="0 0 480 394" xmlns="http://www.w3.org/2000/svg"><g transform="translate(-179.06 -110.82)"><path d="m179.06 504.82v-394h480v394zm46.81-197.77h134.61v-38.05h-134.11v-118.13h145.07v-38.18h-191.1v355.1h45.53zm375.58 173.85h1.87a23.94 23.94 0 0 0 1.49-4.75c.37-4-.09-8.07.78-11.89 1-4.21 2-9.07 4.8-12.08 13.63-15 27.94-29.32 41.77-44.12a20.68 20.68 0 0 0 5.18-20.3c-3.75-14.67-4-29.57-2.27-44.55 1.6-13.57-2.63-22-14.89-28-10.45-5.13-20-11.31-26.69-21a17.88 17.88 0 0 1 -2.88-10c.18-6.43 1.76-12.82 2.17-19.26.23-3.71.16-7.87-1.27-11.19-4.94-11.43-10.23-22.73-16-33.79-7.34-14.21-22.78-17.08-35.29-7-1.33 1.07-2.67 2.12-4.51 3.58-.88-8.54-1.69-16.12-2.42-23.71-1.56-16.21-2.77-32.45-4.73-48.61-1.39-11.45-6.87-20.73-17.39-26.44-3.78-2.06-8-2.82-11.21.16a61.7 61.7 0 0 0 -10.58 12.68c-1.78 2.89-1.77 6.89-2.62 10.67-2.24-.57-4.31-1.11-6.39-1.62-9.23-2.29-14.78-.62-19.28 7.79a47.16 47.16 0 0 0 -4.74 16.93c-.84 7.81-.59 8.52-8.28 9.41-8 .94-13.08 4.71-14 12.9a208.08 208.08 0 0 0 -1.69 21.72c-.06 9.45.73 18.9 1 28.36.13 4.75-.83 9.63-.08 14.26 2.24 13.66 3.3 27 .82 41-5.45 30.76-9.47 61.6-4.82 93.13 4.4 29.87 13.45 56.23 41.63 72.05a5.24 5.24 0 0 1 2.28 3.89c-.21 8.94-.95 17.86-1.1 26.8-.09 5.28.57 10.58.9 15.87l2.61.52c1.34-2.77 3.45-5.44 3.87-8.35 1-6.89 1.27-13.89 1.63-20.86.32-6.13 1.89-8.06 8-9.5 4.1-1 8.15-2.18 12.23-3.29l-.29-1.22-15.14 2.28-.3-1.64c5.09-1.09 10.21-2.1 15.27-3.31 2.12-.5 4.9-.61 3.73-4.37-.19-.62 1.73-2.23 3-2.91 4.22-2.33 8.55-4.44 12.84-6.64l-.72-1.56c-1.69.52-3.39 1-5.07 1.56-6.79 2.2-13.48 4.82-20.4 6.52-10.67 2.62-20.92 1.59-29.46-6.18-13.09-11.92-23.09-26.08-26.18-43.67-2.14-12.19-2.21-24.76-2.8-37.18-.2-4.21.86-8.49 1.37-13-3.27.27-3.83-2.38-3.63-5.82.17-3-.17-6 0-9 .69-9.77 2.38-19.22 10.3-26.15 15.26-13.34 30.42-26.79 45.84-39.93 12.32-10.5 26.68-13.87 42.44-10.25 2.08.48 4.47 2.8 5.34 4.85 3.86 9.17 7.23 18.55 10.76 27.86.9 2.39 1.72 4.8 2.68 7.49-9.08 1.94-17.66 3.4-23.35 10.93a8.08 8.08 0 0 0 4-1.23c6.19-4.45 13.31-5.92 20.68-6.38 9.36-.59 11.51 2.17 8.72 11.19-3.53 11.39-2.22 21.88 4.84 31.7 4.88 6.79 4.17 8.91-3.36 12.43-12.69 5.93-19.37 16.21-21.42 29.75a47.61 47.61 0 0 0 0 7.07 31.62 31.62 0 0 0 3.66-10.08c3.12-14.2 12.92-21.87 25.84-26.52 3.13-1.12 4.86.05 5.07 3.29.3 4.64.09 9.35.77 13.93.58 3.88 2.11 7.62 3.21 11.43l1.45-.39c-.68-6.34-1.36-12.69-2.13-19.91l4.92 2.13c-1.21-5.64 2.39-6.42 7.88-6.51l-6.44-3.78c-19-11.2-26.17-34.46-16.16-54.08 1.81-3.55 5.61-6.22 8.88-8.8 1-.76 3.28.19 5 .35a26.94 26.94 0 0 1 -1.77 4.48c-1.68 2.73-3.6 5.3-5.42 7.94l1.38 1.25c3.49-3.63 6.14-9.13 12.41-7.07 5 1.65 9.51 4.19 12.46 8.94-7.79 4.92-11.87 11-11.29 16.27 2.91-4 3-3.87 9.83-7a5.7 5.7 0 0 0 2.76-3.22c1.11-3.8 3.28-3.67 6-2.1 3.75 2.13 7.6 4.13 11.18 6.53 5.5 3.67 5.62 7 .7 11.58-2.62 2.45-5.28 4.84-8.16 7.48 6.81 3.31 8.9-4.78 14.65-5 0 2.45-.11 4.71 0 6.95.76 12.76 1.19 25.55 2.53 38.25.66 6.26 2.24 12.14-3.28 17.08-.88.78-.82 2.52-1.51 3.62-2.22 3.55-4.46 7.1-6.95 10.47-1.47 2-3.59 3.46-5.1 5.41-4.07 5.25-7.76 10.81-12 15.94-7.24 8.82-16.57 13.06-28.15 11.74-3.29-.38-6.59-.87-9.89-1-11.9-.59-16.94-4.13-20.93-15.52-1.48-4.21-2.25-8.67-3.37-13-.28-1.08-.7-2.12-1.44-4.32-2.37 29.6 12.91 42 40.07 43.64-.3.44-.59.88-.88 1.32l-8.68 3.49a6.11 6.11 0 0 0 4.43.17c5.38-1.29 7.43.28 7.49 5.82 0 1.82-.39 3.68-.18 5.47.34 2.93 1.03 5.83 1.57 8.73zm-129.45-141.04.39 1.61 16.61-2.31c20.1-2.74 38-10.48 53.2-24a31.52 31.52 0 0 0 2.59-2.93l-1-1c-1.84 1.25-3.81 2.35-5.51 3.77-16.28 13.58-34.84 21.56-56.28 22.52-3.35.15-6.68 1.53-10 2.34zm23 82.63c.52-27.84 13.32-49.58 33.62-67.64-22.62 11.42-36.46 39.38-33.62 67.64zm53.29-81.49.76 1.33 23.15-14.85-.79-1.24zm53.59-10-11.21-10.91a16.24 16.24 0 0 0 11.21 10.91z" fill="#fff"/><path d="m225.87 307.05v160.74h-45.53v-355.1h191.1v38.18h-145.07v118.13h134.11v38.08z"/><path d="m601.45 480.9c-.54-2.91-1.23-5.8-1.57-8.72-.21-1.79.2-3.65.18-5.47-.06-5.54-2.11-7.11-7.49-5.82a6.11 6.11 0 0 1 -4.43-.17l8.68-3.49c.29-.44.58-.88.88-1.32-27.16-1.66-42.44-14-40.07-43.64.74 2.2 1.16 3.24 1.44 4.32 1.12 4.33 1.89 8.79 3.37 13 4 11.39 9 14.93 20.93 15.52 3.3.16 6.6.65 9.89 1 11.58 1.32 20.91-2.92 28.15-11.74 4.21-5.13 7.9-10.69 12-15.94 1.51-1.95 3.63-3.44 5.1-5.41 2.49-3.37 4.73-6.92 6.95-10.47.69-1.1.63-2.84 1.51-3.62 5.52-4.94 3.94-10.82 3.28-17.08-1.34-12.7-1.77-25.49-2.53-38.25-.13-2.24 0-4.5 0-6.95-5.75.19-7.84 8.28-14.65 5 2.88-2.64 5.54-5 8.16-7.48 4.92-4.6 4.8-7.91-.7-11.58-3.58-2.4-7.43-4.4-11.18-6.53-2.77-1.57-4.94-1.7-6 2.1a5.7 5.7 0 0 1 -2.76 3.22c-6.88 3.16-6.92 3.08-9.83 7-.58-5.31 3.5-11.35 11.29-16.27-3-4.75-7.45-7.29-12.46-8.94-6.27-2.06-8.92 3.44-12.41 7.07l-1.48-1.24c1.82-2.64 3.74-5.21 5.42-7.94a26.94 26.94 0 0 0 1.77-4.48c-1.7-.16-4-1.11-5-.35-3.27 2.58-7.07 5.25-8.88 8.8-10 19.62-2.85 42.88 16.16 54.08l6.44 3.78c-5.49.09-9.09.87-7.88 6.51l-4.92-2.13c.77 7.22 1.45 13.57 2.13 19.91l-1.45.39c-1.1-3.81-2.63-7.55-3.21-11.43-.68-4.58-.47-9.29-.77-13.93-.21-3.24-1.94-4.41-5.07-3.29-12.92 4.65-22.72 12.32-25.84 26.52a31.62 31.62 0 0 1 -3.6 10.1 47.61 47.61 0 0 1 0-7.07c2-13.54 8.73-23.82 21.42-29.75 7.53-3.52 8.24-5.64 3.36-12.43-7.06-9.82-8.37-20.31-4.84-31.7 2.79-9 .64-11.78-8.72-11.19-7.37.46-14.49 1.93-20.68 6.38a8.08 8.08 0 0 1 -4 1.23c5.69-7.53 14.27-9 23.35-10.93-1-2.69-1.78-5.1-2.68-7.49-3.53-9.31-6.9-18.69-10.76-27.86-.87-2.05-3.26-4.37-5.34-4.85-15.76-3.62-30.12-.25-42.44 10.25-15.42 13.14-30.58 26.59-45.84 39.93-7.92 6.93-9.61 16.38-10.3 26.15-.21 3 .13 6 0 9-.2 3.44.36 6.09 3.63 5.82-.51 4.49-1.57 8.77-1.37 13 .59 12.42.66 25 2.8 37.18 3.09 17.59 13.09 31.75 26.18 43.67 8.54 7.77 18.79 8.8 29.46 6.18 6.92-1.7 13.61-4.32 20.4-6.52 1.68-.55 3.38-1 5.07-1.56l.72 1.56c-4.29 2.2-8.62 4.31-12.84 6.64-1.22.68-3.14 2.29-3 2.91 1.17 3.76-1.61 3.87-3.73 4.37-5.06 1.21-10.18 2.22-15.27 3.31l.3 1.64 15.14-2.28.29 1.22c-4.08 1.11-8.13 2.32-12.23 3.29-6.09 1.44-7.66 3.37-8 9.5-.36 7-.65 14-1.63 20.86-.42 2.91-2.53 5.58-3.87 8.35l-2.61-.52c-.33-5.29-1-10.59-.9-15.87.15-8.94.89-17.86 1.1-26.8a5.24 5.24 0 0 0 -2.28-3.89c-28.18-15.82-37.23-42.18-41.63-72.05-4.65-31.53-.63-62.37 4.82-93.13 2.48-14 1.42-27.34-.82-41-.75-4.63.21-9.51.08-14.26-.25-9.46-1-18.91-1-28.36a208.08 208.08 0 0 1 1.69-21.72c.92-8.19 6-12 14-12.9 7.69-.89 7.44-1.6 8.28-9.41a47.16 47.16 0 0 1 4.74-16.93c4.5-8.41 10.05-10.08 19.28-7.79 2.08.51 4.15 1.05 6.39 1.62.85-3.78.84-7.78 2.62-10.67a61.7 61.7 0 0 1 10.66-12.73c3.21-3 7.43-2.22 11.21-.16 10.52 5.71 16 15 17.39 26.44 2 16.16 3.17 32.4 4.73 48.61.73 7.59 1.54 15.17 2.42 23.71 1.84-1.46 3.18-2.51 4.51-3.58 12.51-10.08 28-7.21 35.29 7 5.72 11.06 11 22.36 16 33.79 1.43 3.32 1.5 7.48 1.27 11.19-.41 6.44-2 12.83-2.17 19.26a17.88 17.88 0 0 0 2.88 10c6.66 9.69 16.24 15.87 26.69 21 12.26 6 16.49 14.45 14.89 28-1.77 15-1.48 29.88 2.27 44.55a20.68 20.68 0 0 1 -5.18 20.3c-13.83 14.8-28.14 29.15-41.77 44.12-2.75 3-3.84 7.87-4.8 12.08-.87 3.82-.41 7.93-.78 11.89a23.94 23.94 0 0 1 -1.49 4.75zm-60.06-265.9v1.13c-5.65 1.3-11.42 2.25-16.9 4.07-2.29.76-5.58 3.3-5.65 5.14a205.21 205.21 0 0 0 .86 23.77c.4 5 3.19 7.18 8.5 5.76 2-.53 4.28 0 6.43.16 5.63.46 11.25 1 16.87 1.45 4 .31 6.25-1.7 5.47-5.63-2.14-10.84-2-22.21-7.37-32.35-.77-1.44-.58-3.46-.6-5.22 0-4.43.44-8.91.06-13.31-1.4-16-3.27-32-4.55-48-.65-8.13-2.31-15.78-7.09-22.47-5.85-8.18-17.31-8.13-20.73.43-4.49 11.23-6.28 23-3.92 35.15.82 4.22 2.78 5.16 7.08 4 5.74-1.59 11.76-2.15 17.67-3.15.1.72.2 1.44.31 2.16-2.14.23-4.27.56-6.41.66-10.06.49-15.62 4.26-15.73 13-.14 10.36 1.36 20.74 2.21 31.11.25 3 2.08 3.48 4.91 3.21 6.19-.65 12.39-.78 18.58-1.07zm62.78 78.61c.49-7.09.92-13.84 1.43-20.6 1.57-21.08-7.32-38.79-18.33-55.67-3.35-5.12-11.17-5.87-18.31-2.86-5.49 2.31-7.29 6-6.86 12.88.37 5.94 0 11.94.51 17.88.7 8.56.72 17.42 3.1 25.54 2.87 9.77 7.64 19 12.14 28.25 2.33 4.77 7.36 5.47 9.4 2.08 4.75-7.89 6.96-8.95 16.92-7.52zm-124.34-30.93c-.45 1.4-.46 1.63-.55 1.68-1.32.71-2.66 1.36-4 2.09-8 4.51-13.35 10.83-13.86 20.44-.2 3.8-.85 7.59-.77 11.37 0 2.07.58 5.07 2 5.9s5.06.56 6.22-.67a226.89 226.89 0 0 0 16.44-19.16c1.39-1.82 1.24-5.08 1.2-7.67-.16-8.64-.45-17.27-1-25.89-.38-6.29-1.33-12.55-1.78-18.83-.48-6.58-1.43-13.24-.8-19.74.91-9.3-1.25-17.81-4.45-26.23-1.44-3.81-4.67-5.41-8.61-5.7s-6 1.92-7.84 5c-6 10.36-5 21.46-3.21 32.51.23 1.44 3.31 3 5.29 3.38 2.16.44 4.58-.61 6.88-.61a73.86 73.86 0 0 1 7.55.72l-.18 1.24c-1.79.2-3.58.39-5.36.6-8.91 1.07-12 3.09-12.56 11.79s.78 17.76 1.62 26.62c.4 4.19 3.09 5.55 7.18 4.19 3.27-1.05 6.58-1.88 10.59-3.03zm24.7-20.88.49 1c-3.16 2-6.54 3.64-9.4 6-2.35 1.9-5.6 4.43-5.81 6.9-.62 7.31.07 14.72.26 22.43 2-.34 3-.22 3.55-.65 6.8-5 13.78-9.83 20.21-15.3 3.66-3.12 3.94-7.72 2.68-12.47-1-3.65-2.15-7.6-1.71-11.22 1.53-12.34-1.76-24.09-3.38-36.05-.44-3.33-2.37-4.53-5.3-4.83-8.26-.82-19.5 7.27-19.69 15.48-.22 9.21 1.14 18.47 2 27.69.32 3.26 2.59 4.49 5.77 3.71 3.48-.84 6.9-1.79 10.33-2.69zm6.38-58.27.54-.09c-1.53-9.44-3.45-18.9-4.45-28.44-.62-5.52-4-7.86-8.37-9.17a9 9 0 0 0 -10.75 4.28c-1.91 3.2-3.78 6.86-4.14 10.46a116.06 116.06 0 0 0 -.15 20.25c1.24 16 3.71 17.74 19.74 14.94 7.43-1.3 8.42-2.61 7.77-10.27-.1-.64-.1-1.3-.19-1.96z"/><path d="m472 339.86c3.34-.81 6.67-2.19 10-2.34 21.42-1 39.93-8.94 56.25-22.54 1.7-1.42 3.67-2.52 5.51-3.77l1 1a31.52 31.52 0 0 1 -2.59 2.93c-15.24 13.5-33.1 21.24-53.2 24l-16.62 2.31z"/><path d="m495 422.49c-2.8-28.26 11-56.22 33.62-67.64-20.34 18.06-33.14 39.8-33.62 67.64z"/><path d="m548.29 341 23.12-14.76.79 1.24-23.15 14.85z"/><path d="m601.88 331a16.24 16.24 0 0 1 -11.21-10.91z"/><g fill="#fff"><path d="m541.39 215c-6.19.31-12.4.44-18.57 1-2.83.27-4.66-.17-4.91-3.21-.85-10.37-2.35-20.75-2.21-31.11.11-8.72 5.67-12.49 15.73-13 2.14-.1 4.27-.43 6.41-.66-.11-.72-.21-1.44-.31-2.16-5.91 1-11.93 1.56-17.67 3.15-4.3 1.19-6.26.25-7.08-4-2.36-12.14-.57-23.92 3.92-35.15 3.42-8.56 14.88-8.61 20.73-.43 4.78 6.69 6.44 14.34 7.09 22.47 1.28 16 3.15 32 4.55 48 .38 4.4-.09 8.88-.06 13.31 0 1.76-.17 3.78.6 5.22 5.39 10.19 5.23 21.57 7.39 32.4.78 3.93-1.47 5.94-5.47 5.63-5.62-.42-11.24-1-16.87-1.45-2.15-.17-4.44-.69-6.43-.16-5.31 1.42-8.1-.73-8.5-5.76a205.21 205.21 0 0 1 -.86-23.77c.07-1.84 3.36-4.38 5.65-5.14 5.48-1.82 11.25-2.77 16.9-4.07-.02-.38-.02-.76-.03-1.11z"/><path d="m604.17 293.59c-10-1.43-12.19-.37-16.92 7.5-2 3.39-7.07 2.69-9.4-2.08-4.5-9.21-9.27-18.48-12.14-28.25-2.38-8.12-2.4-17-3.1-25.54-.48-5.94-.14-11.94-.51-17.88-.43-6.86 1.37-10.57 6.86-12.88 7.14-3 15-2.26 18.31 2.86 11 16.88 19.9 34.59 18.33 55.67-.51 6.76-.94 13.51-1.43 20.6zm-2.55-10.26c-.33-7.41-3.73-11.95-9.62-12.68s-12.56 4.43-14.36 11.38c1.35-1.14 2.48-2.28 3.78-3.17 5-3.43 10.82-3.41 16.28-2.07 1.72.42 2.61 4.21 3.92 6.54z"/><path d="m479.83 262.68c-4 1.15-7.32 2-10.56 3.05-4.09 1.36-6.78 0-7.18-4.19-.84-8.86-2.14-17.81-1.62-26.62s3.65-10.72 12.56-11.79c1.78-.21 3.57-.4 5.36-.6l.18-1.24a73.86 73.86 0 0 0 -7.55-.72c-2.3 0-4.72 1.05-6.88.61-2-.4-5.06-1.94-5.29-3.38-1.83-11.05-2.77-22.15 3.21-32.51 1.79-3.1 4-5.31 7.84-5s7.17 1.89 8.61 5.7c3.2 8.42 5.36 16.93 4.45 26.23-.63 6.5.32 13.16.8 19.74.45 6.28 1.4 12.54 1.78 18.83.52 8.62.81 17.25 1 25.89 0 2.59.19 5.85-1.2 7.67a226.89 226.89 0 0 1 -16.44 19.16c-1.16 1.23-4.74 1.57-6.22.67s-1.92-3.83-2-5.9c-.08-3.78.57-7.57.77-11.37.51-9.61 5.84-15.93 13.86-20.44 1.3-.73 2.64-1.38 4-2.09.06-.07.07-.3.52-1.7z"/><path d="m504.53 241.8c-3.43.9-6.85 1.85-10.3 2.7-3.18.78-5.45-.45-5.77-3.71-.89-9.22-2.25-18.48-2-27.69.19-8.21 11.43-16.3 19.69-15.48 2.93.3 4.86 1.5 5.3 4.83 1.62 12 4.91 23.71 3.38 36.05-.44 3.62.74 7.57 1.71 11.22 1.26 4.75 1 9.35-2.68 12.47-6.43 5.47-13.41 10.28-20.21 15.3-.58.43-1.56.31-3.55.65-.19-7.71-.88-15.12-.26-22.43.21-2.47 3.46-5 5.81-6.9 2.86-2.32 6.24-4 9.4-6z"/><path d="m510.91 183.53c.06.66.12 1.32.17 2 .65 7.66-.34 9-7.77 10.27-16 2.8-18.5 1.09-19.74-14.94a116.06 116.06 0 0 1 .15-20.25c.36-3.6 2.23-7.26 4.14-10.46a9 9 0 0 1 10.75-4.28c4.4 1.31 7.75 3.65 8.37 9.17 1.06 9.52 2.94 18.95 4.47 28.42z"/></g><path d="m601.62 283.33c-1.31-2.33-2.2-6.12-3.92-6.54-5.46-1.34-11.24-1.36-16.28 2.07-1.3.89-2.43 2-3.78 3.17 1.8-6.95 8.42-12.11 14.36-11.38s9.29 5.27 9.62 12.68z"/></g></svg>