<svg viewBox="0 0 480 254" xmlns="http://www.w3.org/2000/svg"><g transform="translate(-258.12 -193.53)"><path d="m258.12 322v-128.47h480v254h-480v-122.53c1 8.53 1.52 17.15 3.11 25.57 9 47.67 36.11 79.2 83.8 91.57 22.16 5.74 44.76 5.67 67.35 2.88a221.86 221.86 0 0 0 49-11.73v-118.29h-80.91v25.33h50.12v6.16c0 20.41-.2 40.83.15 61.23.09 5.23-1.85 7.29-6.53 8.48-16.64 4.25-33.48 5-50.47 3.31-38.29-3.73-66.63-27.51-76.84-64.51a125.64 125.64 0 0 1 -2.69-55.24c6.44-37.59 27.26-63.25 64.63-73.64 27.84-7.74 55.59-5.92 82.76 4 1.64.6 3.29 1.17 5.21 1.85 2.07-6.91 4-13.24 5.86-19.59 1.92-6.5 1.95-6.66-4.73-8.87-31.4-10.38-63.37-11.9-95.34-3.88-45.57 11.43-76.1 39.49-88.78 85.11-3.34 12.07-3.88 24.86-5.7 37.26zm355.16-8.49c-1.1 1-2.5 3.45-4.43 4-11.46 3.2-22.94 4.22-33.86-2-5.48-3.12-8.71-9.76-7.59-15.58.25-1.29 1.06-3 2.1-3.52 4.72-2.17 9.73-2.23 14.79-1.19 4.49.93 5.64 4.64 5.86 8.2.07 1.16-3.15 2.53-4.49 3.53 2.32.35 6.21 1.88 7.47-2.38.72-2.45-.78-5.55-1.48-9.52 1.83-.77 5-1.91 8.06-3.42 5.16-2.58 9.88-4 13.32 2.51.57 1.07 1.85 1.75 3.88 3.57-1.59-3.5-2.61-5.77-3.25-7.18 12.57-.85 24.91-1.88 37.28-2.37 3.13-.12 7 .61 9.36 2.47 12.44 10 26.43 17.08 40.8 23.72a14.23 14.23 0 0 1 6.85 8.33c3.68 14.05-6 29.27-20.28 32.13-4.6.91-9.53.14-14.31.14l-.2.48 7.83 2.15c.74 4.29 1.81 4.9 5.73 2.61 5.73-3.34 11.27-7 17-10.38 1.76-1 3.89-1.46 7.09-2.62 1-2.26 2.61-5.81 4.29-9.55l20.7 11.58 1.06-1.86c-5.89-4.23-12-8.25-17.59-12.79-2.45-2-5.31-4.78-5.79-7.58-1.62-9.45-7.14-14.76-15.59-18.37-11.93-5.08-23.79-10.54-33.13-19.87-4.27-4.26-8.93-5-14.55-4.21-11.48 1.63-23 4-34.6.77-2-.56-4.3-.17-6.45-.05-5.79.31-11.57.8-17.36 1.05-13.28.55-26.64.29-39.84 1.65-19.82 2-39.53 5.13-59.28 7.88a43.14 43.14 0 0 0 -10.12 2.31 11.62 11.62 0 0 0 -7.19 12c.55 5.4 3.92 8.72 8.87 9.38 7 .94 14.16 1 21.25 1.2 4.28.14 8.56-.13 12.84-.14h22.36 28.92c0 5-1.19 9.32.22 12.49 4.71 10.63 8.13 21.8 13.14 32.23 2.26 4.72 6.07 8.26 7.24 14.16 1.07 5.43 5.73 10.28 9.24 15.06 3.89 5.3 9.3 6.2 15.61 4.73a71.84 71.84 0 0 1 16.12-2.26c11.13 0 22.26.94 33.39 1.15 4.6.08 9.53.15 13.73-1.37 5-1.82 8.57-.93 12.11 2.41 4.64 4.38 9.31 8.73 14 13.1l1.42-1.12c-2.57-3.43-4.91-7.05-7.76-10.22-2.08-2.32-5-3.86-7.19-6.11a5.7 5.7 0 0 1 -1.27-4.27c.68-4.56 2.06-9 2.6-13.62.32-2.71-.43-5.55-.7-8.34h-1.36a25.44 25.44 0 0 0 -.75 3.19c-1.29 13.85-9 22-22.87 22.92-8.42.55-16.92-.42-25.38-.44-8.94 0-18-.56-26.77.71-5.94.86-10.18-.06-13.49-4.64a59.6 59.6 0 0 1 -6.57-11c-2.26-5.29-.59-7.85 5-9.63 10.42-3.34 20.86-6.65 31.19-10.28 3.65-1.28 5-.37 6 3.21.59 2.27 2.24 4.27 3.42 6.38-.11-2.59-1.4-4.54-2-6.68-.44-1.65-.6-4.68.17-5.09 2.31-1.22 5.24-2.14 7.71-1.76 1.19.18 2.93 3.75 2.61 5.45a23 23 0 0 1 -10.29 15.29c-9.3 5.84-19.12 10.84-28.72 16.2l.3 1.17c1.71-.4 3.6-.45 5.11-1.24 8.67-4.55 17.33-9.15 25.84-14a48.83 48.83 0 0 0 9.2-6.75c6.55-6.16 5.87-13-1.32-18.41a7.44 7.44 0 0 1 -2.45-3.76c-1.49-5.3 3.18-11.41-2.21-16.36-.56-.52.41-2.67.66-4.08l5.6 1.08c-2.5-3.35-4.22-5.63-6.68-8.92l15.51-5.67a11.55 11.55 0 0 0 -5.68.17 72.54 72.54 0 0 1 -30.55 2.52c-3.99-.53-6.23-3.01-9.46-4.66z" fill="#fff"/><path d="m258.12 322c1.82-12.42 2.36-25.21 5.7-37.22 12.68-45.62 43.21-73.68 88.78-85.11 32-8 63.94-6.5 95.34 3.88 6.68 2.21 6.65 2.37 4.73 8.87-1.88 6.35-3.79 12.68-5.86 19.59-1.92-.68-3.57-1.25-5.21-1.85-27.17-9.94-54.92-11.76-82.76-4-37.37 10.39-58.19 36-64.63 73.64a125.64 125.64 0 0 0 2.69 55.2c10.21 37 38.55 60.74 76.84 64.5 17 1.67 33.83.94 50.47-3.31 4.68-1.19 6.62-3.25 6.53-8.48-.35-20.4-.15-40.82-.15-61.23v-6.16h-50.12v-25.32h80.92v118.3a221.86 221.86 0 0 1 -49 11.73c-22.59 2.79-45.19 2.86-67.35-2.88-47.69-12.37-74.77-43.9-83.8-91.57-1.59-8.42-2.1-17-3.11-25.57z"/><path d="m613.28 313.53c3.23 1.65 5.47 4.13 9.38 4.66a72.54 72.54 0 0 0 30.55-2.52 11.55 11.55 0 0 1 5.68-.17l-15.51 5.67c2.46 3.29 4.18 5.57 6.68 8.92l-5.6-1.08c-.25 1.41-1.22 3.56-.66 4.08 5.39 5 .72 11.06 2.21 16.36a7.44 7.44 0 0 0 2.45 3.76c7.19 5.38 7.87 12.25 1.32 18.41a48.83 48.83 0 0 1 -9.2 6.75c-8.51 4.85-17.17 9.45-25.84 14-1.51.79-3.4.84-5.11 1.24l-.3-1.17c9.6-5.36 19.42-10.36 28.72-16.2a23 23 0 0 0 10.29-15.24c.32-1.7-1.42-5.27-2.61-5.45-2.47-.38-5.4.54-7.71 1.76-.77.41-.61 3.44-.17 5.09.58 2.14 1.87 4.09 2 6.68-1.18-2.11-2.83-4.11-3.42-6.38-.93-3.58-2.32-4.49-6-3.21-10.33 3.63-20.77 6.94-31.19 10.28-5.55 1.78-7.22 4.34-5 9.63a59.6 59.6 0 0 0 6.57 11c3.31 4.58 7.55 5.5 13.49 4.64 8.78-1.27 17.83-.74 26.77-.71 8.46 0 17 1 25.38.44 13.9-.9 21.58-9.07 22.87-22.92a25.44 25.44 0 0 1 .75-3.19h1.36c.27 2.79 1 5.63.7 8.34-.54 4.58-1.92 9.06-2.6 13.62a5.7 5.7 0 0 0 1.27 4.27c2.2 2.2 5.2 3.74 7.2 6.11 2.85 3.17 5.19 6.79 7.76 10.22l-1.42 1.12c-4.66-4.37-9.33-8.72-14-13.1-3.54-3.34-7.1-4.23-12.11-2.41-4.2 1.52-9.13 1.45-13.73 1.37-11.13-.21-22.26-1.14-33.39-1.15a71.84 71.84 0 0 0 -16.12 2.26c-6.31 1.47-11.72.57-15.61-4.73-3.51-4.78-8.17-9.63-9.24-15.06-1.17-5.9-5-9.44-7.24-14.16-5-10.43-8.43-21.6-13.14-32.23-1.41-3.17-.22-7.48-.22-12.49-9.33 0-19.12 0-28.92 0-7.45 0-14.91-.06-22.36 0-4.28 0-8.56.28-12.84.14-7.09-.23-14.23-.26-21.25-1.2-4.95-.66-8.32-4-8.87-9.38a11.62 11.62 0 0 1 7.19-12 43.14 43.14 0 0 1 10.12-2.31c19.82-2.8 39.53-5.89 59.39-7.89 13.2-1.36 26.56-1.1 39.84-1.65 5.79-.25 11.57-.74 17.36-1.05 2.15-.12 4.45-.51 6.45.05 11.64 3.26 23.12.86 34.6-.77 5.62-.8 10.28-.05 14.55 4.21 9.34 9.33 21.2 14.79 33.13 19.87 8.45 3.61 14 8.92 15.59 18.37.48 2.8 3.34 5.61 5.79 7.58 5.64 4.54 11.7 8.56 17.59 12.79l-1.06 1.86-20.7-11.58c-1.68 3.74-3.27 7.29-4.29 9.55-3.2 1.16-5.33 1.59-7.09 2.62-5.73 3.35-11.27 7-17 10.38-3.92 2.29-5 1.68-5.73-2.61l-7.83-2.15.2-.48c4.78 0 9.71.77 14.31-.14 14.29-2.86 24-18.08 20.28-32.13a14.23 14.23 0 0 0 -6.85-8.33c-14.37-6.64-28.36-13.73-40.8-23.72-2.32-1.86-6.23-2.59-9.36-2.47-12.37.49-24.71 1.52-37.28 2.37.64 1.41 1.66 3.68 3.25 7.18-2-1.82-3.31-2.5-3.88-3.57-3.44-6.47-8.16-5.09-13.32-2.51-3 1.51-6.23 2.65-8.06 3.42.7 4 2.2 7.07 1.48 9.52-1.26 4.26-5.15 2.73-7.47 2.38 1.34-1 4.56-2.37 4.49-3.53-.22-3.56-1.37-7.27-5.86-8.2-5.06-1-10.07-1-14.79 1.19-1 .48-1.85 2.23-2.1 3.52-1.12 5.82 2.11 12.46 7.59 15.58 10.92 6.23 22.4 5.21 33.86 2 1.89-.55 3.29-2.98 4.39-4.02zm-100.38.83c2.11 1.14 4.19 3.18 6.32 3.23a221.13 221.13 0 0 0 24.83-.45c8.65-.73 8.76-1.31 8.19-9.74a23.56 23.56 0 0 1 .24-2.75c2.53 4.35-.26 10.76 5.81 12.15 4.34 1 9 .69 13.5 1a5.73 5.73 0 0 0 -1.88-3.17c-4.58-5.1-6.16-13.11-3.32-18 3.67-6.29 9.45-4.79 15.07-3.79a19.61 19.61 0 0 0 5.44.38 55 55 0 0 0 6.62-1.5l-.33-1.49a291.53 291.53 0 0 0 -40.8 1.73c-1.56-.27-3.51-1.11-5.3-.85-10.67 1.56-21.3 3.37-31.94 5.1-3.23.53-5.32 2.28-4.83 5.7.61 4.23 1.65 8.39 2.48 12.56-1.21-4.44-2.82-8.81-3.5-13.33-.43-2.9-1.14-4.26-4.17-3.92-6.58.73-13.18 1.28-19.73 2.18-1.7.23-4 1-4.73 2.32-1.55 2.66-3.36 6-3 8.75.58 4.87 5.15 7 9.47 7.35a162.67 162.67 0 0 0 21.29-.16c1.46-.1 2.84-2.15 4.27-3.3zm127.37 15.88c.48-8-.3-8.9-7.36-9.32-1.66-.09-3.31-.34-5-.44-6-.33-12.19-1.91-17.78-.64-10.28 2.32-20.21 3.16-30.52.71-1.67-.4-5.13 1.34-5.78 2.9-3.84 9.26 5 22.27 14.66 21.16 15-1.72 29.84-4.33 44.75-6.64 4.84-.74 8.44-2.67 7.03-7.73zm-12 10.84c-1.26.06-2.24 0-3.18.17-10.83 1.57-21.63 3.41-32.5 4.67-11.08 1.28-13.21 4.9-8 15a41.18 41.18 0 0 0 2.66 4.2c2.35 3.38 5.67 4.79 9.56 3.53 13.73-4.44 27.46-8.88 41-13.72 5.49-2 7.5-9.25 4.47-14.22-.51-.84-1.84-1.85-2.63-1.73-3.61.53-7.16 1.44-11.26 2.33 2.75 5.59 2.85 11.89 11.63 10.06-8.21 4.49-9.49 3.23-11.79-10.29z"/><g fill="#fff"><path d="m513 314.48c-.85-4.19-1.89-8.35-2.5-12.58-.49-3.42 1.6-5.17 4.83-5.7 10.64-1.73 21.27-3.54 31.94-5.1 1.79-.26 3.74.58 5.3.85a291.53 291.53 0 0 1 40.8-1.73l.33 1.49a55 55 0 0 1 -6.62 1.5 19.61 19.61 0 0 1 -5.44-.38c-5.62-1-11.4-2.5-15.07 3.79-2.84 4.87-1.26 12.88 3.32 18a5.73 5.73 0 0 1 1.88 3.17c-4.51-.28-9.16 0-13.5-1-6.07-1.39-3.28-7.8-5.81-12.15a23.56 23.56 0 0 0 -.24 2.75c.57 8.43.46 9-8.19 9.74a221.13 221.13 0 0 1 -24.83.45c-2.13 0-4.21-2.09-6.32-3.23z"/><path d="m640.27 330.24c1.41 5.06-2.19 7-7 7.73-14.91 2.31-29.78 4.92-44.75 6.64-9.66 1.11-18.5-11.9-14.66-21.16.65-1.56 4.11-3.3 5.78-2.9 10.31 2.45 20.24 1.61 30.52-.71 5.59-1.27 11.83.31 17.78.64 1.65.1 3.3.35 5 .44 7.06.42 7.81 1.3 7.33 9.32zm-14.53-6.84c-2.32 5.93-1.89 9.07 1.19 11.37 2.54 1.9 4.23 1.81 7.09-.4-5.81.69-6.02.43-8.28-10.97z"/><path d="m628.23 341.08c2.3 13.52 3.58 14.78 11.79 10.25-8.78 1.83-8.88-4.47-11.63-10.06 4.1-.89 7.65-1.8 11.26-2.33.79-.12 2.12.89 2.63 1.73 3 5 1 12.26-4.47 14.22-13.58 4.84-27.31 9.28-41 13.72-3.89 1.26-7.21-.15-9.56-3.53a41.18 41.18 0 0 1 -2.66-4.2c-5.21-10.06-3.08-13.68 8-15 10.87-1.26 21.67-3.1 32.5-4.67.91-.09 1.91-.07 3.14-.13z"/><path d="m512.9 314.36c-1.43 1.15-2.81 3.2-4.3 3.29a162.67 162.67 0 0 1 -21.29.16c-4.32-.32-8.89-2.48-9.47-7.35-.33-2.79 1.48-6.09 3-8.75.74-1.28 3-2.09 4.73-2.32 6.55-.9 13.15-1.45 19.73-2.18 3-.34 3.74 1 4.17 3.92.68 4.52 2.29 8.89 3.51 13.34z"/></g><path d="m625.74 323.4c2.26 11.4 2.47 11.66 8.28 11-2.86 2.21-4.55 2.3-7.09.4-3.08-2.33-3.51-5.47-1.19-11.4z"/></g></svg>