<svg viewBox="0 0 480 256" xmlns="http://www.w3.org/2000/svg"><g transform="translate(-301 -235)"><path d="m301 236a18.18 18.18 0 0 1 4-1q45.48-.07 91 0h385v256h-289.95v-254.84h-33.49v105.73h-123.16v-105.89zm477.49 132.72c1-3 .93-5.72-2.44-9-9.11-8.94-17.48-18.65-26.19-28a16.93 16.93 0 0 0 -3.19-2.32c-11.42-7.4-24.36-10.6-37.4-13.4-8.84-1.92-17.27-4.78-26.92-3.13-23.55 4-47.35 6.56-71 10.17-13.15 2-26.16 5-39.23 7.48-13.57 2.59-27.17 5-40.71 7.76-9.88 2-15.82 10.81-12 18.45 2.16 4.39 1.22 7.1-1.94 10a20.64 20.64 0 0 0 -3.17 3.85c-4.83 7.16-2.3 15.64 5.94 18.09a44.27 44.27 0 0 0 14.76 1.76c10.94-.59 21.82-2.11 32.75-3 12.95-1 25.92-1.69 38.88-2.54 5.45-.36 8.7 1.51 10.86 7.14 2.51 6.52 5.61 13.49 14.48 14.13 1 .06 2.22 1.48 2.64 2.55 3.45 8.8 11.81 11.81 19 16.05 1.28.75 3.61.17 5.3-.33 8.36-2.5 16.67-5.19 25-7.78.94-.29 2-.24 3-.48 9.82-2.41 20.14-3.68 29.3-7.63 7.58-3.28 12.47-2.14 17.76 3.14 2 1.95 4.6 3.2 6.93 4.77l.9-1c-8.52-10.09-11.45-22.12-12.34-35a16.93 16.93 0 0 0 -1.2 5.45c-1 10.22-5.54 17.65-16.16 20.26-7.27 1.79-14.47 3.87-21.78 5.46-2.56.57-5.35.09-8.26.09l-9 5-.91-1.38c1.29-1.22 2.57-2.46 3.88-3.66 4.53-4.17 9.29-8.13 13.56-12.55 6.66-6.88 7.06-13.86 1.74-21.64-.38-.55-1.16-1.06-1.16-1.58a13.16 13.16 0 0 1 .67-5c.22-.48 2.55-.25 3.83 0 2.58.55 5.11 1.37 8.89 2.41-4.09-4.9-11.59-4-12.12-11.31l6.69 1.87.1-.41-7.23-3.81.52-1 5.28 1.32.2-.58-2.69-2 4.36-4.61c-.22-.59-.45-1.18-.68-1.77-5.65 7.17-13.35 5.05-20.35 5.85-5.76.66-12.34 2.25-13.83-7.53-.84 1.8-1.17 2.37-1.38 3-5.17 15-23.85 23.45-38.37 17.27-5.66-2.4-7.33-6.59-4.84-12.58l2.48 1.4c-1.31-7.31 5.84-7.41 9.11-10.72 6-6 7.72 4.82 13 3.66-1-4.3-9.61-7.35-2-12.7 3.87-2.74 6.73-8.66 13-4-.72-1-1.45-2-2.18-3l.61-.65 7.6 7 .74-.79-6.78-7.58c6.65-3 12.79-5.56 18.68-8.59 9.42-4.85 19.21-5.26 29-2.26 12.56 3.85 25 8.17 37.34 12.66 6.16 2.24 8.8 7.17 8.55 13.78-.42 10.64-7.8 15.2-16.35 18.59-5.21 2.07-10.58 3.73-16.84 5.92 6.93 3.1 21.54-.89 34.4-16.27-.08 1.68-.13 2.81-.22 4.76l4.28-5.57 6.85 5.67.83-.66-5.74-8.67.56-.33zm-136.62-13.48-1.2-.85-6 10c7.25.14 4.51-6.34 7.2-9.15z" fill="#fff"/><path d="m301 236h33.4v105.89h123.16v-105.73h33.49v254.84h-33.05c-.13-2.49-.38-5-.38-7.47q0-53.2 0-106.43v-5.69h-123v6.24q0 53.72 0 107.43c0 2-.35 3.95-.54 5.92h-32.08c-.11-2.16-.31-4.31-.31-6.47q0-120.6-.05-241.21a61.49 61.49 0 0 0 -.64-6.32z"/><path d="m334 491c.19-2 .54-3.95.54-5.92q.06-53.71 0-107.43v-6.24h123.1v5.69q0 53.22 0 106.43c0 2.49.25 5 .38 7.47z" fill="#fff"/><path d="m301 237a61.49 61.49 0 0 1 .64 6.32q.06 120.6.05 241.21c0 2.16.2 4.31.31 6.47a21.83 21.83 0 0 1 -1-4.49q0-124.75 0-249.51z" fill="#fff"/><path d="m778.49 368.72-22.35-20-.56.33 5.68 8.61-.83.66-6.85-5.67-4.28 5.57c.09-1.95.14-3.08.22-4.76-12.86 15.38-27.47 19.37-34.4 16.27 6.26-2.19 11.63-3.85 16.84-5.92 8.55-3.39 15.93-7.95 16.35-18.59.25-6.61-2.39-11.54-8.55-13.78-12.35-4.49-24.78-8.81-37.34-12.66-9.81-3-19.6-2.59-29 2.26-5.89 3-12 5.55-18.68 8.59l6.78 7.58-.74.79-7.6-7-.61.65c.73 1 1.46 2 2.18 3-6.25-4.64-9.11 1.28-13 4-7.57 5.35 1 8.4 2 12.7-5.24 1.16-7-9.7-13-3.66-3.27 3.31-10.42 3.41-9.11 10.72l-2.48-1.4c-2.49 6-.82 10.18 4.84 12.58 14.52 6.18 33.2-2.23 38.37-17.27.21-.62.54-1.19 1.38-3 1.49 9.78 8.07 8.19 13.83 7.53 7-.8 14.7 1.32 20.35-5.85.23.59.46 1.18.68 1.77l-4.36 4.61 2.69 2-.2.58-5.28-1.32-.52 1 7.19 3.79-.1.41-6.61-1.84c.53 7.29 8 6.41 12.12 11.31-3.78-1-6.31-1.86-8.89-2.41-1.28-.28-3.61-.51-3.83 0a13.16 13.16 0 0 0 -.67 5c0 .52.78 1 1.16 1.58 5.32 7.78 4.92 14.76-1.74 21.64-4.27 4.42-9 8.38-13.56 12.55-1.31 1.2-2.59 2.44-3.88 3.66l.91 1.38 9-5c2.91 0 5.7.48 8.26-.09 7.31-1.59 14.51-3.67 21.78-5.46 10.62-2.61 15.12-10 16.16-20.26a16.93 16.93 0 0 1 1.2-5.45c.89 12.85 3.82 24.88 12.34 35l-.9 1c-2.33-1.57-5-2.82-6.93-4.77-5.29-5.28-10.18-6.42-17.76-3.14-9.16 3.95-19.48 5.22-29.3 7.63-1 .24-2 .19-3 .48-8.34 2.59-16.65 5.28-25 7.78-1.69.5-4 1.08-5.3.33-7.22-4.24-15.58-7.25-19-16.05-.42-1.07-1.68-2.49-2.64-2.55-8.87-.64-12-7.61-14.48-14.13-2.16-5.63-5.41-7.5-10.86-7.14-13 .85-25.93 1.54-38.88 2.54-10.93.85-21.81 2.37-32.75 3a44.27 44.27 0 0 1 -14.74-1.79c-8.24-2.45-10.77-10.93-5.94-18.09a20.64 20.64 0 0 1 3.17-3.85c3.16-2.9 4.1-5.61 1.94-10-3.77-7.64 2.17-16.47 12-18.45 13.54-2.72 27.14-5.17 40.71-7.76 13.09-2.49 26.1-5.49 39.25-7.49 23.63-3.61 47.43-6.14 71-10.17 9.65-1.65 18.08 1.21 26.92 3.13 13 2.83 26 6 37.4 13.39a16.93 16.93 0 0 1 3.19 2.32c8.71 9.35 17.08 19.06 26.19 28 3.35 3.33 3.39 6.03 2.42 9.05zm-105.49-8.72c-6.68-2.32-11 .08-15.07 4.1-7.89 7.9-17.31 11.57-28.54 9.67-5.76-1-7.35 0-8.2 5.81a22.26 22.26 0 0 0 5.11 18.14c3.19 3.87 7.48 6 11.9 3.68 15.23-8 30.45-16.07 45.08-25.08 5.74-3.53 5.35-6.54 2.15-12.5-1.42-2.63-2.94-6-6.63-4.24-3.21 1.51-8.24 2.4-5.77 8.68-4.3-2.94-2.88-5.49-.03-8.26zm-47.15-34.2c-3.1.25-5.92.26-8.67.74-17.83 3.14-35.63 6.44-53.46 9.57-9.61 1.69-13.86 10.39-8.67 18.79a8.14 8.14 0 0 0 6 3.15c7 .05 13.94-.64 20.92-.95 3.64-.16 4.51-1.33 4-5.32-.56-4.68.69-9.59 1.15-14.39 1.19 4.47 1.33 8.75 2 12.95.21 1.36 1.73 3.56 2.7 3.58a168.47 168.47 0 0 0 22.25-.39c2.34-.25 5.57-3.05 6.33-5.36 2.29-7.05 3.6-14.42 5.45-22.39zm58.59 65.71-1.77 1.49c-.72-1.28-1.46-2.55-2.16-3.84-2.38-4.34-5.53-3.79-9.25-1.77-9.22 5-18.52 9.87-27.81 14.75-2.63 1.38-4.39 3.19-3.13 6.37 3.54 9 17.39 13.92 25.21 8.33 10-7.16 19-15.68 25.33-26.38 1.21-2 .66-5.79-.31-8.27s-3.4-4.21-6.52-2.09c-2.87 2-4.33 4.09-1.78 7.39a27.14 27.14 0 0 1 2.19 4zm-82.84-10.11c4.29-.47 8.65-.61 12.86-1.49 4.89-1 6.18-6.73 3-10.48a16.77 16.77 0 0 1 -3.43-7.25c-.61-3-1.6-5.23-4.89-5.1-7.31.28-14.65.47-21.89 1.37-5.57.69-6.56 2.93-4.94 8.33 3.2 10.53 8.17 14.22 19.29 14.62zm-23.81-21.65c-4.35.37-10.5.58-16.55 1.48-11.83 1.76-13.19 4.2-10.41 16 1 4.06 3 6.05 7.26 5.83 7.65-.4 15.32-.48 23-1 5.58-.36 5.92-1.45 3.5-6.52-2.33-4.8-4.25-9.78-6.8-15.79zm-42.17 26.63.06-.51h4c9.32-.37 9.47-.55 8.84-9.52-.16-2.32-.44-4.65-.39-7 .09-3.37-1.12-4.92-4.71-4.44-5.6.75-11.25 1.18-16.85 1.89-4.25.54-7.82 2.18-8.39 7.07-.5 4.34 2.8 9.68 7.16 10.93 3.3.96 6.84 1.09 10.28 1.58zm15.43-47.52c-8.14 2.19-16.36 4-24.22 6.79-2.06.73-4.17 4.66-4.1 7.05s2.52 6.32 4.53 6.74a117.89 117.89 0 0 0 21.16 2.15c1.5 0 4.38-2.77 4.38-4.26-.01-5.54-.96-11.08-1.75-18.47zm72.57 9.67c5.4-4.5 9.76-8.37 14.38-11.91s9.41-7.49 14.67-10.17c5.09-2.6 10.89-3.82 16.38-5.64l-.47-1.62c-6.22.57-12.48.9-18.64 1.82-2.66.4-5.12 2-8.6 3.49-2.7-1.94-7.5-2.83-10.3 1.28-3.45 5.06-5.4 11.17-7.75 16.93-.48 1.19.12 2.82.33 5.82z"/><path d="m641.87 355.24c-2.69 2.81 0 9.29-7.19 9.17l6-10z"/><g fill="#fff"><path d="m673 360c-2.85 2.79-4.27 5.34 0 8.26-2.47-6.28 2.56-7.17 5.77-8.68 3.69-1.74 5.21 1.61 6.63 4.24 3.2 6 3.59 9-2.15 12.5-14.63 9-29.85 17.09-45.08 25.08-4.42 2.33-8.71.19-11.9-3.68a22.26 22.26 0 0 1 -5.11-18.14c.85-5.82 2.44-6.79 8.2-5.81 11.23 1.9 20.65-1.77 28.54-9.67 4.1-4.04 8.42-6.44 15.1-4.1z"/><path d="m625.85 325.78c-1.86 8-3.16 15.34-5.47 22.37-.76 2.31-4 5.11-6.33 5.36a168.47 168.47 0 0 1 -22.25.39c-1 0-2.49-2.22-2.7-3.58-.65-4.2-.79-8.48-2-12.95-.46 4.8-1.71 9.71-1.15 14.39.47 4-.4 5.16-4 5.32-7 .31-13.95 1-20.92.95a8.14 8.14 0 0 1 -6-3.15c-5.19-8.4-.94-17.1 8.67-18.79 17.83-3.13 35.63-6.43 53.46-9.57 2.77-.52 5.59-.52 8.69-.74z"/><path d="m684.44 391.49a27.14 27.14 0 0 0 -2.19-4.05c-2.55-3.3-1.09-5.43 1.78-7.39 3.12-2.12 5.59-.28 6.52 2.09s1.52 6.23.31 8.27c-6.35 10.7-15.31 19.22-25.33 26.38-7.82 5.59-21.67.65-25.21-8.33-1.26-3.18.5-5 3.13-6.37 9.29-4.88 18.59-9.73 27.81-14.75 3.72-2 6.87-2.57 9.25 1.77.7 1.29 1.44 2.56 2.16 3.84z"/><path d="m601.6 381.4c-11.12-.4-16.09-4.09-19.25-14.62-1.62-5.4-.63-7.64 4.94-8.33 7.24-.9 14.58-1.09 21.89-1.37 3.29-.13 4.28 2.07 4.89 5.1a16.77 16.77 0 0 0 3.43 7.25c3.14 3.75 1.85 9.45-3 10.48-4.25.88-8.61 1.02-12.9 1.49z"/><path d="m577.79 359.75c2.55 6 4.47 11 6.76 15.78 2.42 5.07 2.08 6.16-3.5 6.52-7.64.5-15.31.58-23 1-4.27.22-6.3-1.77-7.26-5.83-2.78-11.77-1.42-14.21 10.41-16 6.09-.89 12.24-1.1 16.59-1.47z"/><path d="m535.62 386.38c-3.44-.49-7-.62-10.28-1.56-4.36-1.25-7.66-6.59-7.16-10.93.57-4.89 4.14-6.53 8.39-7.07 5.6-.71 11.25-1.14 16.85-1.89 3.59-.48 4.8 1.07 4.71 4.44 0 2.32.23 4.65.39 7 .63 9 .48 9.15-8.84 9.52-1.33.05-2.67 0-4 0z"/><path d="m551.05 338.86c.79 7.39 1.74 12.93 1.75 18.47 0 1.49-2.88 4.3-4.38 4.26a117.89 117.89 0 0 1 -21.16-2.15c-2-.42-4.45-4.35-4.53-6.74s2-6.32 4.1-7.05c7.86-2.81 16.08-4.6 24.22-6.79z"/><path d="m623.62 348.53c-.21-3-.81-4.63-.33-5.82 2.35-5.76 4.3-11.87 7.75-16.93 2.8-4.11 7.6-3.22 10.3-1.28 3.48-1.46 5.94-3.09 8.6-3.49 6.16-.92 12.42-1.25 18.64-1.82l.47 1.62c-5.49 1.82-11.29 3-16.38 5.64-5.26 2.68-9.94 6.55-14.67 10.17s-9 7.38-14.38 11.91z"/></g></g></svg>