<svg viewBox="0 0 278 141" xmlns="http://www.w3.org/2000/svg"><g transform="translate(-1014 -420)"><path d="m1014 420h278v141h-278zm226 90.33-1.37.33c-.19 1.95-.35 3.92-.58 5.87-1.18 9.78-5.54 17-15.72 19.54-7.42 1.87-14.79 4-22.25 5.61-2.56.56-5.35.09-8.12.09l-9 4.88-1.29-1.78c1.31-1 2.71-1.85 3.92-2.94 4.7-4.24 9.55-8.33 13.94-12.87 6.63-6.88 7-13.8 1.62-21.65-.38-.55-1.16-1.07-1.15-1.59a12.87 12.87 0 0 1 .78-5c.23-.47 2.55-.16 3.85.13 2.53.55 5 1.32 7.53 2l.39-1.16c-2.33-1.16-4.86-2.07-6.94-3.58-1.88-1.35-3.28-3.37-4.88-5.1l1-1 6.16 1.81.11-.46-7.12-3.71.59-1.08 6.55 1.8-3.78-3.07c1.53-1.67 2.9-3.15 4.27-4.63l-.62-1.34c-5.65 6.28-13.06 4.85-20 5.46-5.87.51-12.56 2.35-14.36-7.36-.76 1.71-1.07 2.29-1.28 2.9-5.09 15-23.95 23.4-38.42 17.16-5.66-2.44-7.32-6.76-4.66-12.55l2.35 1.38c-1.14-7.29 5.93-7.46 9.21-10.76 5.91-6 7.66 5 13.14 3.64-.72-1.1-1.17-1.94-1.76-2.66-5-6-5-6 1.08-11.29a15.69 15.69 0 0 0 1.48-1.34c2.73-3 5.7-3.79 9.09-1 .08.07.46-.21.76-.35l-2.1-3 .61-.62 7.58 7 .69-.79-6.74-7.63c7-3.15 13.53-5.66 19.66-8.95 8.85-4.75 18.1-4.48 27.11-2 12 3.3 23.71 7.74 35.54 11.72 5.47 1.84 10.09 4.74 11 11 1.06 7.12-.84 13.48-7 17.54-4 2.61-8.57 4.3-13 6.2-3.93 1.7-8 3.1-12.43 4.81 6 4.07 18.55-2.23 33.84-16.19v4.25l4.1-5.4 6.85 5.71.8-.68-5.64-8.68.8-.54 22 20.86c.54-3.31 1.25-6-2.07-9.29-9.22-9.07-17.71-18.87-26.53-28.35a14.56 14.56 0 0 0 -2.79-2c-11.53-7.54-24.63-10.76-37.83-13.63-8.84-1.93-17.27-4.74-26.91-3.09-23.54 4-47.34 6.55-71 10.15-15.13 2.31-30.14 5.38-45.17 8.27-12.09 2.33-24.19 4.65-36.18 7.45-8.78 2-14.12 10.7-10.66 17.58 2.42 4.8 1.19 7.73-2.2 10.83a18.32 18.32 0 0 0 -2.55 3.07c-5.14 7.25-2.66 16 5.79 18.46a44.53 44.53 0 0 0 14.74 1.75c10.94-.59 21.82-2.11 32.75-3 12.94-1 25.91-1.67 38.86-2.53 5.51-.37 8.65 1.66 10.81 7.23 2.52 6.52 5.66 13.44 14.52 14.08 1 .07 2.27 1.82 2.8 3 3.62 8.46 11.77 11.4 18.87 15.53 1.28.74 3.61.12 5.29-.39 8.37-2.49 16.68-5.18 25-7.75.94-.29 2-.23 2.94-.47 9.66-2.37 19.84-3.58 28.81-7.52 7.93-3.47 13.11-2.22 18.6 3.42 1.77 1.82 4.29 2.9 6.46 4.32l.88-1c-8.42-10.1-11.25-22.13-11.42-35.06zm-90.49-17.88 1.82-7.67-.75-.3-6.77 11.07z" fill="#fff"/><path d="m1240 510.33c.17 12.93 3 25 11.59 35.05l-.88 1c-2.17-1.42-4.69-2.5-6.46-4.32-5.49-5.64-10.67-6.89-18.6-3.42-9 3.94-19.15 5.15-28.81 7.52-1 .24-2 .18-2.94.47-8.34 2.57-16.65 5.26-25 7.75-1.68.51-4 1.13-5.29.39-7.1-4.13-15.25-7.07-18.87-15.53-.53-1.23-1.78-3-2.8-3-8.86-.64-12-7.56-14.52-14.08-2.16-5.57-5.3-7.6-10.81-7.23-12.95.86-25.92 1.53-38.86 2.53-10.93.85-21.81 2.37-32.75 3a44.53 44.53 0 0 1 -14.74-1.75c-8.45-2.5-10.93-11.21-5.79-18.46a18.32 18.32 0 0 1 2.55-3.07c3.39-3.1 4.62-6 2.2-10.83-3.46-6.88 1.88-15.53 10.66-17.58 12-2.8 24.09-5.12 36.18-7.45 15-2.89 30-6 45.17-8.27 23.62-3.6 47.42-6.13 71-10.15 9.64-1.65 18.07 1.16 26.91 3.09 13.2 2.87 26.3 6.09 37.83 13.63a14.56 14.56 0 0 1 2.79 2c8.82 9.48 17.31 19.28 26.53 28.35 3.32 3.26 2.61 6 2.07 9.29l-22-20.86-.8.54 5.64 8.68-.8.68-6.85-5.71-4.1 5.4v-4.33c-15.29 14-27.89 20.26-33.84 16.19 4.45-1.71 8.5-3.11 12.43-4.81 4.41-1.9 9-3.59 13-6.2 6.18-4.06 8.08-10.42 7-17.54-.92-6.25-5.54-9.15-11-11-11.83-4-23.53-8.42-35.54-11.72-9-2.48-18.26-2.75-27.11 2-6.13 3.29-12.67 5.8-19.66 8.95l6.74 7.63-.69.79-7.58-7-.61.62 2.1 3c-.3.14-.68.42-.76.35-3.39-2.77-6.36-2-9.09 1a15.69 15.69 0 0 1 -1.48 1.34c-6.09 5.3-6.08 5.3-1.08 11.29.59.72 1 1.56 1.76 2.66-5.48 1.32-7.23-9.6-13.14-3.64-3.28 3.3-10.35 3.47-9.21 10.76l-2.35-1.38c-2.66 5.79-1 10.11 4.66 12.55 14.47 6.24 33.33-2.18 38.42-17.16.21-.61.52-1.19 1.28-2.9 1.8 9.71 8.49 7.87 14.36 7.36 6.89-.61 14.3.82 20-5.46l.62 1.34c-1.37 1.48-2.74 3-4.27 4.63l3.78 3.07-6.55-1.8-.59 1.08 7.12 3.71-.11.46-6.16-1.81-1 1c1.6 1.73 3 3.75 4.88 5.1 2.08 1.51 4.61 2.42 6.94 3.58l-.39 1.16c-2.51-.69-5-1.46-7.53-2-1.3-.29-3.62-.6-3.85-.13a12.87 12.87 0 0 0 -.78 5c0 .52.77 1 1.15 1.59 5.36 7.85 5 14.77-1.62 21.65-4.39 4.54-9.24 8.63-13.94 12.87-1.21 1.09-2.61 2-3.92 2.94l1.29 1.78 9-4.88c2.77 0 5.56.47 8.12-.09 7.46-1.65 14.83-3.74 22.25-5.61 10.18-2.56 14.54-9.76 15.72-19.54.23-1.95.39-3.92.58-5.87zm-57.06-20.33c-6.62-2.39-11 0-15 4-8.48 8.41-18.48 12.18-30.42 9.24-2.82-.7-4.59.21-5.32 2.89a27.05 27.05 0 0 0 -1.24 6.79c0 7.43 2.53 14 9 17.82 5.91 3.48 11.63.16 16.89-2.7 9.92-5.38 19.78-10.89 29.49-16.63a38.17 38.17 0 0 0 8.81-7.14c3.41-3.78 1.42-12.27-3.11-14.59a4 4 0 0 0 -3.24-.23c-3.2 1.89-8.13 2.57-6.06 8.76-4.04-3.05-2.67-5.5.2-8.21zm-86.33-22.61 1.29.16c.34 4.25.48 8.53 1.13 12.73.21 1.36 1.73 3.57 2.69 3.59a215.34 215.34 0 0 0 22.73-.49c2-.17 5-2.41 5.54-4.3 2.31-7.48 3.86-15.2 5.76-23.12a23.42 23.42 0 0 0 -3.68 0c-20.94 3.65-41.88 7.28-62.79 11.08-4.56.83-6.33 4.76-5.93 8.65.42 4 2.32 8 3.81 11.84.19.49 1.83.62 2.77.57 7.64-.34 15.3-.6 22.9-1.31 1.2-.12 3-2.28 3.14-3.64.52-5.15.47-10.46.64-15.73zm97.72 53.84-1.71 1.68c-.65-1.18-1.31-2.35-1.95-3.52-2.42-4.38-5.58-4.26-9.6-2-9.18 5.07-18.51 9.88-27.79 14.76-2.66 1.4-4.31 3.28-3 6.42 3.74 9 17.4 13.84 25.25 8.19 10-7.19 19-15.71 25.31-26.41 1.17-2 .79-5.53-.15-7.85-1-2.57-3.45-4.64-6.82-2.37-2.94 2-4.17 4.19-1.64 7.41a26.28 26.28 0 0 1 2.1 3.72zm-82.85-10.07c3.16-.19 6.31-.34 9.46-.58a17.51 17.51 0 0 0 3.44-.63c4.84-1.35 6.19-6.79 3.06-10.54a16.77 16.77 0 0 1 -3.45-7.24c-.6-3-1.57-5.25-4.87-5.12-7.3.28-14.64.46-21.88 1.37-5.7.71-6.7 3.13-4.8 8.79 3.56 10.79 7.8 13.79 19.04 13.98zm-23.67-21.48c-4.64.41-10.79.62-16.84 1.55-11.65 1.8-12.87 4-10.26 15.66 1 4.28 3 6.37 7.53 6.12 7.48-.42 15-.47 22.45-1 6-.39 6.27-1.36 3.69-6.74-2.24-4.57-4.02-9.43-6.57-15.56zm-42.56 26.15c1.66 0 3.33.07 5 0 8.73-.46 8.88-.66 8.24-9.12-.22-3-.11-6-.69-8.94-.23-1.11-2-2.79-3-2.72a178.71 178.71 0 0 0 -20.3 2.22c-5.7 1.07-7.68 5.64-5.5 11.09 3 7.64 9.58 7.72 16.25 7.5zm15.75-47c-8.13 2.18-16.34 4-24.2 6.76-2.06.73-4.19 4.65-4.13 7s2.51 6.33 4.51 6.76a117.79 117.79 0 0 0 21.15 2.16c1.5.05 4.4-2.75 4.4-4.23 0-5.47-.94-11.01-1.73-18.41zm71.26 7.4 2.2 1.45c6.81-5.63 13.13-12 20.56-16.66s15.8-7.4 23.77-11a94.15 94.15 0 0 0 -19 .94c-2.66.41-5.12 2.1-8.61 3.61-6.1-3.3-10.48-1.57-13.16 6.33-.58 1.71-1.55 3.28-2.18 5-1.26 3.46-2.4 6.92-3.58 10.37z"/><path d="m1149.51 492.45-5.7 3.1 6.77-11.07.75.3z"/><g fill="#fff"><path d="m1182.94 490c-2.87 2.68-4.24 5.13-.21 8.19-2.07-6.19 2.86-6.87 6.06-8.76a4 4 0 0 1 3.24.23c4.53 2.32 6.52 10.81 3.11 14.59a38.17 38.17 0 0 1 -8.81 7.14c-9.71 5.74-19.57 11.25-29.49 16.63-5.26 2.86-11 6.18-16.89 2.7-6.49-3.81-9.07-10.39-9-17.82a27.05 27.05 0 0 1 1.24-6.79c.73-2.68 2.5-3.59 5.32-2.89 11.94 2.94 21.94-.83 30.42-9.24 4.07-3.98 8.39-6.34 15.01-3.98z"/><path d="m1096.61 467.42c-.17 5.27-.12 10.56-.64 15.79-.13 1.36-1.94 3.52-3.14 3.64-7.6.71-15.26 1-22.9 1.31-.94 0-2.58-.08-2.77-.57-1.49-3.88-3.39-7.8-3.81-11.84-.4-3.89 1.37-7.82 5.93-8.65 20.91-3.8 41.85-7.43 62.79-11.08a23.42 23.42 0 0 1 3.68 0c-1.9 7.92-3.45 15.64-5.76 23.12-.58 1.89-3.52 4.13-5.54 4.3a215.34 215.34 0 0 1 -22.73.49c-1 0-2.48-2.23-2.69-3.59-.65-4.2-.79-8.48-1.13-12.73z"/><path d="m1194.33 521.26a26.28 26.28 0 0 0 -2.11-3.74c-2.53-3.22-1.3-5.43 1.64-7.41 3.37-2.27 5.79-.2 6.82 2.37.94 2.32 1.32 5.9.15 7.85-6.36 10.7-15.31 19.22-25.31 26.41-7.85 5.65-21.51.85-25.25-8.19-1.3-3.14.35-5 3-6.42 9.28-4.88 18.61-9.69 27.79-14.76 4-2.21 7.18-2.33 9.6 2 .64 1.17 1.3 2.34 1.95 3.52z"/><path d="m1111.48 511.19c-11.24-.19-15.44-3.24-19-13.95-1.9-5.66-.9-8.08 4.8-8.79 7.24-.91 14.58-1.09 21.88-1.37 3.3-.13 4.27 2.09 4.87 5.12a16.77 16.77 0 0 0 3.45 7.24c3.13 3.75 1.78 9.19-3.06 10.54a17.51 17.51 0 0 1 -3.44.63c-3.19.24-6.34.39-9.5.58z"/><path d="m1087.81 489.71c2.55 6.13 4.33 11 6.57 15.63 2.58 5.38 2.3 6.35-3.69 6.74-7.47.49-15 .54-22.45 1-4.51.25-6.57-1.84-7.53-6.12-2.61-11.62-1.39-13.86 10.26-15.66 6.03-.97 12.2-1.18 16.84-1.59z"/><path d="m1045.25 515.86c-6.67.22-13.26.12-16.3-7.49-2.18-5.45-.2-10 5.5-11.09a178.71 178.71 0 0 1 20.3-2.22c1-.07 2.81 1.61 3 2.72.58 2.91.47 6 .69 8.94.64 8.46.49 8.66-8.24 9.12-1.62.09-3.29.02-4.95.02z"/><path d="m1061 468.87c.79 7.4 1.73 12.94 1.73 18.49 0 1.48-2.9 4.28-4.4 4.23a117.79 117.79 0 0 1 -21.15-2.16c-2-.43-4.44-4.37-4.51-6.76s2.07-6.31 4.13-7c7.86-2.84 16.07-4.62 24.2-6.8z"/><path d="m1132.26 476.27c1.18-3.45 2.32-6.91 3.57-10.33.63-1.7 1.6-3.27 2.18-5 2.68-7.9 7.06-9.63 13.16-6.33 3.49-1.51 5.95-3.2 8.61-3.61a94.15 94.15 0 0 1 19-.94c-8 3.58-16.43 6.39-23.77 11s-13.75 11-20.56 16.66z"/></g></g></svg>