<svg viewBox="0 0 480 383" xmlns="http://www.w3.org/2000/svg"><g transform="translate(-333.41 -190.68)"><path d="m333.41 191.68a17 17 0 0 1 4-1q44.89-.09 89.8 0h386.2v383h-480v-50.74h134.11v-33.38h-45.75v-264.8h45.74v-33.08zm278.13 377.32c1.21-8.6 2.3-16.33 3.37-24.06 1.58-11.33 6.18-20.55 17.11-25.79 2.1-1 3.63-3.29 5.29-5.1 2.66-2.91 5.22-5.91 7.9-9-.08-.16-.47-.86-1-1.9 3.88-.91 7.24-1.83 10.66-2.46 5.09-.93 9.9.17 13.12 4.27 10.73 13.68 25.8 19.28 41.86 23.25 2.78.69 5.48 1.7 8.21 2.56-.14.55-.29 1.1-.44 1.65l-22.72-4.42a13.43 13.43 0 0 0 6.45 3.74c7.8 1.56 15.67 2.72 23.48 4.23 1 .2 1.9 1.48 2.84 2.26-1.07.32-2.19 1-3.2.89-8.75-1.21-17.49-2.58-26.24-3.91l-.35 1.48c5.21 1.36 10.35 3.13 15.63 4 14.93 2.48 14.84 2.31 13.49 17.31-.44 4.79-.07 9.66-.07 14.49l2.13.45c1.57-3.87 3.6-7.62 4.62-11.63 2.21-8.69 3.33-17.69 6-26.2 1.47-4.63 4.31-10.07 8.19-12.46 10.83-6.65 16.83-16.65 22.57-27.26 9.17-16.95 18-34.16 28.42-50.33 10.95-17 15.43-33.89 9.95-54.22-5.07-18.84-7-38.53-10.22-57.85-.82-4.88-1.89-9.59-6.68-12.16-6.29-3.37-8.48-8.64-7.4-15.42.82-5.12-.75-9.42-3.7-13.51a40.55 40.55 0 0 0 -20-15.09 53 53 0 0 0 -28-1.8c-4.44.89-8-.09-11-3.84a14 14 0 0 0 -6.49-4.59c-15.73-4.63-30.62-2.44-44.31 6.62-3.26 2.15-5.74 2.32-9-.05a15.52 15.52 0 0 0 -7.39-2.57c-9.77-1-19.17.75-28.33 4.23a19.35 19.35 0 0 0 -12.56 13.75c-.54 1.95-1.32 3.83-2.41 6.94a41.39 41.39 0 0 1 -1.83-3.72c-5.3-15-10.62-30.07-15.82-45.14-4-11.61-7.45-23.44-11.9-34.87-3.56-9.13-9.91-16.12-19.75-19.1-9-2.73-17.22.72-21.16 9.3a42.52 42.52 0 0 0 -3.21 26.77c1.1 5.36 2.67 10.66 3.43 16.07 1.46 10.34 1.84 20.87 3.84 31.1 3.4 17.41 8.78 34.48 11.35 52 3.13 21.37 15.22 40.56 14.38 62.73 5.87 17.18 6.37 35.18 8.41 53 2.18 19.11 7.19 37.56 16 54.73 2.07 4 5.63 8.16 9.57 10.14 5 2.53 6.3 5.34 5.73 10.53-1.26 11.39-2.05 22.83-3 34.25-.45 5.36.34 10.47 4.18 15.71z" fill="#fff"/><path d="m333.41 191.68h134.1v33.08h-45.74v264.8h45.75v33.38h-134.11v-32.94h46.46v-265.4h-46.46z"/><path d="m333.41 224.6h46.46v265.4h-46.46z" fill="#fff"/><path d="m611.54 569c-3.84-5.2-4.63-10.31-4.19-15.7.92-11.42 1.71-22.86 3-34.25.57-5.19-.72-8-5.73-10.53-3.94-2-7.5-6.11-9.57-10.14-8.78-17.17-13.79-35.62-16-54.73-2-17.8-2.54-35.8-8.41-53 .84-22.17-11.25-41.36-14.38-62.73-2.57-17.51-8-34.58-11.35-52-2-10.23-2.38-20.76-3.84-31.1-.76-5.41-2.33-10.71-3.43-16.07a42.52 42.52 0 0 1 3.21-26.75c3.94-8.58 12.14-12 21.16-9.3 9.84 3 16.19 10 19.75 19.1 4.45 11.43 7.89 23.26 11.9 34.87 5.2 15.07 10.52 30.1 15.82 45.14a41.39 41.39 0 0 0 1.83 3.72c1.09-3.11 1.87-5 2.41-6.94a19.35 19.35 0 0 1 12.56-13.75c9.16-3.48 18.56-5.22 28.33-4.23a15.52 15.52 0 0 1 7.39 2.57c3.25 2.37 5.73 2.2 9 .05 13.69-9.06 28.58-11.25 44.31-6.62a14 14 0 0 1 6.49 4.59c3 3.75 6.58 4.73 11 3.84a53 53 0 0 1 28 1.8 40.55 40.55 0 0 1 20 15.09c3 4.09 4.52 8.39 3.7 13.51-1.08 6.78 1.11 12 7.4 15.42 4.79 2.57 5.86 7.28 6.68 12.16 3.24 19.32 5.15 39 10.22 57.85 5.48 20.33 1 37.18-9.95 54.22-10.41 16.17-19.25 33.38-28.42 50.33-5.73 10.58-11.73 20.58-22.54 27.2-3.88 2.39-6.72 7.83-8.19 12.46-2.7 8.51-3.82 17.51-6 26.2-1 4-3 7.76-4.62 11.63l-2.13-.45c0-4.83-.37-9.7.07-14.49 1.36-15 1.45-14.8-13.48-17.25-5.28-.87-10.42-2.64-15.63-4l.35-1.48c8.75 1.33 17.49 2.7 26.24 3.91 1 .14 2.13-.57 3.2-.89-.94-.78-1.79-2.06-2.84-2.26-7.81-1.51-15.68-2.67-23.48-4.23a13.43 13.43 0 0 1 -6.48-3.77l22.69 4.39c.15-.55.3-1.1.44-1.65-2.73-.86-5.43-1.87-8.21-2.56-16.06-4-31.13-9.57-41.86-23.25-3.22-4.1-8-5.2-13.12-4.27-3.42.63-6.78 1.55-10.66 2.46.56 1 1 1.74 1 1.9-2.68 3.05-5.24 6.05-7.9 9-1.66 1.81-3.19 4.09-5.29 5.1-10.93 5.24-15.53 14.46-17.11 25.79-1.04 7.72-2.13 15.45-3.34 24.09zm122-238.64c-2-.18-3.82-.85-4.35-.3-4.83 5.06-10.89 3.23-16.52 3-3.84-.17-4.8-2.08-4.34-6.42 1.89 1.08 3.67 2.83 5.63 3.05 3.43.38 7.79 1.07 10.31-.58 6.92-4.53 10.19-12.4 10.65-20 .4-6.71-7.28-8.82-12.35-11.59-4.21-2.31-9.24-5.29-13.95-1.42-8.85 7.27-13.8 16.56-12.32 28.4 2.24 17.88 18.8 34.21 37.66 36.86 7.8 1.09 15.72 1.45 23.58 2.14l.17 1.27-12.46 2.13 1.51 5.19c-1.41.18-2.44.6-3.33.39-4.9-1.12-6.33 1.48-7.21 5.73-1.64 8 .95 14.68 5.34 21.05 2.08 3 4 6.14 6.62 10.18-8.21-1.3-12.13-6.08-15.71-11.61-1.27 2.82-2.19 4.87-3.37 7.47-3.2-4.18-5.63-2.48-8 .19-1.33 1.48-2.61 3.31-4.32 4.07-2.33 1-5 1.2-7.59 1.74l-.47-1.68 8.09-7.37c-4.73-.85-8-1.75-11.27-2-5.46-.35-11 .24-16.4-.47-10.61-1.38-14.92.34-20.18 9.53-2.23 3.9-4.19 7.94-6.26 11.92q-2.52 4.88-5 9.75l-.64-.28c1.11-5.05 2.22-10.09 3.59-16.28l-6.33 4.52-.9-1 12.4-15.27c-4-.42-6.6-.07-8.58-1-7.14-3.3-12.8-1.12-18.16 3.81-5.73 5.26-11.64 10.33-17.47 15.49l-1.61-1.06c.76-1.22 1.29-2.7 2.32-3.63 4.89-4.41 9.92-8.69 14.9-13l-1.1-1.48-21.18 12-.77-1.3 28.3-17.5c-2.35-3.06-4.58-5.71-6.56-8.55-7.36-10.57-10.54-22.84-14-35-2.47-8.73-4.52-9.89-12.69-5.77q-13.34 6.72-26.19 14.4a9.31 9.31 0 0 0 -4 6.27 78.76 78.76 0 0 0 3.91 31.42 46.58 46.58 0 0 1 2.77 15c.08 22.77 3 45.05 9.87 66.79 6.15 19.6 26.11 27.37 43.86 17 2.68-1.56 4.73-2.48 7.46.25 1.09 1.09 4.16 1.23 5.71.5 1.06-.5 1.68-3.35 1.42-5-.61-3.92-2.26-7.69-2.72-11.61-.4-3.46.25-7 .44-10.57l1.66.06c.29 4.08.39 8.19.92 12.24.49 3.8 1.42 7.55 2.16 11.32l1.42-.18c-2.45-10.33-.87-20.2 3.23-29.86a26.34 26.34 0 0 1 .69 7.15c.18 16.34 6.56 28.92 21.88 36.12 3.31 1.55 6.4 3.74 9.84 4.77 9.66 2.89 19.4 7.25 29.2 7.48 15.92.38 28.55-7.73 36.91-21.65 1.87-3.12 3.32-6.51 5.13-9.68 9.79-17.16 19.56-34.33 29.5-51.4 4-6.78 7.63-13.54 7.32-22.06l-7.08 1.47c7.94-7.7 8-9 6.27-20.17-2.19-14.25-3.67-28.6-5.66-42.88-.64-4.66-1.92-9.23-3.19-15.14l-10.3 16.73-1.36-.75c1.84-3.62 3.72-7.23 5.5-10.88s3.48-7.21 1.82-12.54c-2.34 3.9-4.06 6.78-5.78 9.66a16.83 16.83 0 0 1 1.17-5.84c2.71-8.31 1.3-10.49-6.92-13-8.86-2.69-17.59-5.84-26.26-9.11-4-1.53-6.63-.88-8.53 3.07-2.54 5.25-5.29 10.37-7.76 15.26zm-82 52.73c-5.6-7.36-4.84-10.28 3.44-12.29 5.33-1.29 11-1.28 16.65-1.86a16.2 16.2 0 0 0 -.41-2c-5.15-16.62-7.9-33.4-5.82-51 .87-7.31-.09-14.93-.92-22.33-1-9.31-4.71-12.69-14-13.91a35.22 35.22 0 0 0 -8-.08c-18 1.84-26.45 11.67-23.35 27.49 2.32 11.88 5.05 23.68 7.69 35.5 1.06 4.73 2.57 5.12 7.06 3.08 6.27-2.85 12.72-5.3 19.09-7.93l.5 1.06-2.41 3.62 10.54-.79a29.17 29.17 0 0 1 -8.72 3.71c-4 1.19-7.91 2.49-11.92 3.51a14.39 14.39 0 0 1 -5.53.41c-4.1-.64-6.51 1.14-5.44 5.11 2 7.5 3.56 15.44 7.29 22.07 3.53 6.29 9.29 11.5 14.74 16.43 1.88 1.7 5.94 1.92 8.75 1.41 3.32-.59 5.89-4.59 10-2.14.33.19 1.5-.57 2-1.15 5-6 1.75-17-6-18.7-3.8-.85-8.22 0-12.07 1-1.63.45-2.83 3.42-3.63 5.48-.42 1.21.31 2.82.49 4.26zm29.21-43 .24-2a20.4 20.4 0 0 1 3.5-1.39c6.8-1.37 8.39-3.14 7-9.72-1.68-7.8-.58-15.14 2.12-22.45 4-10.79 11.11-15.53 22.52-14.79 4.18.28 5.67-1.82 4.12-5.79-2.32-5.93-6.34-8.62-12.77-8.18s-12.9 1.18-19.36 1.7c-13.13 1.06-18 6.09-18.19 19.35-.17 12.3-.17 24.6-.08 36.89.11 14.74 3.16 29 7.41 43 2.88 9.49 9.36 15.59 19 17.89 6.12 1.46 9.19-1.21 9.41-7.34.06-1.82.11-3.66.33-5.47 1.48-12.38.35-13.65-12-13.3-.5 0-1 0-1.5.06-6.05.44-7.37 1.8-7.78 8-.06.94-.16 1.89-.27 3.15-3.8-6.83-2.19-11.75 4.62-13.06 4.45-.85 9.17-.31 13.76-.5 2-.08 5.18.28 5.84-.78 1.83-3 3.77-6.47.32-9.95-2.93-2.94-5.61-6.12-8.46-9.14-3.9-4.13-8.45-6.18-14.33-5-1.7.19-3.62-.85-5.43-1.27zm-85.31-48.95c-7.93 3.31-15.55 6-22.74 9.63-5.68 2.85-8.59 8.13-9 14.57-.74 10.89 1.89 21.1 6.66 30.76 4.86 9.85 9.3 10.6 18.5 4.68a180.76 180.76 0 0 1 20.43-11c3.88-1.84 6.41-4.59 5.27-8.44-3.41-11.54-7.22-23-11.52-34.21-.9-2.45-4.53-3.77-7.58-6.07zm-20.07-46.14c-5.79 1.86-11.71 3.38-17.32 5.68a10.25 10.25 0 0 0 -6.58 11.26c1.62 10.95 3.49 21.91 6.17 32.63 1.71 6.85 4.25 7 10.69 4.21a148 148 0 0 1 22.37-7.93c8.06-2 10.15-3.9 7.56-12-2.78-8.63-6.68-16.9-10-25.38-2.26-5.87-6.79-7.68-12.89-8.47zm-32.09-24.75c1.72 8.76 3.4 17.53 5.18 26.27.67 3.29 2.47 3.5 5.52 2.39 6.67-2.44 13.47-4.61 20.34-6.38s7.14-1.83 5.86-9.1c-.46-2.61-.84-5.24-1.46-7.82-2.14-9-5.27-17.51-12.21-24.05-6-5.62-12.49-5.16-17.65 1.17-4.14 5.05-5.04 11.04-5.58 17.5zm234.28 86.61c-.08-7.58-2.56-13.26-6.95-15.39-9.62-4.67-19.78-8.1-30.54-7.73-3.44.11-7.43 2.68-10 5.28-3.18 3.23-2.08 7 2.06 8.86 12.52 5.72 25.16 11.15 37.72 16.78 3.39 1.53 5.49.36 6.61-2.82a31.79 31.79 0 0 0 1.1-5zm-62.66 69.6-.09-1.54c3.9-2.32 8.09-2 12.51-1 1.37.3 3.69 0 4.33-.87.89-1.27 1.41-4.42.73-4.92-3.5-2.57-7.2-5.46-11.27-6.47s-6.8 2.79-7.8 6.34a104.37 104.37 0 0 0 -3.31 17.5c-.24 2.32 1.44 4.83 2.24 7.25l1.26-.4.54-6a16.53 16.53 0 0 1 3.15 7.32c.62 3.73 2.91 4 5.83 3.34 4.6-1.12 8.14-6.84 7.3-11.63-1.12-6.43-4.56-9.33-10.46-8.93-1.63.1-3.3.01-4.96.01zm-93.45 138 .59 1.6 12.47-4.77-.54-1.42c-5.17-1.23-9.44.05-12.52 4.61z"/><g fill="#fff"><path d="m733.53 330.32c2.49-4.89 5.22-10 7.73-15.24 1.9-3.95 4.5-4.6 8.53-3.07 8.67 3.27 17.4 6.42 26.26 9.11 8.22 2.49 9.63 4.67 6.92 13a16.83 16.83 0 0 0 -1.15 5.85c1.72-2.88 3.44-5.76 5.78-9.66 1.66 5.33-.07 9-1.82 12.54s-3.66 7.26-5.5 10.88l1.36.75 10.3-16.73c1.27 5.91 2.55 10.48 3.19 15.14 2 14.28 3.47 28.63 5.66 42.88 1.72 11.19 1.67 12.47-6.27 20.17l7.08-1.47c.31 8.52-3.37 15.28-7.32 22.06-9.94 17.07-19.71 34.24-29.5 51.4-1.81 3.17-3.26 6.56-5.13 9.68-8.36 13.92-21 22-36.91 21.65-9.8-.23-19.54-4.59-29.2-7.48-3.44-1-6.53-3.22-9.84-4.77-15.32-7.2-21.7-19.78-21.88-36.12a26.34 26.34 0 0 0 -.69-7.15c-4.1 9.66-5.68 19.53-3.23 29.86l-1.42.18c-.74-3.77-1.67-7.52-2.16-11.32-.53-4.05-.63-8.16-.92-12.24l-1.66-.06c-.19 3.53-.84 7.11-.44 10.57.46 3.92 2.11 7.69 2.72 11.61.26 1.63-.36 4.48-1.42 5-1.55.73-4.62.59-5.71-.5-2.73-2.73-4.78-1.81-7.46-.25-17.75 10.37-37.71 2.6-43.86-17-6.82-21.74-9.79-44-9.87-66.79a46.58 46.58 0 0 0 -2.77-15 78.76 78.76 0 0 1 -3.93-31.43 9.31 9.31 0 0 1 4-6.27q12.83-7.67 26.19-14.4c8.17-4.12 10.22-3 12.69 5.77 3.44 12.15 6.62 24.42 14 35 2 2.84 4.21 5.49 6.56 8.55l-28.28 17.48.77 1.3 21.18-12 1.1 1.48c-5 4.32-10 8.6-14.9 13-1 .93-1.56 2.41-2.32 3.63l1.54 1.07c5.83-5.16 11.74-10.23 17.47-15.49 5.36-4.93 11-7.11 18.16-3.81 2 .92 4.53.57 8.58 1l-12.4 15.27.9 1 6.33-4.52c-1.37 6.19-2.48 11.23-3.59 16.28l.64.28q2.49-4.87 5-9.75c2.07-4 4-8 6.26-11.92 5.26-9.19 9.57-10.91 20.18-9.53 5.39.71 10.94.12 16.4.47 3.29.21 6.54 1.11 11.27 2l-8.09 7.37.47 1.68c2.55-.54 5.26-.7 7.59-1.74 1.71-.76 3-2.59 4.32-4.07 2.41-2.67 4.84-4.37 8-.19 1.18-2.6 2.1-4.65 3.37-7.47 3.58 5.53 7.5 10.31 15.71 11.61-2.62-4-4.54-7.16-6.62-10.18-4.39-6.37-7-13.06-5.34-21.05.88-4.25 2.31-6.85 7.21-5.73.89.21 1.92-.21 3.33-.39l-1.51-5.19 12.46-2.13-.17-1.27c-7.86-.69-15.78-1.05-23.58-2.14-18.86-2.65-35.42-19-37.66-36.86-1.48-11.84 3.47-21.13 12.32-28.4 4.71-3.87 9.74-.89 13.95 1.42 5.07 2.77 12.75 4.88 12.35 11.59-.46 7.61-3.73 15.48-10.65 20-2.52 1.65-6.88 1-10.31.58-2-.22-3.74-2-5.63-3.05-.46 4.34.5 6.25 4.34 6.42 5.63.26 11.69 2.09 16.52-3 .6-.6 2.41.07 4.42.25zm-18.39-32.5c-7.58 3.77-12.77 14-11.16 21.64 3.54-6.85 7.59-14.71 11.16-21.64z"/><path d="m651.56 383.05c-.18-1.44-.91-3.09-.44-4.27.8-2.06 2-5 3.63-5.48 3.85-1.08 8.27-1.88 12.07-1 7.75 1.74 11 12.72 6 18.7-.48.58-1.65 1.34-2 1.15-4.15-2.45-6.72 1.55-10 2.14-2.81.51-6.87.29-8.75-1.41-5.45-4.93-11.21-10.14-14.74-16.43-3.73-6.63-5.27-14.57-7.29-22.07-1.07-4 1.34-5.75 5.44-5.11a14.39 14.39 0 0 0 5.53-.41c4-1 8-2.32 11.92-3.51a29.17 29.17 0 0 0 8.72-3.71l-10.54.79 2.41-3.62-.5-1.06c-6.37 2.63-12.82 5.08-19.09 7.93-4.49 2-6 1.65-7.06-3.08-2.64-11.82-5.37-23.62-7.69-35.5-3.1-15.82 5.35-25.65 23.35-27.49a35.22 35.22 0 0 1 8 .08c9.33 1.22 13 4.6 14 13.91.83 7.4 1.79 15 .92 22.33-2.08 17.56.67 34.34 5.82 51a16.2 16.2 0 0 1 .41 2c-5.68.58-11.32.57-16.65 1.86-8.31 1.98-9.03 4.9-3.47 12.26z"/><path d="m680.77 340c1.81.41 3.73 1.45 5.4 1.13 5.88-1.14 10.43.91 14.33 5 2.85 3 5.53 6.2 8.46 9.14 3.45 3.48 1.51 7-.32 9.95-.66 1.06-3.82.7-5.84.78-4.59.19-9.31-.35-13.76.5-6.81 1.31-8.42 6.23-4.62 13.06.11-1.26.21-2.21.27-3.15.41-6.19 1.73-7.55 7.78-8 .5 0 1 0 1.5-.06 12.36-.35 13.49.92 12 13.3-.22 1.81-.27 3.65-.33 5.47-.22 6.13-3.29 8.8-9.41 7.34-9.63-2.3-16.11-8.4-19-17.89-4.25-14-7.3-28.3-7.41-43-.09-12.29-.09-24.59.08-36.89.18-13.26 5.06-18.29 18.19-19.35 6.46-.52 12.9-1.25 19.36-1.7s10.45 2.25 12.77 8.18c1.55 4 .06 6.07-4.12 5.79-11.41-.74-18.55 4-22.52 14.79-2.7 7.31-3.8 14.65-2.12 22.45 1.42 6.58-.17 8.35-7 9.72a20.4 20.4 0 0 0 -3.46 1.44z"/><path d="m595.46 291.06c3 2.3 6.68 3.62 7.58 6 4.3 11.23 8.11 22.67 11.52 34.21 1.14 3.85-1.39 6.6-5.27 8.44a180.76 180.76 0 0 0 -20.43 11c-9.2 5.92-13.64 5.17-18.5-4.68-4.77-9.66-7.4-19.87-6.66-30.76.43-6.44 3.34-11.72 9-14.57 7.21-3.6 14.83-6.33 22.76-9.64z"/><path d="m575.37 245c6.1.81 10.66 2.62 12.93 8.51 3.28 8.48 7.18 16.75 10 25.38 2.59 8.06.5 9.92-7.56 12a148 148 0 0 0 -22.37 7.93c-6.44 2.79-9 2.64-10.69-4.21-2.68-10.72-4.55-21.68-6.17-32.63a10.25 10.25 0 0 1 6.58-11.26c5.57-2.36 11.49-3.88 17.28-5.72z"/><path d="m543.28 220.23c.54-6.46 1.44-12.45 5.58-17.52 5.16-6.33 11.69-6.79 17.65-1.17 6.94 6.54 10.07 15.07 12.21 24.05.62 2.58 1 5.21 1.46 7.82 1.28 7.27 1 7.32-5.86 9.1s-13.67 3.94-20.34 6.38c-3.05 1.11-4.85.9-5.52-2.39-1.78-8.74-3.46-17.5-5.18-26.27z"/><path d="m777.56 306.84a31.79 31.79 0 0 1 -1.09 5c-1.12 3.18-3.22 4.35-6.61 2.82-12.56-5.63-25.2-11.06-37.72-16.78-4.14-1.9-5.24-5.63-2.06-8.86 2.56-2.6 6.55-5.17 10-5.28 10.76-.37 20.92 3.06 30.54 7.73 4.38 2.11 6.86 7.79 6.94 15.37z"/><path d="m714.9 376.46c1.66 0 3.33.09 5 0 5.9-.4 9.34 2.5 10.46 8.93.84 4.79-2.7 10.51-7.3 11.63-2.92.71-5.21.39-5.83-3.34a16.53 16.53 0 0 0 -3.15-7.32l-.54 6-1.26.4c-.8-2.42-2.48-4.93-2.24-7.25a104.37 104.37 0 0 1 3.27-17.51c1-3.55 3.79-7.34 7.8-6.34s7.77 3.9 11.27 6.47c.68.5.16 3.65-.73 4.92-.64.9-3 1.17-4.33.87-4.42-1-8.61-1.29-12.51 1z"/><path d="m621.45 514.48c3.08-4.56 7.35-5.84 12.52-4.59l.54 1.42-12.51 4.77z"/></g><path d="m715.14 297.82c-3.57 6.93-7.62 14.79-11.16 21.64-1.61-7.66 3.58-17.87 11.16-21.64z"/></g></svg>