<svg viewBox="0 0 280 383" xmlns="http://www.w3.org/2000/svg"><g transform="translate(-1073 -335)"><path d="m1100 335h253v383h-280v-383h20c-5.56 1.95-10.12 5.13-12.43 10.76-3.49 8.49-4.85 17.28-3 26.39 1.12 5.37 2.67 10.68 3.43 16.1 1.46 10.37 1.85 20.92 3.85 31.17 3.41 17.45 8.77 34.56 11.38 52.1 3.21 21.56 15.25 41 14.51 63.35 5.84 16.88 6.25 34.6 8.24 52.1 2.2 19.32 7.2 38 16.07 55.34 2.06 4 5.62 8.19 9.56 10.19 5 2.53 6.33 5.31 5.78 10.52-1.28 12.08-2.15 24.21-3 36.33a17.79 17.79 0 0 0 4.26 13.52c1.18-8.5 2.24-16.42 3.39-24.32 1.63-11.15 6.29-20.21 17-25.37 2.11-1 3.65-3.28 5.32-5.1 2.67-2.91 5.22-5.92 7.92-9l-1-1.9c3.88-.91 7.25-1.84 10.67-2.47 5.1-1 9.93.12 13.16 4.23 10.75 13.7 25.83 19.34 41.92 23.33 2.79.69 5.51 1.69 8.26 2.54l-.42 1.68-22.76-4.39a9.51 9.51 0 0 0 5 3.18c8.11 1.7 16.29 3.11 24.41 4.8 1.24.26 2.29 1.45 3.43 2.21-1.21.3-2.48 1-3.64.84-8.65-1.17-17.28-2.5-25.92-3.78l-.35 1.48c5.37 1.37 10.67 3.19 16.13 4 14.57 2.24 14.48 2.06 13.08 17.16-.44 4.84-.07 9.75-.07 14.62l2.08.47c1.58-3.86 3.64-7.6 4.66-11.61 2.22-8.7 3.34-17.72 6-26.25 1.47-4.65 4.28-10.12 8.15-12.52 10.82-6.68 16.87-16.61 22.63-27.26 9.27-17.13 18.25-34.49 28.73-50.86 10.85-17 15.18-33.72 9.77-53.9-5.06-18.88-7-38.6-10.25-58-.79-4.68-1.6-9.46-6.2-11.93-6.89-3.7-8.57-9.3-8.07-16.71a21.17 21.17 0 0 0 -2.83-11.2c-4.61-8.08-11.8-13.45-20.6-16.53a52.71 52.71 0 0 0 -28.08-1.87c-4.91 1-8.69-.2-11.63-4.58a10.41 10.41 0 0 0 -5.42-3.76c-16.09-4.68-31.31-2.65-45.33 6.73-2.85 1.91-5.13 2.09-8.18.17-2.57-1.62-5.9-3.16-8.76-2.94a187.2 187.2 0 0 0 -25.52 3.56c-8.14 1.79-13.08 7.5-15.07 15.69a46 46 0 0 1 -2.16 5.41c-.87-1.71-1.23-2.24-1.43-2.83-8.31-24.42-16.68-48.82-24.87-73.28-4.19-12.85-10.99-23.34-24.8-27.61z" fill="#fff"/><path d="m1100 335c13.81 4.27 20.61 14.76 24.92 27.67 8.19 24.46 16.56 48.86 24.87 73.28.2.59.56 1.12 1.43 2.83a46 46 0 0 0 2.16-5.41c2-8.19 6.93-13.9 15.07-15.69a187.2 187.2 0 0 1 25.52-3.56c2.86-.22 6.19 1.32 8.76 2.94 3 1.92 5.33 1.74 8.18-.17 14-9.38 29.24-11.41 45.33-6.73a10.41 10.41 0 0 1 5.42 3.76c2.94 4.38 6.72 5.55 11.63 4.58a52.71 52.71 0 0 1 28.08 1.87c8.8 3.08 16 8.45 20.6 16.53a21.17 21.17 0 0 1 2.83 11.2c-.5 7.41 1.18 13 8.07 16.71 4.6 2.47 5.41 7.25 6.2 11.93 3.26 19.37 5.19 39.09 10.25 58 5.41 20.18 1.08 36.95-9.77 53.9-10.48 16.37-19.46 33.73-28.73 50.86-5.76 10.65-11.81 20.58-22.63 27.26-3.87 2.4-6.68 7.87-8.15 12.52-2.7 8.53-3.82 17.55-6 26.25-1 4-3.08 7.75-4.66 11.61l-2.08-.47c0-4.87-.37-9.78.07-14.62 1.4-15.1 1.49-14.92-13.08-17.16-5.46-.84-10.76-2.66-16.13-4l.35-1.48c8.64 1.28 17.27 2.61 25.92 3.78 1.16.15 2.43-.54 3.64-.84-1.14-.76-2.19-1.95-3.43-2.21-8.12-1.69-16.3-3.1-24.41-4.8a9.51 9.51 0 0 1 -5-3.18l22.76 4.39.42-1.68c-2.75-.85-5.47-1.85-8.26-2.54-16.09-4-31.17-9.63-41.92-23.33-3.23-4.11-8.06-5.18-13.16-4.23-3.42.63-6.79 1.56-10.67 2.47l1 1.9c-2.7 3.08-5.25 6.09-7.92 9-1.67 1.82-3.21 4.09-5.32 5.1-10.75 5.16-15.41 14.22-17 25.37-1.15 7.9-2.21 15.82-3.39 24.32a17.79 17.79 0 0 1 -4.26-13.52c.85-12.12 1.72-24.25 3-36.33.55-5.21-.78-8-5.78-10.52-3.94-2-7.5-6.15-9.56-10.19-8.87-17.36-13.87-36-16.07-55.34-2-17.5-2.4-35.22-8.24-52.1.74-22.36-11.3-41.79-14.51-63.35-2.61-17.54-8-34.65-11.38-52.1-2-10.25-2.39-20.8-3.85-31.17-.76-5.42-2.31-10.73-3.43-16.1-1.9-9.11-.54-17.9 3-26.39 2.31-5.63 6.87-8.81 12.43-10.76zm82.65 203.78c-2.36-3.06-4.59-5.72-6.57-8.56-7.38-10.6-10.56-22.89-14-35.07-2.48-8.75-4.53-9.91-12.71-5.79-8.91 4.5-17.68 9.32-26.24 14.44a9.23 9.23 0 0 0 -4 6.28 78.9 78.9 0 0 0 3.91 31.49 46.5 46.5 0 0 1 2.78 15 224.69 224.69 0 0 0 9.89 66.93c6.15 19.65 26.16 27.44 43.94 17 2.68-1.56 4.74-2.49 7.47.25 1.1 1.09 4.17 1.23 5.72.5 1.07-.5 1.69-3.36 1.43-5-.61-3.93-2.27-7.7-2.72-11.63-.41-3.47.25-7.07.43-10.6l1.67.06c.29 4.09.39 8.2.92 12.26.49 3.82 1.42 7.57 2.17 11.36l1.42-.18c-2.46-10.36-.88-20.25 3.23-29.93a26 26 0 0 1 .69 7.16c.18 16.38 6.57 29 21.92 36.2 3.32 1.55 6.41 3.75 9.87 4.79 9.67 2.89 19.43 7.26 29.24 7.49 16 .38 28.62-7.74 37-21.7 1.88-3.13 3.33-6.52 5.15-9.7 9.81-17.19 19.6-34.4 29.56-51.52 4-6.79 7.64-13.56 7.33-22.1l-7.09 1.47c8-7.73 8-9 6.28-20.21-2.2-14.28-3.68-28.67-5.67-43-.65-4.67-1.93-9.24-3.2-15.17l-10.32 16.77c.85-8.13 8-14.23 5.36-23.2q-2.6 4.32-5.17 8.66a14 14 0 0 1 1-5.4c3-8.89 1.61-11-7.25-13.61-8.58-2.53-17-5.63-25.38-8.77-5.1-1.91-6.72-1.56-9.2 3.3-2.64 5.14-5.26 10.3-7.57 14.82-2-.18-3.79-.86-4.32-.3-4.85 5.07-10.92 3.24-16.56 3-3.85-.17-4.81-2.09-4.35-6.44 1.89 1.08 3.68 2.84 5.64 3.06 3.44.38 7.81 1.07 10.34-.59 6.92-4.53 10.2-12.42 10.66-20.05.4-6.72-7.29-8.84-12.37-11.61-4.22-2.32-9.26-5.31-14-1.42-8.86 7.28-13.83 16.59-12.34 28.46 2.25 17.92 18.83 34.28 37.73 36.94 7.82 1.1 15.75 1.45 23.63 2.14l.17 1.27-12.49 2.14c.48 1.66 1 3.3 1.52 5.2-1.42.19-2.45.6-3.34.4-4.9-1.13-6.34 1.47-7.22 5.74-1.65 8 1 14.71 5.35 21.09 2.08 3 4 6.16 6.63 10.21-8.23-1.3-12.15-6.1-15.74-11.64-1.28 2.83-2.2 4.88-3.42 7.57-3.18-4.45-5.6-2.54-8 .11-1.35 1.47-2.62 3.32-4.33 4.08-2.33 1-5 1.2-7.6 1.74l-1-2.17 7.67-5.65-.77-2c-4-.43-8.05-1-12.09-1.24-4.64-.28-9.36.18-13.94-.45-10.62-1.48-14.95.31-20.22 9.53-2.23 3.9-4.19 7.95-6.26 11.94-1.69 3.25-3.35 6.52-5 9.78l-.64-.29c1.12-5 2.23-10.11 3.6-16.32l-6.33 4.53-.91-1 12.36-15.17c-4.06-.42-6.61-.07-8.59-1-7.15-3.31-12.83-1.12-18.2 3.81-5.74 5.28-11.66 10.36-17.5 15.53l-1.54-1.07c.76-1.23 1.29-2.7 2.32-3.63 4.9-4.43 9.94-8.71 14.93-13.05l-1.1-1.48-21.23 12-.76-1.31zm29.25-26.33c-.1-.43-.23-1.24-.47-2-5-16.51-8-33.14-5.8-50.58.91-7.33-.08-15-.86-22.39-1-9.72-5-13.37-14.75-14.37a36.66 36.66 0 0 0 -7.48 0c-17.84 1.94-26.24 11.57-23.3 27.2 2.28 12.08 5.11 24.06 7.79 36.06 1 4.49 2.57 4.92 6.74 3.12 6.08-2.62 12.33-4.87 18.52-7.24.38-.15.9.07 1.7.15l-3.29 3.75 11.24-1a12 12 0 0 1 -5.14 2.8c-5.09 1.53-10.18 3.07-15.33 4.4a16.06 16.06 0 0 1 -6 .49c-4-.54-6.38 1.34-5.28 5.33 2.06 7.51 3.64 15.44 7.35 22.12 3.44 6.17 9.16 11.19 14.35 16.22a8.2 8.2 0 0 0 10.2 1.2c2.69-1.56 5.1-4 8.66-1.87.42.25 1.86-.59 2.39-1.26 2.91-3.66 2.71-10.43-.29-14.57-3.66-5.07-9.76-6.07-17.68-3.42-5.72 1.92-3.5 6.23-3.55 9.95 0 .11-.18.22-.27.33-5.32-6.49-4.65-10.08 3-12.1 5.53-1.42 11.37-1.55 17.55-2.32zm9.11-29 .1-1.66a21 21 0 0 1 3.87-1.59c6.59-1.31 8.22-3.24 6.74-9.94-1.77-8-.42-15.52 2.38-23 3.81-10.13 11.3-14.94 22.06-14.17 4.5.32 6-1.81 4.3-6-2.49-6-6.36-8.46-12.9-8s-12.93 1.19-19.41 1.71c-12.69 1-17.72 6-18 18.6-.26 13.48-1 27.06.2 40.44s4 26.92 7.12 40.16c2.28 9.83 9.35 15.95 19.23 18.27 5 1.18 8.68-1.06 9.1-5.14a127.49 127.49 0 0 0 1-13.92c0-1.94-1.13-5.45-2.07-5.56-5.48-.66-11.2-1.24-16.52-.21-1.64.32-2.27 5.78-3.38 8.88a2.67 2.67 0 0 1 -.49.64c-3.41-7.37-1.75-11.63 5.66-12.94 4.31-.76 8.86-.38 13.29-.19 2.13.09 4.55 2.37 5.92-1 1.29-3.15 3.4-6.36.23-9.69-2.75-2.89-5.43-5.86-8.12-8.81-4.08-4.46-8.8-6.86-15.12-5.58-1.57.39-3.45-.75-5.2-1.29zm-85.29-49.06c-8.42 3.61-16.18 6.48-23.49 10.22-5.31 2.72-8 7.83-8.46 13.89-.87 11.27 1.89 21.8 6.92 31.74 4.67 9.22 9.17 9.92 18 4.34a196.37 196.37 0 0 1 20.89-11.3c4.17-2 6.3-5 5.11-9.05-3.28-11.1-6.87-22.14-11.06-32.92-1.07-2.67-4.81-4.31-7.91-6.91zm-20.3-46c-5.8 1.86-11.73 3.38-17.35 5.68a10.28 10.28 0 0 0 -6.59 11.29c1.62 11 3.49 22 6.17 32.7 1.72 6.87 4.26 7 10.72 4.22a148.12 148.12 0 0 1 22.41-7.94c8.08-2.05 10.17-3.92 7.57-12-2.78-8.65-6.69-16.94-10-25.44-2.25-5.9-6.82-7.67-12.93-8.47zm-32.2-24.85c1.78 8.93 3.5 17.88 5.39 26.8.67 3.18 2.66 2.92 5.33 2 6.55-2.35 13.16-4.61 19.89-6.31 7.57-1.91 7.69-1.68 6.33-9.65-.45-2.62-.84-5.26-1.47-7.83-2.23-9-5.4-17.53-12.49-24-5.75-5.21-12-4.81-17 1.05-4.41 5.16-5.4 11.31-5.98 17.98zm199.36 62.14-.42 1.24c-4.94-.13-9.2 1.31-12 5.64-2.41 3.71-1.8 6.88 2.11 8.67q19.24 8.84 38.76 17.07c1.31.55 4.33-.6 5.23-1.88 4.15-6 1.24-18.74-5.47-21.48-9.14-3.69-18.79-6.19-28.21-9.22zm-27.23 94.44-.15-1.56c4-2.26 8.22-2 12.68-.94 1.32.31 3.65-.16 4.24-1.09.84-1.32 1.24-4.45.52-5-3.55-2.51-7.32-5.35-11.42-6.26s-6.72 3-7.69 6.54a108 108 0 0 0 -3.21 17.59c-.22 2.25 1.4 4.69 2.18 7l1.19-.3.84-6.15a17.38 17.38 0 0 1 2.94 7.09c.54 3.56 2.51 4.38 5.64 3.69 4.58-1 8.35-6.67 7.63-11.46-1-6.42-4.49-9.57-10.26-9.24-1.71.21-3.42.13-5.13.13zm-80.58 135.28c-6.5-2.89-9.67-1.73-12.68 4.59z"/><g fill="#fff"><path d="m1182.65 538.78-28.33 17.52.76 1.31 21.23-12 1.1 1.48c-5 4.34-10 8.62-14.93 13.05-1 .93-1.56 2.4-2.32 3.63l1.54 1.07c5.84-5.17 11.76-10.25 17.5-15.53 5.37-4.93 11-7.12 18.2-3.81 2 .92 4.53.57 8.59 1l-12.42 15.31.91 1 6.33-4.53c-1.37 6.21-2.48 11.27-3.6 16.32l.64.29c1.67-3.26 3.33-6.53 5-9.78 2.07-4 4-8 6.26-11.94 5.27-9.22 9.6-11 20.22-9.53 4.58.63 9.3.17 13.94.45 4 .24 8.06.81 12.09 1.24l.77 2-7.67 5.65 1 2.17c2.55-.54 5.27-.71 7.6-1.74 1.71-.76 3-2.61 4.33-4.08 2.41-2.65 4.83-4.56 8-.11 1.22-2.69 2.14-4.74 3.42-7.57 3.59 5.54 7.51 10.34 15.74 11.64-2.62-4-4.55-7.19-6.63-10.21-4.4-6.38-7-13.08-5.35-21.09.88-4.27 2.32-6.87 7.22-5.74.89.2 1.92-.21 3.34-.4-.56-1.9-1-3.54-1.52-5.2l12.49-2.14-.17-1.27c-7.88-.69-15.81-1-23.63-2.14-18.9-2.66-35.48-19-37.73-36.94-1.49-11.87 3.48-21.18 12.34-28.46 4.72-3.89 9.76-.9 14 1.42 5.08 2.77 12.77 4.89 12.37 11.61-.46 7.63-3.74 15.52-10.66 20.05-2.53 1.66-6.9 1-10.34.59-2-.22-3.75-2-5.64-3.06-.46 4.35.5 6.27 4.35 6.44 5.64.26 11.71 2.09 16.56-3 .53-.56 2.36.12 4.32.3 2.31-4.52 4.93-9.68 7.57-14.82 2.48-4.86 4.1-5.21 9.2-3.3 8.38 3.14 16.8 6.24 25.38 8.77 8.86 2.62 10.24 4.72 7.25 13.61a14 14 0 0 0 -1 5.4q2.58-4.33 5.17-8.66c2.64 9-4.51 15.07-5.36 23.2l10.32-16.77c1.27 5.93 2.55 10.5 3.2 15.17 2 14.31 3.47 28.7 5.67 43 1.72 11.2 1.67 12.48-6.28 20.21l7.09-1.47c.31 8.54-3.38 15.31-7.33 22.1-10 17.12-19.75 34.33-29.56 51.52-1.82 3.18-3.27 6.57-5.15 9.7-8.36 14-21 22.08-37 21.7-9.81-.23-19.57-4.6-29.24-7.49-3.46-1-6.55-3.24-9.87-4.79-15.35-7.21-21.74-19.82-21.92-36.2a26 26 0 0 0 -.69-7.16c-4.11 9.68-5.69 19.57-3.23 29.93l-1.42.18c-.75-3.79-1.68-7.54-2.17-11.36-.53-4.06-.63-8.17-.92-12.26l-1.67-.06c-.18 3.53-.84 7.13-.43 10.6.45 3.93 2.11 7.7 2.72 11.63.26 1.63-.36 4.49-1.43 5-1.55.73-4.62.59-5.72-.5-2.73-2.74-4.79-1.81-7.47-.25-17.78 10.39-37.79 2.6-43.94-17a224.69 224.69 0 0 1 -9.89-66.93 46.5 46.5 0 0 0 -2.78-15 78.9 78.9 0 0 1 -3.91-31.49 9.23 9.23 0 0 1 4-6.28c8.56-5.12 17.33-9.94 26.24-14.44 8.18-4.12 10.23-3 12.71 5.79 3.45 12.18 6.63 24.47 14 35.07 2.05 2.66 4.28 5.32 6.64 8.38zm72.78-97.31c-7.4 3.29-13 14.28-11.11 21.53z"/><path d="m1211.9 512.45c-6.18.77-12 .9-17.51 2.34-7.69 2-8.36 5.61-3 12.1.09-.11.27-.22.27-.33.05-3.72-2.17-8 3.55-9.95 7.92-2.65 14-1.65 17.68 3.42 3 4.14 3.2 10.91.29 14.57-.53.67-2 1.51-2.39 1.26-3.56-2.08-6 .31-8.66 1.87a8.2 8.2 0 0 1 -10.2-1.2c-5.19-5-10.91-10-14.35-16.22-3.71-6.68-5.29-14.61-7.35-22.12-1.1-4 1.27-5.87 5.28-5.33a16.06 16.06 0 0 0 6-.49c5.15-1.33 10.24-2.87 15.33-4.4a12 12 0 0 0 5.14-2.8l-11.24 1 3.29-3.75c-.8-.08-1.32-.3-1.7-.15-6.19 2.37-12.44 4.62-18.52 7.24-4.17 1.8-5.73 1.37-6.74-3.12-2.68-12-5.51-24-7.79-36.06-2.94-15.63 5.46-25.26 23.3-27.2a36.66 36.66 0 0 1 7.48 0c9.71 1 13.72 4.65 14.75 14.37.78 7.43 1.77 15.06.86 22.39-2.15 17.44.84 34.07 5.8 50.58.2.74.33 1.53.43 1.98z"/><path d="m1221 483.46c1.74.5 3.62 1.68 5.2 1.36 6.32-1.28 11 1.12 15.12 5.58 2.69 3 5.37 5.92 8.12 8.81 3.17 3.33 1.06 6.54-.23 9.69-1.37 3.38-3.79 1.1-5.92 1-4.43-.19-9-.57-13.29.19-7.41 1.31-9.07 5.57-5.66 12.94a2.67 2.67 0 0 0 .49-.64c1.11-3.1 1.74-8.56 3.38-8.88 5.32-1 11-.45 16.52.21.94.11 2.06 3.62 2.07 5.56a127.49 127.49 0 0 1 -1 13.92c-.42 4.08-4.06 6.32-9.1 5.14-9.88-2.32-17-8.44-19.23-18.27-3.07-13.24-5.91-26.66-7.12-40.16s-.46-27-.2-40.44c.24-12.63 5.27-17.57 18-18.6 6.48-.52 12.93-1.25 19.41-1.71s10.41 2 12.9 8c1.74 4.16.2 6.29-4.3 6-10.76-.77-18.25 4-22.06 14.17-2.8 7.45-4.15 15-2.38 23 1.48 6.7-.15 8.63-6.74 9.94a21 21 0 0 0 -3.87 1.59z"/><path d="m1135.72 434.4c3.1 2.62 6.84 4.24 7.87 6.92 4.19 10.78 7.78 21.82 11.06 32.92 1.19 4-.94 7.06-5.11 9.05a196.37 196.37 0 0 0 -20.89 11.3c-8.79 5.58-13.29 4.88-18-4.34-5-9.94-7.79-20.47-6.92-31.74.46-6.06 3.15-11.17 8.46-13.89 7.35-3.74 15.11-6.62 23.53-10.22z"/><path d="m1115.42 388.43c6.11.8 10.68 2.61 13 8.52 3.28 8.5 7.19 16.79 10 25.44 2.6 8.07.51 9.94-7.57 12a148.12 148.12 0 0 0 -22.41 7.94c-6.46 2.79-9 2.65-10.72-4.22-2.68-10.75-4.55-21.72-6.17-32.7a10.28 10.28 0 0 1 6.59-11.29c5.55-2.31 11.48-3.83 17.28-5.69z"/><path d="m1083.22 363.58c.58-6.67 1.57-12.82 6-17.94 5-5.86 11.25-6.26 17-1.05 7.09 6.43 10.26 15 12.49 24 .63 2.57 1 5.21 1.47 7.83 1.36 8 1.24 7.74-6.33 9.65-6.73 1.7-13.34 4-19.89 6.31-2.67 1-4.66 1.22-5.33-2-1.91-8.92-3.63-17.87-5.41-26.8z"/><path d="m1282.58 425.72c9.43 3 19.07 5.53 28.21 9.26 6.71 2.74 9.62 15.52 5.47 21.48-.9 1.28-3.92 2.43-5.23 1.88q-19.53-8.19-38.76-17.07c-3.91-1.79-4.52-5-2.11-8.67 2.8-4.33 7.06-5.77 12-5.64z"/><path d="m1255.35 520.16c1.71 0 3.42.08 5.13 0 5.77-.33 9.29 2.82 10.26 9.24.72 4.79-3 10.46-7.63 11.46-3.13.69-5.1-.13-5.64-3.69a17.38 17.38 0 0 0 -2.94-7.09l-.84 6.15-1.19.3c-.78-2.35-2.4-4.79-2.18-7a108 108 0 0 1 3.21-17.59c1-3.55 3.67-7.44 7.69-6.54s7.87 3.75 11.42 6.26c.72.51.32 3.64-.52 5-.59.93-2.92 1.4-4.24 1.09-4.46-1-8.68-1.32-12.68.94z"/><path d="m1174.77 655.44-12.68 4.56c3.01-6.29 6.18-7.45 12.68-4.56z"/></g><path d="m1255.43 441.47-11.11 21.53c-1.89-7.25 3.68-18.24 11.11-21.53z"/></g></svg>