<svg viewBox="0 0 480 330" xmlns="http://www.w3.org/2000/svg"><g transform="translate(-288.24 -199.76)"><path d="m676.43 529.76h-388.19v-330h480v330h-89.82c-.62-2.67-.89-5.5-1.93-8-2.25-5.35-5-10.47-7.33-15.8-2.89-6.66-3.24-13.15 1.85-19.16 1.71-2 2.53-4.37-1-5.67l5.94-14.4-3.33.25c6.09-9 10.92-11.76 18.28-9.79 11.22 3 22.36 2.59 33.54.11 5-1.11 10-2.32 15-3.48l.26.95-18 6.51.43 1.31 23.71-6.59.4 1-19.93 9.44a136 136 0 0 0 18.4-5.65c7.83-2.82 8.18-2.62 11.86 4.63 2.6 5.12 5.43 10.12 8.15 15.17l1.81-.43c-.58-3.89-.7-7.93-1.85-11.64-2-6.33-4.88-12.37-6.8-18.7-1.51-5-3.48-10-.76-15.46 4.68-9.32 5.61-19.34 4.56-29.62-.86-8.42-2.09-16.83-2.4-25.27-.42-11.44-.11-22.92-.12-34.38a36.08 36.08 0 0 0 -10-25.73c-13.93-15-27.5-30.25-41-45.58-3.54-4-7.37-6.42-12.87-6.18a8.91 8.91 0 0 1 -9.27-6.21 16 16 0 0 0 -13.83-10.74c-6.17-.7-12.54-.12-18.78.41-10 .86-18 4.69-21 15.87-5.28-4.87-10.82-6.2-17.29-4-12.09 4.14-21.23 11.54-26.55 23.26-1.57 3.44-2.42 6.83-7.75 4.9-1.85-.67-5 .73-6.93 2.12-5.19 3.79-10.13 7.94-15 12.18-6.47 5.67-9.28 12.43-5.35 20.86.24.51 0 1.24 0 2.94-2.5-1.65-4.45-2.75-6.18-4.11-10.2-8-20.41-15.95-30.47-24.1a115.23 115.23 0 0 1 -11.33-10.43c-6.93-7.35-14.94-12.77-25.06-14.25-13-1.9-23.15 9.21-19.21 21.63 1.89 6 5.54 11.55 9.13 16.81 2.87 4.21 6.85 7.67 10.35 11.45q18.46 19.89 36.94 39.76c4.06 4.35 8.2 8.63 12.36 12.9 3.57 3.68 7.07 7.45 10.86 10.9 6.87 6.26 14.15 12.08 20.8 18.56 3.52 3.43 5.41 8.7 9.19 11.67 10.93 8.58 18.6 19.81 26.87 30.61 10.71 14 22.87 26.44 38.63 34.71a21.93 21.93 0 0 0 11.32 2.07c3.22-.24 5.1.37 6.51 3 2.51 4.68 4.84 9.46 7.48 14.07 4.39 7.69 6.31 16.93 14 22.59.65.43.51 1.81.7 2.73zm-381.78-64.37c-1.72 9.26-3.21 18.05-5 26.76-.72 3.41-.13 5 3.49 6.07a138.63 138.63 0 0 0 53.26 4.66c34.26-3.45 57.88-22.71 67.83-55.65 4.75-15.74 6-31.88 6-48.22q-.07-96.15 0-192.32v-5.45h-38.44v6.34c0 62.61.14 125.22-.13 187.83a207.62 207.62 0 0 1 -3 34.14c-2.61 15.18-8.76 29-23.86 35.78-6.94 3.1-14.91 4.51-22.56 5.34-12.62 1.33-25.04-1.12-37.59-5.28zm254.73 14.94 1.45 1.86a35 35 0 0 0 -4.37 2.44c-13.87 10.61-29.17 13.62-45.5 7.28-22.87-8.9-35.71-26.77-42.17-49.73-7.61-27-6-54.23-1.66-81.48.45-2.81.85-5-2.78-5.47-3.14-.43-4 1.38-4.37 4-3.3 21.57-4.93 43.17-2.15 65 3.13 24.5 11.54 46.25 30.81 62.83 16.26 14 34.74 18.85 55.19 12.22 8.29-2.69 15.69-8.13 23.77-12.46l3.08 5.25c3.15-10.19 5.91-19.15 9.08-29.43l-26.57 16.36z" fill="#fff"/><path d="m676.43 529.76c-.19-.92 0-2.3-.62-2.71-7.72-5.66-9.64-14.9-14-22.59-2.64-4.61-5-9.39-7.48-14.07-1.41-2.64-3.29-3.25-6.51-3a21.93 21.93 0 0 1 -11.32-2.07c-15.76-8.27-27.92-20.74-38.63-34.71-8.27-10.8-15.94-22-26.87-30.61-3.78-3-5.67-8.24-9.19-11.67-6.65-6.48-13.93-12.3-20.8-18.56-3.79-3.45-7.29-7.22-10.86-10.9-4.16-4.27-8.3-8.55-12.36-12.9q-18.51-19.84-36.94-39.76c-3.5-3.78-7.48-7.24-10.35-11.45-3.59-5.26-7.24-10.83-9.13-16.81-3.94-12.42 6.2-23.53 19.21-21.63 10.12 1.48 18.13 6.9 25.06 14.25a115.23 115.23 0 0 0 11.3 10.43c10.06 8.15 20.27 16.11 30.47 24.1 1.73 1.36 3.68 2.46 6.18 4.11 0-1.7.21-2.43 0-2.94-3.93-8.43-1.12-15.19 5.35-20.86 4.84-4.24 9.78-8.39 15-12.18 1.9-1.39 5.08-2.79 6.93-2.12 5.33 1.93 6.18-1.46 7.75-4.9 5.32-11.72 14.46-19.12 26.55-23.26 6.47-2.21 12-.88 17.29 4 2.94-11.18 11-15 21-15.87 6.24-.53 12.61-1.11 18.78-.41a16 16 0 0 1 13.76 10.72 8.91 8.91 0 0 0 9.27 6.21c5.5-.24 9.33 2.17 12.87 6.18 13.52 15.33 27.09 30.62 41 45.58a36.08 36.08 0 0 1 10 25.73c0 11.46-.3 22.94.12 34.38.31 8.44 1.54 16.85 2.4 25.27 1.05 10.28.12 20.3-4.56 29.62-2.72 5.44-.75 10.49.76 15.46 1.92 6.33 4.84 12.37 6.8 18.7 1.15 3.71 1.27 7.75 1.85 11.64l-1.81.43c-2.72-5-5.55-10-8.15-15.17-3.68-7.25-4-7.45-11.86-4.63a136 136 0 0 1 -18.4 5.65l19.95-9.44-.4-1-23.69 6.57-.43-1.31 18-6.51-.26-.95c-5 1.16-10 2.37-15 3.48-11.18 2.48-22.32 2.91-33.54-.11-7.36-2-12.19.79-18.28 9.79l3.33-.25-5.97 14.42c3.54 1.3 2.72 3.64 1 5.67-5.09 6-4.74 12.5-1.85 19.16 2.31 5.33 5.08 10.45 7.33 15.8 1 2.5 1.31 5.33 1.93 8zm-48.1-246.49c-1.14 1.6-2.7 3-3.36 4.81-3.51 9.45-.61 21.4 7.35 27.68 12.35 9.75 26.19 12.59 41.14 6.64 6.39-2.54 12.53-5.69 18.78-8.55l.56.64-8.12 7.41c3.94 3.56 3.69 4.08-3.08 6.46 2 14.38 13.35 19.4 25.95 24.2l-7 .68a21 21 0 0 1 -5 .35c-1.53-.23-2.94-1.2-5-2.13.37 3.23.66 5.78 1.09 9.49l-3.84-5.11c-3.2 6.12-2 14.38-10.43 17.59.68-2.47 1.26-4.18 1.61-5.94.31-1.52.35-3.1.51-4.65-1.7.08-3.51-.15-5.09.33s-3.17 1.74-4.78 2.58c-4.1 2.12-8.06 4.63-12.37 6.18s-7.33 3.87-7.82 8.12a92.78 92.78 0 0 0 -.32 16.75c.31 4.56 1.6 9.06 2.46 13.59l-.95.24q-2.9-7.67-5.78-15.31l-1 .23-2.4 12.25-1.27-.22c.82-7.75 1.64-15.5 2.48-23.32-3.26 1.55-5.79 3.3-8.57 4-4.8 1.15-7.25 4-8.63 8.55-2.1 6.94-4.66 13.73-7 20.59l-1.18-.33 5.34-20.8-1.1-.49-10.32 18.81-1-.51 11.81-24.28c-7.12-4.13-14.4-7.75-21-12.37-5.82-4.08-10.87-9.25-16.2-14-1.85-1.65-3.67-2.67-5.34-.06-4.24 6.66-8.35 13.4-12.54 20.1-.92 1.47-1.64 3.22-2.93 4.27-2.91 2.38-3.26 5.13-1.21 7.86 4.78 6.37 9 13.53 15 18.48 6.63 5.46 11.17 12.1 15.83 18.9.94 1.37 1.87 2.75 2.84 4.1 9.81 13.69 20.26 26.81 34.1 36.75 9.39 6.74 16.36 7.08 25.61.31 5.08-3.72 9.14-8.85 13.85-13.53 3.6 2.06 3.6 2.06 8-3.75l-2.29-3.23 4.74 1.9 1.09-1c-8-5.81-12.68-13.39-13.78-23a62.54 62.54 0 0 1 6.19 7.07c7.67 9.93 17.67 14.24 30.16 12.48 6.75-.95 13.5-1.87 20.22-3a36.23 36.23 0 0 0 30-35.26c0-5.46-.85-10.92-1-16.39-.46-15.44-.72-30.89-1.17-46.33-.18-6.26-1.07-12.39-5.64-19.42-1.36 2.68-2.26 4.44-3.16 6.2 2.06-9.81 1.53-10.48-5.23-18-8-8.9-15.32-18.32-23-27.47-2.89-3.44-5.92-6.74-8.89-10.11l-1.58.63v16.33c-1.72-7 .17-14.55-6.33-21.42.36 5 .63 8.67.9 12.35a64 64 0 0 1 -3.5-11.27c-.91-3.63-2.93-4.41-6.66-3.46-9.16 2.32-18.42 4.25-27.69 6-3.06.59-3.79 1.9-3.41 4.76.88 6.56 1.54 13.16 2.39 20.74l-3.27-4.63c-6 9.83-14.6 13.95-17.57 8.68 15.65-4.4 15.66-4.41 13.86-17.7-1.29-9.48-2.16-10.29-11.78-10.91-8.56-.55-10.35.86-10.12 9.65.14 5.19 1.4 10.35 2.23 16-6.44-7.05-3.63-15.54-5.39-23.78zm2.77 73.11c.13.23-.08-.39-.48-.84a22 22 0 0 0 -3.08-3.24c-9.94-7.67-16.83-17.76-22.93-28.51-3.11-5.48-6-11.13-9.56-16.3-5.64-8.13-12.6-9.48-21.17-4.76-11.72 6.45-16.66 15.4-13.4 24.24a2.64 2.64 0 0 0 .17.47c7.57 13.16 19.87 21.89 29.24 32.64 7.79-6.95 14.79-13.18 21.8-19.42l1.52 1.56c-5.06 5-9.62 10.73-15.34 14.82-4.25 3-5.58 4.43-2.1 8.48 7.47 8.7 17 14.09 27.78 17.67 6.39 2.13 11.65 1.69 16.33-4.2 5.36-6.76 3.5-15-4.72-17.56-4.7-1.45-11.06 1.29-14.36 5.81-3 4.16 1.14 5.79 2.56 8.42.1.17-.19.55-.3.83-7.06-2.39-8.17-5-3.4-10.48 3.15-3.6 7.34-6.26 11.44-9.63zm.73-80c-5-6.46-9.17-7.87-15.26-4.16a115.52 115.52 0 0 0 -17.15 12.66c-5.9 5.32-6.4 10.95-2.56 18 4.14 7.58 8.33 15.14 12.8 22.52 8.81 14.54 20.67 26.37 33.93 36.82 6.29 5 15.7 5 21.46.71 2.58-1.91 3.24-3.78 1.37-6.7a49.7 49.7 0 0 1 -5.25-10.13c-1.55-4.46-3.65-5-7.82-3.12-10.75 5-11.23 5.83-6.43 16.18-7.49-3.92-8.09-8.77-1.54-13.72 2.78-2.1 6-3.64 8.65-5.86 1.46-1.24 3.23-3.59 2.94-5-.38-1.87-2.41-4-4.25-4.83-3.12-1.44-6.72-1.79-10-2.94-4.35-1.52-8-1-11.46 2.23-1.5 1.4-3.93 1.81-5.93 2.67l-1.08-1.6c1.17-1.45 2-3.37 3.54-4.28 4.3-2.6 3.88-5 .6-8.16a33 33 0 0 1 -10.49-20.39c-1-8 2-13.88 9-17.86 1.66-.95 3.26-1.98 4.93-3zm-105.34 83.92c.5 1.43.66 3.92 2 5.35 6.29 6.78 12.37 13.92 19.54 19.67 6.74 5.41 11.37 3.07 15.13-4.76a167.09 167.09 0 0 1 11-18.73c1.49-2.29 2.3-4 .08-6-6.87-6.21-13.33-13-20.77-18.41-8.86-6.44-10.23-5.87-17.2 2.39-4.83 5.74-8.97 11.93-9.78 20.49zm-32-34.4a1.66 1.66 0 0 0 .08.84c4.16 12.9 13.12 21.9 24.08 29.17.65.44 2.84-.43 3.57-1.3 5.51-6.58 10.76-13.38 16.25-20 3.7-4.46 4.11-6.6-.42-10.49a147.86 147.86 0 0 0 -17.15-12.52c-9.95-6.31-10.09-6.16-19.36 1.19-4.01 3.21-7.22 6.89-7.01 13.11zm-5.59-2c5.59-5.92 11-11.2 15.75-17 1.21-1.48 1.35-5.44.22-7-5.58-7.51-12.4-13.77-21.4-17.16-4.35-1.63-8.82-2.6-12.69.78s-4.59 8.29-3.39 13.24c3.09 12.7 12.5 20.16 21.55 27.17zm156.19-46.72c10.36-1 20.73-2.06 31.09-3.19a28.65 28.65 0 0 0 4.26-1.33c3.1-.85 3.52-2.9 2.11-5.32a24.79 24.79 0 0 0 -4.42-5.92c-3.45-3.18-7.46-6.32-12.42-4.87-9.18 2.68-20 2.24-26.24 11.23-3.61 5.22-.64 10 5.66 9.43zm22.17 65.35c.45-5 3.68-6.68 7.62-7.85a4.35 4.35 0 0 0 2.65-2.88c.11-1.15-1.26-3.51-1.86-3.47a93.82 93.82 0 0 0 -13 1.78c-.71.14-1.76 2.38-1.45 3.22 2.56 6.91 4.8 14.05 8.35 20.45 2.45 4.41 10.48 4 13.34.31 2.73-3.55 2-9.7-1.48-13.15s-7.62-3.55-11.87 0c-.69.63-1.5 1.06-2.26 1.62zm3.48 133.54-1-.91c-7.64 3.47-8.9 5.21-6.91 10.9 2.89-3.58 5.42-6.77 7.95-9.96z"/><path d="m294.65 465.39c12.55 4.16 25 6.65 37.63 5.28 7.65-.83 15.62-2.24 22.56-5.34 15.1-6.74 21.25-20.6 23.86-35.78a207.62 207.62 0 0 0 3-34.14c.27-62.61.13-125.22.13-187.83v-6.34h38.38v5.45q0 96.17 0 192.32c0 16.34-1.26 32.48-6 48.22-9.95 32.94-33.57 52.2-67.83 55.65a138.63 138.63 0 0 1 -53.26-4.66c-3.62-1.06-4.21-2.66-3.49-6.07 1.81-8.71 3.3-17.5 5.02-26.76z"/><path d="m549.38 480.33-6.19-1.33 26.57-16.38c-3.17 10.28-5.93 19.24-9.08 29.43l-3.08-5.25c-8.08 4.33-15.48 9.77-23.77 12.46-20.45 6.63-38.93 1.76-55.19-12.22-19.27-16.58-27.68-38.33-30.81-62.83-2.78-21.81-1.15-43.41 2.15-65 .41-2.66 1.23-4.47 4.37-4 3.63.5 3.23 2.66 2.78 5.47-4.37 27.25-5.95 54.49 1.66 81.48 6.46 23 19.3 40.83 42.17 49.73 16.33 6.34 31.63 3.33 45.5-7.28a35 35 0 0 1 4.37-2.44z"/><g fill="#fff"><path d="m628.33 283.27c1.76 8.24-1.05 16.71 5.37 23.84-.83-5.68-2.09-10.84-2.23-16-.23-8.79 1.56-10.2 10.12-9.65 9.62.62 10.49 1.43 11.78 10.91 1.8 13.29 1.79 13.3-13.86 17.7 3 5.27 11.53 1.15 17.57-8.68l3.27 4.63c-.85-7.58-1.51-14.18-2.39-20.74-.38-2.86.35-4.17 3.41-4.76 9.27-1.79 18.53-3.72 27.69-6 3.73-.95 5.75-.17 6.66 3.46a64 64 0 0 0 3.5 11.27c-.27-3.68-.54-7.37-.9-12.35 6.5 6.87 4.61 14.44 6.33 21.42v-16.4l1.58-.63c3 3.37 6 6.67 8.89 10.11 7.67 9.15 15 18.57 23 27.47 6.76 7.56 7.29 8.23 5.23 18 .9-1.76 1.8-3.52 3.16-6.2 4.57 7 5.46 13.16 5.64 19.42.45 15.44.71 30.89 1.17 46.33.17 5.47 1 10.93 1 16.39a36.23 36.23 0 0 1 -30 35.26c-6.72 1.11-13.47 2-20.22 3-12.49 1.76-22.49-2.55-30.16-12.48a62.54 62.54 0 0 0 -6.19-7.07c1.1 9.59 5.81 17.17 13.78 23l-1.09 1-4.74-1.9 2.29 3.23c-4.39 5.81-4.39 5.81-8 3.75-4.71 4.68-8.77 9.81-13.85 13.53-9.25 6.77-16.22 6.43-25.61-.31-13.84-9.94-24.29-23.06-34.1-36.75-1-1.35-1.9-2.73-2.84-4.1-4.66-6.8-9.2-13.44-15.83-18.9-6-4.95-10.24-12.11-15-18.48-2.05-2.73-1.7-5.48 1.21-7.86 1.29-1 2-2.8 2.93-4.27 4.19-6.7 8.3-13.44 12.54-20.1 1.67-2.61 3.49-1.59 5.34.06 5.33 4.75 10.38 9.92 16.2 14 6.58 4.62 13.86 8.24 21 12.37l-11.81 24.28 1 .51 10.32-18.81 1.1.49-5.35 20.74 1.18.33c2.37-6.86 4.93-13.65 7-20.59 1.38-4.59 3.83-7.4 8.63-8.55 2.78-.67 5.31-2.42 8.57-4-.84 7.82-1.66 15.57-2.48 23.32l1.27.22 2.4-12.25 1-.23q2.9 7.65 5.78 15.31l.95-.24c-.86-4.53-2.15-9-2.46-13.59a92.78 92.78 0 0 1 .32-16.75c.49-4.25 3.65-6.61 7.82-8.12s8.27-4.06 12.37-6.18c1.61-.84 3.08-2.07 4.78-2.58s3.39-.25 5.09-.33c-.16 1.55-.2 3.13-.51 4.65-.35 1.76-.93 3.47-1.61 5.94 8.38-3.21 7.23-11.47 10.43-17.59l3.83 5.23c-.43-3.71-.72-6.26-1.09-9.49 2.11.93 3.52 1.9 5 2.13a21 21 0 0 0 5-.35l7-.68c-12.6-4.8-24-9.82-25.95-24.2 6.77-2.38 7-2.9 3.08-6.46l8.12-7.41-.56-.64c-6.25 2.86-12.39 6-18.78 8.55-15 6-28.79 3.11-41.14-6.64-8-6.28-10.86-18.23-7.35-27.68.7-1.82 2.26-3.26 3.4-4.86zm36.84 156.83-1.17.9 8.77 11.67 1.35-1z"/><path d="m631.1 356.38c-4.07 3.37-8.29 6-11.44 9.63-4.77 5.44-3.66 8.09 3.4 10.49.11-.29.4-.67.3-.84-1.42-2.63-5.59-4.26-2.56-8.42 3.3-4.52 9.66-7.26 14.36-5.81 8.22 2.54 10.08 10.8 4.72 17.56-4.68 5.89-9.94 6.33-16.33 4.2-10.74-3.58-20.31-9-27.78-17.67-3.48-4-2.15-5.45 2.1-8.48 5.72-4.09 10.28-9.8 15.34-14.82l-1.52-1.56c-7 6.24-14 12.47-21.8 19.42-9.37-10.75-21.67-19.48-29.24-32.64a2.64 2.64 0 0 1 -.17-.47c-3.26-8.84 1.68-17.79 13.4-24.24 8.57-4.72 15.53-3.37 21.17 4.76 3.58 5.17 6.45 10.82 9.56 16.3 6.1 10.75 13 20.84 22.93 28.51a22 22 0 0 1 3.08 3.24c.38.46.61 1.07.48.84z"/><path d="m631.83 276.42c-1.67 1-3.27 2.05-4.92 3-7 4-10 9.86-9 17.86a33 33 0 0 0 10.49 20.39c3.28 3.13 3.7 5.56-.6 8.16-1.49.91-2.37 2.83-3.54 4.28l1.08 1.6c2-.86 4.43-1.27 5.93-2.67 3.5-3.23 7.11-3.75 11.46-2.23 3.28 1.15 6.88 1.5 10 2.94 1.84.86 3.87 3 4.25 4.83.29 1.45-1.48 3.8-2.94 5-2.65 2.22-5.87 3.76-8.65 5.86-6.55 4.95-6 9.8 1.54 13.72-4.8-10.35-4.32-11.21 6.43-16.18 4.17-1.92 6.27-1.34 7.82 3.12a49.7 49.7 0 0 0 5.25 10.13c1.87 2.92 1.21 4.79-1.37 6.7-5.76 4.27-15.17 4.26-21.46-.71-13.26-10.45-25.12-22.28-33.93-36.82-4.47-7.38-8.66-14.94-12.8-22.52-3.84-7-3.34-12.67 2.56-18a115.52 115.52 0 0 1 17.15-12.66c6.08-3.67 10.29-2.22 15.25 4.2z"/><path d="m526.49 360.3c.81-8.56 5-14.75 9.8-20.5 7-8.26 8.34-8.83 17.2-2.39 7.44 5.42 13.9 12.2 20.77 18.41 2.22 2 1.41 3.72-.08 6a167.09 167.09 0 0 0 -11 18.73c-3.76 7.83-8.39 10.17-15.13 4.76-7.17-5.75-13.25-12.89-19.54-19.67-1.36-1.42-1.51-3.91-2.02-5.34z"/><path d="m494.53 325.9c-.21-6.22 3-9.93 7-13.11 9.27-7.35 9.41-7.5 19.36-1.19a147.86 147.86 0 0 1 17.19 12.54c4.53 3.89 4.12 6 .42 10.49-5.49 6.6-10.74 13.4-16.25 20-.73.87-2.92 1.74-3.57 1.3-11-7.27-19.92-16.27-24.08-29.17a1.66 1.66 0 0 1 -.07-.86z"/><path d="m488.94 323.93c-9.05-7-18.46-14.47-21.51-27.12-1.2-4.95-.63-9.72 3.39-13.24s8.34-2.41 12.69-.78c9 3.39 15.82 9.65 21.4 17.16 1.13 1.52 1 5.48-.22 7-4.75 5.78-10.16 11.05-15.75 16.98z"/><path d="m645.13 277.21c-6.3.57-9.27-4.18-5.62-9.4 6.28-9 17.06-8.55 26.24-11.23 5-1.45 9 1.69 12.42 4.87a24.79 24.79 0 0 1 4.42 5.92c1.41 2.42 1 4.47-2.11 5.32a28.65 28.65 0 0 1 -4.26 1.33c-10.36 1.13-20.73 2.14-31.09 3.19z"/><path d="m667.3 342.56c.76-.52 1.57-1 2.27-1.58 4.25-3.56 8.25-3.58 11.87 0s4.21 9.6 1.48 13.15c-2.86 3.73-10.89 4.1-13.34-.31-3.55-6.4-5.79-13.54-8.35-20.45-.31-.84.74-3.08 1.45-3.22a93.82 93.82 0 0 1 13-1.78c.6 0 2 2.32 1.86 3.47a4.35 4.35 0 0 1 -2.65 2.88c-3.89 1.16-7.14 2.85-7.59 7.84z"/><path d="m670.78 476.1c-2.53 3.19-5.06 6.38-7.91 10-2-5.69-.73-7.43 6.91-10.9z"/></g><path d="m665.17 440.1 9 11.52-1.35 1-8.82-11.62z"/></g></svg>