<svg viewBox="0 0 480 388" xmlns="http://www.w3.org/2000/svg"><g transform="translate(-203 -143)"><path d="m549 531h-346q0-191.74 0-383.5a21.92 21.92 0 0 1 1-4.5c0 1.33-.1 2.66-.1 4q0 165.24 0 330.48c0 1.58.13 3.16.2 4.74h43.34c.1-1.87.26-3.5.27-5.12 0-39.84-.05-79.67.12-119.5a13 13 0 0 1 2.76-7.53c6.94-8.52 14.23-16.74 21.43-25 2.43-2.81 5-5.52 7.8-8.64 4.35 6.47 8.24 12.25 12.12 18q48.36 72.21 96.69 144.46a7.2 7.2 0 0 0 6.91 3.65c14.16-.21 28.33-.07 42.49-.09 1.39 0 2.78-.22 4.71-.38l-131.74-194.65 14.16-16.63q52.6-61.79 105.19-123.58c.92-1.09 1.12-2.79 1.65-4.21h251v34c-2.9-9.38-10.22-12.56-19.06-14.33-6.22-1.24-11.28.36-14.41 5.32-4.58 7.23-9.8 14.64-11.93 22.72-5 19.08-8.49 38.59-12.41 58-.76 3.73-.39 7.69-1.18 11.41-1.41 6.67-3.3 13.24-5 19.84-3.2-4.55-4.68-9.16-7.07-13.23a11.29 11.29 0 0 0 -6.29-4.77c-6.24-1.62-8.18-3-9.22-9.39-1-6.07-1.64-12.19-2.46-18.29-3-22.26-5.82-44.54-9.06-66.76-1.3-8.91-5.25-16.68-13.94-20.61-2.78-1.26-6.65-1.93-9.41-1-7.12 2.35-12 7.55-14.55 14.75-3.22 9-3.41 18.16-2.69 27.58.68 8.91.45 17.88.68 26.82.15 5.81-.17 11.7.74 17.39 2.77 17.43 1 34.77.07 52.69a22.59 22.59 0 0 1 -3.08-1.4c-5.41-3.7-10.81-3.45-16.46-.42-14.52 7.77-21.13 20.19-21.37 36.26-.07 4.44-1.67 7.31-5.34 9.89-12 8.44-20.47 19.54-23.58 34.1-3.86 18.1 1 34.15 11.58 49a40.85 40.85 0 0 1 6.27 13.35c5.71 22.77 14.13 44.39 26.22 64.52 5.6 9.31 12.57 17.19 23.29 20.86 3.49 1.19 4.57 3.94 4.69 7.44.15 4.06.63 8.16.97 12.26z" fill="#fff"/><path d="m432 143c-.53 1.42-.73 3.12-1.65 4.21q-52.56 61.85-105.23 123.58l-14.12 16.63 131.74 194.64c-1.93.16-3.32.38-4.71.38-14.16 0-28.33-.12-42.49.09a7.2 7.2 0 0 1 -6.91-3.65q-48.27-72.27-96.69-144.46c-3.88-5.79-7.77-11.57-12.12-18-2.82 3.12-5.37 5.83-7.8 8.64-7.2 8.3-14.49 16.52-21.43 25a13 13 0 0 0 -2.76 7.53c-.17 39.83-.11 79.66-.12 119.5 0 1.62-.17 3.25-.27 5.12h-43.34c-.07-1.58-.2-3.16-.2-4.74q0-165.24 0-330.48c0-1.33.06-2.66.1-4h43a42.94 42.94 0 0 1 .66 5.38q.06 76.73.05 153.43v4.56l1.38.36c2.38-3.31 4.63-6.72 7.17-9.9q60.38-75.4 120.92-150.67c1.2-1.5 3.92-2.46 5.95-2.49 14.15-.21 28.32-.09 42.48-.14 1.8 0 3.59-.35 5.39-.53z"/><path d="m683 196v335h-132c1.63-2.62 2.65-6.17 5-7.71 14.77-9.74 22.54-25.14 32.14-39 1.19-1.72 1-4.4 1.46-6.63l-1.59-.54c-2.71 4.53-5.52 9-8.12 13.6-10.64 18.8-28.78 21.73-44.37 6.85a98 98 0 0 1 -23.93-36.46c-8.4-22.07-16.32-44.33-24.92-66.32-8.85-22.65-4.36-41.4 14.32-56.77 11.55-9.49 21.47-8.49 30.1 3.8 10.32 14.72 20.15 29.78 30.1 44.77 1.31 2 2 4.37 3.46 7.61l-3.16-1.74c-4.92-2.72-10-5.3-15.38-1.58-3.77 2.6-4.14 9.62-1.26 16.32a51.15 51.15 0 0 0 3.17 5.5c-2.69-6.93-2.88-12.93 3.31-18.24 3.13-2.69 5.52-3.14 8.48.1 1.15 1.26 3.14 1.74 4.75 2.58 4.86 5 4.9 10.55.87 16.55-3.35 5-8.25 7.18-14.8 5.27a33.74 33.74 0 0 1 -11.63-6.17 146.35 146.35 0 0 1 -14.63-14.31c-9.37-10.22-21.37-18.3-26.72-31.88a10.84 10.84 0 0 0 -1.93-2.38l-4.32 9.42c2.89 2.28 5.7 4.18 8.13 6.48 4.94 4.67 9.66 9.57 14.48 14.36 2.35 2.34 4.82 4.56 7.07 7 5.51 5.95 10.54 12.41 16.47 17.91 8.51 7.88 16.86 8.12 26.83 1.87 1.31-.83 2.65-1.62 4.15-2.54.94 2.59 1.63 4.5 2.33 6.41a4.57 4.57 0 0 0 .91-3.18c.05-.95.26-1.89.52-3.68 3.36 11.89 6.42 22.75 9.49 33.61l1.73-.42a7.47 7.47 0 0 0 -.24-2.58c-7.44-14.65-5-30.64-6.27-46.12-.24-2.9 1.3-4.13 3.93-5.43a86.51 86.51 0 0 0 13.21-8.45c1.44-1.07 2-3.33 3-5l1.9 1.6v8.84c1.81-4.45 3.07-7.55 4.47-11 1.89 2 3.41 3.66 5.73 6.16-1.26-5.94-.44-11.52-5.68-14.34-3.1-1.67-4.27-3.71-4.06-7.15.17-2.8-.41-5.64-.54-8.47-.36-7.74-.56-15.5-1.09-23.24a5.08 5.08 0 0 0 -2.4-3.43 25.28 25.28 0 0 1 -12.69-15.31c-3.26-10.45-3.4-20.94-1.64-31.62 1.35-8.15 6.17-13.81 12.75-18.26 3.1-2.1 5.62-1.54 7.45 1.8.54 1 1.15 2 1.71 2.91l5.24-1.73c2.33 7.33 4.59 14.1 6.54 21 .34 1.22-.66 2.83-1 4.26-1.47-.74-3.49-1.12-4.29-2.31-1.34-2-1.89-4.58-2.83-6.88-1-2.56-2.15-5.08-3.22-7.62-.62 2.72 0 5 .31 7.23 1.08 7.24 4.68 11.82 11.94 14.43 3.89 1.4 7 5.33 10.07 8.5 2 2.12 3.22 5.05 5.08 7.39 6 7.57 5.86 9.5-1.72 15.75-.29.23-.31.77-.55 1.44a5.11 5.11 0 0 0 1.61-.21c8.53-5.18 9.48-4.87 12.83 4.49a59.91 59.91 0 0 0 14.11 22.73c3.24 3.22 5.11 6.45 3.39 9.18 1.95 3 4 4.85 4.34 7a44.28 44.28 0 0 1 0 11.95 170.22 170.22 0 0 0 .43 45.32c2.21 15.72-2.38 29.37-12.73 41.08-13 14.77-34.95 12.31-44.67-4.8-.61-1.06-1.31-2.07-2-3.19-4.93 4.62-4.93 4.79-1.42 9.62 6.09 8.37 14.51 12.45 24.7 13.15 4.11.28 8.23.48 12.35.71 0 .55.05 1.1.08 1.64l-21.83 1.7v1h24.72l.34 1.39-6.14 2.82c7 1.2 7.3 1.59 7.27 8.34 0 2.5-.06 5 0 7.49.14 4.07 2.07 7.06 6.38 9.07.69-8.84.58-17.6.73-26.35.12-7.7 2.25-14.17 8.31-19.95 9.95-9.47 13.59-21.67 11.81-35.56-1.41-11.05-2.12-22.19-3-33.3-1.41-17.58-2.94-35.15-4-52.75-.65-11.12-1.56-22.38-.48-33.4 2.93-30 6.62-59.9 10.49-89.78 1.65-12.49 4.48-24.82 6.76-37.22z" fill="#fff"/><path d="m683 196c-2.28 12.4-5.11 24.73-6.73 37.22-3.87 29.88-7.56 59.78-10.49 89.78-1.08 11-.17 22.28.48 33.4 1 17.6 2.57 35.17 4 52.75.89 11.11 1.6 22.25 3 33.3 1.78 13.89-1.86 26.09-11.81 35.56-6.06 5.78-8.19 12.25-8.31 19.95-.15 8.75 0 17.51-.73 26.35-4.31-2-6.24-5-6.38-9.07-.09-2.5 0-5 0-7.49 0-6.75-.29-7.14-7.27-8.34l6.14-2.82-.34-1.39h-24.76v-1l21.83-1.7c0-.54 0-1.09-.08-1.64-4.12-.23-8.24-.43-12.35-.71-10.19-.7-18.61-4.78-24.7-13.15-3.54-4.86-3.48-5.07 1.32-9.79.72 1.12 1.42 2.13 2 3.19 9.72 17.11 31.62 19.57 44.67 4.8 10.35-11.71 14.94-25.36 12.73-41.08a170.22 170.22 0 0 1 -.43-45.32 44.28 44.28 0 0 0 0-11.95c-.31-2.12-2.39-4-4.34-7 1.72-2.73-.15-6-3.39-9.18a59.91 59.91 0 0 1 -14.06-22.67c-3.35-9.36-4.3-9.67-12.83-4.49a5.11 5.11 0 0 1 -1.61.21c.24-.67.26-1.21.55-1.44 7.58-6.25 7.75-8.18 1.72-15.75-1.86-2.34-3-5.27-5.08-7.39-3.06-3.17-6.18-7.1-10.07-8.5-7.26-2.61-10.86-7.19-11.94-14.43-.35-2.27-.93-4.51-.31-7.23 1.07 2.54 2.18 5.06 3.22 7.62.94 2.3 1.49 4.86 2.83 6.88.8 1.19 2.82 1.57 4.29 2.31.38-1.43 1.38-3 1-4.26-1.95-6.86-4.21-13.63-6.54-21l-5.23 1.77c-.56-.95-1.17-1.91-1.71-2.91-1.83-3.34-4.35-3.9-7.45-1.8-6.58 4.45-11.4 10.11-12.75 18.26-1.76 10.68-1.62 21.17 1.64 31.62a25.28 25.28 0 0 0 12.69 15.31 5.08 5.08 0 0 1 2.4 3.43c.53 7.74.73 15.5 1.09 23.24.13 2.83.71 5.67.54 8.47-.21 3.44 1 5.48 4.06 7.15 5.24 2.82 4.42 8.4 5.68 14.34-2.32-2.5-3.84-4.14-5.73-6.16-1.4 3.47-2.66 6.57-4.47 11v-8.84l-1.9-1.6c-1 1.71-1.51 4-3 5a86.51 86.51 0 0 1 -13.21 8.45c-2.63 1.3-4.17 2.53-3.93 5.43 1.27 15.48-1.17 31.47 6.27 46.12a7.47 7.47 0 0 1 .24 2.58l-1.73.42c-3.07-10.86-6.13-21.72-9.49-33.61-.26 1.79-.47 2.73-.52 3.68a4.57 4.57 0 0 1 -.91 3.18c-.7-1.91-1.39-3.82-2.33-6.41-1.5.92-2.84 1.71-4.15 2.54-10 6.25-18.32 6-26.83-1.87-5.93-5.5-11-12-16.47-17.91-2.25-2.43-4.72-4.65-7.07-7-4.82-4.79-9.54-9.69-14.48-14.36-2.43-2.3-5.24-4.2-8.13-6.48l4.32-9.42a10.84 10.84 0 0 1 1.93 2.38c5.37 13.58 17.32 21.66 26.69 31.88a146.35 146.35 0 0 0 14.71 14.38 33.74 33.74 0 0 0 11.66 6.13c6.55 1.91 11.45-.27 14.8-5.27 4-6 4-11.53-.87-16.55-1.61-.84-3.6-1.32-4.75-2.58-3-3.24-5.35-2.79-8.48-.1-6.19 5.31-6 11.31-3.31 18.24a51.15 51.15 0 0 1 -3.17-5.5c-2.88-6.7-2.51-13.72 1.26-16.32 5.38-3.72 10.46-1.14 15.38 1.58l3.16 1.74c-1.45-3.24-2.15-5.63-3.46-7.61-10-15-19.78-30.05-30.1-44.77-8.63-12.29-18.55-13.29-30.1-3.8-18.68 15.37-23.17 34.12-14.32 56.77 8.6 22 16.52 44.25 24.92 66.32a98 98 0 0 0 23.93 36.46c15.59 14.88 33.73 12 44.37-6.85 2.6-4.6 5.41-9.07 8.12-13.6l1.59.54c-.45 2.23-.27 4.91-1.46 6.63-9.6 13.9-17.37 29.3-32.14 39-2.35 1.54-3.37 5.09-5 7.71h-2c-.34-4.1-.82-8.2-1-12.31-.12-3.5-1.2-6.25-4.69-7.44-10.72-3.67-17.69-11.55-23.29-20.86-12.09-20.13-20.51-41.75-26.22-64.52a40.85 40.85 0 0 0 -6.27-13.35c-10.53-14.85-15.44-30.9-11.58-49 3.11-14.56 11.61-25.66 23.58-34.1 3.67-2.58 5.27-5.45 5.34-9.89.24-16.07 6.85-28.49 21.37-36.26 5.65-3 11.05-3.28 16.46.42a22.59 22.59 0 0 0 3.08 1.4c.94-17.92 2.7-35.26-.07-52.69-.91-5.69-.59-11.58-.74-17.39-.23-8.94 0-17.91-.68-26.82-.72-9.42-.53-18.6 2.69-27.58 2.58-7.2 7.43-12.4 14.55-14.75 2.76-.91 6.63-.24 9.41 1 8.69 3.93 12.64 11.7 13.94 20.61 3.24 22.22 6.08 44.5 9.06 66.76.82 6.1 1.48 12.22 2.46 18.29 1 6.41 3 7.77 9.22 9.39a11.29 11.29 0 0 1 6.29 4.77c2.39 4.07 3.87 8.68 7.07 13.23 1.7-6.6 3.59-13.17 5-19.84.79-3.72.42-7.68 1.18-11.41 3.92-19.38 7.37-38.89 12.41-58 2.13-8.08 7.35-15.49 11.93-22.72 3.13-5 8.19-6.56 14.41-5.32 8.84 1.77 16.16 5 19.06 14.33zm-103.5 50.17.22 2c-5.44.31-10.89.59-16.34.95-4.88.32-8.87 2.29-10.12 7.33-5.59 22.68-1 43.17 13.58 61.45 2.49 3.13 6 3.76 8.85 1.83 1.53-1 2.08-4.41 2.06-6.72-.06-8.44-.89-16.87-.77-25.29.11-7.55 2.72-14.25 8.85-19.32 5.16-4.26 6.22-9.84 4.61-16.24a45.46 45.46 0 0 1 -1.39-10.31c-.39-25.74-4.22-51-9.74-76.09-1.79-8.13-7.61-13.39-14.06-13.34-6.87 0-12.75 4.78-14.06 13.08a159.54 159.54 0 0 0 -1.61 25.3c0 8.55 2.23 9.89 10.46 7.88 5.05-1.23 10-1.36 15.52 1.31-6.07.39-11.31.46-16.47 1.14-4.51.59-7.86 3-7.89 8.11-.07 10.15-.17 20.31.13 30.46.23 7.82 2.41 9 10.11 7.81 5.95-.91 12.04-.93 18.06-1.34zm2.26 109.83a22.16 22.16 0 0 0 -.87-2.59c-11-22.72-25.26-43.33-41.26-62.78-2.74-3.33-6-3.74-9.81-2.25-11 4.24-19.33 18.07-18.05 30.08.39 3.65 2.06 5.68 5.84 6.26 7.56 1.16 13 5.56 17 11.93q14.7 23.46 29.44 46.88c2.85 4.53 6.16 8.48 12.23 7.87 6.47-.65 10.45-4.72 13-10.34 2.4-5.34 1.33-7.83-3.29-11.55-2.31-1.85-3.7-4.83-5.91-6.86-1.12-1-3.38-1.91-4.69-1.49-6.28 2-9.23 9.13-6.6 15.47 1.14 2.73 2.51 5.32-.69 8.71-3-6.05-7.29-11.28-5.4-17.63 2.56-8.81 11.8-8.43 19.06-11.71zm83-62.51-.44-.06c0-2-.14-4 0-6 .52-6-2-9.86-7.68-11.79-5.34-1.82-10.55-4.16-16-5.4-8.72-2-11.6 0-14.5 8.52-.85 2.52-1.7 5.05-2.43 7.61-1.56 5.52-1.54 11.17 1.8 15.85 7.33 10.27 14.91 20.4 23 30.07 1.68 2 6 2.2 9.16 2.29.8 0 2.19-3.5 2.47-5.51 1.66-11.83 3.09-23.71 4.6-35.57zm-36.54-29.49 1.26.3c-.27 3.95 1.22 5.27 6 4.64 7.56-1 14.5.78 21.17 4.11 6.18 3.09 8.19 2.18 9.38-4.86 2-11.63 3.9-23.28 5.24-35 .27-2.36-1.51-6.32-3.48-7.32a97.36 97.36 0 0 0 -19.37-7.44c-6.07-1.57-9.23.23-10.93 6.45-3.49 12.89-6.21 26.03-9.27 39.12zm11.61-48.64c10.49-.34 19.36 2.67 27.77 7.43 2.61 1.47 5.06 1.14 5.47-2.41 1.4-12 3.27-24 3.71-36.11.23-6.2-2.92-12.28-9.64-14.44-6.23-2-11.81.46-15.48 5.48-8.49 11.6-12.18 24.84-11.83 40.01zm-68 110.55 20.57 39.09 1.63-.67c-.24-3.93-.32-7.87-.75-11.78a93.43 93.43 0 0 0 -2-13.27c-2.03-7.68-10.49-13.48-19.48-13.41zm86.35 28.66 2-.84c0-2.62.06-5.24 0-7.86-.18-6.95-1.95-8-10.43-5.13z"/><g fill="#fff"><path d="m431 143c-1.8.18-3.59.52-5.39.53-14.16.05-28.33-.07-42.48.14-2 0-4.75 1-5.95 2.49q-60.62 75.22-120.92 150.67c-2.54 3.18-4.79 6.59-7.17 9.9l-1.38-.36v-4.56q0-76.71-.05-153.43a42.94 42.94 0 0 0 -.66-5.38z"/><path d="m579.5 246.17c-6 .41-12.11.43-18.06 1.35-7.7 1.18-9.88 0-10.11-7.81-.3-10.15-.2-20.31-.13-30.46 0-5.09 3.38-7.52 7.89-8.11 5.16-.68 10.4-.75 16.47-1.14-5.55-2.67-10.47-2.54-15.52-1.31-8.23 2-10.44.67-10.46-7.88a159.54 159.54 0 0 1 1.61-25.3c1.31-8.3 7.19-13 14.06-13.08 6.45-.05 12.27 5.21 14.06 13.34 5.52 25.06 9.35 50.35 9.74 76.09a45.46 45.46 0 0 0 1.39 10.31c1.61 6.4.55 12-4.61 16.24-6.13 5.07-8.74 11.77-8.85 19.32-.12 8.42.71 16.85.77 25.29 0 2.31-.53 5.69-2.06 6.72-2.89 1.93-6.36 1.3-8.85-1.83-14.54-18.28-19.17-38.77-13.58-61.45 1.25-5 5.24-7 10.12-7.33 5.45-.36 10.9-.64 16.34-.95z"/><path d="m581.76 356c-7.26 3.27-16.5 2.89-19.13 11.71-1.89 6.35 2.4 11.58 5.4 17.63 3.2-3.39 1.83-6 .69-8.71-2.63-6.34.32-13.5 6.6-15.47 1.31-.42 3.57.45 4.69 1.49 2.21 2 3.6 5 5.91 6.86 4.62 3.72 5.69 6.21 3.29 11.55-2.52 5.62-6.5 9.69-13 10.34-6.07.61-9.38-3.34-12.23-7.87q-14.73-23.43-29.44-46.88c-4-6.37-9.4-10.77-17-11.93-3.78-.58-5.45-2.61-5.84-6.26-1.28-12 7-25.84 18.05-30.08 3.86-1.49 7.07-1.08 9.81 2.25 16 19.45 30.24 40.06 41.26 62.78a22.16 22.16 0 0 1 .94 2.59zm-24.93-.16c3.65-3.94 7.37-7.81 10.88-11.86a2.91 2.91 0 0 0 -.23-2.85c-.87-.6-3-1-3.32-.52-3.38 4.48-8.23 8.21-7.33 15.24z"/><path d="m664.74 293.5c-1.51 11.86-2.94 23.74-4.61 35.59-.28 2-1.67 5.53-2.47 5.51-3.14-.09-7.48-.29-9.16-2.29-8.09-9.67-15.67-19.8-23-30.07-3.34-4.68-3.36-10.33-1.8-15.85.73-2.56 1.58-5.09 2.43-7.61 2.9-8.53 5.78-10.49 14.5-8.52 5.47 1.24 10.68 3.58 16 5.4 5.66 1.93 8.2 5.81 7.68 11.79-.17 2 0 4 0 6z"/><path d="m628.22 264c3.06-13 5.79-26.19 9.32-39.11 1.7-6.22 4.86-8 10.93-6.45a97.36 97.36 0 0 1 19.37 7.44c2 1 3.75 5 3.48 7.32-1.34 11.71-3.28 23.36-5.24 35-1.19 7-3.2 8-9.38 4.86-6.67-3.33-13.61-5.08-21.17-4.11-4.83.63-6.32-.69-6-4.64z"/><path d="m639.83 215.32c-.35-15.17 3.34-28.41 11.83-40 3.67-5 9.25-7.49 15.48-5.48 6.72 2.16 9.87 8.24 9.64 14.44-.44 12.07-2.31 24.09-3.71 36.11-.41 3.55-2.86 3.88-5.47 2.41-8.41-4.8-17.28-7.8-27.77-7.48z"/><path d="m571.8 325.87c9-.07 17.45 5.73 19.44 13.39a93.43 93.43 0 0 1 2 13.27c.43 3.91.51 7.85.75 11.78l-1.63.67z"/><path d="m658.15 354.53-8.4-13.83c8.48-2.89 10.25-1.82 10.43 5.13.07 2.62 0 5.24 0 7.86z"/></g><path d="m556.83 355.85c-.9-7 3.95-10.76 7.33-15.23.35-.46 2.45-.08 3.32.52a2.91 2.91 0 0 1 .23 2.85c-3.51 4.01-7.23 7.92-10.88 11.86z"/></g></svg>