<svg viewBox="0 0 480 364" xmlns="http://www.w3.org/2000/svg"><g transform="translate(-177.29 -113.12)"><path d="m505.58 113.12h151.71v364h-480v-364h324.3c-1.83.73-3.92 1.12-5.42 2.28-3.44 2.65-7.93 5.08-9.53 8.69a47.24 47.24 0 0 0 -3.79 17.79c-.33 14.45.33 28.91.47 43.36.15 14.95.11 29.9.24 44.85 0 4.19-1 6.44-5.91 7.25-4.56.76-8.77 3.58-13.17 5.42-1.28.53-3.08 1.54-3.92 1.06-7.8-4.39-15.74-2.33-23.85-1.36-10.17 1.23-17.24 5.57-19.64 16.5-8.29-2.23-16.14-1.74-23.31 2.56a139.13 139.13 0 0 0 -12.7 8.77c-12.26 9.27-14.2 15.85-10.18 30.63 1.23 4.55 2.11 9.55 1.61 14.17a78.41 78.41 0 0 0 5.14 38.11c3.37 8.48 7.37 16.71 10.72 25.2 5.11 13 9.51 26.24 18.12 37.57 1.06 1.4 1.18 4.3.53 6.07-3.27 8.85-7.06 17.51-10.37 26.35-.65 1.73 0 4 .11 6 1.89-.13 4.22.37 5.56-.56a11.63 11.63 0 0 0 3.67-5.36c1.34-3.55 2-7.36 3.27-10.93 1.68-4.66 4.86-6.59 10.12-5.73 4 .66 8.28.13 12.42.13l.06-1.55-16-1.72.12-1.25 19.56-1.13.06-.89-4.45-1.5c12.69-9.9 12.69-9.9 13.55-14.9-.65.49-1.18.87-1.69 1.27-15 12.06-34.93 6-40.93-12.35a66.23 66.23 0 0 0 -3.28-7.79c-8.49-18-15.31-36.46-17.5-56.35a126.28 126.28 0 0 1 -.51-17.4c.11-3.85 5.17-8.37 9-7.61 1.57.31 3 3.67 3.63 5.88a82.75 82.75 0 0 0 20.73 36.35c7.39 7.63 17.71 7.86 25.3.44 2.28-2.23 3.91-2.22 6.45-.78 5 2.84 10.2 2.54 15.22-.24 2.1-1.15 4.15-2.39 6.85-3.95-1.33 5.31-2.49 9.91-3.65 14.52l1.21.33c1.08-2.74 2.4-5.41 3.2-8.23 1.23-4.27 3.47-5.61 8.06-4.92 8.8 1.32 13.63-2 16.91-10.42 1.19-3.05 2.66-6 3.55-8-.49-3.07-1.39-5.5-1.16-7.83 2-19.61 8.74-38.53 8.51-58.51 0-2.44 1.88-6.16 3.9-7.08 3.09-1.41 7.64-4.07 10.17 1.66.24.55 1.39.92 2.16 1 9 .88 11.77 6.83 12.42 14.74 1.12 13.56 2.36 27.12 3.52 40.68.1 1.21 0 2.44 0 3.64l-21.45-6.41-.4 1.36 3 2.35-.28.94-10.32-.61-.13 1 17.8 3.18-21.39 6.42c.13.47.25.94.37 1.41l31.91-5.52 1 1.88c-1 1.48-1.72 3.56-3.13 4.31-1.78.95-4.15.78-6.25 1.17-1.7.31-3.37.72-6.09 1.3l12.05 1.82c2.28-.18 4.71-2.4 7.25-2.53s4.95 2 7.57 3.13c.89 7 1.8 14 2.71 21.13.57-6.63.43-13.19.66-19.73.07-2.18.39-5.35 1.79-6.31 8.91-6.06 17.83-12.35 28.7-14.54 5.24-1.06 7.66.7 9.2 5.89.88 3 2 5.85 3 8.77 1-1 1-1.67.77-2.23-7.93-18.41.74-21.5 14.23-24a49.61 49.61 0 0 1 34.27 5.77c7.31 4.15 7.18 10.92-.08 15-3.76 2.12-7.81 3.73-11.52 5.93-7 4.14-14.72 7.58-20.51 13-9.6 9-20.52 15.73-31.84 22.08-5.65 3.16-11 6.77-16.58 10.11-2.11 1.27-4.43 3.44-6.45 3.22-1.79-.19-3.29-3.11-4.91-4.81a58.88 58.88 0 0 1 -17 28.05 259.67 259.67 0 0 1 -20.83 17c-11.23 8.42-23.87 10.42-37.38 6.94-18.2-4.68-25.27-19.19-17.73-36.41 1.66-3.8 3.52-7.53 4.95-11.41.53-1.42.09-3.2.09-4.81l-1.5-.12a83.49 83.49 0 0 0 -10.63 29.17c-1.59 9.52.81 17.45 9.57 22.72 1.23.74 2.88 2.07 2.94 3.2.39 6.5 5.58 7.18 10 8.46 4 1.16 5.08 2.92 3.16 6.8-2.42 4.91-3.08 10.08-1.15 16.7 3.52-6.55 6.4-11.89 9.28-17.24l1.24.61c-1.49 4.53-3 9.05-4.48 13.59-1.17 3.62-2.72 7.19-3.33 10.91-1 5.83 2 9.4 7.4 9-.66-10.65 2.5-20.54 6.41-30.32a35.79 35.79 0 0 1 19.45-20.26c12.65-5.64 23.89-13.57 31.64-25.14 8.47-12.64 20.06-20.94 33.22-27.82 11.18-5.83 22.59-11.5 32.9-18.66 12.52-8.71 23.89-18.86 38.49-24.56 9.45-3.7 10.51-16.57 2.69-23.23a25 25 0 0 0 -7.74-4.39c-19.41-6.83-38.8-11.35-57.55 2.05a23.88 23.88 0 0 1 -5 2.27c-8.93 3.65-17.87 7.24-26.79 10.9-7.6 3.11-8.94 2.29-10.6-5.94-4.07-20.27-5.11-40.75-6-61.39a579.39 579.39 0 0 0 -12.27-96.71c-3.15-15.15-6.65-29.4-19.57-39.37zm-327.29 6v308.42h171.71v-33.21h-132.11v-275.23z" fill="#fff"/><path d="m505.58 113.12c12.92 10 16.39 24.22 19.64 39.38a579.39 579.39 0 0 1 12.27 96.71c.89 20.64 1.93 41.12 6 61.39 1.66 8.23 3 9 10.6 5.94 8.92-3.66 17.86-7.25 26.79-10.9a23.88 23.88 0 0 0 5-2.27c18.75-13.4 38.14-8.88 57.55-2.05a25 25 0 0 1 7.74 4.39c7.82 6.66 6.76 19.53-2.69 23.23-14.6 5.7-26 15.85-38.49 24.56-10.31 7.16-21.72 12.83-32.9 18.66-13.19 6.84-24.78 15.18-33.25 27.84-7.75 11.57-19 19.5-31.64 25.14a35.79 35.79 0 0 0 -19.45 20.26c-3.91 9.78-7.07 19.67-6.41 30.32-5.36.39-8.37-3.18-7.4-9 .61-3.72 2.16-7.29 3.33-10.91 1.47-4.54 3-9.06 4.48-13.59l-1.24-.61c-2.88 5.35-5.76 10.69-9.28 17.24-1.93-6.62-1.27-11.79 1.15-16.7 1.92-3.88.86-5.64-3.16-6.8-4.46-1.28-9.65-2-10-8.46-.06-1.13-1.71-2.46-2.94-3.2-8.76-5.27-11.16-13.2-9.57-22.72a83.49 83.49 0 0 1 10.63-29.17l1.5.12c0 1.61.44 3.39-.09 4.81-1.43 3.88-3.29 7.61-4.95 11.41-7.54 17.22-.47 31.73 17.73 36.41 13.53 3.48 26.15 1.44 37.38-6.9a259.67 259.67 0 0 0 20.83-17 58.88 58.88 0 0 0 17-28.05c1.62 1.7 3.12 4.62 4.91 4.81 2 .22 4.34-1.95 6.45-3.22 5.54-3.34 10.93-6.95 16.58-10.11 11.32-6.35 22.24-13 31.84-22.08 5.79-5.46 13.52-8.9 20.51-13 3.71-2.2 7.76-3.81 11.52-5.93 7.26-4.09 7.39-10.86.08-15a49.61 49.61 0 0 0 -34.23-5.74c-13.49 2.47-22.16 5.56-14.23 24 .25.56.22 1.24-.77 2.23-1-2.92-2.14-5.81-3-8.77-1.54-5.19-4-7-9.2-5.89-10.87 2.19-19.79 8.48-28.7 14.54-1.4 1-1.72 4.13-1.79 6.31-.23 6.54-.09 13.1-.66 19.73-.91-7.09-1.82-14.17-2.71-21.13-2.62-1.18-5.15-3.25-7.57-3.13s-5 2.35-7.25 2.53l-12.05-1.82c2.72-.58 4.39-1 6.09-1.3 2.1-.39 4.47-.22 6.25-1.17 1.41-.75 2.11-2.83 3.13-4.31l-1-1.88-31.94 5.39c-.12-.47-.24-.94-.37-1.41l21.37-6.42-17.8-3.18.13-1 10.32.61.28-.94-3-2.35.41-1.24 21.45 6.41c0-1.2.09-2.43 0-3.64-1.16-13.56-2.4-27.12-3.52-40.68-.65-7.91-3.45-13.86-12.42-14.74-.77-.08-1.92-.45-2.16-1-2.53-5.73-7.08-3.07-10.17-1.66-2 .92-3.93 4.64-3.9 7.08.23 20-6.53 38.9-8.51 58.51-.23 2.33.67 4.76 1.16 7.83-.89 2-2.36 4.9-3.55 8-3.28 8.39-8.11 11.74-16.91 10.42-4.59-.69-6.83.65-8.06 4.92-.8 2.82-2.12 5.49-3.2 8.23l-1.25-.41c1.16-4.61 2.32-9.21 3.65-14.52-2.7 1.56-4.75 2.8-6.85 3.95-5 2.78-10.19 3.08-15.22.24-2.54-1.44-4.17-1.45-6.45.78-7.59 7.42-17.91 7.19-25.3-.44a82.75 82.75 0 0 1 -20.75-36.41c-.6-2.21-2.06-5.57-3.63-5.88-3.81-.76-8.87 3.76-9 7.61a126.28 126.28 0 0 0 .51 17.4c2.19 19.89 9 38.39 17.5 56.35a66.23 66.23 0 0 1 3.28 7.79c6 18.36 26 24.41 40.93 12.35.51-.4 1-.78 1.69-1.27-.86 5-.86 5-13.57 14.88l4.45 1.5-.06.89-19.56 1.13-.12 1.25 16 1.72-.06 1.55c-4.14 0-8.38.53-12.42-.13-5.26-.86-8.44 1.07-10.12 5.73-1.29 3.57-1.93 7.38-3.27 10.93a11.63 11.63 0 0 1 -3.67 5.36c-1.34.93-3.67.43-5.56.56-.07-2-.76-4.23-.11-6 3.31-8.84 7.1-17.5 10.37-26.35.65-1.77.53-4.67-.53-6.07-8.61-11.33-13-24.59-18.12-37.57-3.35-8.49-7.35-16.72-10.72-25.2a78.41 78.41 0 0 1 -5.14-38.11c.5-4.62-.38-9.62-1.61-14.17-4-14.78-2.08-21.36 10.18-30.63a139.13 139.13 0 0 1 12.7-8.77c7.17-4.3 15-4.79 23.31-2.56 2.4-10.93 9.47-15.27 19.64-16.5 8.11-1 16.05-3 23.85 1.36.84.48 2.64-.53 3.92-1.06 4.4-1.84 8.61-4.66 13.17-5.42 4.89-.81 6-3.06 5.91-7.25-.13-15-.09-29.9-.24-44.85-.14-14.45-.8-28.91-.47-43.36a47.24 47.24 0 0 1 3.79-17.79c1.6-3.61 6.09-6 9.53-8.69 1.5-1.16 3.59-1.55 5.42-2.28zm-40.72 213.74c.32-1.08 1.28-2.89 1.34-4.73.09-3-.46-5.93-.67-8.91-1.26-18.05-2.39-36.12-3.8-54.17-.49-6.3-4.25-11.45-8.83-12-7.7-.91-15.34-.37-22.09 4.05-8.24 5.41-10.32 14-6.87 25.76 5.15 17.49 9.9 35.11 15.19 52.56a79.58 79.58 0 0 0 6.67 14.88c2.24 4.09 6.12 5.45 10.71 4.15 5.19-1.48 9.86-6 10-10.07.05-1.74-.73-3.51-1.36-6.28l-2.79 5.48-.85-.28v-10.36c-4 1-8 1-10.7 2.79-5.43 3.61-2.09 9.6-3 14.72a18.27 18.27 0 0 1 -2.24-6.06c-.4-2.1-.17-4.37-.84-6.36-2.06-6.09-1.48-7.47 4.87-8.5a26.86 26.86 0 0 1 8.39-.19c2.01.31 3.72 1.84 6.87 3.52zm-77.86-20.95c-1-2.46-1.93-4.72-2.85-7l4.41-.74-1.21-12.57 2-.57c1.1 2.55 3.08 5.07 3.16 7.65.58 18.21 8.11 33.79 18.24 48.24 3 4.36 7.54 7.93 11.94 11.07 4.06 2.89 8.54 2 12.34-1.4 5.55-4.92 5.93-8.27 1.85-17.58-1.41.29-2.87.54-4.31.89-10.6 2.59-10.6 2.59-10 12.57-1.4-2.9-3.23-6.25-2.59-9 1.92-8.39 9.75-6.63 16.24-7.52-4.8-20.58-9.89-40.5-18-59.47-2.86-6.73-8.84-8.86-15.84-6a105.17 105.17 0 0 0 -15.38 8.06c-9.16 5.61-13 23.1-7.31 32.17 2.31 3.74 4.14 3.92 7.31 1.2zm102.51 19.54c-3.54 0-5.86-.11-8.17 0-6.74.39-8.72 2.92-7.72 9.62.22 1.47.65 3.07.29 4.42-.83 3.11.37 5.28 3.17 5.54a7.45 7.45 0 0 0 5.48-2.47c7.13-8.53 10.62-18.4 11.54-29.59 1.48-17.85 4.24-35.59 5.6-53.45.78-10.13-6.91-17.35-16.85-17.57-9.74-.22-16.89 6.48-17 16.85s.33 20.58.88 30.85c.61 11.58 1.61 23.14 2.48 35.39 6.38-2.1 12.85-4.76 20.3.41zm10.63-160.94v1.26c-1.86.11-3.92-.25-5.52.45-1.85.82-4.69 2.55-4.7 3.91-.08 11.42.27 22.85.77 34.27.14 3.14 2.32 4.25 5.65 4a64.77 64.77 0 0 1 11.39.31c4.62.44 9.2 1.36 13.82 1.84 2.74.29 5.2-.42 4.86-4-.91-9.57-1.52-19.2-3.06-28.67-1-5.94-4.88-10.06-11.26-11.18a31.93 31.93 0 0 1 -4.21-1.3l.38-1.38 13 3.11c-1.31-8.56-2.15-16.31-3.8-23.89-1-4.8-2.57-9.8-5.21-13.84-2.06-3.16-5.84-6.24-9.42-7.14-7.09-1.8-13.37 2.94-14.29 10.28-.78 6.22-.55 12.58-.64 18.88-.17 13.12 1.61 11.78 10.89 12.52a5 5 0 0 1 1.35.57zm30.2 80.29h.19c-.64-8.27-1.22-16.54-2-24.79-.32-3.59-2.06-6.78-5.81-7.18-9-.95-18.05-1.49-27.09-1.93-3.3-.17-5.26 2.07-5.61 5.23-.58 5.26-.89 10.55-1.27 15.82-.25 3.44 1.32 5.59 4.55 6.85 4.43 1.73 7.94 4.22 9.66 9.21 1.67 4.84 5.95 6.27 11 5.84a30.2 30.2 0 0 1 7.36.19c8.54 1.41 9 1.05 9-7.74z"/><path d="m178.29 119.1h39.6v275.23h132.11v33.21h-171.71z"/><g fill="#fff"><path d="m464.86 326.86c-3.15-1.68-4.91-3.21-6.85-3.52a26.86 26.86 0 0 0 -8.39.19c-6.35 1-6.93 2.41-4.87 8.5.67 2 .44 4.26.84 6.36a18.27 18.27 0 0 0 2.24 6.06c.87-5.12-2.47-11.11 3-14.72 2.74-1.82 6.71-1.82 10.7-2.79v10.38l.85.28 2.79-5.48c.63 2.77 1.41 4.54 1.36 6.28-.12 4-4.79 8.59-10 10.07-4.59 1.3-8.47-.06-10.71-4.15a79.58 79.58 0 0 1 -6.67-14.88c-5.29-17.45-10-35.07-15.19-52.56-3.45-11.73-1.37-20.35 6.87-25.76 6.75-4.42 14.39-5 22.09-4.05 4.58.53 8.34 5.68 8.83 12 1.41 18.05 2.54 36.12 3.8 54.17.21 3 .76 5.95.67 8.91-.08 1.85-1.04 3.63-1.36 4.71z"/><path d="m387 305.91c-3.17 2.72-5 2.54-7.3-1.2-5.69-9.07-1.85-26.56 7.31-32.17a105.17 105.17 0 0 1 15.39-8.11c7-2.82 13-.69 15.84 6 8.08 19 13.17 38.89 18 59.47-6.49.89-14.32-.87-16.24 7.52-.64 2.79 1.19 6.14 2.59 9-.61-10-.61-10 10-12.57 1.44-.35 2.9-.6 4.31-.89 4.08 9.31 3.7 12.66-1.85 17.58-3.8 3.37-8.28 4.29-12.34 1.4-4.4-3.14-8.89-6.71-11.94-11.07-10.13-14.45-17.66-30-18.24-48.24-.08-2.58-2.06-5.1-3.16-7.65l-2 .57 1.21 12.57-4.41.74c.9 2.33 1.83 4.59 2.83 7.05z"/><path d="m489.51 325.45c-7.45-5.17-13.92-2.51-20.32-.39-.87-12.25-1.87-23.81-2.48-35.39-.55-10.27-1-20.57-.88-30.85s7.28-17.07 17-16.85c9.94.22 17.63 7.44 16.85 17.57-1.36 17.86-4.12 35.6-5.6 53.45-.92 11.19-4.41 21.06-11.54 29.59a7.45 7.45 0 0 1 -5.48 2.47c-2.8-.26-4-2.43-3.17-5.54.36-1.35-.07-2.95-.29-4.42-1-6.7 1-9.23 7.72-9.62 2.33-.13 4.68-.02 8.19-.02z"/><path d="m500.14 164.51a5 5 0 0 0 -1.35-.55c-9.28-.74-11.06.6-10.89-12.52.09-6.3-.14-12.66.64-18.88.92-7.34 7.2-12.08 14.29-10.28 3.58.9 7.36 4 9.42 7.14 2.64 4 4.17 9 5.21 13.84 1.65 7.58 2.49 15.33 3.8 23.89l-13-3.11-.38 1.38a31.93 31.93 0 0 0 4.21 1.3c6.38 1.12 10.3 5.24 11.26 11.18 1.54 9.47 2.15 19.1 3.06 28.67.34 3.54-2.12 4.25-4.86 4-4.62-.48-9.2-1.4-13.82-1.84a64.77 64.77 0 0 0 -11.39-.31c-3.33.27-5.51-.84-5.65-4-.5-11.42-.85-22.85-.77-34.27 0-1.36 2.85-3.09 4.7-3.91 1.6-.7 3.66-.34 5.52-.45.01-.44 0-.86 0-1.28z"/><path d="m530.34 244.8v1.49c0 8.79-.5 9.15-9 7.74a30.2 30.2 0 0 0 -7.36-.19c-5 .43-9.28-1-11-5.84-1.72-5-5.23-7.48-9.66-9.21-3.23-1.26-4.8-3.41-4.55-6.85.38-5.27.69-10.56 1.27-15.82.35-3.16 2.31-5.4 5.61-5.23 9 .44 18.09 1 27.09 1.93 3.75.4 5.49 3.59 5.81 7.18.75 8.25 1.33 16.52 2 24.79z"/></g></g></svg>