<svg viewBox="0 0 298 364" xmlns="http://www.w3.org/2000/svg"><g transform="translate(-991 -335)"><path d="m1114 699h-123v-364h143c-1.83.74-3.92 1.13-5.42 2.29-3.45 2.66-7.94 5.09-9.56 8.71a47.73 47.73 0 0 0 -3.79 17.84c-.33 14.48.34 29 .48 43.47.14 15.16.1 30.31.21 45.46 0 3.83-1 5.8-5.41 6.66-4.74.94-9.12 3.67-13.69 5.55-1.28.52-3.08 1.53-3.93 1-7.82-4.4-15.76-2.33-23.89-1.35-10.2 1.22-17.27 5.6-19.68 16.61-8.31-2.42-16.16-1.77-23.35 2.5a137.65 137.65 0 0 0 -12.72 8.79c-12.26 9.28-14.21 15.9-10.18 30.72 1.24 4.57 2.12 9.57 1.6 14.2a78.63 78.63 0 0 0 5 37.76c3.37 8.68 7.51 17.06 10.92 25.72 5.13 13 9.54 26.31 18.16 37.67 1.06 1.39 1.16 4.31.51 6.08-3.2 8.74-6.92 17.27-10.14 26-.7 1.89-.1 4.26-.1 6.4 2.19-.31 4.69-.07 6.46-1.1 1.41-.83 2.18-3.1 2.79-4.88 1.23-3.61 2-7.39 3.26-11 1.7-4.68 4.9-6.57 10.16-5.7 4 .67 8.28.13 12.43.13l.06-1.56-16.07-1.73.14-1.25 19.58-1.14v-.89l-4.49-1.5c12.74-9.7 12.83-9.8 13.58-14.88-.63.48-1.16.86-1.67 1.27-15 12.08-35 6-41-12.46a69.38 69.38 0 0 0 -3.29-7.81c-8.51-18-15.33-36.56-17.52-56.5a127 127 0 0 1 -.5-17.45c.11-3.81 5.35-8.44 9-7.58 1.6.37 3 3.72 3.6 6a82.85 82.85 0 0 0 20.82 36.49c7.24 7.47 17.71 7.83 25 .7 2.36-2.31 4-2.69 6.83-1.07 5 2.89 10.22 2.51 15.24-.28 2.08-1.16 4.12-2.38 6.81-3.94-1.34 5.35-2.5 9.95-3.65 14.54l1.22.3a87.6 87.6 0 0 0 3.22-8.26c1.22-4.35 3.57-5.52 8.11-4.86 8.8 1.29 13.59-2.07 16.89-10.53 1.2-3 2.7-6 3.5-7.74-.48-3.26-1.35-5.72-1.11-8.08 2-19.66 8.73-38.63 8.52-58.67 0-2.43 1.93-6.11 4-7.05 3.12-1.44 7.67-4 10.16 1.77.24.54 1.42.73 2.19 1 9.72 3 11.42 4.92 12.34 14.82 1.26 13.59 2.4 27.19 3.56 40.79.1 1.19 0 2.41 0 3.56l-21.5-6.41-.4 1.25 4.27 3.36-11.83-.64-.09 1 18 3.09-21.65 6.5.38 1.4 32.39-5.58c.06 5.27-2.17 6.84-5.47 7.27-2.82.37-5.66.55-8.49.81l.12.91 12.37 1.67c3.26-3.81 8.22-3.83 13.5 1.1l2.65 20.59c.56-6.7.41-13.3.65-19.89.08-2.17.49-5.49 1.87-6.26a291.69 291.69 0 0 1 28.36-14.3c5.1-2.15 8 .36 9.55 5.77.87 2.92 2 5.77 3 8.65 1-1.05.93-1.72.69-2.29-7.61-17.9.08-21.38 14.4-23.95a49.15 49.15 0 0 1 34.69 6.1c6.51 3.89 6.5 10.52.17 14.25-4 2.36-8.43 4.05-12.4 6.47-7.5 4.58-15 9.26-22.16 14.3-5.83 4.09-11 9.22-16.92 13.09-9.91 6.43-20.34 12-30.33 18.33-6.89 4.35-7 4.56-10-1.27-3.87 6.71-7.38 14.48-12.4 21.12-8.32 11-19.38 19.25-31.15 26.28-11.42 6.81-23.74 7.14-36.16 2.88-14.4-5-20.5-17.36-15.59-31.81 1.66-4.86 4.18-9.43 6-14.25.66-1.71.43-3.75.61-5.64l-1.59-.28a80.75 80.75 0 0 0 -10.73 29.54c-1.6 9.57 1 17.47 9.72 22.71 1.1.66 2.58 1.8 2.68 2.82.59 6.43 5.53 7.64 10.33 8.86 4.24 1.07 4.81 3.12 3 6.88a21.15 21.15 0 0 0 -1.07 16.45l9.26-17.06 1.27.68c-2 6-3.83 12-6.16 17.82-2.3 5.66-2.51 10.95.97 16.14z" fill="#fff"/><path d="m1138 335h151v200c-3.17-6.82-9-10.45-15.8-12.55-18.68-5.74-37.28-9.58-54.88 3.34a23.2 23.2 0 0 1 -5 2.26c-8.79 3.59-17.6 7.1-26.37 10.73-8 3.31-9.31 2.55-11-5.87-4.09-20.32-5.11-40.84-6-61.52a577.15 577.15 0 0 0 -12.2-96.44c-3.26-15.3-6.5-29.95-19.75-39.95z" fill="#fff"/><path d="m1289 542v157h-170c-1.24-10.8 2.17-20.65 6-30.48a35.89 35.89 0 0 1 19.65-20.73c12.64-5.65 23.89-13.58 31.64-25.16 8.58-12.79 20.13-21.53 33.71-28 16.44-7.81 31.89-17 46-28.75 5.91-4.92 13-8.66 20-11.9 5.84-2.68 10.87-5.56 13-11.98z" fill="#fff"/><path d="m1289 542c-2.13 6.42-7.16 9.3-13 12-7 3.24-14.12 7-20 11.9-14.06 11.72-29.51 20.94-46 28.75-13.58 6.45-25.13 15.19-33.71 28-7.75 11.58-19 19.51-31.64 25.16a35.89 35.89 0 0 0 -19.65 20.71c-3.83 9.83-7.24 19.68-6 30.48h-5c-3.48-5.19-3.27-10.48-1-16.14 2.33-5.83 4.13-11.87 6.16-17.82l-1.27-.68-9.26 17.06a21.15 21.15 0 0 1 1.07-16.42c1.82-3.76 1.25-5.81-3-6.88-4.8-1.22-9.74-2.43-10.33-8.86-.1-1-1.58-2.16-2.68-2.82-8.76-5.24-11.32-13.14-9.72-22.71a80.75 80.75 0 0 1 10.85-29.55l1.59.28c-.18 1.89 0 3.93-.61 5.64-1.83 4.82-4.35 9.39-6 14.25-4.91 14.45 1.19 26.86 15.59 31.81 12.42 4.26 24.74 3.93 36.16-2.88 11.77-7 22.83-15.28 31.15-26.28 5-6.64 8.53-14.41 12.4-21.12 3 5.83 3.13 5.62 10 1.27 10-6.3 20.42-11.9 30.33-18.33 6-3.87 11.09-9 16.92-13.09 7.2-5 14.66-9.72 22.16-14.3 4-2.42 8.39-4.11 12.4-6.47 6.33-3.73 6.34-10.36-.17-14.25a49.15 49.15 0 0 0 -34.69-6.1c-14.32 2.57-22 6-14.4 23.95.24.57.26 1.24-.69 2.29-1-2.88-2.18-5.73-3-8.65-1.59-5.41-4.45-7.92-9.55-5.77a291.69 291.69 0 0 0 -28.41 14.27c-1.38.77-1.79 4.09-1.87 6.26-.24 6.59-.09 13.19-.65 19.89l-2.65-20.59c-5.28-4.93-10.24-4.91-13.5-1.1l-12.33-1.67-.12-.91c2.83-.26 5.67-.44 8.49-.81 3.3-.43 5.53-2 5.47-7.27l-32.39 5.58-.38-1.4 21.65-6.5-18-3.09.09-1 11.83.64-4.27-3.36.4-1.25 21.5 6.41c0-1.15.09-2.37 0-3.56-1.16-13.6-2.3-27.2-3.56-40.79-.92-9.9-2.62-11.83-12.34-14.82-.77-.24-1.95-.43-2.19-1-2.49-5.73-7-3.21-10.16-1.77-2 .94-4 4.62-4 7.05.21 20-6.52 39-8.52 58.67-.24 2.36.63 4.82 1.11 8.08-.8 1.75-2.3 4.69-3.5 7.74-3.3 8.46-8.09 11.82-16.89 10.53-4.54-.66-6.89.51-8.11 4.86a87.6 87.6 0 0 1 -3.22 8.26l-1.22-.3c1.15-4.59 2.31-9.19 3.65-14.54-2.69 1.56-4.73 2.78-6.81 3.94-5 2.79-10.21 3.17-15.24.28-2.82-1.62-4.47-1.24-6.83 1.07-7.28 7.13-17.75 6.77-25-.7a82.85 82.85 0 0 1 -20.82-36.49c-.6-2.24-2-5.59-3.6-6-3.69-.86-8.93 3.77-9 7.58a127 127 0 0 0 .5 17.45c2.19 19.94 9 38.49 17.52 56.5a69.38 69.38 0 0 1 3.29 7.81c6 18.43 26 24.54 41 12.46.51-.41 1-.79 1.67-1.27-.75 5.08-.84 5.18-13.58 14.88l4.49 1.5v.89l-19.58 1.14-.14 1.25 16.07 1.73-.06 1.56c-4.15 0-8.39.54-12.43-.13-5.26-.87-8.46 1-10.16 5.7-1.29 3.58-2 7.36-3.26 11-.61 1.78-1.38 4.05-2.79 4.88-1.77 1-4.27.79-6.46 1.1 0-2.14-.6-4.51.1-6.4 3.22-8.72 6.94-17.25 10.14-26 .65-1.77.55-4.69-.51-6.08-8.62-11.36-13-24.65-18.16-37.67-3.41-8.66-7.55-17-10.92-25.72a78.63 78.63 0 0 1 -5-37.76c.52-4.63-.36-9.63-1.6-14.2-4-14.82-2.08-21.44 10.18-30.72a137.65 137.65 0 0 1 12.72-8.79c7.19-4.27 15-4.92 23.35-2.5 2.41-11 9.48-15.39 19.68-16.61 8.13-1 16.07-3.05 23.89 1.35.85.48 2.65-.53 3.93-1 4.57-1.88 9-4.61 13.69-5.55 4.37-.86 5.44-2.83 5.41-6.66-.11-15.15-.07-30.3-.21-45.46-.14-14.49-.81-29-.48-43.47a47.73 47.73 0 0 1 3.69-17.83c1.62-3.62 6.11-6.05 9.56-8.71 1.5-1.16 3.59-1.55 5.42-2.29h4c13.25 10 16.49 24.65 19.77 39.95a577.15 577.15 0 0 1 12.2 96.44c.89 20.68 1.91 41.2 6 61.52 1.69 8.42 3 9.18 11 5.87 8.77-3.63 17.58-7.14 26.37-10.73a23.2 23.2 0 0 0 5-2.26c17.6-12.92 36.2-9.08 54.88-3.34 6.84 2.1 12.63 5.73 15.8 12.55zm-191.74 7.29c.32-1.13 1.36-3 1.28-4.82-.35-8.14-1-16.27-1.6-24.39-.93-13-1.72-25.92-2.89-38.85-.48-5.37-2.69-10.76-8.43-11.75-8.86-1.53-17.74-.58-24.94 5.77-7.88 6.94-6.76 15.62-4.22 24.46 4.63 16.14 9 32.34 14 48.38a122.12 122.12 0 0 0 7.76 18.76c2.08 4.16 6.15 5.41 10.72 4.07 5.23-1.53 9.85-6.1 9.93-10.14 0-1.73-.77-3.48-1.4-6.08l-2.78 5.3-.86-.31v-10.37c-4 1-8 1-10.76 2.9-5.34 3.59-2 9.58-2.94 14.68a19.15 19.15 0 0 1 -2.21-6.14c-.44-2.26-.3-4.7-1.06-6.83-1.85-5.15-1.45-6.59 3.72-7.68a29.27 29.27 0 0 1 9.37-.53c2.05.28 3.99 1.88 7.31 3.57zm-28.72 3.22c-4.83-20.76-9.94-40.72-18-59.75-2.87-6.74-8.9-9-15.85-6a89.75 89.75 0 0 0 -17.86 9.85c-7.74 5.64-10 23.23-4.64 30.91 2.5 3.61 4.56 3.59 6.94.62l-2.75-6.8 4.42-.76-1.23-12.58 2-.57c1.1 2.55 3.08 5.08 3.17 7.66.58 18.25 8.12 33.87 18.26 48.37 3 4.36 7.55 7.94 12 11.09 4.07 2.9 8.56 2 12.37-1.39 5.57-4.93 5.94-8.25 1.86-17.63-1.4.29-2.86.53-4.3.89-10.67 2.6-10.67 2.61-9.25 12.8-3.43-2.72-4.61-6.07-3.38-9.76 2.48-7.76 9.51-6.37 16.24-6.95zm32.76-4.36c6.74-3.5 13.17-5 19.47-.67-2.54.43-5.1.26-7.63.46-6.17.5-8.08 3.09-7.23 9.19.27 2-.18 4 .34 5.9.47 1.64 1.54 3.77 2.9 4.31s4.18 0 5-1.12c6.15-8.16 11.59-16.68 11.88-27.47.11-3.8 1.09-7.57 1.49-11.37 1.62-15.38 3.25-30.76 4.71-46.16a13.76 13.76 0 0 0 -4.88-12.06c-5.61-4.92-12-6.41-19-3.66-6.77 2.66-10.37 8-10.14 15.15.51 16 1.44 31.92 2.2 47.88.26 6.11.59 12.22.89 19.62zm31.31-161.79-.08 1.5c-1.94.09-4.11-.33-5.75.41-1.81.83-4.46 2.7-4.48 4.14-.11 11.12.23 22.25.66 33.37.14 3.57 2.11 5.17 6.06 4.67a47.25 47.25 0 0 1 10.42.24c4.79.49 9.54 1.43 14.33 2 3 .33 5.49-.4 5.12-4.23-.91-9.26-1.55-18.57-2.92-27.76-1-6.44-4.89-10.79-11.69-12a27.8 27.8 0 0 1 -3.91-1.26l.35-1.36 13.24 3.24c-1.83-10.32-3.2-19.83-5.3-29.17-.85-3.79-3-7.43-5.09-10.75-3.11-4.82-7.89-6.61-13.48-5.17-5.35 1.37-8.92 5-9.22 10.54-.45 8.61-.39 17.28 0 25.9.07 1.58 2.44 3.65 4.22 4.44 2.25.96 4.99.89 7.52 1.25zm-11.54 63.42c-1.38 6.5 1.31 10.25 7.4 12.76 2.55 1 4.75 4 6.13 6.57 2.43 4.58 5.47 7.25 10.92 7a70 70 0 0 1 10.82.61c5.17.61 6.53-.1 6.38-5.38-.28-9.63-1-19.25-1.64-28.87-.31-4.6-3-7.39-7.45-8.08a168.77 168.77 0 0 0 -18.29-2.24c-10.72-.46-12.8 1.56-14 12.12-.19 1.84-.18 3.73-.27 5.51z"/><g fill="#fff"><path d="m1097.26 549.29c-3.32-1.69-5.24-3.32-7.33-3.57a29.27 29.27 0 0 0 -9.37.53c-5.17 1.09-5.57 2.53-3.72 7.68.76 2.13.62 4.57 1.06 6.83a19.15 19.15 0 0 0 2.21 6.14c.92-5.1-2.4-11.09 2.94-14.68 2.75-1.86 6.72-1.89 10.76-2.9v10.37l.86.31 2.78-5.3c.63 2.6 1.43 4.35 1.4 6.08-.08 4-4.7 8.61-9.93 10.14-4.57 1.34-8.64.09-10.72-4.07a122.12 122.12 0 0 1 -7.76-18.76c-4.93-16-9.35-32.24-14-48.38-2.54-8.84-3.66-17.52 4.22-24.46 7.2-6.35 16.08-7.3 24.94-5.77 5.74 1 8 6.38 8.43 11.75 1.17 12.93 2 25.89 2.89 38.85.58 8.12 1.25 16.25 1.6 24.39.1 1.82-.94 3.69-1.26 4.82z"/><path d="m1068.54 552.51c-6.73.58-13.76-.81-16.31 6.9-1.23 3.69 0 7 3.38 9.76-1.42-10.19-1.42-10.2 9.25-12.8 1.44-.36 2.9-.6 4.3-.89 4.08 9.38 3.71 12.7-1.86 17.63-3.81 3.37-8.3 4.29-12.37 1.39-4.4-3.15-8.9-6.73-12-11.09-10.14-14.5-17.68-30.12-18.26-48.37-.09-2.58-2.07-5.11-3.17-7.66l-2 .57 1.21 12.59-4.42.76 2.75 6.8c-2.38 3-4.44 3-6.94-.62-5.33-7.68-3.1-25.27 4.64-30.91a89.75 89.75 0 0 1 17.86-9.85c6.95-3 13-.7 15.85 6 8.15 19.07 13.26 39.03 18.09 59.79z"/><path d="m1101.3 548.15c-.35-7.4-.63-13.51-.92-19.62-.76-16-1.69-31.91-2.2-47.88-.23-7.18 3.37-12.49 10.14-15.15 7-2.75 13.42-1.26 19 3.66a13.76 13.76 0 0 1 4.88 12.06c-1.46 15.4-3.09 30.78-4.71 46.16-.4 3.8-1.38 7.57-1.49 11.37-.29 10.79-5.73 19.31-11.88 27.47-.82 1.1-3.65 1.66-5 1.12s-2.43-2.67-2.9-4.31c-.52-1.85-.07-3.95-.34-5.9-.85-6.1 1.06-8.69 7.23-9.19 2.53-.2 5.09 0 7.63-.46-6.27-4.36-12.74-2.83-19.44.67z"/><path d="m1132.61 386.36c-2.53-.38-5.27-.29-7.53-1.28-1.78-.79-4.15-2.86-4.22-4.44-.38-8.62-.44-17.29 0-25.9.3-5.51 3.87-9.17 9.22-10.54 5.59-1.44 10.37.35 13.48 5.17 2.13 3.32 4.24 7 5.09 10.75 2.1 9.34 3.47 18.85 5.3 29.17l-13.24-3.24-.35 1.36a27.8 27.8 0 0 0 3.91 1.26c6.8 1.21 10.72 5.56 11.69 12 1.37 9.19 2 18.5 2.92 27.76.37 3.83-2.16 4.56-5.12 4.23-4.79-.54-9.54-1.48-14.33-2a47.25 47.25 0 0 0 -10.42-.24c-4 .5-5.92-1.1-6.06-4.67-.43-11.12-.77-22.25-.66-33.37 0-1.44 2.67-3.31 4.48-4.14 1.64-.74 3.81-.32 5.75-.41z"/><path d="m1121.07 449.78c.09-1.83.08-3.67.28-5.48 1.19-10.56 3.27-12.58 14-12.12a168.77 168.77 0 0 1 18.29 2.24c4.49.69 7.14 3.48 7.45 8.08.64 9.62 1.36 19.24 1.64 28.87.15 5.28-1.21 6-6.38 5.38a70 70 0 0 0 -10.82-.61c-5.45.22-8.49-2.45-10.92-7-1.38-2.6-3.58-5.53-6.13-6.57-6.1-2.57-8.79-6.29-7.41-12.79z"/></g></g></svg>