<svg viewBox="0 0 480 385" xmlns="http://www.w3.org/2000/svg"><g transform="translate(-260.94 -52.85)"><path d="m615.2 437.85h-354.26v-385h480v385h-121.75c3.73-8.31 7.45-16.48 7.36-26-.06-6.63 2.24-13.23 8.87-16.18 8.06-3.6 12.41-9.73 14.55-17.79.91-3.42 2.51-4.35 6-3.82 7.53 1.14 14.85-.16 18.75-7.25 2.85-5.17 7-5.75 11.76-6.72 4.18-.86 8.73-1.46 12.27-3.58 9.42-5.66 17-13.53 21.49-23.63 5.45-12.27 10.64-24.72 14.89-37.44 4.32-13 7.47-26.49 3.1-40.08-1.77-5.54-6.12-10.19-8.44-15.62-10-23.48-27.69-41.21-44.58-59.5-6.61-7.15-14-8.48-21.5-4.07-4.57 2.69-8.71 2.51-13.2.36-6.89-3.29-13.85-6.43-20.71-9.78-3.19-1.56-5.83-1.46-8.68.9a132.91 132.91 0 0 1 -14.31 10.78c-3.52 2.18-7.78 4.52-11.68 4.47-9.28-.11-15.72 4.24-21.55 10.56-2.14 2.31-4.24 4.91-6.9 6.44-6.11 3.53-12.24 7.7-18.93 9.41-16.31 4.19-27.56 15.39-30.48 32.1a50.7 50.7 0 0 1 -3.15 12c-6 13.31-12.53 26.37-18.58 39.65-2.46 5.39-5.52 11-6 16.69-.84 10 .26 20.24.22 30.37 0 5.91.22 12.05-1.26 17.68-2.82 10.73-7 21.09-10.11 31.78-1 3.37-.27 7.29 0 10.94.14 2.11 1.12 4.18 1.27 6.3.22 3.27.06 6.58.06 9.87l1.95.27c8.11-17.79 11.41-37.22 17.23-55.83l14.69 14c.7-1.56.84-1.72.8-1.83-.15-.44-.24-1-.57-1.29-9.08-7-11.86-16.84-14.27-27.54-4.86-21.61-3.29-41.54 9.37-60.48 6.69-10 11-21.38 14.45-33.16 2.72-9.2 8.2-17.67 13-26.13 3-5.14 8.18-8.59 14.11-7.91 11.43 1.31 19.26-3.13 24.81-12.7a21.47 21.47 0 0 1 2.21-2.69c9.64-11.55 18.46-12.81 30.73-4.16q20 14.06 39.75 28.37c7.38 5.3 11.43 12.51 11 21.67-.3 6.78-1.21 13.54-2 20.3-1.61 13.77-3.32 27.53-5.06 41.95l-10.1-6.78-.79 1c2.11 2.26 4.27 4.47 6.3 6.8s3.94 5 .8 9c-5.59-8.55-12.41-5.24-18.74-1.82-4.23 2.29-5.43 6.68-4.92 11.76 2.35-2.8 4-6 6.65-7.54 2.15-1.29 5.65-1.36 8.16-.62 1.62.47 3.37 3.27 3.58 5.2.47 4.3-6.6 12.85-11.51 14.57-5.47 1.92-8.86-1.82-11.94-5.17-7.47-8.14-5.66-17.17-2.51-26.62a76.13 76.13 0 0 0 4-19.76c.52-9.93-.19-19.92-.45-29.89-.05-2.07-.42-4.13-.64-6.2l-1.27-.6-2.54 4.42c-4.33-4-8-7.62-11.83-11-8.08-7.11-8.66-7.35-12.93-6.75l7.45 10.2c-2.4 3.21-4.1 3.15-5.9.08a73.93 73.93 0 0 0 -4.57-6.25l-1.22.53a50.57 50.57 0 0 1 1.86 6.81 82.43 82.43 0 0 1 1.14 13.19c-.13 4.26-1.45 8.47-1.77 12.74-.5 6.61-2.4 12.27-8.23 16.18-2.69 1.8-5.07 4.08-7.59 6.15l.66 1.22a36.28 36.28 0 0 0 5.76-2.53 31.46 31.46 0 0 0 5.68-4.82c3.74-4 7.28-5.1 11.5-.51a27.37 27.37 0 0 0 6.44 4.65c8.16 4.87 6.58 12.47 5.92 19.95-.62 7.1-6.6 6.3-11 7.75-1.4.46-3 .27-4.39.82a6.87 6.87 0 0 0 -3.42 2.52c-1.15 2.1 3.43 11.56 6.62 13.22-.91-3.7-1.7-6.92-2.5-10.15l14.32-4.52c1.58 3.43 3.17 6.52 4.44 9.74 2.15 5.47 0 9.45-5.78 10.91-9.21 2.34-17.39-1.23-21.65-9.75-2.52-5-4.49-10.37-7-15.39a68.9 68.9 0 0 0 -7.1-11.84 154.79 154.79 0 0 1 -26.27-48.33 50.09 50.09 0 0 0 -2.38-5.13c-4.34 7.62 1.41 13.54 2.08 21.27l-12.02-14.24-1.34.92c2.23 4.91 4.44 9.84 6.73 14.72a2.3 2.3 0 0 0 1.49 1.18c8.35.83 11.65 7.52 15.61 13.4 6.87 10.18 7 15.64-.77 23.43-.17.17-.08.61-.12 1 1 .31 2 .64 3 1-1.7 3.13-3.28 6-4.85 8.9l.95.59 13.7-16.65c1.25 2.36 2 3.79 2.78 5.25 3.71 7.43 7.1 15 11.19 22.26 8.37 14.79 23.47 17.21 35.93 6.15 1-.87 2.59-1.78 3.73-1.6 6.43 1.06 11.25 4 13.63 10.74a36.51 36.51 0 0 0 6.75 10.85c3.86 4.62 4.31 6.38.69 11.23-5.82 7.79-13.83 11.51-23.33 12.73-8.08 1-16.1 2.5-25.14 3.94 3.61 3.39 6.19 5.83 9.53 9l-4.12 1.73.76 1.38h15.26v.9l-9.81 3 .25 1.17h10.38zm-244.14-208.18c-.82-2.51-1.28-3.88-1.71-5.26-7.9-25.52-15.34-51.19-23.82-76.51-10.06-30.06-21-59.81-31.52-89.73-1-3-2.33-4.08-5.66-4-8.63.33-17.3.34-25.93 0-4.22-.15-5.53 1.36-5.49 5.36s-.53 8.28-.82 12.43q-5.49 78.53-10.95 157.06c-.87 12.55-1.67 25.1-2.52 37.89h26.59c3.39-61.19 6.76-122 10.17-183.77 16.06 62.66 39.23 122 58.85 182.9 5.89 0 11.53-.16 17.16.07 3 .12 4.41-.94 5.4-3.78 4.4-12.53 9.09-24.95 13.56-37.45q20.06-56 40-112.1c3.46-9.78 6.27-19.79 9.36-29.62q4.65 91.94 9.31 183.68h27.12c0-1.44.05-2.43 0-3.42q-3.75-60.17-7.53-120.33c-1.76-28.18-3.52-56.36-5.13-84.55-.2-3.47-1.36-4.49-4.77-4.41-8.81.23-17.63.26-26.44 0-3.47-.1-4.87 1.17-6 4.33-20.17 56.48-43.29 111.88-59.23 171.21zm204.7 170c.09-.34.19-.69.28-1a9.69 9.69 0 0 1 -1.57-1c-1.33-1.2-2.61-2.46-3.91-3.7a22.57 22.57 0 0 1 4.57-2c5.53-1.09 11.22-1.53 16.65-3 13.45-3.6 20-20.15 12.14-30.08-.26.2-.65.34-.74.59-.53 1.39-1.06 2.79-1.45 4.23-3.42 12.57-11.35 20.71-24.3 22.58-8.48 1.23-17.2.81-25.8 1.26-2.72.15-5.41.72-8.12 1.1l.12 1.36 5.12 2.74-3.93 1.59.87 1.5h20.36l.2 1.51-15.64 3 .28 1.52zm61.42-158.88c9.86 2.54 13.53 1.22 14.33-4.91l-9.08-1.17-.26 1.38 3.55 2.25zm-59.35 62.61 1.39 1.89 13.17-9.88-1.26-1.72z" fill="#fff"/><path d="m615.2 437.85v-26.68h-10.31l-.25-1.17 9.81-3v-.9h-15.3l-.76-1.38 4.12-1.73c-3.34-3.13-5.92-5.57-9.53-9 9-1.44 17.06-2.91 25.14-3.94 9.5-1.22 17.51-4.94 23.33-12.73 3.62-4.85 3.17-6.61-.69-11.23a36.51 36.51 0 0 1 -6.76-10.77c-2.38-6.74-7.2-9.68-13.63-10.74-1.14-.18-2.75.73-3.73 1.6-12.46 11.06-27.56 8.64-35.93-6.15-4.09-7.22-7.48-14.83-11.19-22.26-.74-1.46-1.53-2.89-2.78-5.25l-13.7 16.65-.95-.59c1.57-2.89 3.15-5.77 4.85-8.9-1-.34-2-.67-3-1 0-.42 0-.86.12-1 7.77-7.79 7.64-13.25.77-23.43-4-5.88-7.26-12.57-15.61-13.4a2.3 2.3 0 0 1 -1.49-1.18c-2.29-4.88-4.5-9.81-6.73-14.72l1.34-.92 11.94 14.22c-.67-7.73-6.42-13.65-2.08-21.27a50.09 50.09 0 0 1 2.38 5.13 154.79 154.79 0 0 0 26.27 48.33 68.9 68.9 0 0 1 7.1 11.84c2.55 5 4.52 10.35 7 15.39 4.26 8.52 12.44 12.09 21.65 9.75 5.74-1.46 7.93-5.44 5.78-10.91-1.27-3.22-2.86-6.31-4.44-9.74l-14.37 4.52c.8 3.23 1.59 6.45 2.5 10.15-3.19-1.66-7.77-11.12-6.62-13.22a6.87 6.87 0 0 1 3.42-2.52c1.35-.55 3-.36 4.39-.82 4.44-1.45 10.42-.65 11-7.75.66-7.48 2.24-15.08-5.92-19.95a27.37 27.37 0 0 1 -6.44-4.65c-4.22-4.59-7.76-3.51-11.5.51a31.46 31.46 0 0 1 -5.68 4.82 36.28 36.28 0 0 1 -5.76 2.53l-.66-1.22c2.52-2.07 4.9-4.35 7.59-6.15 5.83-3.91 7.73-9.57 8.23-16.18.32-4.27 1.64-8.48 1.77-12.74a82.43 82.43 0 0 0 -1.09-13.18 50.57 50.57 0 0 0 -1.8-6.82l1.22-.53a73.93 73.93 0 0 1 4.57 6.25c1.8 3.07 3.5 3.13 5.9-.08l-7.45-10.2c4.27-.6 4.85-.36 12.93 6.75 3.84 3.37 7.5 7 11.83 11l2.55-4.47 1.27.6c.22 2.07.59 4.13.64 6.2.26 10 1 20 .45 29.89a76.13 76.13 0 0 1 -4 19.76c-3.15 9.45-5 18.48 2.51 26.62 3.08 3.35 6.47 7.09 11.94 5.17 4.91-1.72 12-10.27 11.51-14.57-.21-1.93-2-4.73-3.58-5.2-2.51-.74-6-.67-8.16.62-2.63 1.57-4.3 4.74-6.65 7.54-.51-5.08.69-9.47 4.92-11.76 6.33-3.42 13.15-6.73 18.74 1.82 3.14-4 1.33-6.55-.8-9s-4.19-4.54-6.3-6.8l.79-1 10.1 6.78c1.74-14.42 3.45-28.18 5.06-41.95.78-6.76 1.69-13.52 2-20.3.41-9.16-3.64-16.37-11-21.67q-19.82-14.26-39.75-28.37c-12.27-8.65-21.09-7.39-30.73 4.16a21.47 21.47 0 0 0 -2.21 2.69c-5.55 9.57-13.38 14-24.81 12.7-5.93-.68-11.16 2.77-14.11 7.91-4.84 8.46-10.32 16.93-13 26.13-3.49 11.78-7.76 23.14-14.45 33.16-12.66 18.94-14.23 38.87-9.37 60.48 2.41 10.7 5.19 20.57 14.27 27.54.33.25.42.85.57 1.29 0 .11-.1.27-.8 1.83l-14.69-14c-5.82 18.61-9.12 38-17.23 55.83l-1.95-.27c0-3.29.16-6.6-.06-9.87-.15-2.12-1.13-4.19-1.27-6.3-.23-3.65-.93-7.57 0-10.94 3.07-10.69 7.29-21.05 10.11-31.78 1.48-5.63 1.24-11.77 1.26-17.68 0-10.13-1.06-20.32-.22-30.37.47-5.7 3.53-11.3 6-16.69 6-13.28 12.58-26.34 18.58-39.65a50.7 50.7 0 0 0 3.15-12c2.92-16.71 14.17-27.91 30.48-32.1 6.69-1.71 12.82-5.88 18.93-9.41 2.66-1.53 4.76-4.13 6.9-6.44 5.83-6.32 12.27-10.67 21.55-10.56 3.9 0 8.16-2.29 11.68-4.47a132.91 132.91 0 0 0 14.31-10.78c2.85-2.36 5.49-2.46 8.68-.9 6.86 3.35 13.82 6.49 20.71 9.78 4.49 2.15 8.63 2.33 13.2-.36 7.49-4.41 14.89-3.08 21.5 4.07 16.89 18.29 34.54 36 44.58 59.5 2.32 5.43 6.67 10.08 8.44 15.62 4.37 13.59 1.22 27.12-3.1 40.08-4.25 12.72-9.44 25.17-14.89 37.44-4.48 10.1-12.07 18-21.49 23.63-3.54 2.12-8.09 2.72-12.27 3.58-4.72 1-8.91 1.55-11.76 6.72-3.9 7.09-11.22 8.39-18.75 7.25-3.49-.53-5.09.4-6 3.82-2.14 8.06-6.49 14.19-14.55 17.79-6.63 2.95-8.93 9.55-8.87 16.18.09 9.56-3.63 17.73-7.36 26zm76.54-191.7a6.88 6.88 0 0 0 -.59-1.76c-12.9-18.31-25-37.27-39-54.71-12.82-16-30.67-15.46-42.72-.38 4.18 3.5 8.27 7.15 12.59 10.5 9.7 7.52 19.61 14.79 29.28 22.36 10.44 8.18 14.52 18.65 12.19 32.05-2.12 12.24-3.42 24.65-4.45 37-1.52 18.43-5.94 35.62-18.23 50.11a13.17 13.17 0 0 0 -2.64 6.27c-.94 6.14 2.61 12.25 8.3 15.1 6.35 3.16 14 2.69 18.38-2.62 6.81-8.31 12.93-17.22 18.9-26.17 2.57-3.86 1.08-6.07-3.82-7.39s-9.61-2.56-14.39-3.92a12.87 12.87 0 0 1 -2.54-1.39l.4-1.08 21.84 5.1c.4-1.78.83-3.18 1-4.6 2.58-18.07 5.34-36.12 7.62-54.23 1.57-12.53-.8-14.49-13.26-12.61-4.29.65-8.62 1.07-12.93 1.59l-.39-1.75c5.9-8.62 16.45-3.37 24.46-7.47zm-33.4-57.77c9.56 14 18.38 28.75 29 42 9.4 11.79 13.51 24 10.9 38.78-2.11 11.93-3.88 23.93-5.82 35.89-1.1 6.8-.24 7.87 6.09 10.29 4.61 1.76 9 4.25 13.4 6.41-.18.4-.37.79-.56 1.19l-19-6.9c-7.05 12 .66 18.37 9.87 24.48l-13 7.6-1.05-1.71 7.81-6-7.34-4.66c-2.78 4.7-5.33 9-7.87 13.29l.77 1.65c3.3-.2 7.24.68 9.78-.82 5.33-3.16 10.92-6.8 14.64-11.6 14.42-18.62 22.77-40 26.29-63.25.8-5.35-.44-7.05-5.75-7.62-3.86-.42-7.74-.62-11.62-.92 0-.54 0-1.08 0-1.62h15.44l-.08-1.22-15.19-1.34v-1.24l15.89-1.4c-1.89-4.23-3-7.89-5-11q-11.34-18.16-23.15-36c-6.63-10-13.81-19.54-24.29-26-6.98-4.43-12.89-4.1-20.16 1.72zm-49.17 89 1.57-.65 3.55 3.19c2.73-8.72 1-16.51-4.33-19.94-1.27 3.22-2.53 6.41-3.78 9.6l-1.33-.44c.71-3.52 1.73-7 2-10.57a6.16 6.16 0 0 0 -2.33-4.55c-.59-.46-3.21.73-4.09 1.82-8.27 10.24-6.33 26.42 4.49 35.16 2.55 2.06 8.06 4.54 9.2 3.5 3.35-3 .43-6.84-1.51-10.16-1.33-2.2-2.31-4.61-3.44-6.94z"/><path d="m371.06 229.67c16-59.33 39.06-114.73 59.19-171.15 1.13-3.16 2.53-4.43 6-4.33 8.81.27 17.63.24 26.44 0 3.41-.08 4.57.94 4.77 4.41 1.61 28.19 3.37 56.37 5.13 84.55q3.75 60.17 7.53 120.33c.06 1 0 2 0 3.42h-27.12q-4.65-91.76-9.31-183.68c-3.09 9.83-5.9 19.84-9.36 29.62q-19.8 56.11-40 112.1c-4.47 12.5-9.16 24.92-13.56 37.45-1 2.84-2.39 3.9-5.4 3.78-5.63-.23-11.27-.07-17.16-.07-19.62-60.86-42.79-120.24-58.85-182.9-3.36 61.8-6.74 122.59-10.13 183.8h-26.59c.85-12.79 1.65-25.34 2.52-37.89q5.46-78.56 10.95-157.11c.29-4.15.85-8.29.82-12.43s1.27-5.51 5.49-5.36c8.63.31 17.3.3 25.93 0 3.33-.12 4.62 1 5.66 4 10.47 29.92 21.46 59.67 31.52 89.73 8.48 25.32 15.92 51 23.82 76.51.43 1.34.89 2.71 1.71 5.22z"/><path d="m575.76 399.65-24.87 2.25-.28-1.52 15.64-3-.2-1.51h-20.36l-.87-1.5 3.93-1.59-5.12-2.78-.12-1.36c2.71-.38 5.4-.95 8.12-1.1 8.6-.45 17.32 0 25.8-1.26 13-1.87 20.88-10 24.3-22.58.39-1.44.92-2.84 1.45-4.23.09-.25.48-.39.74-.59 7.85 9.93 1.31 26.48-12.14 30.08-5.43 1.45-11.12 1.89-16.65 3a22.57 22.57 0 0 0 -4.57 2c1.3 1.24 2.58 2.5 3.91 3.7a9.69 9.69 0 0 0 1.57 1c-.04.34-.19.65-.28.99z"/><path d="m637.18 240.77 8.54-2.45-3.55-2.25.26-1.38 9.08 1.17c-.8 6.14-4.51 7.45-14.33 4.91z"/><path d="m577.83 303.38 13.3-9.71 1.26 1.72-13.17 9.88z"/><g fill="#fff"><path d="m691.74 246.15c-8 4.1-18.56-1.15-24.41 7.52l.39 1.75c4.31-.52 8.64-.94 12.93-1.59 12.46-1.88 14.83.08 13.26 12.61-2.28 18.11-5 36.16-7.62 54.23-.2 1.42-.63 2.82-1 4.6l-21.84-5.1-.4 1.08a12.87 12.87 0 0 0 2.54 1.39c4.78 1.36 9.59 2.64 14.39 3.92s6.39 3.53 3.82 7.39c-6 8.95-12.09 17.86-18.9 26.17-4.36 5.31-12 5.78-18.38 2.62-5.69-2.85-9.24-9-8.3-15.1a13.17 13.17 0 0 1 2.64-6.27c12.29-14.49 16.71-31.68 18.23-50.11 1-12.4 2.33-24.81 4.45-37 2.33-13.4-1.75-23.87-12.19-32.05-9.67-7.57-19.58-14.84-29.28-22.36-4.32-3.35-8.41-7-12.59-10.5 12-15.08 29.9-15.62 42.72.38 14 17.44 26.08 36.4 39 54.71a6.88 6.88 0 0 1 .54 1.71zm-35.3 92.16 10.36 11.25-4 8 1.29.62c2.5-4.74 10.24-7.14 7.14-14.24-2.51-5.86-8.69-6.27-14.79-5.63zm-2.82 1c-8.1.89-13 6-12.46 13.18 4.28-4.49 8.15-8.57 12.46-13.14zm24.38-18.42.25-1.44-13.16-2.88c-.11.55-.23 1.1-.34 1.66z"/><path d="m658.34 188.38c7.27-5.82 13.18-6.15 20.18-1.81 10.48 6.48 17.66 16 24.29 26q11.85 17.85 23.15 36c2 3.15 3.12 6.81 5 11l-15.89 1.4v1.24l15.19 1.34.08 1.22h-15.44v1.62c3.88.3 7.76.5 11.62.92 5.31.57 6.55 2.27 5.75 7.62-3.52 23.26-11.87 44.63-26.29 63.25-3.72 4.8-9.31 8.44-14.64 11.6-2.54 1.5-6.48.62-9.78.82l-.77-1.65c2.54-4.3 5.09-8.59 7.87-13.29l7.34 4.66-7.81 6 1.05 1.71 13-7.6c-9.21-6.11-16.92-12.44-9.87-24.48l19 6.9c.19-.4.38-.79.56-1.19-4.45-2.16-8.79-4.65-13.4-6.41-6.33-2.42-7.19-3.49-6.09-10.29 1.94-12 3.71-24 5.82-35.89 2.61-14.75-1.5-27-10.9-38.78-10.64-13.16-19.46-27.87-29.02-41.91z"/><path d="m609.17 277.4c1.13 2.33 2.11 4.74 3.41 7 1.94 3.32 4.86 7.14 1.51 10.16-1.14 1-6.65-1.44-9.2-3.5-10.82-8.74-12.76-24.92-4.49-35.16.88-1.09 3.5-2.28 4.09-1.82a6.16 6.16 0 0 1 2.33 4.55c-.24 3.55-1.26 7.05-2 10.57l1.33.44c1.25-3.19 2.51-6.38 3.78-9.6 5.36 3.43 7.06 11.22 4.33 19.94l-3.55-3.19z"/></g><path d="m656.44 338.31c6.1-.64 12.28-.23 14.82 5.6 3.1 7.1-4.64 9.5-7.14 14.24l-1.29-.62 4-8z"/><path d="m653.62 339.35c-4.31 4.57-8.18 8.66-12.46 13.18-.53-7.19 4.36-12.29 12.46-13.18z"/><path d="m678 320.89-13.25-2.66c.11-.56.23-1.11.34-1.66l13.16 2.88z"/></g></svg>