<svg viewBox="0 0 597 698" xmlns="http://www.w3.org/2000/svg"><g transform="translate(-296 -158)"><path d="m296 856v-698h597v698zm504-33.72c-.11-1.87-.22-3.74-.31-5.24-3.16 2.62-3.16 2.91.39 5.16 1.63.21 3.32.75 4.85.45.53-.1 1-2.31.86-3.49s-1.1-2-1.7-3c-.06 1.73.72 3.56.19 4.11-1.06 1.02-2.83 1.36-4.28 2.01zm-315-449.62a46.25 46.25 0 0 0 -20.47 2.18c-8.06 2.81-15.73 7-19.3 14.73-2.53 5.42-5.81 6.7-10.69 7.08a16.51 16.51 0 0 0 -2.07.42c-10.07 2.09-18.88 6.55-25.87 14.2-5.6 6.12-9.25 13.49-12.49 21a98.22 98.22 0 0 0 -5.63 17 82.31 82.31 0 0 0 -2.26 17.59c-.13 13.22.34 26.45 3.7 39.39 2.08 8 3.74 16.16 6.08 24.09a190.75 190.75 0 0 0 7.34 20.54 203.33 203.33 0 0 0 9.79 19.87 36.49 36.49 0 0 0 7.23 9.08c2 1.86 3.14 3.44 3.12 6.25q-.17 25.51 0 51a6.68 6.68 0 0 0 2.25 4.72c1.95 1.44 4.51 2.1 6.86 2.95a143.19 143.19 0 0 0 44.79 8.32c25.3.71 50.14-1.65 74-10.61 5.2-1.94 5.81-2.68 5.81-8.32 0-16.6 0-33.21 0-49.81 0-1.12.11-2.71.82-3.29 4.48-3.66 9.27-6.93 13.7-10.64 4.86-4.09 10.08-7.9 13.15-13.73 3.94-7.5 8.18-14.86 11.75-22.53 5-10.75 10.11-21.53 14.07-32.69 2.68-7.55 3.66-15.73 5-23.69.4-2.42-.52-5.1-1-7.62-1.17-5.9-2.25-11.82-3.79-17.62-.54-2.05-.69-3.46.66-5.18a64.28 64.28 0 0 0 11.16-22.66 119.15 119.15 0 0 0 3.77-22.23 82.26 82.26 0 0 0 -.48-20.39c-1.79-10.38-8.68-18.17-16.22-25-5.11-4.6-11.65-6.85-18.72-5.34-4.08.87-8 2.49-12.21 3.85-5.37-9-14-13.28-24.94-13.34-10.66-.06-20.34 2.15-27 12.17-7.74-8.39-16.67-11.54-27.21-6.62-10.13 4.84-14.03 13.69-14.7 24.88zm278.89 221.92c-2-2.78-3.68-4.88-5.14-7.1-6.51-9.91-13-19.87-19.45-29.8q-6-9.25-12.1-18.49c-6.31-9.69-12.65-19.35-18.91-29.07-5.52-8.56-11-17.17-16.41-25.77-1.85-2.92-4-4.51-7.93-4.36-9.74.39-19.51.13-29.27.13h-3.6v166.79h37.92v-114.48a30.25 30.25 0 0 1 2.57 2.91c6.44 9.85 12.82 19.73 19.23 29.6q6.2 9.52 12.4 19c4.33 6.7 8.62 13.42 12.95 20.11 3.9 6 7.87 12 11.76 18 4.86 7.55 9.71 15.1 14.45 22.73a4.14 4.14 0 0 0 4 2.32c10.86-.11 21.73 0 32.59-.06.87 0 1.74-.13 2.64-.21v-166.42h-37.7zm-20.19-399.76v-14.82c-3.78-.61-1.11 3-2.74 3.75-6 .77-8.54 2.85-8.08 6.59s4.74 5.45 10.82 4.48zm-12.12-5.5c-.18-4.21-1.43-5.71-4.56-5.91a6.11 6.11 0 0 0 -6.38 4.76c-.54 3 1.32 5.58 4.82 6.56 3.22.91 4.55.58 5.41-1.46-2.54-.8-6.37.68-7.1-4zm39-4.12 5.9 1.3-.19.86c-1.15.29-2.3.63-3.47.85-2 .39-3.36 1.36-3.25 3.6s1.6 2.74 3.43 3.09c6.31 1.23 6.72.93 6.69-5.37 0-4.55-3.78-7.3-8-5.83-.4.14-.61.84-1.06 1.5zm-21.36-1.3c-2.07-.61-3.13-.35-3 1.77.11 1.9 0 3.82 0 5.73a4.15 4.15 0 0 0 4.89 3.88c1.69-.26 3.39-.41 5.6-.67 0-3 0-6.4 0-9.77 0-.4-.68-.78-1-1.17-.33.42-.91.82-.94 1.26-.11 1.81-.09 3.62-.06 5.43 0 2.61-2.2 2.28-3.67 2.55-.42.08-1.57-1.45-1.67-2.33a59.12 59.12 0 0 1 -.1-6.68zm60.36 10.65 1.38-.06c0-2.91.32-5.87-.18-8.69-.16-.88-2.8-2.23-3.79-1.89-3 1-4.42.72-4.25-2.74 0-.3-.39-.62-1-1.58v14.76h.85c.1-1 .26-2 .27-3 .07-4.59 1-6.19 4-5.83 3.73.44 1.81 3.55 2.26 5.52.28 1.16.35 2.34.51 3.51zm20.72-4.93-.44 1.15c1.33.69 2.61 1.48 4 2 1.12.45 2.46 1.07 3.52.82a10.86 10.86 0 0 0 4.71-2.38c.59-.55.52-2.69-.08-3.44-1-1.19-2.63-1.81-4.3-2.86.32 4.65.32 4.65-3.94 4.66zm-61.78 4.48-.3-.88c-2.68-.59-6.65.21-6.68-3.85 0-3.85 3.77-3.3 6.57-4.27a3.21 3.21 0 0 0 -2.22-1.4c-4 .17-7.44 2.77-7.5 5.52-.07 3 3 5.5 7.48 5.82.91.06 1.82-.61 2.7-.94zm13.51.63c2.26.2 2.45.19 2.25-2.29-.28-3.28.08-5.9 4-6.64.48-.09.75-1.3 1-1.72h-7.22zm62.68-12.83 6.83 6 5.25-4.33-.81-1.13zm-45.44 11.92c-3.34-.91-7-.48-7.19-4.18-.27-4.27 3.77-3.69 6.6-4.62-2.66-1.36-6.32-.72-7.83 1.74a6.25 6.25 0 0 0 -.32 5c1.07 2.37 4.91 3.24 8.79 2.06zm-476.96 26.18 1.11-.07v-20.22h-1.11zm129.6-36.34c-.62 1.83-1.13 3.31-1.63 4.8l-5.47-2a5.65 5.65 0 0 0 4.31 3.88c1.92.4 4 0 4.55-2.28.39-1.75.52-3.81-1.76-4.41zm35.94-.11c.66 2.22 1.45 4.11-1 5-3.45 1.31-2.84-2.27-4-3.74-1.48 2.49-1.1 3.7 1.4 5 2.32 1.24 5.34.36 6.09-1.89.66-1.92.46-3.67-2.49-4.38zm333.27-3.48c-1.88 3.46-1.8 13.11 0 15.2zm-470 41.3 1.1-.24c1.29-6.87.6-10.59-2.53-11.57.52 4.05.99 7.93 1.46 11.8zm510 596.49c-1.53 1.49-2.88 2.81-4.24 4.12l-3.61-4.6c0 1.58-.46 3.1.1 3.82a4.78 4.78 0 0 0 6.09 1.64c2.37-1.05 2.44-2.84 1.69-4.99zm-452-632.28c-.76 2.34.08 4.19 2.39 4.78s4.75-.48 5.06-2.46.31-3.93-2.12-4.41c.24 1.36.94 2.76.51 3.49-.54.94-2.35 2.1-3 1.81-1.2-.53-1.96-2.07-2.86-3.22zm-50.25-2.92a29.29 29.29 0 0 1 .13 5.34c-.06.39-2.32 1-2.63.7a25.2 25.2 0 0 1 -2.67-4.45c0 1.29-.41 2.84.1 4 .84 1.88 2.87 3 4.7 1.94a6.47 6.47 0 0 0 2.61-4.24c.12-.95-1.48-2.22-2.26-3.3zm73.14.84 1.79 2.51c-1.41 3.23-3.41 3.72-6.19 1.53.79 2.47 2.51 3.43 4.56 2.74a5.4 5.4 0 0 0 3-3c.5-1.7-.17-3.34-3.17-3.79zm-108.31 1.31c-.7 2.3-1.6 4.67-4.35 4-2.49-.58-2.13-2.86-1.09-5.42-2.14 2-2.15 3.76-1 5.51 1.26 2 3.33 2 5.11 1.22 2.4-1 2.19-3.12 1.33-5.31zm72.3-1.65c1 2.7 1.48 4.91-1.33 5.68s-3.36-1.46-4.08-4.22c-.74 3.17 0 4.94 2.22 5.64 1.9.6 4 .43 4.94-1.68.81-1.78.68-3.58-1.75-5.42zm-61.13 4.3c.26 1.67 1.66 2.76 3.86 3s3.66-.69 4-2.71c.2-1.21-.47-2.57-.75-3.9-.83 1.93-1.17 4.2-2.05 4.43-1.52.38-3.37-.48-5.06-.82zm408.23 631.59a3.5 3.5 0 0 0 3.32 4.2c2.2.19 4.06-.15 4.2-3 .1-2.2 0-4.11-2.38-4 .34 1.33 1 2.71.9 4-.07.68-1.9 1.9-2.37 1.67a19.12 19.12 0 0 1 -3.67-2.87zm24.57-2.44c.63 2.18 1 4.48-1.57 5.29-2.76.88-3.49-1.59-4.18-4.43-.8 2.91-.29 4.93 1.73 5.41 1.56.37 4.07-.07 5-1.15a3.4 3.4 0 0 0 -.98-5.12zm68.65 5.39c1.56 2.06 3.8 1.67 5.43.59 1-.63 1.28-2.65 1.29-4.05 0-.77-1.21-1.56-1.84-2.29-.27 2.07 0 3.86-.8 4.89-.58.75-2.46.55-4.08.86zm-148.32-3.19-.59-.15c.72 1.43 1.09 3.49 2.24 4.1a5.35 5.35 0 0 0 4.66-.42c.92-.61.91-2.64 1.29-3.93-1.71 1.39-2.92 3-4.41 3.34-.81.17-2.09-1.89-3.19-2.94zm23.7-2.49c1 4.13.81 4.43-3.47 6.62 2.5.66 4.66.71 5.63-1.84.78-1.99.36-3.87-2.14-4.78zm19.54-.07-.56.45c-.18 1.56.17 3.61-.69 4.53s-2.88.43-4.4.57l-.18.78c1.46.21 3 .81 4.35.51a3.7 3.7 0 0 0 2.34-2.51c.21-1.38-.51-2.88-.84-4.33zm90.08 0c4.52 4.18-.33 4.89-2.13 6.92 2.78.18 5 .43 5.4-2.76.29-2.05.21-3.81-3.25-4.16zm-354.32-626.25c2.54.62 4.39.14 4.72-2.79.22-1.88.22-3.57-2.79-3.82 2.13 3.28.77 5.12-1.93 6.61zm314 632.24c2.74 1.31 4.75 1.65 6.08-.19.75-1 .56-2.77.79-4.19l-1.12-.36c-.12 3.39-2.22 4.5-5.84 4.76zm-403.2-638.58c1.67 3.35 0 5.07-3.6 6.29 2.61.71 4.21.77 5-1.27.72-1.86 1.18-3.8-1.4-5.02zm30.6 39.34c-1-2.24-1.8-4.18-2.59-6-2.72 2.08-2.28 3.75 2.59 6zm406.46-29h.55v-9.21h-.55zm-448.06 17.94-1.2-.11-.54 6.81.74.06zm459.56-24.72c-2 2.37-1.76 3.72.75 5.12-.24-1.6-.48-3.34-.75-5.12zm-438.13 28.33-1.49-.32-.64 4 1.06.23zm-47.32-11.79-.83-.94-3.4 3.38.59.62z" fill="#fff"/><path d="m485 372.66c.71-11.19 4.61-20 14.83-24.81 10.54-4.92 19.47-1.77 27.21 6.62 6.61-10 16.29-12.23 27-12.17 10.93.06 19.57 4.31 24.94 13.34 4.21-1.36 8.13-3 12.21-3.85 7.07-1.51 13.61.74 18.72 5.34 7.54 6.79 14.43 14.58 16.22 25a82.26 82.26 0 0 1 .48 20.39 119.15 119.15 0 0 1 -3.77 22.23 64.28 64.28 0 0 1 -11.16 22.66c-1.35 1.72-1.2 3.13-.66 5.18 1.54 5.8 2.62 11.72 3.79 17.62.5 2.52 1.42 5.2 1 7.62-1.31 8-2.29 16.14-5 23.69-4 11.16-9 21.94-14.07 32.69-3.57 7.67-7.81 15-11.75 22.53-3.07 5.83-8.29 9.64-13.15 13.73-4.43 3.71-9.22 7-13.7 10.64-.71.58-.82 2.17-.82 3.29v49.81c0 5.64-.61 6.38-5.81 8.32-23.91 9-48.75 11.32-74 10.61a143.19 143.19 0 0 1 -44.79-8.32c-2.35-.85-4.91-1.51-6.86-2.95a6.68 6.68 0 0 1 -2.25-4.72q-.24-25.5 0-51c0-2.81-1.08-4.39-3.12-6.25a36.49 36.49 0 0 1 -7.23-9.08 203.33 203.33 0 0 1 -9.79-19.87 190.75 190.75 0 0 1 -7.47-20.6c-2.34-7.93-4-16.07-6.08-24.09-3.36-12.94-3.83-26.17-3.7-39.39a82.31 82.31 0 0 1 2.26-17.59 98.22 98.22 0 0 1 5.63-17c3.24-7.49 6.89-14.86 12.49-21 7-7.65 15.8-12.11 25.87-14.2a16.51 16.51 0 0 1 2.07-.42c4.88-.38 8.16-1.66 10.69-7.08 3.57-7.69 11.24-11.92 19.3-14.73a46.25 46.25 0 0 1 20.47-2.19zm46.77 75c2 3.3 3.64 5.76 5.06 8.34 2.57 4.65 2.3 6.31-1.47 10.1-4.43 4.45-8.92 8.83-13.35 13.29a107.42 107.42 0 0 0 -21 30 49.13 49.13 0 0 0 -4.7 24.63 30.59 30.59 0 0 0 6 16.7 56.89 56.89 0 0 1 4.37 6.86 4.64 4.64 0 0 1 -.78 5.82c-1.82 1.87-6.95 2.43-8.63.26-3.81-4.91-7.64-10-10.31-15.56-5.17-10.78-4.24-22.14-1-33.31 1.34-4.65 3.41-9.1 4.88-13-4.56-2.15-9.18-4.16-13.62-6.51a3.63 3.63 0 0 0 -4 .06c-6.63 3.47-13.34 4.45-20.44.93-6.11-3-10.7-7.78-14.78-12.88-6.82-8.51-12.87-17.6-16.52-28a108.14 108.14 0 0 1 -4.06-13.05c-.7-3.26.69-4.79 3.41-5.3 4.13-.78 7.35.31 8.08 3.19 2.54 10 7.3 18.92 12.51 27.69 3.85 6.5 8.29 12.5 14.33 17.12 5 3.82 11 2.17 12.72-3.78a57.91 57.91 0 0 0 2.6-14.05 82.34 82.34 0 0 0 -1.3-16.26 69.6 69.6 0 0 0 -6.25-19.62c-4.16-8.33-9.94-15.33-16.52-21.79-1.35-1.3-3.46-2.86-5-2.69-8.93.94-17.17 3.92-23.85 10.22-5.86 5.52-9.47 12.57-12.31 19.94-4.4 11.45-7.92 23.17-7 35.68.73 10.47.66 21 3.5 31.3 2.43 8.76 4.15 17.72 6.71 26.44a217.22 217.22 0 0 0 8 22.55 87.8 87.8 0 0 0 7.95 14.62 21.73 21.73 0 0 0 7.07 6.76c3 1.73 4 3.79 3.94 7-.08 16.2 0 32.4 0 48.6 0 1.54-.14 3 1.8 3.64 2.38.78 4.67 1.83 7.06 2.58 15 4.74 30.47 6.1 46.13 5.51 17.13-.64 33.85-3.94 50.44-8.07 2.63-.66 3.2-1.87 3.18-4.35-.1-16.6 0-33.21-.08-49.81a6.75 6.75 0 0 1 3.35-6.4c6.85-4.64 13.42-9.72 20-14.78a14.59 14.59 0 0 0 4.15-4.64c5.23-10.22 10.26-20.54 15.32-30.85.79-1.62 1.33-3.37 2.14-5 5-9.81 9.51-19.79 12-30.55.74-3.18 1.85-6.48 1.6-9.63-.43-5.53-1.77-11-2.77-16.49a21 21 0 0 0 -.82-2.56c-15.4.85-29.13-.75-34.59-18.87-8.87 12.31-20.23 12.66-33.19 8.02zm-49.11 22.81c-.15 3.31-.32 6.62-.41 9.93a4.19 4.19 0 0 0 .42 2.29c3.29 5.25 11.54 6.65 16.5 3 7.06-5.18 9.7-12 8.81-20.69-1.14-11.07-1.9-22.19-2.75-33.29a11.4 11.4 0 0 0 -2.38-6.86c-2.93-3.59-6-7.25-8-11.39-4-8.4-7.31-17.12-8.57-26.43-.31-2.31-1.23-3.29-3.61-3.37-10.12-.36-18.58 3.28-25.55 10.46-2.56 2.63-2.71 5.81-.69 7.9 1.66 1.72 3.42 3.33 5.06 5.06a72.51 72.51 0 0 1 16.83 28.24c3.52 11.43 4.3 23.29 4.3 35.2zm93.48-41.47h.44a35.18 35.18 0 0 0 0 5.72c.65 3.89 2 7.61 5.34 10a14.76 14.76 0 0 0 22.08-5.72 102.7 102.7 0 0 0 5.68-16 112.84 112.84 0 0 0 3.55-18.62c.64-7.24 1.08-14.68.13-21.84s-5.12-12.78-11-17.16c-8.72-6.44-19.68.83-20.7 10.2-2.01 17.78-3.72 35.6-5.52 53.42zm-42.42-16.4h.28v2.71c.3 5.3 0 10.72 1.08 15.86 1.58 7.62 10.37 10.3 16.56 5.6 4.83-3.67 6.53-9.27 8.43-14.48a129.88 129.88 0 0 0 5.17-19.69c2.4-12.33 4.07-24.77 3.68-37.39-.12-4-1.53-7.36-5.5-9.24a21.82 21.82 0 0 0 -19.19-.24c-5.29 2.45-9.4 5.85-9.39 12.89-.02 14.66-.72 29.32-1.12 43.97zm-13.46 11c.48-9.39 1-18.14 1.36-26.89.41-9.52.72-19.05 1-28.58a4.18 4.18 0 0 0 -.79-2.67 75.15 75.15 0 0 0 -5.69-5.74c-3.68-3.38-7.55-3.86-10.85-1.33-6.27 4.82-8.62 11.65-8.06 19.08a75 75 0 0 0 8 28.71 72.29 72.29 0 0 0 8.29 12.33c1.63 2.1 4.31 3.35 6.74 5.12zm5 36-6-8.36-.58.27 1.41 12z"/><path d="m763.89 594.58v-114.17h37.77v166.47c-.9.08-1.77.21-2.64.21-10.86 0-21.73-.05-32.59.06a4.14 4.14 0 0 1 -4-2.32c-4.74-7.63-9.59-15.18-14.45-22.73-3.89-6-7.86-12-11.76-18-4.33-6.69-8.62-13.41-12.95-20.11q-6.18-9.53-12.4-19c-6.41-9.87-12.79-19.75-19.23-29.6a30.25 30.25 0 0 0 -2.57-2.91v114.43h-37.99v-166.79h3.6c9.76 0 19.53.26 29.27-.13 3.92-.15 6.08 1.44 7.93 4.36 5.45 8.6 10.89 17.21 16.41 25.77 6.26 9.72 12.6 19.38 18.91 29.07q6 9.25 12.1 18.49c6.49 9.93 12.94 19.89 19.45 29.8 1.46 2.22 3.11 4.32 5.14 7.1z"/><path d="m743.7 194.82c-6.08 1-10.36-.88-10.82-4.51s2.13-5.82 8.08-6.59c1.63-.78-1-4.36 2.74-3.75zm-2.38-1.8v-7.09c-3.92.3-5.8 1.65-5.39 4 .52 2.98 2.85 3.18 5.39 3.07z"/><path d="m731.58 189.32h-7.81c.73 4.63 4.56 3.15 7.1 4-.86 2-2.19 2.37-5.41 1.46-3.5-1-5.36-3.52-4.82-6.56a6.11 6.11 0 0 1 6.38-4.76c3.13.15 4.38 1.65 4.56 5.86zm-2.55-2.1c-2.36-2.44-3.34-2.39-4.71 0z"/><path d="m770.63 185.2c.45-.66.66-1.36 1.06-1.5 4.27-1.47 8 1.28 8 5.83 0 6.3-.38 6.6-6.69 5.37-1.83-.35-3.32-1-3.43-3.09s1.23-3.21 3.25-3.6c1.17-.22 2.32-.56 3.47-.85l.19-.86zm1.27 5.9v.81l4.9 1.72v-4.5z"/><path d="m749.27 183.9a59.12 59.12 0 0 0 .08 6.68c.1.88 1.25 2.41 1.67 2.33 1.47-.27 3.7.06 3.67-2.55 0-1.81-.05-3.62.06-5.43 0-.44.61-.84.94-1.26.37.39 1 .77 1 1.17.09 3.37 0 6.74 0 9.77-2.21.26-3.91.41-5.6.67a4.15 4.15 0 0 1 -4.89-3.88c-.06-1.91.07-3.83 0-5.73-.06-2.12 1-2.38 3.07-1.77z"/><path d="m809.63 194.55c-.16-1.17-.23-2.35-.49-3.5-.45-2 1.47-5.08-2.26-5.52-3-.36-3.93 1.24-4 5.83 0 1-.17 2-.27 3h-.85v-14.77c.64 1 1 1.28 1 1.58-.17 3.46 1.26 3.78 4.25 2.74 1-.34 3.63 1 3.79 1.89.5 2.82.18 5.78.18 8.69z"/><path d="m830.35 189.62h3.46c4.26 0 4.26 0 3.94-4.66 1.67 1.05 3.33 1.67 4.3 2.86.6.75.67 2.89.08 3.44a10.86 10.86 0 0 1 -4.71 2.38c-1.06.25-2.4-.37-3.52-.82-1.38-.56-2.66-1.35-4-2z"/><path d="m768.57 194.1c-.88.33-1.79 1-2.65.94-4.44-.32-7.55-2.83-7.48-5.82.06-2.75 3.47-5.35 7.5-5.52a3.21 3.21 0 0 1 2.22 1.4c-2.8 1-6.6.42-6.57 4.27 0 4.06 4 3.26 6.68 3.85z"/><path d="m782.08 194.73v-10.65h7.22c-.23.42-.5 1.63-1 1.72-3.91.74-4.27 3.36-4 6.64.23 2.48.04 2.49-2.22 2.29z"/><path d="m844.76 181.9 11.27.51.81 1.13-5.25 4.33z"/><path d="m799.32 193.82c-3.88 1.19-7.72.31-8.74-2.1a6.25 6.25 0 0 1 .32-5c1.51-2.46 5.17-3.1 7.83-1.74-2.83.93-6.87.35-6.6 4.62.23 3.74 3.87 3.31 7.19 4.22z"/><path d="m322.31 220v-20.29h1.11v20.21z"/><path d="m451.91 183.65c2.28.6 2.15 2.66 1.76 4.43-.53 2.33-2.63 2.68-4.55 2.28a5.65 5.65 0 0 1 -4.31-3.88l5.47 2c.5-1.48 1.01-3 1.63-4.83z"/><path d="m487.85 183.54c2.95.71 3.13 2.46 2.47 4.44-.75 2.25-3.77 3.13-6.09 1.89-2.5-1.33-2.88-2.54-1.4-5 1.19 1.47.58 5 4 3.74 2.47-.96 1.68-2.85 1.02-5.07z"/><path d="m821.12 180.06v15.2c-1.8-2.09-1.88-11.74 0-15.2z"/><path d="m351.15 221.36c-.47-3.87-.94-7.75-1.43-11.81 3.13 1 3.82 4.7 2.53 11.57z"/><path d="m861.15 817.85c.75 2.15.68 3.94-1.66 5a4.78 4.78 0 0 1 -6.09-1.64c-.56-.72-.1-2.24-.1-3.82l3.61 4.6c1.36-1.33 2.71-2.65 4.24-4.14z"/><path d="m409.1 185.57c.93 1.15 1.66 2.69 2.84 3.21.65.29 2.46-.87 3-1.81.43-.73-.27-2.13-.51-3.49 2.43.48 2.43 2.47 2.12 4.41s-2.73 3.06-5.06 2.46-3.15-2.44-2.39-4.78z"/><path d="m358.85 182.65c.78 1.08 2.38 2.31 2.24 3.3a6.47 6.47 0 0 1 -2.61 4.24c-1.83 1.08-3.86-.06-4.7-1.94-.51-1.14-.1-2.69-.1-4a25.2 25.2 0 0 0 2.67 4.45c.31.33 2.57-.31 2.63-.7a29.29 29.29 0 0 0 -.13-5.35z"/><path d="m432 183.49c3 .45 3.68 2.09 3.12 3.77a5.4 5.4 0 0 1 -3 3c-2 .69-3.77-.27-4.56-2.74 2.78 2.19 4.78 1.7 6.19-1.53z"/><path d="m323.7 184.81c.86 2.16 1.07 4.31-1.35 5.33-1.78.76-3.85.73-5.11-1.22-1.13-1.75-1.12-3.51 1-5.51-1 2.56-1.4 4.84 1.09 5.42 2.77.65 3.67-1.72 4.37-4.02z"/><path d="m396 183.16c2.43 1.81 2.56 3.64 1.75 5.42-1 2.11-3 2.28-4.94 1.68-2.25-.7-3-2.47-2.22-5.64.72 2.76 1.38 4.95 4.08 4.22s2.33-2.98 1.33-5.68z"/><path d="m334.87 187.46c1.69.34 3.54 1.2 5.05.81.88-.23 1.22-2.5 2.05-4.43.28 1.33.95 2.69.75 3.9-.33 2-1.9 2.94-4 2.71s-3.59-1.32-3.85-2.99z"/><path d="m743.1 819.05a19.12 19.12 0 0 0 3.67 2.88c.47.23 2.3-1 2.37-1.67.13-1.3-.56-2.68-.9-4 2.37-.11 2.48 1.8 2.38 4-.14 2.85-2 3.19-4.2 3a3.5 3.5 0 0 1 -3.32-4.21z"/><path d="m767.67 816.61a3.4 3.4 0 0 1 1 5.12c-.93 1.08-3.44 1.52-5 1.15-2-.48-2.53-2.5-1.73-5.41.69 2.84 1.42 5.31 4.18 4.43 2.53-.81 2.18-3.11 1.55-5.29z"/><path d="m836.32 822c1.62-.29 3.5-.09 4.08-.86.77-1 .53-2.82.8-4.89.63.73 1.85 1.52 1.84 2.29 0 1.4-.34 3.42-1.29 4.05-1.63 1.06-3.87 1.41-5.43-.59z"/><path d="m688 818.81c1.08 1.05 2.36 3.11 3.19 2.94 1.49-.31 2.7-2 4.41-3.34-.38 1.29-.37 3.32-1.29 3.93a5.35 5.35 0 0 1 -4.66.42c-1.15-.61-1.52-2.67-2.24-4.1z"/><path d="m711.72 816.32c2.5.91 2.92 2.79 2.16 4.78-1 2.55-3.13 2.5-5.63 1.84 4.28-2.19 4.43-2.49 3.47-6.62z"/><path d="m731.26 816.25c.33 1.45 1 3 .86 4.33a3.7 3.7 0 0 1 -2.34 2.51c-1.35.3-2.89-.3-4.35-.51l.18-.78c1.52-.14 3.62.26 4.4-.57s.51-3 .69-4.53z"/><path d="m821.34 816.25c3.46.35 3.54 2.11 3.27 4.16-.4 3.19-2.62 2.94-5.4 2.76 1.79-2.03 6.65-2.74 2.13-6.92z"/><path d="m800 822.28c1.47-.65 3.24-1 4.28-2.06.53-.55-.25-2.38-.19-4.11.6 1 1.58 2 1.7 3s-.33 3.39-.86 3.49c-1.53.3-3.22-.24-4.85-.45z"/><path d="m467 190c2.75-1.51 4.11-3.35 1.93-6.61 3 .25 3 1.94 2.79 3.82-.38 2.95-2.23 3.43-4.72 2.79z"/><path d="m780.91 822.26c3.62-.26 5.72-1.37 5.75-4.74l1.12.36c-.23 1.42 0 3.15-.79 4.19-1.33 1.84-3.34 1.5-6.08.19z"/><path d="m377.8 183.66c2.58 1.22 2.12 3.16 1.4 5-.79 2-2.39 2-5 1.27 3.64-1.2 5.27-2.93 3.6-6.27z"/><path d="m408.4 223c-4.87-2.25-5.31-3.92-2.59-6 .79 1.82 1.62 3.76 2.59 6z"/><path d="m814.86 194v-9.21h.55v9.21z"/><path d="m366.8 211.94-1 6.76-.74-.06.54-6.81z"/><path d="m826.36 187.22c.27 1.82.51 3.52.75 5.12-2.51-1.4-2.73-2.75-.75-5.12z"/><path d="m388.23 215.55-1.07 3.94-1.06-.23.64-4z"/><path d="m800.06 822.2c-3.55-2.25-3.55-2.54-.39-5.16.09 1.5.2 3.37.31 5.24z"/><path d="m340.91 203.76-3.64 3.06-.59-.62 3.4-3.38z"/><g fill="#fff"><path d="m531.73 447.71c13 4.64 24.32 4.31 33.17-8 5.46 18.12 19.19 19.72 34.59 18.87a21 21 0 0 1 .82 2.56c1 5.49 2.34 11 2.77 16.49.25 3.15-.86 6.45-1.6 9.63-2.5 10.76-7.05 20.74-12 30.55-.81 1.61-1.35 3.36-2.14 5-5.06 10.31-10.09 20.63-15.32 30.85a14.59 14.59 0 0 1 -4.15 4.64c-6.56 5.06-13.13 10.14-20 14.78a6.75 6.75 0 0 0 -3.35 6.4c.06 16.6 0 33.21.08 49.81 0 2.48-.55 3.69-3.18 4.35-16.59 4.13-33.31 7.43-50.44 8.07-15.66.59-31.1-.77-46.13-5.51-2.39-.75-4.68-1.8-7.06-2.58-1.94-.63-1.8-2.1-1.8-3.64 0-16.2 0-32.4 0-48.6 0-3.22-.89-5.28-3.94-7a21.73 21.73 0 0 1 -7.05-6.78 87.8 87.8 0 0 1 -8.08-14.6 217.22 217.22 0 0 1 -8-22.55c-2.56-8.72-4.28-17.68-6.71-26.44-2.84-10.28-2.77-20.83-3.5-31.3-.88-12.51 2.64-24.23 7-35.68 2.84-7.37 6.45-14.42 12.31-19.94 6.68-6.3 14.92-9.28 23.85-10.22 1.59-.17 3.7 1.39 5 2.69 6.62 6.41 12.4 13.41 16.56 21.84a69.6 69.6 0 0 1 6.34 19.6 82.34 82.34 0 0 1 1.3 16.26 57.91 57.91 0 0 1 -2.6 14.05c-1.74 5.95-7.72 7.6-12.72 3.78-6-4.62-10.48-10.62-14.33-17.12-5.21-8.77-10-17.71-12.51-27.69-.73-2.88-4-4-8.08-3.19-2.72.51-4.11 2-3.41 5.3a108.14 108.14 0 0 0 4.06 13.05c3.65 10.42 9.7 19.51 16.52 28 4.08 5.1 8.67 9.85 14.78 12.88 7.1 3.52 13.81 2.54 20.44-.93a3.63 3.63 0 0 1 4-.06c4.44 2.35 9.06 4.36 13.62 6.51-1.47 3.86-3.54 8.31-4.88 13-3.23 11.17-4.16 22.53 1 33.31 2.67 5.57 6.5 10.65 10.31 15.56 1.68 2.17 6.81 1.61 8.63-.26a4.64 4.64 0 0 0 .78-5.82 56.89 56.89 0 0 0 -4.37-6.86 30.59 30.59 0 0 1 -6-16.7 49.13 49.13 0 0 1 4.7-24.63 107.42 107.42 0 0 1 21-30c4.43-4.46 8.92-8.84 13.35-13.29 3.77-3.79 4-5.45 1.47-10.1-1.46-2.58-3.08-5.05-5.1-8.34z"/><path d="m482.62 470.52c0-11.91-.78-23.77-4.35-35.15a72.51 72.51 0 0 0 -16.83-28.24c-1.64-1.73-3.4-3.34-5.06-5.06-2-2.09-1.87-5.27.69-7.9 7-7.18 15.43-10.82 25.55-10.46 2.38.08 3.3 1.06 3.61 3.37 1.26 9.31 4.6 18 8.57 26.43 2 4.14 5.08 7.8 8 11.39a11.4 11.4 0 0 1 2.38 6.86c.85 11.1 1.61 22.22 2.75 33.29.89 8.66-1.75 15.51-8.81 20.69-5 3.65-13.21 2.25-16.5-3a4.19 4.19 0 0 1 -.42-2.29c.1-3.31.27-6.62.42-9.93z"/><path d="m576.14 429c1.8-17.81 3.51-35.63 5.44-53.43 1-9.37 12-16.64 20.7-10.2 5.92 4.38 10.11 10.14 11 17.16s.51 14.6-.13 21.84a112.84 112.84 0 0 1 -3.51 18.63 102.7 102.7 0 0 1 -5.64 16 14.76 14.76 0 0 1 -22 5.73c-3.37-2.4-4.69-6.12-5.34-10a35.18 35.18 0 0 1 0-5.72z"/><path d="m533.72 412.59c.4-14.65 1.1-29.31 1.08-44 0-7 4.1-10.44 9.39-12.89a21.82 21.82 0 0 1 19.19.24c4 1.88 5.38 5.23 5.5 9.24.39 12.62-1.28 25.06-3.68 37.39a129.88 129.88 0 0 1 -5.2 19.72c-1.9 5.21-3.6 10.81-8.43 14.48-6.19 4.7-15 2-16.56-5.6-1.07-5.14-.78-10.56-1.08-15.86-.05-.9 0-1.8 0-2.71z"/><path d="m520.26 423.63c-2.43-1.77-5.11-3-6.78-5.09a72.29 72.29 0 0 1 -8.29-12.33 75 75 0 0 1 -8-28.71c-.56-7.43 1.79-14.26 8.06-19.08 3.3-2.53 7.17-2.05 10.85 1.33a75.15 75.15 0 0 1 5.69 5.74 4.18 4.18 0 0 1 .79 2.67c-.27 9.53-.58 19.06-1 28.58-.34 8.75-.84 17.5-1.32 26.89z"/><path d="m525.29 459.61-5.21 3.87-1.41-12 .58-.27z"/><path d="m741.32 193c-2.54.09-4.87-.11-5.39-3.1-.41-2.34 1.47-3.69 5.39-4z"/><path d="m729 187.22h-4.71c1.4-2.39 2.38-2.44 4.71 0z"/><path d="m771.9 191.1 4.87-2v4.5l-4.9-1.72z"/></g></g></svg>