<svg viewBox="0 0 192 249" xmlns="http://www.w3.org/2000/svg"><g transform="translate(-1008 -364)"><path d="m1108 613h-100v-249h192v76c-3-8.1-8.53-13-17.54-12.86s-10-.48-13.93-8.86c-2.77-5.86-4.58-13-9.07-17-10-9.1-21.37-16.83-32.45-24.73-4.42-3.15-9.46-3.34-14.56-.38-5.86 3.4-12 3.33-18.12.19-7-3.57-9.35-3.09-14.65 2.79-1.88 2.09-3.12 4.76-5 6.82-3.69 4-7.17 8.41-11.57 11.44-9.87 6.79-20.41 12.6-30.34 19.33-2.9 2-5.88 5.35-6.7 8.62-4.94 19.66-5.87 39.7-5.46 59.95.3 14.28-.84 28.6-1.75 42.88-.51 8-2.17 15.82-2.76 23.77-.45 6.23 2.26 11.46 6.14 16.43a24.31 24.31 0 0 1 4.77 11.06c.66 4.5-.41 9.25-.6 13.9-.12 3.13 0 6.26 0 9.4 6.87-7.91 4.61-17.44 5.75-26.42h5.45l-5.27-4.13 8.76 1.09a24.73 24.73 0 0 0 -7-5.17c-11.79-6-13.17-8.94-11.78-22.05 3.38-31.86 9.93-63.13 17.69-94.15a24.82 24.82 0 0 1 6.12-11.22c11.7-11.62 23.88-22.76 35.94-34 1.75-1.63 3.82-2.92 5.89-4.49l5.15 8.26v-11c10.83 2.46 21.2 4.63 31.47 7.22 10.75 2.7 19.57 8.25 25 18.36.71 1.33 1.9 2.4 3.75 4.65l-1.59-7.35 7.75 6.94-4.11 2.17 4.58 3.45c-4.88 11.69-11.6 13.94-21.93 7.55a31.3 31.3 0 0 1 -5-3.27c-2.61-2.43-5-5.16-7.53-7.9-9.77 4-20.39 6.83-29.21-5.36 1.43 6.38 8 11.61.47 18.27-6 5.3-11.42 6.05-18.73.67.89 5.1 1.52 8.67 2.35 13.43l2.44-6.28c2.28 4.17 1.51 20-1.11 22.84-1 1.14-2.75 1.7-4.23 2.38-2.75 1.27-5.55 2.44-8.34 3.64l.36 1.05h8.5l-.85 4 4.76-2.27c1.49 2.84 2.9 5.46 4.24 8.11 3.6 7.13 6.67 14.58 10.85 21.35 9.74 15.74 9.31 31.87 3 48.41-3.83 10-11 16.45-21.38 19.34-2.8.77-5.55 1.71-8.31 2.57l.17 1.62c1.9 0 4 .5 5.67-.1 3.75-1.33 7.23-3.42 11-4.75a6.67 6.67 0 0 1 4.8.53c2.16 1.13 4 2.9 6.19 4.58l-3.12 1.09 4 2.95-4.17 1.36c2.78.67 4.88.64 6.22 1.64 1.58 1.16 3.71 3.39 3.49 4.84-.99 5.89.93 10.85 3.44 15.8z" fill="#fff"/><path d="m1200 442v171h-89c-.29-5.93-.86-11.87-.81-17.8.06-7.83.92-8.77 8.63-10.11 12.54-2.16 22.41-8.44 29-19.24 3.61-5.92 7.41-12.16 9-18.77 3.08-12.43 10.08-22.27 17.81-31.88 7.9-9.82 12.27-21 12-33.61-.23-9.31 2.57-17.69 6.46-25.87 2.19-4.62 4.6-9.15 6.91-13.72z" fill="#fff"/><path d="m1200 442c-2.31 4.57-4.72 9.1-6.91 13.72-3.89 8.18-6.69 16.56-6.46 25.87.31 12.63-4.06 23.79-12 33.61-7.73 9.61-14.73 19.45-17.81 31.88-1.63 6.61-5.43 12.85-9 18.77-6.59 10.8-16.46 17.08-29 19.24-7.71 1.34-8.57 2.28-8.63 10.11 0 5.93.52 11.87.81 17.8h-3c-2.51-5-4.43-9.91-3.55-15.76.22-1.45-1.91-3.68-3.49-4.84-1.34-1-3.44-1-6.22-1.64l4.17-1.36-4-2.95 3.12-1.09c-2.21-1.68-4-3.45-6.19-4.58a6.67 6.67 0 0 0 -4.8-.53c-3.75 1.33-7.23 3.42-11 4.75-1.69.6-3.77.1-5.67.1l-.17-1.62c2.76-.86 5.51-1.8 8.31-2.57 10.36-2.89 17.55-9.36 21.38-19.34 6.34-16.54 6.77-32.67-3-48.41-4.18-6.77-7.25-14.22-10.85-21.35-1.34-2.65-2.75-5.27-4.24-8.11l-4.76 2.27.85-4h-8.55l-.36-1.05c2.79-1.2 5.59-2.37 8.34-3.64 1.48-.68 3.19-1.24 4.23-2.38 2.62-2.89 3.39-18.67 1.11-22.84l-2.44 6.28c-.83-4.76-1.46-8.33-2.35-13.43 7.31 5.38 12.73 4.63 18.73-.67 7.55-6.66 1-11.89-.47-18.27 8.82 12.19 19.44 9.41 29.21 5.36 2.58 2.74 4.92 5.47 7.53 7.9a31.3 31.3 0 0 0 5 3.27c10.33 6.39 17 4.14 21.93-7.55l-4.58-3.45 4.11-2.17-7.75-6.94 1.59 7.35c-1.85-2.25-3-3.32-3.75-4.65-5.43-10.11-14.25-15.66-25-18.36-10.27-2.59-20.64-4.76-31.47-7.22v10.94l-5.15-8.26c-2.07 1.57-4.14 2.86-5.89 4.49-12.06 11.26-24.24 22.4-35.94 34a24.82 24.82 0 0 0 -6.12 11.22c-7.76 31-14.31 62.29-17.69 94.15-1.39 13.11 0 16.1 11.78 22.05a24.73 24.73 0 0 1 7 5.17l-8.76-1.09 5.27 4.13h-5.45c-1.14 9 1.12 18.51-5.75 26.42 0-3.14-.1-6.27 0-9.4.19-4.65 1.26-9.4.6-13.9a24.31 24.31 0 0 0 -4.77-11.06c-3.88-5-6.59-10.2-6.14-16.43.59-7.95 2.25-15.82 2.76-23.77.91-14.28 2-28.6 1.75-42.88-.41-20.25.52-40.29 5.46-59.95.82-3.27 3.8-6.65 6.7-8.62 9.93-6.73 20.47-12.54 30.34-19.33 4.4-3 7.88-7.45 11.57-11.44 1.9-2.06 3.14-4.73 5-6.82 5.3-5.88 7.68-6.36 14.65-2.79 6.15 3.14 12.26 3.21 18.12-.19 5.1-3 10.14-2.77 14.56.38 11.08 7.9 22.4 15.63 32.45 24.73 4.49 4.07 6.3 11.18 9.07 17 4 8.38 4.85 9 13.93 8.86s14.7 4.78 17.7 12.88zm-144.61-30.19c-7 7.13-14.35 13.95-20.84 21.51-3.07 3.58-6 8.46-6.36 13-1.27 16.25-1.44 32.59-2 48.9a27.44 27.44 0 0 0 .32 3.49c1-.51 1.34-1 1.45-1.61 2.37-12.58 4.87-25.14 7-37.76 1.42-8.23 3.86-15.8 10.23-21.66 12.25-11.27 24.53-22.52 36.6-34 5.32-5.06 11.35-7 18.3-5.19 10.76 2.81 21.44 5.95 32.1 9.13 4.21 1.26 8.28 3 13.4 4.9-4.17-8.37-8.75-14.67-16.72-17.77-10.85-4.22-21.68-8.5-32.55-12.68a39 39 0 0 0 -5.27-1.2c.25 2.91.43 5 .6 7.13l-1 .14-1.86-6.89h-1l-1.49 9.12c-1.08-2.72-1.7-4.3-2.57-6.5l-23.73 23.13c-.81-.2-1.9-.86-2.37-.55-8 5.24-16.1 10.46-23.92 16-3.24 2.3-3.61 5.83-2.22 10.15 3.78-3.44 7-6.5 10.36-9.4 4.45-3.83 9.02-7.59 13.54-11.39zm96.9 124.79c1.48-.55 3.63-.67 4.34-1.73 7.19-10.83 14.44-21.63 21-32.83 2.44-4.16 3.49-9.29 4.4-14.12.4-2.13-1.15-4.63-2-7.56.63-1.67 1.7-4.22 2.56-6.84 2.49-7.57 4.28-15.43 7.48-22.68 5-11.3 8-12.53-8.61-18.12-4.79-1.61-7.73-.26-10.34 4.07-1.47 2.44-4.31 5.23-6.87 5.61-6.89 1-9.69 5.53-11.12 11.16-1 4-.8 8.24-1 12.38-.38 7.07 2.95 11.71 9.49 14.19 3.22 1.22 6.4 2.51 10.56 4.15-2.06.65-3.24 1.48-4.08 1.22-3.87-1.23-8-2.2-11.38-4.3-6.6-4.09-9.75-3.84-14.27 2.43-1.56 2.16-2.85 4.56-4.65 6.48-4.71 5.05-5.07 10.61-2.48 16.65 1.21 2.83 2.55 5.61 3.83 8.4l-.75.39c-1.88-2.35-3.75-4.71-6.13-7.7l.83 8.2-.76.13c-1.06-3.65-2.13-7.3-3.57-12.21-1.17 5-2 8.47-2.8 12l-.64-.17c.43-4.73.87-9.45 1.34-14.53-15.39-.28-24.52-11.24-35.25-19.6-6.43 12.05 4 18.81 6.64 27.74l1.21-.37q-2.67-6.71-5.33-13.42l1.35-.42c5.08 13.62 11.28 27 11.62 41.91a54.63 54.63 0 0 1 -14.91 39.48c10 7.76 26 7.64 37.23-.27 12.43-8.73 18.75-21.79 24.19-35.33.46-1.13-.71-2.91-1.13-4.38zm-6.36-73.05c0-8.85 0-8.82-6.7-12.84a56.87 56.87 0 0 1 -5.8-3.88c-14.66-11.58-15.46-8.73-27.76 1.82-7.8 6.69-11.43 16.2-9.08 26.13 2.47 10.42 10.72 16.74 20.84 19.63 6.93 2 12 .71 15.69-5.21a119.12 119.12 0 0 1 8.07-11.4c3.6-4.51 5.74-9.32 4.74-14.25zm16.82-34.67c-1.34-5.62-2.21-10.87-3.92-15.83-1.16-3.37-2.78-7.24-5.43-9.31a347.89 347.89 0 0 0 -28.73-20.46c-5.08-3.19-11.15-2.69-17.57.39 6.91 2.61 12.93 4.94 19 7.16 9.47 3.47 16.68 9.2 20.81 18.78a45.35 45.35 0 0 0 15.84 19.27zm-52.84 9.12-1.66-1.87c-6.85 6.2-14.3 11.89-20.35 18.81-3.56 4.08-4 24.9-2.11 28.48 5.28-8.81 9.62-17.6 6-27.67 8.78-3.75 12.13-12.09 18.12-17.75zm54.52-7.38-1.1.84v4.45s.21 2.68.35 4.38c7.15-5 7.09-12.06.12-15.84l3 8.62-1.31 1z"/><g fill="#fff"><path d="m1152.33 536.61c.42 1.47 1.59 3.25 1.13 4.38-5.44 13.54-11.76 26.6-24.19 35.33-11.24 7.91-27.23 8-37.23.27a54.63 54.63 0 0 0 14.87-39.52c-.34-14.92-6.54-28.29-11.62-41.91l-1.35.42q2.67 6.71 5.33 13.42l-1.21.37c-2.63-8.93-13.07-15.69-6.64-27.74 10.73 8.36 19.86 19.32 35.25 19.6-.47 5.08-.91 9.8-1.34 14.53l.64.17c.82-3.49 1.63-7 2.8-12 1.44 4.91 2.51 8.56 3.57 12.21l.76-.13-.83-8.2c2.38 3 4.25 5.35 6.13 7.7l.75-.39c-1.28-2.79-2.62-5.57-3.83-8.4-2.59-6-2.23-11.6 2.48-16.65 1.8-1.92 3.09-4.32 4.65-6.48 4.52-6.27 7.67-6.52 14.27-2.43 3.39 2.1 7.51 3.07 11.38 4.3.84.26 2-.57 4.08-1.22-4.16-1.64-7.34-2.93-10.56-4.15-6.54-2.48-9.87-7.12-9.49-14.19.22-4.14 0-8.42 1-12.38 1.43-5.63 4.23-10.16 11.12-11.16 2.56-.38 5.4-3.17 6.87-5.61 2.61-4.33 5.55-5.68 10.34-4.07 16.62 5.59 13.58 6.82 8.61 18.12-3.2 7.25-5 15.11-7.48 22.68-.86 2.62-1.93 5.17-2.56 6.84.83 2.93 2.38 5.43 2 7.56-.91 4.83-2 10-4.4 14.12-6.56 11.2-13.81 22-21 32.83-.71 1.06-2.86 1.18-4.33 1.73l-8.62-16.24-1.85 1.17zm-54.62 37.21 1.41 1 9.44-13.8-1.26-.85q-4.79 6.83-9.59 13.65z"/><path d="m1145.93 463.55c1 4.93-1.14 9.74-4.74 14.25a119.12 119.12 0 0 0 -8.07 11.4c-3.66 5.92-8.76 7.18-15.69 5.21-10.12-2.89-18.37-9.21-20.84-19.63-2.35-9.93 1.28-19.44 9.08-26.13 12.3-10.55 13.1-13.4 27.76-1.82a56.87 56.87 0 0 0 5.8 3.88c6.71 4.02 6.77 3.99 6.7 12.84z"/><path d="m1060 407 23.82-23.18c.87 2.2 1.49 3.78 2.57 6.5l1.49-9.12h1l1.86 6.89 1-.14c-.17-2.11-.35-4.22-.6-7.13a39 39 0 0 1 5.27 1.2c10.87 4.18 21.7 8.46 32.55 12.68 8 3.1 12.55 9.4 16.72 17.77-5.12-1.89-9.19-3.64-13.4-4.9-10.66-3.18-21.34-6.32-32.1-9.13-7-1.81-13 .13-18.3 5.19-12.07 11.48-24.35 22.73-36.6 34-6.37 5.86-8.81 13.43-10.23 21.66-2.16 12.62-4.66 25.18-7 37.76-.11.57-.43 1.1-1.45 1.61a27.44 27.44 0 0 1 -.32-3.49c.54-16.31.71-32.65 2-48.9.36-4.5 3.29-9.38 6.36-13 6.49-7.56 13.84-14.38 20.84-21.51z"/><path d="m1162.75 428.88a45.35 45.35 0 0 1 -15.84-19.27c-4.13-9.58-11.34-15.31-20.81-18.78-6.07-2.22-12.09-4.55-19-7.16 6.42-3.08 12.49-3.58 17.57-.39a347.89 347.89 0 0 1 28.73 20.46c2.65 2.07 4.27 5.94 5.43 9.31 1.71 4.95 2.58 10.21 3.92 15.83z"/><path d="m1109.91 438c-6 5.7-9.34 14-18.16 17.75 3.66 10.07-.68 18.86-6 27.67-1.87-3.58-1.45-24.4 2.11-28.48 6-6.92 13.5-12.61 20.35-18.81z"/><path d="m1060 407-4.6 4.79c-4.52 3.8-9.09 7.56-13.55 11.43-3.36 2.9-6.58 6-10.36 9.4-1.39-4.32-1-7.85 2.22-10.15 7.82-5.56 15.88-10.78 23.92-16 .46-.31 1.55.35 2.37.53z"/><path d="m1164.43 430.58 1 3.43 1.31-1-3-8.62c7 3.78 7 10.8-.12 15.84-.14-1.7-.3-3-.35-4.38s0-3 0-4.45z"/></g><path d="m1097.71 573.82q4.8-6.84 9.59-13.69l1.26.85-9.44 13.8z"/><path d="m1152.33 536.61-10.5-15.08 1.85-1.17 8.62 16.24z"/></g></svg>