<svg viewBox="0 0 480 343" xmlns="http://www.w3.org/2000/svg"><g transform="translate(-285.65 -261.26)"><path d="m409.27 261.26h356.38v343h-480v-343h114.63c-1.78.29-3.56.7-5.36.85-40.46 3.55-71.43 22.52-90.61 58.32-20.87 39-23.43 80.48-10.77 122.31 13.55 44.75 44.37 71.31 90.7 79.41 8.8 1.54 17.94 1.78 26.44 4.25 22.16 6.45 44 14 66.07 20.75 11.2 3.45 22.59 6.3 34.12 9.49l9.24-27.08-74.11-16.34c.58-1.41.6-1.66.71-1.71.9-.42 1.8-.84 2.73-1.21 24.76-9.9 43.28-26.87 54.22-51 19.8-43.68 20.53-88.31 1.94-132.45-13.73-32.59-38.51-53.6-73.25-62-7.56-1.78-15.35-2.41-23.08-3.59zm346.57 100.31.71-1.59c-2-1.8-3.74-4.27-6.09-5.28q-18.8-8-37.89-15.37a13.08 13.08 0 0 0 -8.19-.38c-21 7.07-42.63 10.39-64.57 11.84-10.26.68-18 4.55-25.23 12q-20.66 21.22-43 40.79c-9.29 8.15-14.71 16.86-12 29.49 4.14 19.48 1.66 38.56-3 57.69-1.9 7.79-2.07 16.13-2.09 24.22 0 17.24.67 34.49.77 51.73 0 7-.86 13.93-1.09 20.9-.24 7.27 4.27 11.92 10.06 14.84 5.14 2.59 9.75.18 13.9-3.62a40 40 0 0 0 13.38-27c.56-6.4 1.51-12.77 2.5-19.12 2.09-13.41 4.31-26.8 6.59-40.84 6.86 5.72 14.06 9.55 22.85 4 1.46 3 2.64 5.53 3.93 8 5.16 10 13.64 14.75 24.65 14.91 8 .12 13.22-5.8 14.2-13.75a239.3 239.3 0 0 1 5.22-29.28c4.06-16.11 10.45-31.17 23.05-42.8a19.44 19.44 0 0 0 2.39-3.18c4.7-6.61 6.4-13.75 4.08-21.71a48.88 48.88 0 0 1 -.94-6.15c1.68.17 2.8.19 3.88.42 10 2.1 17.09 8.39 23.82 15.52a9.72 9.72 0 0 0 6.37 2.41c1.07 0 3.35-2.9 3-3.79a10.13 10.13 0 0 0 -4.13-5c-8.46-4.95-17-9.82-25.74-14.24-5.73-2.91-5.08-8.07-5.55-12.87-.42-4.22 3.91-3.12 5.86-4.72.18-.14.14-.55.2-.83-8.49-2-10.92-1.28-13.36 6.27-1.42 4.37-1.41 9.48-.93 14.13.92 8.86 2.84 17.63-.15 26.81l-11.9-5.79-.55.85 2.75 3.39-3.47.87 8.27 4.47c-4 5.32-8.11 10-11.36 15.16s-5.65 10.8-8.58 16.55l-20.91-2.33-.14 1.63 21.75 2.84-.09 1.32h-15.31l-.06.3 12.82 2.26-.29 1.55-17-1.16v1.3l18.49 1.73-6.54 19.73c-7.54-6.95-10.85-7.35-15.13-2.52 4 1.4 9.82 1.73 11.73 4.64 2 3.07.14 8.61.22 13.07.08 4.28-2 5.82-6.07 6-12.21.63-21.4-8.89-20.12-22.29a58.4 58.4 0 0 1 5.46-18.46c8.68-18.76 4.5-36.63-2.75-54.45-.05-.1-.57 0-1.23 0 .54 3.17 1.07 6.27 1.67 9.82l-5.18-2.26 3.22 6.76c-9.53 1.5-12 .35-22.7-9.41l8.93 12.53-6.5 3.21c-1.36-4.62-2.55-8.71-3.75-12.8l-.72.2c.36 3.9.71 7.81 1.1 12.15l-9.16-3.46-1 1.2c5.7 2.43 8.6 6.53 7.13 12.31-4.5 17.67-9.26 35.27-13.94 52.9-.76 2.88-2.71 4-5.64 3.58-1.33-.2-2.66-.37-4.62-.64 11.32 9.94 12 13.3 7.31 27.42-1.84 5.49-3.06 11.2-4.39 16.84-1.14 4.84-1.71 9.84-3.14 14.59-1.85 6.12-5.52 11-11.88 13.19-4.65 1.58-9.9-.41-10.08-4.31-.34-7.34.21-14.71.42-23 8.22 5.12 3.32 12.06 5.07 18.37.65-2.61 1.05-4.5 1.6-6.33 1.88-6.23 1.58-11.69-4.27-16-1.24-.92-1.64-3.53-1.69-5.39-.32-11-.39-21.93-.62-32.9-.24-11.38-.28-11.38 10.26-13.84l-10.54-1.41.05-1.57 8.51-.88c-1.81-.94-3.68-1-5.32-1.65-1.35-.54-2.42-1.78-3.61-2.71a37.54 37.54 0 0 1 3.9-2.52 15.3 15.3 0 0 1 3.3-.79l-.22-1.17h-7.68c2.1-9.32 4.85-18 5.86-26.81 1.79-15.67 2.64-31.45 3.65-47.2.36-5.71 3-10.11 6.78-14 14.71-14.86 29.6-29.61 44.13-44.7a36.13 36.13 0 0 1 21.27-10.89c17.89-2.82 35.81-5.56 53.6-8.93 11.09-2.1 21.32-1.27 31.35 4.19a229.48 229.48 0 0 0 22.25 10.19c2.32.98 5.2.71 7.84 1.01zm-116 160.25 1.78.3q.65-5.72 1.3-11.42l-1.79-.2z" fill="#fff"/><path d="m409.27 261.26c7.7 1.18 15.52 1.81 23.07 3.63 34.74 8.37 59.52 29.38 73.25 62 18.59 44.14 17.86 88.77-1.94 132.45-10.94 24.12-29.46 41.09-54.22 51-.93.37-1.83.79-2.73 1.21-.11.05-.13.3-.71 1.71l74.12 16.34-9.24 27.08c-11.53-3.19-22.92-6-34.12-9.49-22.06-6.8-43.91-14.3-66.07-20.75-8.5-2.47-17.64-2.71-26.44-4.25-46.33-8.1-77.15-34.66-90.7-79.41-12.66-41.83-10.1-83.35 10.77-122.31 19.18-35.8 50.15-54.77 90.61-58.32 1.8-.15 3.58-.56 5.36-.85zm74.48 132.51c0-19.09-2.7-36.39-9.43-52.93-7.72-19-19.22-34.92-37.88-44.61-29-15.06-76.3-11.2-99.77 33-16.28 30.66-18.67 63.37-11.55 96.87 4.81 22.53 15.07 42.28 33.89 56.45 35 26.33 84.65 15.5 107.82-23.29 12.28-20.57 16.53-43.21 16.92-65.49z"/><path d="m755.84 361.57c-2.64-.3-5.52 0-7.88-1a229.48 229.48 0 0 1 -22.21-10.17c-10-5.46-20.26-6.29-31.35-4.19-17.79 3.37-35.71 6.11-53.6 8.93a36.13 36.13 0 0 0 -21.27 10.86c-14.54 15.07-29.42 29.82-44.13 44.74-3.81 3.87-6.42 8.27-6.78 14-1 15.75-1.86 31.53-3.65 47.2-1 8.84-3.76 17.49-5.86 26.81h7.68l.22 1.17a15.3 15.3 0 0 0 -3.3.79 37.54 37.54 0 0 0 -3.9 2.52c1.19.93 2.26 2.17 3.61 2.71 1.64.65 3.51.71 5.32 1.65l-8.51.88-.05 1.57 10.49 1.34c-10.54 2.46-10.5 2.46-10.26 13.84.23 11 .3 21.94.62 32.9.05 1.86.45 4.47 1.69 5.39 5.85 4.33 6.15 9.79 4.27 16-.55 1.83-1 3.72-1.6 6.33-1.75-6.31 3.15-13.25-5.07-18.37-.21 8.27-.76 15.64-.42 23 .18 3.9 5.43 5.89 10.08 4.31 6.36-2.18 10-7.07 11.88-13.19 1.43-4.75 2-9.75 3.14-14.59 1.33-5.64 2.55-11.35 4.39-16.84 4.73-14.12 4-17.48-7.31-27.42 2 .27 3.29.44 4.62.64 2.93.44 4.88-.7 5.64-3.58 4.68-17.63 9.44-35.23 13.94-52.9 1.47-5.78-1.43-9.88-7.13-12.31l1-1.2 9.16 3.46c-.39-4.34-.74-8.25-1.1-12.15l.72-.2c1.2 4.09 2.39 8.18 3.75 12.8l6.5-3.21-8.93-12.53c10.75 9.76 13.18 10.91 22.75 9.44l-3.22-6.79 5.18 2.26c-.6-3.55-1.13-6.65-1.67-9.82.66 0 1.18-.09 1.23 0 7.25 17.82 11.43 35.69 2.75 54.45a58.4 58.4 0 0 0 -5.46 18.46c-1.28 13.4 7.91 22.92 20.12 22.29 4-.21 6.15-1.75 6.07-6-.08-4.46 1.8-10-.22-13.07-1.91-2.91-7.77-3.24-11.73-4.64 4.28-4.83 7.59-4.43 15.13 2.52l6.54-19.73-18.49-1.73c0-.43 0-.87 0-1.3l17 1.16.29-1.55-12.82-2.31.06-.3h15.32l.09-1.32-21.75-2.84.14-1.63 20.91 2.33c2.93-5.75 5.35-11.41 8.58-16.55s7.33-9.84 11.36-15.16l-8.27-4.47 3.47-.87-2.75-3.39.55-.85 11.9 5.79c3-9.18 1.07-17.95.15-26.81-.48-4.65-.49-9.76.93-14.13 2.44-7.55 4.87-8.25 13.36-6.27-.06.28 0 .69-.2.83-1.95 1.6-6.28.5-5.86 4.72.47 4.8-.18 10 5.55 12.87 8.75 4.42 17.28 9.29 25.74 14.24a10.13 10.13 0 0 1 4.13 5c.31.89-2 3.81-3 3.79a9.72 9.72 0 0 1 -6.37-2.41c-6.73-7.13-13.87-13.42-23.82-15.52-1.08-.23-2.2-.25-3.88-.42a48.88 48.88 0 0 0 .94 6.15c2.32 8 .62 15.1-4.08 21.71a19.44 19.44 0 0 1 -2.39 3.18c-12.6 11.63-19 26.69-23.05 42.8a239.3 239.3 0 0 0 -5.26 29.33c-1 7.95-6.18 13.87-14.2 13.75-11-.16-19.49-4.92-24.65-14.91-1.29-2.48-2.47-5-3.93-8-8.79 5.59-16 1.76-22.85-4-2.28 14-4.5 27.43-6.59 40.84-1 6.35-1.94 12.72-2.5 19.12a40 40 0 0 1 -13.38 27c-4.15 3.8-8.76 6.21-13.9 3.62-5.79-2.92-10.3-7.57-10.06-14.84.23-7 1.12-13.93 1.09-20.9-.1-17.24-.81-34.49-.77-51.73 0-8.09.19-16.43 2.09-24.22 4.67-19.13 7.15-38.21 3-57.69-2.68-12.63 2.74-21.34 12-29.49q22.29-19.52 43-40.79c7.22-7.41 15-11.28 25.23-12 21.94-1.45 43.6-4.77 64.57-11.84a13.08 13.08 0 0 1 8.19.38q19.09 7.31 37.89 15.37c2.35 1 4.07 3.48 6.09 5.28zm-133.77 126.25c-.05-.74-.2-1.12-.08-1.37a17.28 17.28 0 0 1 1.52-2.51c5.23-6.88 4.79-14.24 1.69-21.69-1.93-4.64-5-5.55-8.34-2.1-2.92 3-6 6.53-7.13 10.37-2.56 9.06-4 18.45-5.82 27.7-1.1 5.46 1.8 9.3 5.17 13.35 1.87-2.79 3.48-5.19 5.1-7.59l.62.28-2.18 6.28c8.36.19 15.1-4.19 17.27-11.31 2.67-8.72 5.34-17.46 7.39-26.34 1-4.5.75-9.31 1.07-14.2-7.76 1.57-9.5 3.61-9.47 10.08v14.74z"/><path d="m639.89 521.82 1.29-11.32 1.79.2q-.65 5.71-1.3 11.42z"/><g fill="#fff"><path d="m483.75 393.77c-.39 22.28-4.64 44.92-16.92 65.49-23.17 38.79-72.83 49.62-107.83 23.29-18.82-14.17-29.08-33.92-33.89-56.45-7.16-33.5-4.73-66.21 11.55-96.86 23.47-44.21 70.81-48.07 99.77-33 18.66 9.69 30.16 25.6 37.88 44.61 6.74 16.53 9.4 33.83 9.44 52.92z"/><path d="m622.07 487.82 6.82-4.31c0-4.47 0-9.61 0-14.74 0-6.47 1.71-8.51 9.47-10.08-.32 4.89 0 9.7-1.07 14.2-2 8.88-4.72 17.62-7.39 26.34-2.17 7.12-8.91 11.5-17.27 11.31l2.18-6.28-.62-.28c-1.62 2.4-3.23 4.8-5.1 7.59-3.37-4.05-6.27-7.89-5.17-13.35 1.85-9.25 3.26-18.64 5.82-27.7 1.09-3.84 4.21-7.39 7.13-10.37 3.37-3.45 6.41-2.54 8.34 2.1 3.1 7.45 3.54 14.81-1.69 21.69a17.28 17.28 0 0 0 -1.52 2.51c-.13.25 0 .63.07 1.37z"/></g></g></svg>