<svg viewBox="0 0 216 268" xmlns="http://www.w3.org/2000/svg"><g transform="translate(-1101 -372)"><path d="m1119 640h-18v-268h216v268h-187c9.71-7.81 16.48-17.24 17.47-30.18.52-6.75 1.58-13.47 2.62-20.16 2.06-13.29 4.28-26.54 6.54-40.46 6.88 5.8 14.11 9.55 22.91 4 1.46 3 2.64 5.56 3.94 8 5.3 10.18 14 15 25.22 14.9 7.55 0 13-5.83 13.59-13.31 2.31-26.86 8.56-52.21 28.14-72.39a30 30 0 0 0 2.71-3.58c4.72-6.62 6.4-13.79 4.08-21.77a39.85 39.85 0 0 1 -.86-5.62c.78-.3 1.1-.53 1.38-.51a22.54 22.54 0 0 1 2.46.41c10 2.13 17.12 8.45 23.86 15.59 1.44 1.53 4.22 2.35 6.39 2.38 1.07 0 3.34-2.93 3-3.82a10.16 10.16 0 0 0 -4.18-5c-8.48-5-17-9.85-25.8-14.29-5.74-2.92-5.42-8.15-5.28-12.91 0-1.63 3.68-3.14 5.65-4.74.17-.14.12-.55.17-.84-8.65-1.91-11-1.27-13.41 6.36-1.41 4.39-1.39 9.5-.9 14.18.92 8.87 2.83 17.66-.16 26.86l-11.9-5.83-.54.88 2.71 3.39-3.42.87 7.4 4.05c-6.75 10.76-13.25 21.1-20.17 32.12l-19.92-2.24-.15 1.64 21.79 2.85-.1 1.35h-15.34l-.05.32 12.79 2.1-.16 1.58-17.09-1v1.27l18.51 1.75c-2.26 6.83-4.38 13.21-6.58 19.83-7.39-7-11-7.45-15.58-2 1.76.31 3.37.66 5 .88 8 1.1 8.46 1.65 7.84 9.86-.18 2.33-.5 4.66-.47 7 .05 3.89-2.06 5.19-5.58 5.47-10.5.83-18.87-6.07-20.55-16.9-1.21-7.8 1-15 4.38-21.7 9.79-19.18 5.92-37.84-1.46-56.49-.1-.26-.72-.33-1.55-.67.58 3.5 1.1 6.62 1.69 10.13l-5.1-2.17 3.58 7.73c-4.66-.59-8.86-.14-12-1.76-4-2.06-7.06-5.79-10.52-8.81l-.7.2 9 12.51-6.53 3.23c-1.37-4.65-2.57-8.73-3.78-12.81l-.7.21c.35 3.91.71 7.81 1.1 12.15l-9.17-3.46-1 1.23c5.73 2.43 8.58 6.55 7.1 12.36-4.52 17.72-9.29 35.37-14 53.05-.78 2.91-2.78 4-5.69 3.53-1.32-.2-2.64-.35-4.61-.61 11.21 9.62 12.08 13.43 7.52 27.07-1.89 5.66-3.18 11.53-4.57 17.35-1.15 4.85-1.72 9.87-3.15 14.63-1.8 6-5.37 10.74-11.48 13-4.61 1.73-10.16 0-10.39-3.75-.46-7.48.09-15 .25-23.52 8.25 5.21 3.39 12.15 5.16 18.6.65-2.62 1-4.35 1.5-6 1.84-6.36 1.88-12.08-4.25-16.55-1.24-.9-1.6-3.55-1.66-5.41-.34-11.33-.44-22.67-.68-34-.23-10.51-.27-10.51 9.94-11.82.1 0 .17-.19.8-1l-10.88-1.43.06-1.58 8.47-.84c-2.18-1-4.36-1.18-6.35-1.88-1-.36-1.73-1.67-2.58-2.55.83-.75 1.54-1.79 2.51-2.18a28.69 28.69 0 0 1 4.66-1.07l-.19-.78-7.68-.36c2.12-9.46 4.87-18.13 5.88-27 1.8-15.71 2.65-31.54 3.66-47.33.37-5.74 3-10.13 6.84-14 14.62-14.84 29.43-29.5 43.87-44.52a36.79 36.79 0 0 1 21.72-11.27c17.93-2.81 35.88-5.58 53.72-9 11.11-2.1 21.36-1.22 31.41 4.25a229.46 229.46 0 0 0 22.26 10.2c2.34 1 5.21.66 7.84.94l.67-1.63c-2-1.79-3.78-4.24-6.14-5.25q-18.6-8-37.51-15.23a14 14 0 0 0 -8.67-.5c-21.19 7.09-43.06 10.39-65.22 11.9-9.68.65-17.17 4.23-24.08 11.26q-21.33 21.72-44.16 42c-9 8-14.23 16.52-11.65 28.78 4.15 19.71 1.76 39-3 58.35a70 70 0 0 0 -1.93 24.26c2.47 21.53 1.68 43-.13 64.39-.78 9.65.42 17.47 8.59 23.28zm77-80.79 1.79.35q.65-5.76 1.31-11.51l-1.77-.2q-.63 5.67-1.33 11.36z" fill="#fff"/><path d="m1119 640c-8.18-5.81-9.38-13.63-8.56-23.25 1.81-21.4 2.6-42.86.13-64.39a70 70 0 0 1 1.93-24.26c4.75-19.35 7.14-38.64 3-58.35-2.58-12.26 2.67-20.82 11.65-28.78q22.78-20.21 44.16-42c6.91-7 14.4-10.61 24.08-11.26 22.16-1.51 44-4.81 65.22-11.9a14 14 0 0 1 8.67.5q18.92 7.23 37.51 15.23c2.36 1 4.11 3.46 6.14 5.25l-.67 1.63c-2.63-.28-5.5 0-7.84-.94a229.46 229.46 0 0 1 -22.26-10.2c-10.05-5.47-20.3-6.35-31.41-4.25-17.84 3.38-35.79 6.15-53.72 9a36.79 36.79 0 0 0 -21.7 11.23c-14.44 15-29.25 29.68-43.87 44.52-3.82 3.88-6.47 8.27-6.84 14-1 15.79-1.86 31.62-3.66 47.33-1 8.87-3.76 17.54-5.88 27l7.68.36.19.78a28.69 28.69 0 0 0 -4.66 1.07c-1 .39-1.68 1.43-2.51 2.18.85.88 1.55 2.19 2.58 2.55 2 .7 4.17.87 6.35 1.88l-8.47.84-.06 1.58 10.88 1.43c-.63.76-.7.94-.8 1-10.21 1.31-10.17 1.31-9.94 11.82.24 11.33.34 22.67.68 34 .06 1.86.42 4.51 1.66 5.41 6.13 4.47 6.09 10.19 4.25 16.55-.49 1.69-.85 3.42-1.5 6-1.77-6.45 3.09-13.39-5.16-18.6-.16 8.5-.71 16-.25 23.52.23 3.78 5.78 5.48 10.39 3.75 6.11-2.28 9.68-7.06 11.48-13 1.43-4.76 2-9.78 3.15-14.63 1.39-5.82 2.68-11.69 4.57-17.35 4.56-13.64 3.69-17.45-7.52-27.07 2 .26 3.29.41 4.61.61 2.91.44 4.91-.62 5.69-3.53 4.69-17.68 9.46-35.33 14-53.05 1.48-5.81-1.37-9.93-7.1-12.36l1-1.23 9.17 3.46c-.39-4.34-.75-8.24-1.1-12.15l.7-.21c1.21 4.08 2.41 8.16 3.78 12.81l6.53-3.23-9-12.51.7-.2c3.46 3 6.56 6.75 10.52 8.81 3.13 1.62 7.33 1.17 12 1.76l-3.58-7.73 5.1 2.17c-.59-3.51-1.11-6.63-1.69-10.13.83.34 1.45.41 1.55.67 7.38 18.65 11.25 37.31 1.46 56.49-3.42 6.71-5.59 13.9-4.38 21.7 1.68 10.83 10 17.73 20.55 16.9 3.52-.28 5.63-1.58 5.58-5.47 0-2.32.29-4.65.47-7 .62-8.21.18-8.76-7.84-9.86-1.64-.22-3.25-.57-5-.88 4.63-5.45 8.19-5 15.58 2 2.2-6.62 4.32-13 6.58-19.83l-18.51-1.75v-1.27l17.09 1 .16-1.58-12.79-2.1.05-.32h15.38l.1-1.35-21.84-2.82.15-1.64 19.92 2.24c6.92-11 13.42-21.36 20.17-32.12l-7.4-4.05 3.42-.87-2.71-3.39.54-.88 11.9 5.83c3-9.2 1.08-18 .16-26.86-.49-4.68-.51-9.79.9-14.18 2.46-7.63 4.76-8.27 13.41-6.36 0 .29 0 .7-.17.84-2 1.6-5.6 3.11-5.65 4.74-.14 4.76-.46 10 5.28 12.91 8.77 4.44 17.32 9.32 25.8 14.29a10.16 10.16 0 0 1 4.18 5c.31.89-2 3.84-3 3.82-2.17 0-5-.85-6.39-2.38-6.74-7.14-13.89-13.46-23.86-15.59a22.54 22.54 0 0 0 -2.46-.41c-.28 0-.6.21-1.38.51a39.85 39.85 0 0 0 .86 5.62c2.32 8 .64 15.15-4.08 21.77a30 30 0 0 1 -2.71 3.58c-19.58 20.18-25.83 45.53-28.14 72.39-.64 7.48-6 13.28-13.59 13.31-11.25.05-19.92-4.72-25.22-14.9-1.3-2.49-2.48-5-3.94-8-8.8 5.55-16 1.8-22.91-4-2.26 13.92-4.48 27.17-6.54 40.46-1 6.69-2.1 13.41-2.62 20.16-1 12.94-7.76 22.37-17.47 30.18zm76-144.17c-8.21 1.6-10 3.68-10 10.14v14.89l-7.65 4.61a27 27 0 0 1 2-3.82c5.4-6.77 5.15-14.16 2.24-21.71-2-5.22-5.15-6.15-9-2.27-2.82 2.86-5.77 6.34-6.8 10.06-2.51 9.1-4 18.5-5.83 27.79-1.1 5.47 1.79 9.34 5.16 13.44l5.14-7.66.61.3-2.17 6.28c8.53.25 15.12-4.24 17.44-11.77 2.24-7.31 4.65-14.6 6.35-22.05 1.33-5.75 1.65-11.72 2.51-18.23z"/><path d="m1196 559.21q.67-5.69 1.33-11.36l1.77.2q-.66 5.76-1.31 11.51z"/><path d="m1195 495.83c-.84 6.51-1.16 12.48-2.47 18.23-1.7 7.45-4.11 14.74-6.35 22.05-2.32 7.53-8.91 12-17.44 11.77l2.17-6.28-.61-.3-5.14 7.66c-3.37-4.1-6.26-8-5.16-13.44 1.87-9.29 3.32-18.69 5.83-27.79 1-3.72 4-7.2 6.8-10.06 3.8-3.88 6.94-2.95 9 2.27 2.91 7.55 3.16 14.94-2.24 21.71a27 27 0 0 0 -2 3.82l7.65-4.61c0-4.58 0-9.73 0-14.89-.04-6.46 1.73-8.54 9.96-10.14z" fill="#fff"/></g></svg>