<svg viewBox="0 0 480 407" xmlns="http://www.w3.org/2000/svg"><g transform="translate(-485.54 -168.75)"><path d="m965.54 406v169.4h-480v-406.65h480v212.3c-1.72-7.91-2.66-16.1-5.29-23.69-13.63-39.36-31.34-76.82-55.55-110.94a22 22 0 0 1 -4.35-14.91c.7-9.77 1.34-19.55 1.76-29.34.47-10.94-2.27-20.47-12.74-26.15a10.85 10.85 0 0 0 -11.76.3c-7.31 4.63-12.77 10.9-14.88 19.25-1.56 6.18-5 8.85-10.9 10.5-10.78 3-15.27 11.79-12 22.5 1.31 4.25 3.64 8.17 5.2 12.36 2.06 5.56 5.26 11.18 5.41 16.85.37 13.92-.6 27.88-1.28 41.81-.31 6.46-2.06 8.22-8.51 9.75-4.37 1-8.82 1.7-13.15 2.83-11.28 2.92-16.49 10.51-15.45 22.13.22 2.43.26 4.88.39 7.27-3.68 1.15-6.86 2.09-10 3.14-7.86 2.64-12 8-11.84 16.43.12 5.14.58 10.27.84 15.4.72 13.83 4.78 27.54 1.07 41.55-1.14 4.29-1.3 8.86-1.71 13.32-2 21.54.9 42.75 4.57 63.89 3.11 17.91 9.29 34.25 24 46.26 1.51 1.23 2.12 4.07 2.37 6.25 1 8.72 1.71 17.48 2.69 27.94 2.13-1.83 4.06-2.68 4.4-4a35.27 35.27 0 0 0 1.14-9.28c0-4.63-.62-9.26-.7-13.9 0-3.43 1.29-5 5.41-5.05a81.68 81.68 0 0 0 19.15-2.28c6-1.5 9.78-5.84 10.32-13.55-2.78 1.71-4.82 2.94-6.84 4.22-19.58 12.45-43.25 4.82-49.68-16.92-9.73-32.94-13.91-66.55-9-100.9.76-5.36 1.75-10.84 1.35-16.16-.82-10.75-2.62-21.42-3.82-32.14-.87-7.9 3.49-13 13.2-16.08 7.29-2.29 11-.56 15.19 6.44 4.81 8.14 9.82 16.16 14.83 24.19 3.14 5 6.44 10 9.65 14.92-4.65 1.36-9.19 2-13 4-6.78 3.49-6.68 9.15-.27 13.14-2.45-6.74-2.3-7 4.82-9.22a14.82 14.82 0 0 0 3.64-1.52c3.48-2.23 7-1.75 9.26 1.57 1 1.5 1.74 3.2 2.66 4.78 3.3 5.63 2.66 8.78-2.74 13.3-6.28 5.24-10.34 6-14.86 1.24-5.93-6.19-11.85-12.63-16.44-19.81-5.6-8.78-9.81-18.45-14.65-27.71-.76-1.46-1.7-2.82-2.56-4.23l-1.3.66c.58 6.69-1.36 13.77 5.85 19 3 2.18 4.45 6.47 6.48 9.88 3.4 5.69 6 12 10.25 17 4.07 4.77 9.47 8.67 14.87 12 4.73 2.92 5.53 4 2 8.39-4.35 5.37-5.24 8.66-3.46 13.48l15.58-18.71-7.84 2.9-.67-1.54 18.71-17.51 7.23 3.8c-10 10.15-16.75 49.69-11.44 58.07 1.13-10.76 1.53-22.64 3.83-34.13 2.37-11.85 9.23-21.56 19-29.82l2.24 9.64h.78c.46-2.87.91-5.75 1.52-9.58 3.42 7.56 6.27 14.08 9.32 20.5 1.4 3 3.59 4.65 7.27 2.73-.5-.77-.88-1.29-1.2-1.85-3.21-5.76-7.23-11.23-9.4-17.36-2.71-7.65-.89-10.29 6.41-13.75a17.69 17.69 0 0 0 1.56-.92c-7.45.35-13-1.92-16.38-8.89-3-6.22-5.2-12.4-1.91-18.92-3.41 0-6.39.12-9.35 0-14.66-.64-26.21-8.69-29.48-20.45-2.62-9.46 1.84-19.68 9.9-22.53-2.22 6.43-8.68 11.91-4.79 20.22l9.33-22.34 20.89 8.64c-2.53 7.38-4.87 14.24-7.22 21.1l1.3.53c3.34-5.67 6.6-11.4 10.1-17 .72-1.15 2.42-2.6 3.5-2.47 5.26.63 10.49 1.63 15.68 2.72 5.49 1.14 7.18 3.75 6.39 9.3-.32 2.21-.6 4.42-1 7.26l6.82-2.93c5.12 7.33 9.54 14.8 15.07 21.33 9.62 11.33 16.1 23 8 38.38l5.2-2.09c1.38 3.62 2.7 6.84 3.81 10.13a65.5 65.5 0 0 1 2.13 7.67c6.23 30.07-.86 58.34-12.07 85.93-2.91 7.15-8.92 11.51-16.68 12.88-7 1.24-14.08 2.52-21.18 3.21-17.73 1.71-21.1 4.65-31-18.59-1.63-3.83-3.34-7.62-5-11.43a38.71 38.71 0 0 0 -.18 10.72c.88 11.65 7.27 18.88 18.14 22.45 4.26 1.4 8.58 2.61 12.85 4 1.07.33 2.09.84 4 1.65l-10.62 1.13v1.79h34.52c0 7.3-.06 13.58.06 19.87 0 1.1.86 2.18 1.31 3.28.71-1.06 1.85-2 2.06-3.19 1.12-6.37 1.66-12.87 3.12-19.15 1-4.24 2.34-8.88 5-12.14a108.2 108.2 0 0 0 20.87-40.39c4.69-17.33 4.67-35.14 5.94-52.84 1-12.22 2.64-24.38 3.93-36.52zm-243.54 127.42c-2.11-5.76-4.44-10.91-5.9-16.29-6.14-22.74-12.21-45.5-17.94-68.35-4.45-17.71-8-35.64-16.94-51.88-8.59-15.64-20.33-27.82-37.21-34.51a13.25 13.25 0 0 1 -2.31-1.54c.51-.49.71-.81 1-.93 1.52-.65 3.07-1.23 4.6-1.87 38.28-16.17 60.09-44.17 62.31-86.33 2.15-41.07-19.32-74.82-57.46-90.2-16.53-6.66-33.88-9.47-51.53-10.65-32.81-2.2-65.47-.14-98 4.07-5 .65-10 1.75-14.79 2.61v355.61h46.37v-156.82c20.49.9 40.45.79 60.17 2.9s34.21 13.18 43.09 30.91a115 115 0 0 1 8.6 21.68c5.11 19.24 9.21 38.75 14.26 58 3.49 13.3 7.82 26.39 12 39.5.5 1.59 2.36 3.9 3.63 3.92 15.22.27 30.45.17 46.05.17zm150.57-170.34-19.57-6.52c6 3.96 12.3 7.01 19.57 6.52z" fill="#fff"/><path d="m965.54 406c-1.29 12.17-2.93 24.33-3.81 36.54-1.27 17.7-1.25 35.51-5.94 52.84a108.2 108.2 0 0 1 -20.87 40.39c-2.65 3.26-4 7.9-5 12.14-1.46 6.28-2 12.78-3.12 19.15-.21 1.15-1.35 2.13-2.06 3.19-.45-1.1-1.28-2.18-1.31-3.28-.12-6.29-.06-12.57-.06-19.87h-34.51v-1.79l10.62-1.13c-1.94-.81-3-1.32-4-1.65-4.27-1.35-8.59-2.56-12.85-4-10.87-3.57-17.26-10.8-18.14-22.45a38.71 38.71 0 0 1 .18-10.72c1.68 3.81 3.39 7.6 5 11.43 9.86 23.24 13.23 20.3 31 18.59 7.1-.69 14.15-2 21.18-3.21 7.76-1.37 13.77-5.73 16.68-12.88 11.21-27.59 18.3-55.86 12.07-85.93a65.5 65.5 0 0 0 -2.13-7.67c-1.11-3.29-2.43-6.51-3.81-10.13l-5.2 2.09c8.07-15.41 1.59-27.05-8-38.38-5.53-6.53-10-14-15.07-21.33l-6.82 2.93c.39-2.84.67-5.05 1-7.26.79-5.55-.9-8.16-6.39-9.3-5.19-1.09-10.42-2.09-15.68-2.72-1.08-.13-2.78 1.32-3.5 2.47-3.5 5.59-6.76 11.32-10.1 17l-1.3-.53c2.35-6.86 4.69-13.72 7.22-21.1l-20.89-8.64-9.33 22.34c-3.89-8.31 2.57-13.79 4.79-20.22-8.06 2.85-12.52 13.07-9.9 22.53 3.27 11.76 14.82 19.81 29.48 20.45 3 .14 5.94 0 9.35 0-3.29 6.52-1.08 12.7 1.91 18.92 3.34 7 8.93 9.24 16.38 8.89a17.69 17.69 0 0 1 -1.56.92c-7.3 3.46-9.12 6.1-6.41 13.75 2.17 6.13 6.19 11.6 9.4 17.36.32.56.7 1.08 1.2 1.85-3.68 1.92-5.87.23-7.27-2.73-3.05-6.42-5.9-12.94-9.32-20.5-.61 3.83-1.06 6.71-1.52 9.58h-.77l-2.36-9.61c-9.82 8.26-16.68 18-19 29.82-2.3 11.49-2.7 23.37-3.83 34.13-5.31-8.38 1.45-47.92 11.44-58.07l-7.23-3.8-18.71 17.51.67 1.54 7.84-2.9-15.58 18.71c-1.78-4.82-.89-8.11 3.46-13.48 3.52-4.35 2.72-5.47-2-8.39-5.4-3.32-10.8-7.22-14.87-12-4.23-5-6.85-11.31-10.25-17-2-3.41-3.5-7.7-6.48-9.88-7.21-5.27-5.27-12.35-5.85-19l1.3-.66c.86 1.41 1.8 2.77 2.56 4.23 4.84 9.26 9.05 18.93 14.65 27.71 4.59 7.18 10.51 13.62 16.44 19.81 4.52 4.73 8.58 4 14.86-1.24 5.4-4.52 6-7.67 2.74-13.3-.92-1.58-1.63-3.28-2.66-4.78-2.27-3.32-5.78-3.8-9.26-1.57a14.82 14.82 0 0 1 -3.64 1.52c-7.12 2.22-7.27 2.48-4.82 9.22-6.41-4-6.51-9.65.27-13.14 3.85-2 8.39-2.62 13-4-3.21-5-6.51-9.89-9.65-14.92-5-8-10-16.05-14.83-24.19-4.14-7-7.9-8.73-15.19-6.44-9.71 3-14.07 8.18-13.2 16.08 1.2 10.72 3 21.39 3.82 32.14.4 5.32-.59 10.8-1.35 16.16-4.87 34.35-.69 68 9 100.9 6.43 21.74 30.1 29.37 49.68 16.92 2-1.28 4.06-2.51 6.84-4.22-.54 7.71-4.36 12-10.32 13.55a81.68 81.68 0 0 1 -19.15 2.28c-4.12 0-5.46 1.62-5.41 5.05.08 4.64.7 9.27.7 13.9a35.27 35.27 0 0 1 -1.14 9.28c-.34 1.28-2.27 2.13-4.4 4-1-10.46-1.68-19.22-2.69-27.94-.25-2.18-.86-5-2.37-6.25-14.71-12-20.89-28.35-24-46.26-3.67-21.14-6.55-42.35-4.57-63.89.41-4.46.57-9 1.71-13.32 3.71-14-.35-27.72-1.07-41.55-.26-5.13-.72-10.26-.84-15.4-.2-8.39 4-13.79 11.84-16.43 3.13-1 6.31-2 10-3.14-.13-2.39-.17-4.84-.39-7.27-1-11.62 4.17-19.21 15.45-22.13 4.33-1.13 8.78-1.8 13.15-2.83 6.45-1.53 8.2-3.29 8.51-9.75.68-13.93 1.65-27.89 1.28-41.81-.15-5.67-3.35-11.29-5.41-16.85-1.56-4.19-3.89-8.11-5.2-12.36-3.29-10.71 1.2-19.5 12-22.5 5.91-1.65 9.34-4.32 10.9-10.5 2.11-8.35 7.57-14.62 14.88-19.25a10.85 10.85 0 0 1 11.76-.3c10.47 5.68 13.21 15.21 12.74 26.15-.42 9.79-1.06 19.57-1.76 29.34a22 22 0 0 0 4.35 14.91c24.21 34.12 41.92 71.55 55.55 110.94 2.63 7.59 3.57 15.78 5.29 23.69zm-15.82-56c-5.47-21.78-14.61-39.92-28-56-1.87-2.25-2.76-5.38-3.86-8.2-1.47-3.8-2.09-8.06-4.16-11.47-6.79-11.21-14.77-21.75-21-33.25a65.94 65.94 0 0 0 -30.79-29.33c-9.53-4.48-17.31 1-16.21 11.49 1.12 10.8 5.28 20.5 11.53 29.34 7.08 10 9.62 10.67 20.62 5.57.08 0 .32.29.78.73a48 48 0 0 1 -4.3 2.49c-4.42 2-5.19 5.12-3.4 9.36 3.22 7.65 6.64 15.23 9.39 23s7.09 12.22 15.83 10.73c.14 0 .36.38.72.8l-8.67 4.38c1.93 6.2 3.55 11.95 5.53 17.58s5.49 10.52 11.62 12.09c14.28 3.69 28.65 6.9 44.37 10.69zm-82.18 29.31c-3.56-1.67-7.31-3.31-10.95-5.16-18.92-9.63-22.22-27.75-8-43.4l1.36-1.47c2.86-3.06 4.1-6.42 1.87-10.39s-5.93-6.39-10.34-5.18a96.69 96.69 0 0 0 -17.57 6.7c-5 2.48-6.94 7.48-5.57 12.73 1.66 6.36 3.44 13 6.72 18.57 10 17 20.55 33.76 31.28 50.35a42.88 42.88 0 0 0 10.3 10.61c2 1.46 6.15 2.17 8 1.06 4-2.38 9.35-4.12 10.28-9.93a3.79 3.79 0 0 0 -.2-1.95c-2.88-7-5.82-14-8.9-21.38l-13.55 6.72c-2.52-5.89 4.58-4.32 5.27-7.92zm-12.12-94.31c0 10.57-.4 21.13.27 31.62.18 2.81 3.08 6.69 5.72 7.87 8.57 3.81 17.58 6.66 26.47 9.72a4.25 4.25 0 0 0 3.48-.53c.52-.39.36-2.17 0-3.13-4.29-11.12-8.48-22.29-13.12-33.26-4.01-9.5-12.5-13.78-22.82-12.29zm63.2 62.81c4.29 9.28 7.8 17.79 15.47 23 4.29 2.91 6.77 5.82 6.15 11 0 .22.39.49.65.8l5.05-1.5c0 3.89-.44 7.78.1 11.54.89 6.21 2.36 12.34 3.68 18.49 1.22 5.65 2.58 11.27 4 17.61a18 18 0 0 0 1.35-2.34 20.9 20.9 0 0 0 .95-3.35 156.74 156.74 0 0 0 -.95-57.41c-1.32-6.58-5.37-11-12-12.58-7.7-1.85-15.49-3.37-24.45-5.28zm-22.87-113.29c0-12.34-.33-23.08.11-33.79.34-8.35-3.62-13.73-10.08-18-4-2.63-8.25-1.79-10.32 2.56a181.61 181.61 0 0 0 -7.28 17.37 6.7 6.7 0 0 0 1.12 5.75c8.28 8.48 16.86 16.71 26.45 26.11zm-38.31 27.07c-5 17-.27 24.46 13.64 21.29-3-7.98-3.23-17.49-13.64-21.29z"/><path d="m722 533.42c-15.55 0-30.78.1-46-.17-1.27 0-3.13-2.33-3.63-3.92-4.18-13.11-8.51-26.2-12-39.5-5.05-19.25-9.15-38.76-14.26-58a115 115 0 0 0 -8.6-21.68c-8.88-17.73-23.49-28.81-43.09-30.91s-39.68-2-60.17-2.9v156.82h-46.5v-355.61c4.81-.86 9.77-2 14.79-2.61 32.55-4.21 65.21-6.27 98-4.07 17.65 1.18 35 4 51.53 10.65 38.14 15.38 59.61 49.13 57.46 90.2-2.22 42.16-24 70.16-62.31 86.33-1.53.64-3.08 1.22-4.6 1.87-.28.12-.48.44-1 .93a13.25 13.25 0 0 0 2.31 1.54c16.88 6.69 28.62 18.87 37.21 34.51 8.92 16.24 12.49 34.17 16.94 51.88 5.73 22.85 11.8 45.61 17.94 68.35 1.49 5.38 3.82 10.53 5.98 16.29zm-187.81-191.79c1.65.12 2.62.25 3.58.25 15.13 0 30.29.59 45.37-.19 10.54-.55 21.3-1.83 31.39-4.75 31.78-9.18 49.67-34.49 48.47-66.94-1.18-31.94-19.22-52.9-52.49-60.52-23.88-5.47-47.85-4-71.83-.34-4 .6-4.55 2.53-4.54 6q.14 60.76.06 121.53z"/><path d="m872.57 363.08c-7.27.49-13.56-2.56-19.54-6.52z"/><g fill="#fff"><path d="m949.72 350c-15.73-3.75-30.09-7-44.36-10.66-6.13-1.57-9.61-6.37-11.62-12.09s-3.6-11.38-5.53-17.58l8.67-4.38c-.36-.42-.58-.82-.72-.8-8.74 1.49-13.11-3-15.83-10.73s-6.17-15.39-9.39-23c-1.79-4.24-1-7.39 3.4-9.36a48 48 0 0 0 4.3-2.49c-.46-.44-.7-.77-.78-.73-11 5.1-13.54 4.42-20.62-5.57-6.25-8.84-10.41-18.54-11.53-29.34-1.1-10.5 6.68-16 16.21-11.49a65.94 65.94 0 0 1 30.79 29.22c6.22 11.5 14.2 22 21 33.25 2.07 3.41 2.69 7.67 4.16 11.47 1.1 2.82 2 5.95 3.86 8.2 13.38 16.08 22.52 34.26 27.99 56.08z"/><path d="m867.54 379.27c-.69 3.6-7.79 2-5.17 7.88l13.55-6.72c3.08 7.38 6 14.37 8.9 21.38a3.79 3.79 0 0 1 .2 1.95c-.93 5.81-6.23 7.55-10.28 9.93-1.9 1.11-6.09.4-8-1.06a42.88 42.88 0 0 1 -10.35-10.63c-10.73-16.59-21.29-33.31-31.28-50.35-3.28-5.59-5.06-12.21-6.72-18.57-1.37-5.25.61-10.25 5.57-12.73a96.69 96.69 0 0 1 17.57-6.7c4.41-1.21 8.06 1.13 10.34 5.18s1 7.33-1.87 10.39l-1.36 1.47c-14.27 15.65-11 33.77 8 43.4 3.59 1.91 7.36 3.51 10.9 5.18zm-5 8.84c-3 5.9-.85 13.5 4.62 18 3.74 3.08 6.56 2.48 9.32-2.21l-6.3 1.51c-2.62-5.84-5.07-11.41-7.67-17.3z"/><path d="m855.42 285c10.32-1.47 18.81 2.81 22.81 12.29 4.64 11 8.83 22.14 13.12 33.26.37 1 .53 2.74 0 3.13a4.25 4.25 0 0 1 -3.48.53c-8.89-3.06-17.9-5.91-26.47-9.72-2.64-1.18-5.54-5.06-5.72-7.87-.68-10.51-.26-21.07-.26-31.62z"/><path d="m918.62 347.79c9 1.91 16.75 3.43 24.48 5.26 6.63 1.56 10.68 6 12 12.58a156.74 156.74 0 0 1 .95 57.41 20.9 20.9 0 0 1 -.95 3.35 18 18 0 0 1 -1.35 2.34c-1.45-6.34-2.81-12-4-17.61-1.32-6.15-2.79-12.28-3.68-18.49-.54-3.76-.1-7.65-.1-11.54l-5.05 1.5c-.26-.31-.67-.58-.65-.8.62-5.18-1.86-8.09-6.15-11-7.7-5.21-11.21-13.72-15.5-23z"/><path d="m895.75 234.52c-9.59-9.4-18.17-17.63-26.45-26.14a6.7 6.7 0 0 1 -1.12-5.75 181.61 181.61 0 0 1 7.28-17.37c2.07-4.35 6.36-5.19 10.32-2.56 6.46 4.3 10.42 9.68 10.08 18-.44 10.74-.11 21.48-.11 33.82z"/><path d="m857.44 261.59c10.41 3.8 10.64 13.31 13.64 21.29-13.91 3.17-18.66-4.26-13.64-21.29z"/><path d="m534.19 341.63v-5q0-60.76-.06-121.53c0-3.45.53-5.38 4.54-6 24-3.62 48-5.13 71.83.34 33.27 7.62 51.31 28.58 52.49 60.52 1.21 32.46-16.68 57.77-48.46 66.95-10.09 2.92-20.85 4.2-31.39 4.75-15.08.78-30.24.2-45.37.19-.96.03-1.93-.1-3.58-.22z"/></g><path d="m862.51 388.11c2.6 5.89 5 11.46 7.64 17.32l6.3-1.51c-2.76 4.69-5.58 5.29-9.32 2.21-5.47-4.52-7.59-12.13-4.62-18.02z"/></g></svg>