<svg viewBox="0 0 182 408" xmlns="http://www.w3.org/2000/svg"><g transform="translate(-1155 -295)"><path d="m1337 532.79v169.86h-182v-407.65h182v212.82c-1.72-7.94-2.67-16.14-5.3-23.76-13.67-39.48-31.41-77-55.68-111.21a22.06 22.06 0 0 1 -4.35-15c.7-9.79 1.34-19.59 1.76-29.4.47-11-2.27-20.53-12.76-26.22a10.9 10.9 0 0 0 -11.79.3c-7.32 4.65-12.79 10.93-14.91 19.3-1.56 6.2-5 8.88-10.93 10.53-10.79 3-15.29 11.82-12 22.55 1.31 4.26 3.65 8.2 5.21 12.4 2.07 5.56 5.28 11.21 5.43 16.89.37 13.95-.6 27.94-1.28 41.91-.32 6.46-2.08 8.24-8.54 9.77-4.37 1-8.83 1.71-13.18 2.84-11.29 2.92-16.52 10.54-15.48 22.18.22 2.44.27 4.89.39 7.29-3.69 1.16-6.87 2.09-10 3.15-7.88 2.65-12.06 8.06-11.86 16.47.12 5.15.58 10.29.85 15.44.71 13.87 4.79 27.61 1.06 41.65-1.14 4.3-1.3 8.88-1.71 13.35-2 21.59.91 42.86 4.58 64.05 3.12 18 9.31 34.33 24 46.37 1.52 1.23 2.12 4.08 2.37 6.26 1 8.75 1.72 17.53 2.7 28 2.13-1.84 4.07-2.69 4.42-4a36 36 0 0 0 1.14-9.31c0-4.64-.63-9.29-.7-13.93-.06-3.45 1.28-5 5.41-5.07a81.43 81.43 0 0 0 19.19-2.28c6-1.5 9.8-5.86 10.34-13.59-2.78 1.72-4.83 2.95-6.85 4.24-19.62 12.48-43.34 4.83-49.78-17-9.75-33-13.94-66.72-9.06-101.16.76-5.36 1.75-10.86 1.35-16.2-.82-10.77-2.63-21.46-3.82-32.21-.88-7.92 3.49-13.07 13.22-16.12 7.31-2.29 11.08-.56 15.22 6.45 4.82 8.17 9.85 16.21 14.87 24.25 3.14 5.05 6.45 10 9.66 15-4.65 1.37-9.21 2-13.07 4-6.79 3.5-6.69 9.18-.26 13.17-2.46-6.76-2.31-7 4.83-9.24a15.22 15.22 0 0 0 3.65-1.52c3.48-2.24 7-1.75 9.28 1.57 1 1.5 1.74 3.21 2.66 4.79 3.3 5.65 2.66 8.81-2.75 13.33-6.29 5.26-10.36 6-14.89 1.25-5.94-6.21-11.87-12.66-16.47-19.86-5.62-8.8-9.83-18.49-14.68-27.78-.77-1.46-1.71-2.83-2.57-4.23l-1.3.66c.57 6.7-1.36 13.8 5.87 19.08 3 2.19 4.45 6.49 6.49 9.9 3.4 5.71 6 12.06 10.27 17 4.08 4.79 9.48 8.69 14.9 12 4.74 2.92 5.54 4.05 2 8.41-4.36 5.38-5.26 8.68-3.47 13.5l15.62-18.75-7.86 2.91-.67-1.54c6-5.64 12-11.28 18.74-17.56l7.25 3.81c-10 10.17-16.78 49.83-11.46 58.21 1.13-10.78 1.53-22.69 3.84-34.21 2.37-11.87 9.24-21.62 19.08-29.89l2.25 9.67h.78c.45-2.88.91-5.76 1.52-9.6 3.43 7.58 6.28 14.11 9.33 20.55 1.41 3 3.6 4.66 7.29 2.73-.5-.77-.89-1.29-1.2-1.85-3.22-5.77-7.25-11.26-9.43-17.4-2.71-7.67-.89-10.32 6.43-13.78.55-.26 1-.62 1.56-.93-7.46.36-13.06-1.92-16.41-8.91-3-6.24-5.21-12.43-1.91-19-3.42 0-6.41.11-9.38 0-14.68-.65-26.26-8.72-29.53-20.51-2.63-9.48 1.84-19.73 9.91-22.58-2.21 6.45-8.69 11.94-4.8 20.27l9.36-22.4 20.93 8.66c-2.53 7.41-4.88 14.28-7.24 21.16l1.31.53c3.35-5.69 6.61-11.43 10.11-17 .73-1.16 2.43-2.6 3.51-2.48 5.28.63 10.51 1.64 15.72 2.72 5.5 1.15 7.19 3.77 6.4 9.33-.32 2.21-.6 4.43-1 7.28l6.83-2.94c5.13 7.35 9.56 14.84 15.11 21.38 9.63 11.37 16.13 23 8 38.48l5.53-2.22c2 6.26 4.3 12 5.57 18 6.39 30.12-.8 58.48-12 86.13-2.92 7.18-8.94 11.55-16.71 12.92-7.05 1.24-14.12 2.53-21.23 3.21-17.77 1.71-21.14 4.67-31-18.63-1.63-3.84-3.36-7.64-5-11.46a38.48 38.48 0 0 0 -.19 10.74c.89 11.68 7.29 18.94 18.18 22.52 4.27 1.4 8.6 2.61 12.88 4 1.08.34 2.1.85 4 1.65l-10.64 1.14v1.79h34.59c0 7.32-.06 13.62.06 19.92 0 1.1.86 2.19 1.31 3.29.71-1.06 1.86-2.05 2.06-3.2 1.13-6.38 1.67-12.9 3.14-19.2 1-4.24 2.34-8.89 5-12.17a108.49 108.49 0 0 0 20.9-40.48c4.71-17.37 4.69-35.23 6-53 .94-12.15 2.58-24.34 3.88-36.55zm-93.15-43-19.6-6.53c6.01 3.97 12.3 7.04 19.6 6.54z" fill="#fff"/><path d="m1337 532.79c-1.3 12.21-2.94 24.4-3.82 36.64-1.27 17.74-1.25 35.6-6 53a108.49 108.49 0 0 1 -20.9 40.48c-2.66 3.28-4 7.93-5 12.17-1.47 6.3-2 12.82-3.14 19.2-.2 1.15-1.35 2.14-2.06 3.2-.45-1.1-1.28-2.19-1.31-3.29-.12-6.3-.06-12.6-.06-19.92h-34.59v-1.79l10.64-1.14c-1.94-.8-3-1.31-4-1.65-4.28-1.35-8.61-2.56-12.88-4-10.89-3.58-17.29-10.84-18.18-22.52a38.48 38.48 0 0 1 .19-10.74c1.67 3.82 3.4 7.62 5 11.46 9.88 23.3 13.25 20.34 31 18.63 7.11-.68 14.18-2 21.23-3.21 7.77-1.37 13.79-5.74 16.71-12.92 11.23-27.65 18.42-56 12-86.13-1.27-6-3.6-11.71-5.57-18l-5.53 2.22c8.09-15.45 1.59-27.11-8-38.48-5.55-6.54-10-14-15.11-21.38l-6.83 2.94c.39-2.85.67-5.07 1-7.28.79-5.56-.9-8.18-6.4-9.33-5.21-1.08-10.44-2.09-15.72-2.72-1.08-.12-2.78 1.32-3.51 2.48-3.5 5.6-6.76 11.34-10.11 17l-1.31-.53c2.36-6.88 4.71-13.75 7.24-21.16l-20.98-8.59-9.36 22.4c-3.89-8.33 2.59-13.82 4.8-20.27-8.07 2.85-12.54 13.1-9.91 22.58 3.27 11.79 14.85 19.86 29.53 20.51 3 .13 6 0 9.38 0-3.3 6.53-1.08 12.72 1.91 19 3.35 7 8.95 9.27 16.41 8.91-.52.31-1 .67-1.56.93-7.32 3.46-9.14 6.11-6.43 13.78 2.18 6.14 6.21 11.63 9.43 17.4.31.56.7 1.08 1.2 1.85-3.69 1.93-5.88.23-7.29-2.73-3.05-6.44-5.9-13-9.33-20.55-.61 3.84-1.07 6.72-1.52 9.6h-.78l-2.25-9.67c-9.84 8.27-16.71 18-19.08 29.89-2.31 11.52-2.71 23.43-3.84 34.21-5.32-8.38 1.45-48 11.46-58.21l-7.25-3.81c-6.69 6.28-12.72 11.92-18.74 17.56l.67 1.54 7.86-2.91-15.62 18.75c-1.79-4.82-.89-8.12 3.47-13.5 3.53-4.36 2.73-5.49-2-8.41-5.42-3.34-10.82-7.24-14.9-12-4.25-5-6.87-11.33-10.27-17-2-3.41-3.51-7.71-6.49-9.9-7.23-5.28-5.3-12.38-5.87-19.08l1.3-.66c.86 1.4 1.8 2.77 2.57 4.23 4.85 9.29 9.06 19 14.68 27.78 4.6 7.2 10.53 13.65 16.47 19.86 4.53 4.74 8.6 4 14.89-1.25 5.41-4.52 6-7.68 2.75-13.33-.92-1.58-1.64-3.29-2.66-4.79-2.28-3.32-5.8-3.81-9.28-1.57a15.22 15.22 0 0 1 -3.65 1.52c-7.14 2.23-7.29 2.48-4.83 9.24-6.43-4-6.53-9.67.26-13.17 3.86-2 8.42-2.62 13.07-4-3.21-5-6.52-9.91-9.66-15-5-8-10-16.08-14.87-24.25-4.14-7-7.91-8.74-15.22-6.45-9.73 3.05-14.1 8.2-13.22 16.12 1.19 10.75 3 21.44 3.82 32.21.4 5.34-.59 10.84-1.35 16.2-4.88 34.44-.69 68.14 9.06 101.16 6.44 21.79 30.16 29.44 49.78 17 2-1.29 4.07-2.52 6.85-4.24-.54 7.73-4.36 12.09-10.34 13.59a81.43 81.43 0 0 1 -19.19 2.28c-4.13 0-5.47 1.62-5.41 5.07.07 4.64.69 9.29.7 13.93a36 36 0 0 1 -1.15 9.22c-.35 1.28-2.29 2.13-4.42 4-1-10.49-1.68-19.27-2.7-28-.25-2.18-.85-5-2.37-6.26-14.74-12-20.93-28.41-24-46.37-3.67-21.19-6.56-42.46-4.58-64.05.41-4.47.57-9 1.71-13.35 3.73-14-.35-27.78-1.06-41.65-.27-5.15-.73-10.29-.85-15.44-.2-8.41 4-13.82 11.86-16.47 3.14-1.06 6.32-2 10-3.15-.12-2.4-.17-4.85-.39-7.29-1-11.64 4.19-19.26 15.48-22.18 4.35-1.13 8.81-1.81 13.18-2.84 6.46-1.53 8.22-3.31 8.54-9.77.68-14 1.65-28 1.28-41.91-.15-5.68-3.36-11.33-5.43-16.89-1.56-4.2-3.9-8.14-5.21-12.4-3.29-10.73 1.21-19.55 12-22.55 5.92-1.65 9.37-4.33 10.93-10.53 2.12-8.37 7.59-14.65 14.91-19.3a10.9 10.9 0 0 1 11.79-.3c10.49 5.69 13.23 15.25 12.76 26.22-.42 9.81-1.06 19.61-1.76 29.4a22.06 22.06 0 0 0 4.35 15c24.27 34.21 42 71.73 55.68 111.21 2.63 7.62 3.58 15.82 5.3 23.76zm-77.51-96.61c2 6.27 3.65 12.34 5.78 18.25 2.29 6.34 6.71 10.69 13.43 12.26q17.22 4 34.49 7.9c2.34.53 4.73.83 7.27 1.26-2.25-16-15.53-42.15-27.45-55.46-1.93-2.16-2.72-5.4-3.81-8.23-1.4-3.66-2-7.79-4-11.06-6.84-11.22-14.89-21.76-21.09-33.31a66.82 66.82 0 0 0 -30.11-29.39c-4.27-2.1-8.51-3.12-12.75-.19-4.44 3.08-5 7.61-4.22 12.48a64.68 64.68 0 0 0 15.26 33.1c3.66 4.28 7.36 5.06 12.52 2.91 1.61-.66 3.14-1.5 4.71-2.26a8.36 8.36 0 0 1 -3.53 3.22c-4.93 2.69-5.71 4.67-3.67 9.63 3.09 7.53 6.51 15 9.17 22.64 2.75 7.92 7.17 12.61 16.15 11.13.1 0 .28.45.51.84zm-20.69 69.82c-3.76-1.76-7.69-3.45-11.48-5.42-7.68-4-13.62-9.62-15.65-18.4-2.45-10.59 2.16-18.75 9.25-26 3-3.12 4.5-6.58 2.15-10.8s-6.5-6.37-11.4-5a88.69 88.69 0 0 0 -15.36 5.76c-5.93 3-8.28 7.75-6.66 14.12 1.58 6.22 3.43 12.65 6.65 18.12 10 17.07 20.6 33.83 31.35 50.46a42.79 42.79 0 0 0 10.35 10.67c2 1.46 6.17 2.13 8.06 1 4-2.42 9.39-4.13 10.25-10a4 4 0 0 0 -.21-2c-2.9-7-5.85-14-8.93-21.38l-13.6 6.79c-2.5-5.82 4.54-4.3 5.23-7.92zm-12.54-94.6c0 10.27-.22 20.21.1 30.14.14 4.27 2 8.2 6.47 9.87q12.76 4.79 25.67 9.22c1.21.42 2.73 0 4.11-.09-.09-1.38.15-2.88-.32-4.11q-5.94-15.58-12.11-31.08c-4.18-10.45-12.01-15.08-23.92-13.92zm91 96.38c0 4-.48 7.76.1 11.37 1.24 7.69 3 15.31 4.6 22.93.93 4.27 2.09 8.49 3.52 14.21a65.09 65.09 0 0 0 2-6.67 158.6 158.6 0 0 0 -.93-57.06c-1.3-6.57-5.22-11.17-11.87-12.78-7.88-1.89-15.84-3.42-24.85-5.34 5 10.34 9.23 19.6 18.51 25.43 1.45.91 2.23 3.18 2.9 5 .49 1.3.28 2.86.41 4.68zm-50.21-146.78c0-12.4-.35-23.29.11-34.14.36-8.44-3.87-13.69-10.28-18-3.76-2.51-8-1.67-10 2.44-2.78 5.83-5.29 11.8-7.55 17.84-.53 1.41-.24 4 .73 5 8.51 8.71 17.25 17.21 26.99 26.86zm-24.72 48.63c-2.88-8.23-3.29-17.72-13.47-21.51-5.74 15.99-1 23.7 13.47 21.49z"/><path d="m1243.85 489.8c-7.3.5-13.59-2.57-19.6-6.53z"/><g fill="#fff"><path d="m1259.49 436.18 8.62-4.28c-.23-.39-.41-.85-.51-.84-9 1.48-13.4-3.21-16.15-11.13-2.66-7.68-6.08-15.11-9.17-22.64-2-5-1.26-6.94 3.67-9.63a8.36 8.36 0 0 0 3.53-3.22c-1.57.76-3.1 1.6-4.71 2.26-5.16 2.15-8.86 1.37-12.52-2.91a64.68 64.68 0 0 1 -15.26-33.1c-.73-4.87-.22-9.4 4.22-12.48 4.24-2.93 8.48-1.91 12.75.19a66.82 66.82 0 0 1 30.2 29.39c6.2 11.55 14.25 22.09 21.09 33.31 2 3.27 2.55 7.4 4 11.06 1.09 2.83 1.88 6.07 3.81 8.23 11.92 13.31 25.2 39.51 27.45 55.46-2.54-.43-4.93-.73-7.27-1.26q-17.26-3.88-34.49-7.9c-6.72-1.57-11.14-5.92-13.43-12.26-2.18-5.91-3.86-11.98-5.83-18.25z"/><path d="m1238.8 506c-.69 3.59-7.73 2.07-5.23 7.94l13.6-6.79c3.08 7.36 6 14.36 8.93 21.38a4 4 0 0 1 .21 2c-.86 5.86-6.21 7.57-10.25 10-1.89 1.13-6.1.46-8.06-1a42.79 42.79 0 0 1 -10.35-10.62c-10.75-16.63-21.32-33.39-31.35-50.46-3.22-5.47-5.07-11.9-6.65-18.12-1.62-6.37.73-11.15 6.66-14.12a88.69 88.69 0 0 1 15.36-5.76c4.9-1.4 9 .76 11.4 5s.89 7.68-2.15 10.8c-7.09 7.26-11.7 15.42-9.25 26 2 8.78 8 14.4 15.65 18.4 3.79 1.93 7.68 3.62 11.48 5.35zm-5.15 8.54c-2.69 6.34-.93 13.13 4.1 17.84 3.88 3.62 6.54 3.29 10.47-1.71l-6.79 1.64z"/><path d="m1226.26 411.43c11.91-1.16 19.77 3.47 23.92 13.95s8.15 20.69 12.11 31.08c.47 1.23.23 2.73.32 4.11-1.38.05-2.9.51-4.11.09q-12.9-4.44-25.67-9.22c-4.46-1.67-6.33-5.6-6.47-9.87-.36-9.93-.1-19.87-.1-30.14z"/><path d="m1317.29 507.81-5.58 1.74c-.13-1.82.08-3.38-.41-4.68-.67-1.79-1.45-4.06-2.9-5-9.28-5.83-13.54-15.09-18.51-25.43 9 1.92 17 3.45 24.85 5.34 6.65 1.61 10.57 6.21 11.87 12.78a158.6 158.6 0 0 1 .93 57.06 65.09 65.09 0 0 1 -2 6.67c-1.43-5.72-2.59-9.94-3.52-14.21-1.64-7.62-3.36-15.24-4.6-22.93-.61-3.58-.13-7.35-.13-11.34z"/><path d="m1267.05 361c-9.74-9.63-18.48-18.13-27-26.86-1-1-1.26-3.56-.73-5 2.26-6 4.77-12 7.55-17.84 2-4.11 6.24-4.95 10-2.44 6.41 4.28 10.64 9.53 10.28 18-.45 10.83-.1 21.72-.1 34.14z"/><path d="m1242.33 409.61c-14.47 2.21-19.21-5.5-13.47-21.51 10.14 3.79 10.59 13.28 13.47 21.51z"/></g><path d="m1233.65 514.57 7.78 17.77 6.79-1.64c-3.93 5-6.59 5.33-10.47 1.71-5.03-4.71-6.75-11.5-4.1-17.84z"/></g></svg>