<svg viewBox="0 0 480 383" xmlns="http://www.w3.org/2000/svg"><g transform="translate(-417.19 -304.8)"><path d="m737.52 687.8h-320.33v-383h480v383h-157.67c2.94-2.27 2.68-8.46 9.16-6.84-1.08-3.81-1.78-7.42-3.11-10.77-1.74-4.37-.74-6.9 3.82-8.33 3.59-1.12 7-2.72 10.54-4.12l-.28-.89-11.65 2.87-.29-.92 10-4.2c-2.39-.36-4.44.2-6.52.55s-3.92.4-5.88.59l-.37-1.22c10.73-2.74 20-7.47 25.27-17.95a74.44 74.44 0 0 0 -10.92 3.89c-3.2 1.31-6.39 3.39-9.68 3.6-14.84 1-27.15-4-35.21-17.14a95.14 95.14 0 0 1 -12.27-29.78c-2.45-11.35-5.86-22.48-8.48-33.8-3.44-14.86-7.17-29.7-9.61-44.74-3.9-24.05 4.18-41.09 23.39-52.07 6.82-3.89 10.64-2.52 13.45 4.89a53.77 53.77 0 0 1 1.68 5.73q6.08 23.89 12.1 47.79a23.12 23.12 0 0 1 .33 2.69c-8.53-.36-13.16 4.55-16.33 11.27a5 5 0 0 0 0 4c2.23 3.84 4.82 7.49 7.39 11.39l7.78-3c-3-.75-4.88-.85-6.34-1.73-1.73-1-3.66-2.5-4.41-4.25-1.62-3.74 1.07-11.16 5-13.08 2.38-1.17 6.25-2.09 8.14-.94 4.77 2.89 7.23 10.92 5.69 14.9-2.28 5.9-8.62 10.05-15.36 10.05s-11-2.92-13.43-9.79a85.75 85.75 0 0 1 -3.6-13.45c-2.52-14.11-10.52-25.87-15.85-38.29-1.35 3.14-2.65 6.15-4.25 9.9a17.34 17.34 0 0 1 3.41 3.4c1 1.57 1.25 3.59 2.16 6.47a7.82 7.82 0 0 1 1.84.95c6.2 4.12 6.27 10.81.18 14.71-2 1.25-3.9 2.52-5.86 3.78l.85 1.37c1.33-.75 2.69-1.44 4-2.24 5.58-3.49 7-3 9.36 3.26 1.77 4.66 3.16 9.48 5.22 14 4.58 10 14.6 13.18 24.1 7.59a69.62 69.62 0 0 0 9.46-7.28c2-1.74 3.5-2.53 6.44-1 10.4 5.24 22.21 1 27.46-9.4 3.63-7.18 5.1-7.49 11.59-2.36-3.3 6.68-6.91 13.25-9.85 20.1s-5.78 13.9-3.78 23.25c7-19.82 10.44-40.42 32.8-49.33-1.18 3.37-2.08 6-3 8.53l.48.17 6.48-9.34.87.48v9.81h.37l1.81-8.5 4.7 3.35 1.79-3 5.29 8.74c-.16-3.33-1.49-6.12-2.32-9a70.13 70.13 0 0 1 -2-9.75c-1.53-11.48-1.45-11.53 9.69-14.92.53-.16 1-.4 1.56-.6v-1.67c-3-.34-6.07-.82-9.11-1-3.32-.17-6.68.27-10-.08-25-2.65-38.47-29.49-25.76-51.26 3.42-5.85 6.9-6.91 12.79-3.78 3.37 1.79 6.73 3.62 10 5.61 14.34 8.75 12.93 5.55 7.94 20.36-.05.14 0 .33.06.48h2.68l-4.41 7.05c6.27-4.46 7-6.19 8.77-20l39 13.43c-3.51 4-6.58 7.42-9.61 10.9-.63.73-1.8 1.89-1.6 2.28 2.33 4.59-1.88 5.62-4.07 7.65-1.84 1.7-3.93 3.15-5.91 4.71l1 1.59 24.77-12.89c.76 2.21 1.51 4.55 2.37 6.84 3.32 8.85 6 18 10.17 26.43 5.44 11 6.45 21.95 1.81 33.16-4.57 11-9.7 21.86-14.61 32.76-9.78 21.72-24.73 39.26-43.69 53.46a32.18 32.18 0 0 1 -10.07 5.28c-16.09 4.6-35.47.68-38.36-23.23-.58-4.73-.08-9.62.26-14.41.31-4.27 1.08-8.5 1.65-12.75l-.88-.13-3.6 12-3.11-3.87a30.57 30.57 0 0 0 -1.2 3.91c-2.39 16.33 7.68 36 22.43 43.55 10.76 5.49 21.11 6.09 31.08-2.34 5.6-4.74 11.91-8.64 17.91-12.92l.76 1-17.65 14.31.54.79 17.13-10.86.76 1.1c-5.61 9.37-17.25 11.85-23.62 20.46l23.86-15.18c3.48 8.63 1.18 18.87 10.37 25.17a35 35 0 0 0 .32-5.43c-.87-8.4-1.66-16.82-2.87-25.19a27.45 27.45 0 0 1 5-20.68c4.57-6.52 9.2-13.12 12.7-20.24 7.54-15.33 14.19-31.1 21.54-46.54 5-10.42 4.21-20.5-.18-30.79-4.11-9.61-7.84-19.39-12-29a46.15 46.15 0 0 1 -3.71-21.82c.89-13.46.55-26.91-2.82-40.11-2.18-8.55-7.09-14.47-15.81-16.93-10.85-3.07-21.84-3.57-32.32.58-5.17 2.05-8.73 1.24-13.19-1.3-17.57-10-36.27-4.52-45.79 13.23-1.54 2.86-3 2.9-5.91 2.31a90.65 90.65 0 0 0 -18.15-2.24c-11.75 0-19.08 4.13-22.15 15.92a13.11 13.11 0 0 1 -9.2 9.67 34 34 0 0 0 -8.9 4.1c-23 16-32.53 49.7-21.77 75.72 1.75 4.23 2.55 8.87 3.65 13.35 2.09 8.51 4 17.07 6.18 25.55.94 3.65 2.69 7.09 3.63 10.75 3.1 12.05 6 24.17 9 36.25a30.71 30.71 0 0 0 13.79 18.84 80.39 80.39 0 0 0 11.45 6c4.63 2 7 5.28 7.38 10.26.76 9.98 1.52 19.85 2.28 29.78zm-125.41-364.44c-2-1.06-3.57-1.95-5.19-2.74-16.54-8-34.19-11.82-52.36-13.34-27.24-2.29-53.72.14-78.78 12.37-60.78 29.64-68.78 110.89-14.99 149.67 16.08 11.6 33.63 20 52.07 26.91 16.71 6.24 32.88 13.42 47 24.61 26.29 20.74 24.69 58.32 10.55 77.36-11.24 15.13-27 22.25-45.09 24.65-32.44 4.31-62.71-3-91.31-18.29-1.55-.83-3.1-1.63-5-2.62-3.31 10.91-6.3 21.43-9.76 31.79-1.36 4-.66 6.14 3.19 8.17 18.66 9.84 38.72 15 59.45 17.46 29.65 3.6 58.88 1.88 86.57-10.41 33.61-14.92 53.35-40.68 56.88-77.5 3.48-36.19-9.4-65.4-39.75-86.37-15.16-10.47-31.76-18-48.81-24.68-16.26-6.39-32.38-13.08-46.35-23.9-17.78-13.78-24.87-34.58-18.43-55.43 6.15-19.92 20.81-30.93 40.4-35.22 28-6.13 54.82-1.31 80.65 10.34 2.19 1 4.34 2.06 6.83 3.24zm205.09 163.91-23.3-7.86c2.8 5.31 18.36 10.34 23.3 7.86zm-106.93 30.8.81 1.79 13.68-6.45-.69-1.51z" fill="#fff"/><path d="m737.52 687.8c-.76-9.93-1.55-19.85-2.26-29.79-.35-5-2.75-8.25-7.38-10.26a80.39 80.39 0 0 1 -11.45-6 30.71 30.71 0 0 1 -13.79-18.84c-3-12.08-5.89-24.2-9-36.25-.94-3.66-2.69-7.1-3.63-10.75-2.2-8.48-4.09-17-6.18-25.55-1.1-4.48-1.9-9.12-3.65-13.35-10.75-26.01-1.18-59.75 21.82-75.71a34 34 0 0 1 8.9-4.1 13.11 13.11 0 0 0 9.2-9.67c3.07-11.79 10.4-15.88 22.15-15.92a90.65 90.65 0 0 1 18.15 2.24c2.91.59 4.37.55 5.91-2.31 9.52-17.75 28.22-23.21 45.79-13.23 4.46 2.54 8 3.35 13.19 1.3 10.48-4.15 21.47-3.65 32.32-.58 8.72 2.46 13.63 8.38 15.81 16.93 3.37 13.2 3.71 26.65 2.82 40.11a46.15 46.15 0 0 0 3.71 21.82c4.14 9.61 7.87 19.39 12 29 4.39 10.29 5.15 20.37.18 30.79-7.35 15.44-14 31.21-21.54 46.54-3.5 7.12-8.13 13.72-12.7 20.24a27.45 27.45 0 0 0 -5 20.68c1.21 8.37 2 16.79 2.87 25.19a35 35 0 0 1 -.32 5.43c-9.19-6.3-6.89-16.54-10.37-25.17l-23.81 15.18c6.37-8.61 18-11.09 23.62-20.46l-.76-1.1-17.13 10.84-.54-.79 17.55-14.26-.76-1c-6 4.28-12.31 8.18-17.91 12.92-10 8.43-20.32 7.83-31.08 2.34-14.75-7.52-24.82-27.22-22.43-43.55a30.57 30.57 0 0 1 1.2-3.91l3.13 3.81 3.6-12 .88.13c-.57 4.25-1.34 8.48-1.65 12.75-.34 4.79-.84 9.68-.26 14.41 2.89 23.91 22.27 27.83 38.36 23.23a32.18 32.18 0 0 0 10.07-5.28c19-14.2 33.91-31.74 43.69-53.46 4.91-10.9 10-21.72 14.61-32.76 4.64-11.21 3.63-22.13-1.81-33.16-4.16-8.43-6.85-17.58-10.17-26.43-.86-2.29-1.61-4.63-2.37-6.84l-24.75 12.9-1-1.59c2-1.56 4.07-3 5.91-4.71 2.19-2 6.4-3.06 4.07-7.65-.2-.39 1-1.55 1.6-2.28 3-3.48 6.1-6.93 9.61-10.9l-39-13.43c-1.8 13.84-2.5 15.57-8.77 20l4.41-7.05h-2.68c0-.15-.11-.34-.06-.48 5-14.81 6.4-11.61-7.94-20.36-3.26-2-6.62-3.82-10-5.61-5.89-3.13-9.37-2.07-12.79 3.78-12.71 21.77.73 48.61 25.76 51.26 3.28.35 6.64-.09 10 .08 3 .15 6.07.63 9.11 1v1.67c-.52.2-1 .44-1.56.6-11.14 3.39-11.22 3.44-9.69 14.92a70.13 70.13 0 0 0 2 9.75c.83 2.93 2.16 5.72 2.32 9l-5.29-8.74-1.79 3-4.7-3.35-1.81 8.5h-.41v-9.81l-.87-.48-6.48 9.34-.48-.17c.91-2.58 1.81-5.16 3-8.53-22.36 8.91-25.81 29.51-32.8 49.33-1.91-9.35.87-16.42 3.81-23.29s6.55-13.42 9.85-20.1c-6.49-5.13-8-4.82-11.59 2.36-5.25 10.38-17.06 14.64-27.46 9.4-2.94-1.49-4.4-.7-6.44 1a69.62 69.62 0 0 1 -9.46 7.28c-9.5 5.59-19.52 2.43-24.1-7.59-2.06-4.52-3.45-9.34-5.22-14-2.38-6.3-3.78-6.75-9.36-3.26-1.29.8-2.65 1.49-4 2.24l-.85-1.37c2-1.26 3.9-2.53 5.86-3.78 6.09-3.9 6-10.59-.18-14.71a7.82 7.82 0 0 0 -1.84-.95c-.91-2.88-1.17-4.9-2.16-6.47a17.34 17.34 0 0 0 -3.41-3.4c1.6-3.75 2.9-6.76 4.25-9.9 5.28 12.48 13.28 24.24 15.8 38.35a85.75 85.75 0 0 0 3.69 13.42c2.46 6.87 6.77 9.8 13.43 9.79s13.08-4.15 15.36-10.05c1.54-4-.92-12-5.69-14.9-1.89-1.15-5.76-.23-8.14.94-3.91 1.92-6.6 9.34-5 13.08.75 1.75 2.68 3.21 4.41 4.25 1.46.88 3.39 1 6.34 1.73l-7.78 3c-2.57-3.9-5.16-7.55-7.39-11.39a5 5 0 0 1 0-4c3.17-6.72 7.8-11.63 16.33-11.27a23.12 23.12 0 0 0 -.33-2.69q-6-23.9-12.1-47.79a53.77 53.77 0 0 0 -1.68-5.73c-2.81-7.41-6.63-8.78-13.45-4.89-19.21 11-27.29 28-23.39 52.07 2.44 15 6.17 29.88 9.61 44.74 2.62 11.32 6 22.45 8.48 33.8a95.14 95.14 0 0 0 12.27 29.78c8.06 13.14 20.37 18.09 35.21 17.14 3.29-.21 6.48-2.29 9.68-3.6a74.44 74.44 0 0 1 10.92-3.89c-5.3 10.51-14.54 15.24-25.3 17.98l.37 1.22c2-.19 3.94-.27 5.88-.59s4.13-.91 6.52-.55l-10 4.2.29.92 11.61-2.87.28.89c-3.51 1.4-6.95 3-10.54 4.12-4.56 1.43-5.56 4-3.82 8.33 1.33 3.35 2 7 3.11 10.77-6.48-1.62-6.22 4.57-9.16 6.84zm12.81-249.22c-20.25 0-27.68 7.76-25.83 27.15a29.12 29.12 0 0 0 .74 3.9q6.24 26.39 12.52 52.75c2.29 9.58 7.65 17.21 15.28 23.27 5.59 4.45 9.5 4.13 14.27-1.12 2.67-2.95 4.92-6.27 7.57-9.23s3.35-6.12 1.61-9.94c-5.6-12.29-7-25.47-8.2-38.73-1.06-11.89-2.21-23.79-3.86-35.61-1.2-8.61-6.01-12.42-14.1-12.44zm65.25 14.78 1.79-.59c-1.69-8-3.16-16.15-5.16-24.11-1.1-4.39-4.46-7.43-9-7.35-6.89.11-14.05.1-20.56 2-8.45 2.44-13 9.32-12.73 18.22.79 25.06 1.64 50.13 6.69 74.8.72 3.51 2.74 6.77 4.69 11.39l2.08-5.88c1.43 4.26 2.52 7.51 3.58 10.65 9 1 16.45-2.69 23.09-7.47 2.4-1.72 3.93-5.73 4.31-8.89.57-4.75-2.19-6.85-7-5.86a140.43 140.43 0 0 0 -14.33 4c-2.7.87-5.24 2.2-7.85 3.33 4.89-7.15 12.48-7.91 20-9.11-1.65-1-3.47-1.34-4.92-2.25-4.57-2.9-10.85-5-13.16-9.23-8.33-15.27-7.73-31.28.23-46.76 3.71-7.22 9.62-8.74 16.7-4.63 4.05 2.31 7.74 5.14 11.55 7.74zm56.07 21.45c-1.17-12.23-1.85-23.65-3.47-34.92-1.38-9.58-7.44-15.37-17.22-16.6a97.59 97.59 0 0 0 -13.87-.88c-7.79.13-12.94 4-14.6 11.7-1.15 5.29-1.24 10.83-1.56 16.26-.29 5 2.32 7.87 7.07 9.44 12.27 4.06 24.46 8.38 36.68 12.6zm-11.95 19.1c7.6-1.92 11.9-6.17 9.09-9.42-3.06 3.16-6.1 6.32-9.09 9.42z"/><path d="m612.11 323.36-12.19 36.07c-2.49-1.18-4.64-2.25-6.83-3.24-25.83-11.65-52.69-16.47-80.65-10.34-19.59 4.29-34.25 15.3-40.4 35.22-6.44 20.85.65 41.65 18.43 55.43 14 10.82 30.09 17.51 46.35 23.9 17 6.69 33.65 14.21 48.81 24.68 30.35 21 43.23 50.18 39.75 86.37-3.53 36.82-23.27 62.55-56.88 77.55-27.69 12.29-56.92 14-86.57 10.41-20.73-2.51-40.79-7.62-59.45-17.46-3.85-2-4.55-4.13-3.19-8.17 3.46-10.36 6.45-20.88 9.76-31.79 1.91 1 3.46 1.79 5 2.62 28.6 15.28 58.87 22.6 91.31 18.29 18-2.4 33.85-9.52 45.09-24.65 14.14-19 15.74-56.62-10.55-77.36-14.17-11.19-30.34-18.37-47-24.61-18.44-6.88-36-15.31-52.07-26.91-53.77-38.78-45.79-120 15-149.67 25.06-12.23 51.54-14.66 78.78-12.37 18.17 1.52 35.82 5.33 52.36 13.34 1.57.74 3.14 1.63 5.14 2.69z"/><path d="m817.2 487.27c-4.94 2.48-20.5-2.55-23.3-7.86z"/><path d="m710.27 518.07 13.8-6.17.69 1.51-13.68 6.45z"/><g fill="#fff"><path d="m750.33 438.58c8.09 0 12.9 3.83 14.1 12.44 1.65 11.82 2.8 23.72 3.86 35.61 1.19 13.26 2.6 26.44 8.2 38.73 1.74 3.82 1.14 6.89-1.61 9.94s-4.9 6.28-7.57 9.23c-4.77 5.25-8.68 5.57-14.27 1.12-7.63-6.06-13-13.69-15.28-23.27q-6.32-26.36-12.52-52.75a29.12 29.12 0 0 1 -.74-3.9c-1.85-19.39 5.58-27.18 25.83-27.15zm18 98.67-11.49 5.6-7.85-12c-1.93 6.31 0 11.3 4.68 13.72 4.39 2.21 10.2-.38 14.7-7.32zm-20-7.08 18.11-8.86c-8.19-1.63-17.23 2.81-18.09 8.86zm-1.94-22.66c2.77-.81 8-2 7.93-2.38-.7-4.62 3.25-3.25 5.08-4.25a34.38 34.38 0 0 1 5.6-1.88c-7.59-.35-14.21 1.5-18.59 8.51z"/><path d="m815.58 453.36c-3.81-2.6-7.5-5.43-11.48-7.74-7.08-4.11-13-2.59-16.7 4.63-8 15.48-8.56 31.49-.23 46.76 2.31 4.22 8.59 6.33 13.16 9.23 1.45.91 3.27 1.25 4.92 2.25-7.55 1.2-15.14 2-20 9.11 2.61-1.13 5.15-2.46 7.85-3.33a140.43 140.43 0 0 1 14.33-4c4.76-1 7.52 1.11 7 5.86-.38 3.16-1.91 7.17-4.31 8.89-6.64 4.78-14 8.45-23.09 7.47-1.06-3.14-2.15-6.39-3.58-10.65l-2.08 5.88c-1.95-4.62-4-7.88-4.69-11.39-5.05-24.67-5.9-49.74-6.69-74.8-.29-8.9 4.28-15.78 12.73-18.22 6.51-1.88 13.67-1.87 20.56-2 4.55-.08 7.91 3 9 7.35 2 8 3.47 16.06 5.16 24.11z"/><path d="m871.65 474.81-7-2.4c-12.22-4.22-24.41-8.54-36.68-12.6-4.75-1.57-7.36-4.44-7.07-9.44.32-5.43.41-11 1.56-16.26 1.66-7.65 6.81-11.57 14.6-11.7a97.59 97.59 0 0 1 13.87.88c9.78 1.23 15.84 7 17.22 16.6 1.65 11.27 2.33 22.69 3.5 34.92z"/><path d="m859.7 493.91c3-3.1 6-6.26 9.09-9.42 2.81 3.25-1.49 7.51-9.09 9.42z"/></g><path d="m768.37 537.25c-4.5 6.94-10.31 9.53-14.66 7.3-4.73-2.42-6.61-7.41-4.68-13.72l7.85 12z"/><path d="m748.35 530.17c.86-6 9.9-10.49 18.11-8.86z"/><path d="m746.41 507.51c4.38-7 11-8.86 18.57-8.54a34.38 34.38 0 0 0 -5.56 1.91c-1.83 1-5.78-.37-5.08 4.25.06.38-5.16 1.57-7.93 2.38z"/></g></svg>