<svg viewBox="0 0 475 473" xmlns="http://www.w3.org/2000/svg"><g transform="translate(-144 -116)"><path d="m431.45 490.94q-92 0-184 0c-2.35 0-3.41 0-3.41-3.09q.17-184.44 0-368.88c0-2.67.68-3 3.13-3q184.41.12 368.84 0c2.67 0 3 .68 3 3.13q-.12 184.43 0 368.87c0 2.67-.68 3-3.13 3q-92.21-.09-184.43-.03z" fill="#fefefe"/><path d="m495.6 242.56c-1.29-18.81-4.12-37.35-10-55.32-2.43-7.41-2.14-15-2-22.57.08-3.68 3.18-1.55 4.89-2s2.59.27 2.32 2.24c-1.74 12.79 1.25 24.93 4.89 37.06 3.59 12 4.71 24.38 5.75 36.8 2.18 25.88 1 51.83 1.76 77.74 1 33.4 1.3 66.8 1.28 100.21 0 6.84-1.1 13.18-5.89 18.67-6.55 7.51-15.92 10.45-24.38 2.32-7.54-7.25-11.39-16.4-12.85-26.33-2.13-14.52-3.31-29.19-4.9-43.79a81.24 81.24 0 0 0 -1.28-9.84l-.21-3.63a81.52 81.52 0 0 0 -1.29-9.84l-.21-3.62a79.47 79.47 0 0 0 -1.29-9.85c-.29-2.49-.59-5-.88-7.48-.86-.25.41-2.57-1.63-1.67-12.12 33.61-23.72 67.44-39.49 99.6-2.89 5.89-6.28 11.35-11.82 15.46-6.78 5.05-13.62 5.3-21 2.1-7.17-3.1-10.15-8.86-10-16.37.21-9.2 2.9-17.89 6-26.44q14.48-39.85 29-79.69c.36-1 1.25-2.28.52-3.09-1-1.08-2 .33-2.95.72-12 5-21.87 2.92-29.51-8.79-5.68-8.69-12.83-13.33-22.41-16.1-10.18-2.92-13.02-8.06-12.22-18.66 1.62-21.29 9.56-40.49 19.75-58.88a114.75 114.75 0 0 1 17.19-24.1c6.21-6.48 8.11-13.91 6.67-22.48-.42-2.48.45-3.72 3-3.91 1.65-.12 2.64.13 2.58 2.09a33.45 33.45 0 0 0 1.12 8.5c.81 3.56-.46 6.63-2.32 9.52-7.37 11.47-15.18 22.67-22 34.51-7.66 13.39-14.71 27-18.35 42.18a45.79 45.79 0 0 0 -.95 18.51 8.83 8.83 0 0 0 4.84 6.59 47.38 47.38 0 0 0 11.81 4.51 19.39 19.39 0 0 1 12.17 9c1.56 2.48 3.56 4.67 5.27 7.06 5.38 7.54 12.93 7.5 20.83 5.84a52.22 52.22 0 0 0 14.46-5.67c-1.87 6.21-3.59 11.86-5.26 17.53-7.78 26.48-18 52.12-27.23 78.07a108.12 108.12 0 0 0 -5.38 20.09c-1.12 7.42.62 12.53 5.27 14.59 6.74 3 13.38 1.06 18.2-5 10-12.49 15.8-27.14 21.65-41.73 9.42-23.51 17.12-47.67 27.05-71 1.56-3.65 3.28-7.24 5.12-10.76.55-1 1-2.85 2.89-2.32 1.63.45 2.24 1.63 2.4 3.34.7 7.32 1.58 14.61 2.31 21.92.37 3.72.57 7.45.84 11.18a88.62 88.62 0 0 0 1.27 10.71l1.74 19.3a51.16 51.16 0 0 0 1.25 9.13l.24 4.34a84.88 84.88 0 0 0 1.25 9.13l.24 4.35a49.22 49.22 0 0 0 1.28 9.12c1.59 8.72 3.74 17.16 9 24.59a12.05 12.05 0 0 0 20.29-.84c2.26-3.76 3.81-7.55 3.69-12.21-1.28-50.32-3-100.62-3.1-151 0-1.12 0-2.24 0-3.36-.33-6.74-.33-13.54-1.28-20.28z"/><path d="m530.77 440a89.32 89.32 0 0 1 15.39 1.82l-14.3 22.47c-1.86-3.38-3.54-6.36-5.13-9.38-1-1.82-1.76-2.65-4.23-1.65a229.1 229.1 0 0 1 -34 10.95 221.84 221.84 0 0 1 -39.56 5.15 395.05 395.05 0 0 1 -44.07.11c-17.35-1.06-33.75-5.84-49.78-12.17-3.93-1.54-7.81-3.18-11.68-4.85-1.89-.82-3.19-.65-4.26 1.34-1.39 2.61-3.07 5.06-5 8.26-3-7.44-5.69-14.29-8.43-21.14-.44-1.11 0-1.68 1.11-1.69h22.6c-5.25 5.41-5.22 5.35 2.07 8.65 14.68 6.63 29.77 11.88 45.8 14.08a241.89 241.89 0 0 0 47 1.47c13.93-.81 27.82-1.79 41.42-5.28a222.58 222.58 0 0 0 32.28-11.26c1.93-.83 2.38-1.75 1.23-3.53-.92-1.44-1.69-3-2.56-4.51 1.56-.61 2.91-.22 4.26-.15a75.72 75.72 0 0 0 9.84 1.31z"/><path d="m407.79 351.37c3.54.63 7.08 1.28 10.64 1.87 1 .17 1.13.54.94 1.49a5.47 5.47 0 0 1 -6.19 4 51.38 51.38 0 0 1 -6.8-2c-1.09-.43-3.54.22-2.84-2.38.58-2.05 1.9-3.35 4.25-2.98z"/><path d="m477.94 356.54c-2.44.5-3.62-1.07-4.23-2.88-.79-2.3 1.63-2.05 2.72-2.68 1.26-.73 2.84-.9 4.18-1.54 2.91-1.39 4.73-1.34 5 2.62.12 1.77.16 2.82-1.86 3.16s-3.87.88-5.81 1.32z"/><path d="m433 287.8c-1.72-1.12-5.12.48-5-2.89 0-1.39-1.24-4.84 2.15-4.3 2.34.38 6-.68 6.78 2.37a4.38 4.38 0 0 1 -3.93 4.82z"/><path d="m495.6 242.56c1.7 6.69 1.57 13.5 1.28 20.32a162.45 162.45 0 0 1 -1.28-20.32z"/><path d="m461 350.29c-1.68-3.4-1.52-7-1.25-10.65a33.62 33.62 0 0 1 1.25 10.65z"/><path d="m452.21 330.84c1.57 3.13 1.55 6.47 1.29 9.85a29.61 29.61 0 0 1 -1.29-9.85z"/><path d="m453.71 344.31c1.56 3.13 1.55 6.47 1.29 9.84a29.55 29.55 0 0 1 -1.29-9.84z"/><path d="m455.21 357.78c1.55 3.13 1.54 6.47 1.28 9.84a29.55 29.55 0 0 1 -1.28-9.84z"/><path d="m530.77 440c-3.37.25-6.72.28-9.84-1.3a29.56 29.56 0 0 1 9.84 1.3z" fill="#4bc2e4"/><path d="m465.43 392.19a16.36 16.36 0 0 1 -1.25-9.13 24.19 24.19 0 0 1 1.25 9.13z"/><path d="m463.94 378.72a16.09 16.09 0 0 1 -1.25-9.13 27.43 27.43 0 0 1 1.25 9.13z"/><path d="m467 405.66a16 16 0 0 1 -1.28-9.12 27.92 27.92 0 0 1 1.28 9.12z"/><path d="m449.7 321.69a2.35 2.35 0 0 1 1.24-2.35 6.43 6.43 0 0 1 .39 4c-.54-.54-1.08-1.1-1.63-1.65z" fill="#8added"/></g><text font-family="ArialMT, Arial" font-size="388.3" transform="matrix(.58 0 0 1 0 346.92)">Ñ</text></svg>