<svg viewBox="0 0 452 480" xmlns="http://www.w3.org/2000/svg"><g transform="translate(-369.16 -239.85)"><path d="m369.16 239.85h452v480h-452zm383.6 241.34-5.84 2v.76l9.57 1.23.38-1-4.26-2.91c-10.49-10.16-10.55-11.11-1.33-22.87.5-.64 1.06-1.23 1.74-2l19.43 11.07c-2.62 5.57-9 9-6.53 16.85 2.65-3.81 4.65-7.18 7.14-10.15 3.4-4.06 19.17-3.05 19.94 1.18-.63 1.1-1.31 2.25-2.39 4.11l7.84-3.47c3.93 11 7.11 21.89 11.65 32.15 4.39 9.94 4.78 20 2.68 30.07-3.6 17.23-7.85 34.34-12.48 51.32-2.91 10.7-10.43 17.4-21.62 18.69a86.43 86.43 0 0 1 -18.82 0c-11.55-1.21-16.08-5.8-17.8-17.22-1.12-7.4-1.82-14.85-2.75-22.28-.18-1.4-.54-2.78-.81-4.17-2.13 11.12-.93 21.68 2.47 32.16 3.45 10.64 10.81 16.34 21.32 18.65 3.29.72 6.61 1.29 9.91 1.93l-.09.7-14.58 1.73.13 1 7.16.54-.08.77-5.12.31v1.06h17.18c1.61 7.23-2.54 14.76 3.83 22.38 1.13-3.55 2.37-5.85 2.5-8.21.28-4.8-.09-9.64-.11-14.46 0-5 1.79-9 6.25-11.69 8.6-5.15 13.69-13 16.25-22.43 4.12-15.23 7.76-30.59 12.12-45.75 3.31-11.5 2.6-22.66-.86-33.86s-4.39-22.78-4.12-34.49c.78-34.55 4.19-69 2.8-103.62-.37-9.28.83-18.62.66-27.92-.2-11.51-8.16-18.62-18.92-16.09-7.21 1.69-12.92.13-18.79-3.35-2.28-1.36-4.63-3.07-7.13-3.45-3.73-.57-8.58-1.55-11.25.22-7 4.66-11.93 11.34-12.7 20.42q-2.26 26.82-5.05 53.59c-1 9.72-2.58 19.37-3.79 28.22-4.44 0-8.39-.85-11.82.14-17.4 5-30.9 16.86-32.89 36.92-.53 5.3-3 8.57-7.43 10.89s-8.83 4.62-13.22 7c-7.36 4-10.54 10-9.84 18.48.84 10.26 2.41 20.7 1.38 30.82-1.62 15.95-.17 31.53 2 47.18 2.33 16.74 5.87 33.19 15.87 47.26 4.4 6.2 5.36 12.22 2.81 19.19-1.18 3.25-1.86 6.68-2.77 10l1.92.74c1-2.21 2.35-4.33 3-6.65 1.93-7.45 6.37-12.13 13.49-15.35 8.59-3.89 16.74-8.82 24.86-13.68 2.71-1.62 4.73-4.41 7.06-6.67l-1-1.19c-9.13 9.25-20 13.49-33 12.15-10.23-1.05-17.28-6.8-20-16.59-.75-2.72-1.48-5.46-2-8.23-3.65-18.22-8.84-36.24-7.45-55.13 1-14 1.25-27.82-1.36-41.73-1.49-8 2.52-15.22 9.54-18 9.39-3.75 19-6.94 28.73-9.83 5.63-1.68 9.61.22 12.64 5.33 5.59 9.43 11 19 16.32 28.56 4.27 7.72 4.09 8-3.56 12.62-5.72 3.45-6.11 10.42-.7 14.45-.11-1.86-.86-4-.15-5.36 1-2 3-4.51 4.76-4.7s5 1.92 5.45 3.6c.64 2.28.17 6.3-1.41 7.52-6.66 5.14-18.4 1.94-22.28-5.67-1.57-3.09-2.39-6.57-3.95-9.67-1.38-2.78-2.82-5.85-5.09-7.8-6.33-5.35-12.7-10.51-14.49-20.51l-3.54 7.18h-6.09c5.5 2.55 10.81 4.69 13.3 10.75l-8.22 7.29.86 1.17c2.74-1.34 5.69-2.37 8.16-4.1 3.38-2.35 5.75-1.12 8.3 1.21 7.11 6.5 8.81 17.79 3.88 26.55-3 5.38-6.09 10.75-9.13 16.12l1 .66 4-4.75.71.47-1.58 10.35.77.16 9.67-28.06c8.38 3.85 16.32 8.19 25.67 4.15.65 2.7 1.17 4.84 2 8.29 2.7-14.2 7.69-25.45 19-32.71l2.08.13q2.34 14.94 4.7 29.88l.86-.12c-.25-3.15-.51-6.29-.76-9.44l1.09-.29 4.93 9.81a2.73 2.73 0 0 0 .22-2.25c-2.1-9-5-17.86-6.08-27-1.11-9.78-2.49-12.52-12.15-14.6-16.22-3.48-24.4-18.91-18.12-34.37 1.56-3.83 3.83-7.16 8.89-8-2 4.21-4.27 7.77-5.33 11.67-.63 2.29-.22 5.93 1.26 7.5 2.09 2.25 5.61 3.1 8.5 4.54zm-349.57-167.69c-.08 1.54-.2 2.84-.2 4.14q0 88.08.09 176.17a172.41 172.41 0 0 0 7.09 49.7c9.74 32.27 29.08 55.65 62.23 65.79 18.1 5.54 36.66 6.31 55.29 4 40.22-5.11 68.64-25.81 83.39-64.18 8.07-21 10.17-42.92 10.2-65.14q.12-82.59 0-165.18v-5.41h-38.7v6.5c0 54.89.26 109.79-.17 164.68a214.26 214.26 0 0 1 -3.95 41.57c-7 33.88-26.59 52.3-57.89 56.57-31.89 4.34-58-10.79-70-40.57-6.46-16-8.72-32.71-8.74-49.8q-.1-86.09-.05-172.17c0-2.11 0-4.23 0-6.62z" fill="#fff"/><path d="m403.19 313.5h38.57v6.62q0 86.08.05 172.17c0 17.09 2.28 33.82 8.74 49.8 12 29.78 38.13 44.91 70 40.57 31.3-4.27 50.87-22.69 57.89-56.57a214.26 214.26 0 0 0 3.95-41.57c.43-54.89.17-109.79.17-164.68v-6.5h38.71v5.41q0 82.59 0 165.18c0 22.22-2.13 44.16-10.2 65.14-14.75 38.37-43.17 59.07-83.39 64.18-18.63 2.36-37.19 1.59-55.29-4-33.15-10.14-52.49-33.52-62.23-65.79a172.41 172.41 0 0 1 -7.09-49.7q-.16-88.08-.09-176.17c.02-1.25.13-2.59.21-4.09z"/><path d="m752.78 481.18c-2.91-1.43-6.43-2.28-8.52-4.48-1.48-1.57-1.89-5.21-1.26-7.5 1.06-3.9 3.33-7.46 5.33-11.67-5.06.79-7.33 4.12-8.89 8-6.28 15.46 1.9 30.89 18.12 34.37 9.66 2.08 11 4.82 12.15 14.6 1 9.11 4 18 6.08 27a2.73 2.73 0 0 1 -.22 2.25l-4.93-9.81-1.09.29c.25 3.15.51 6.29.76 9.44l-.86.12q-2.36-14.94-4.7-29.88l-2.08-.13c-11.32 7.26-16.31 18.51-19 32.71-.84-3.45-1.36-5.59-2-8.29-9.35 4-17.29-.3-25.67-4.15l-9.67 28-.77-.16 1.58-10.35-.71-.47-4 4.75-1-.66c3-5.37 6.1-10.74 9.13-16.12 4.93-8.76 3.23-20-3.88-26.55-2.55-2.33-4.92-3.56-8.3-1.21-2.47 1.73-5.42 2.76-8.16 4.1l-.86-1.17 8.22-7.29c-2.49-6.06-7.8-8.2-13.3-10.75h6.09l3.54-7.18c1.79 10 8.16 15.2 14.45 20.62 2.27 1.95 3.71 5 5.09 7.8 1.56 3.1 2.38 6.58 3.95 9.67 3.88 7.61 15.62 10.81 22.28 5.67 1.58-1.22 2.05-5.24 1.41-7.52-.47-1.68-3.68-3.78-5.45-3.6s-3.75 2.74-4.76 4.7c-.71 1.37 0 3.5.15 5.36-5.41-4-5-11 .7-14.45 7.65-4.6 7.83-4.9 3.56-12.62-5.29-9.62-10.73-19.16-16.29-28.62-3-5.11-7-7-12.64-5.33-9.7 2.89-19.34 6.08-28.73 9.83-7 2.8-11 10.05-9.54 18 2.61 13.91 2.39 27.77 1.36 41.73-1.39 18.89 3.8 36.91 7.45 55.13.55 2.77 1.28 5.51 2 8.23 2.7 9.79 9.75 15.54 20 16.59 12.94 1.34 23.83-2.9 33-12.15l1 1.19c-2.33 2.26-4.35 5.05-7.06 6.67-8.12 4.86-16.27 9.79-24.86 13.68-7.12 3.22-11.56 7.9-13.49 15.35-.6 2.32-1.94 4.44-3 6.65l-1.92-.74c.91-3.35 1.59-6.78 2.77-10 2.55-7 1.59-13-2.81-19.19-10-14.07-13.54-30.52-15.87-47.26-2.17-15.65-3.62-31.23-2-47.18 1-10.12-.54-20.56-1.38-30.82-.7-8.47 2.48-14.51 9.84-18.48 4.39-2.36 8.8-4.67 13.22-7s6.9-5.59 7.43-10.89c2-20.06 15.49-31.91 32.89-36.92 3.43-1 7.38-.14 11.82-.14 1.21-8.85 2.77-18.5 3.79-28.22q2.81-26.76 5.05-53.59c.77-9.08 5.65-15.76 12.7-20.42 2.67-1.77 7.52-.79 11.25-.22 2.5.38 4.85 2.09 7.13 3.45 5.87 3.48 11.58 5 18.79 3.35 10.76-2.53 18.72 4.58 18.92 16.09.17 9.3-1 18.64-.66 27.92 1.39 34.61-2 69.07-2.8 103.62-.27 11.71.65 23.24 4.12 34.49s4.17 22.36.86 33.86c-4.36 15.16-8 30.52-12.12 45.75-2.56 9.48-7.65 17.28-16.25 22.43-4.46 2.66-6.28 6.69-6.25 11.69 0 4.82.39 9.66.11 14.46-.13 2.36-1.37 4.66-2.5 8.21-6.37-7.62-2.22-15.15-3.83-22.38h-17.12v-1.06l5.12-.31.08-.77-7.16-.54-.13-1 14.55-1.76.09-.7c-3.3-.64-6.62-1.21-9.91-1.93-10.51-2.31-17.87-8-21.32-18.65-3.4-10.48-4.6-21-2.47-32.16.27 1.39.63 2.77.81 4.17.93 7.43 1.63 14.88 2.75 22.28 1.72 11.42 6.25 16 17.8 17.22a86.43 86.43 0 0 0 18.82 0c11.19-1.29 18.71-8 21.62-18.69 4.63-17 8.88-34.09 12.48-51.32 2.1-10.05 1.71-20.13-2.68-30.07-4.54-10.25-7.72-21.15-11.65-32.15l-7.84 3.47c1.08-1.86 1.76-3 2.39-4.11-.77-4.23-16.54-5.24-19.94-1.18-2.49 3-4.49 6.34-7.14 10.15-2.45-7.83 3.91-11.28 6.53-16.85l-19.47-11.06c-.68.77-1.24 1.36-1.74 2-9.22 11.76-9.16 12.71 1.33 22.87zm43.72-97.59a52.13 52.13 0 0 1 -6.26-1.25c-3.82-1.24-5.88.12-6.11 4q-1.15 18.88-2.07 37.79c-.13 2.9 1 5 4.46 5.49 4.93.63 9.79 1.73 14.72 2.36 3.83.49 6.92-1.25 7.11-5.2.6-12.56.88-25.13 1-37.7 0-3-1.8-4.7-5.21-4.63-2.6.06-5.21-.6-7.81-.94 7.77.9 12.14-2.4 13-9.84.2-1.65.55-3.29.59-4.95.26-9.25.74-18.51.54-27.75-.09-4.59-3.34-7.13-8-7a14.38 14.38 0 0 0 -14.09 12.72c-.7 6.43-.58 13-1.87 19.3-1.82 9.08.56 15.15 10 17.6zm-20 80.75c1.07-6.77 2.32-11.75 2.57-16.77.8-16.26.71-32.58 2-48.79.73-8.89-2.6-18.17 2.2-26.71.07-.13 0-.33 0-.49.28-10.64.78-21.27.78-31.9 0-8.7-5.09-13.16-14.9-13.79-7.94-.5-12 2.74-13.26 11.44-1.5 10.35-2.63 20.75-3.72 31.15-.76 7.16 1.86 10 9.09 10.22 3.16.1 6.33 0 9.49 0v1.51c-4.49 0-9 .13-13.47 0-4.78-.18-7.46 1.66-8.06 6.66-.94 7.75-2.17 15.46-3.32 23.19-1.29 8.56 1.54 12.09 10.33 12.37 6.13.19 12.27 0 18.41 0a9.3 9.3 0 0 1 -5.48 2c-6.11-.07-12.24-.17-18.32-.74-5.91-.55-9.07.75-8.15 6.06 1.26 7.3 2.91 16.18 7.78 20.8 6.6 6.17 16.35 8.91 26.06 13.79zm-33 34.43c-8.55-9.81-11.3-14.67-10-22.95.83-5.35 3.38-10.68 6.19-15.4 5.21-8.75 4.47-19.46-2.78-26.51-3.38-3.29-7.34-5.16-12.19-4.07-14.59 3.26-26.75 20.62-25 35.44.3 2.55 1.2 3.74 3.8 2.94 3.15-1 6.27-2.05 9.72-3.18-1.45-4.36-2.81-8.48-4.18-12.6l1.68-.77c1.29 2.45 2.74 4.83 3.86 7.36 2.45 5.55 4.3 11.41 7.22 16.69 4.32 7.85 9.34 15.31 14.1 22.92 1 1.61 2.18 3.12 3.47 5zm63.19-23.47c0-13.56.06-26.12-.11-38.68a3.93 3.93 0 0 0 -2.58-2.77c-7.35-.92-14.75-1.53-22.65-2.29 0 9.68-.15 18.93.15 28.16 0 1.58 1.74 3.71 3.24 4.53 6.82 3.75 13.85 7.03 21.94 11.05zm-61.36 45.26c7.32-.37 11.42-9.27 8.56-19-1.27.23-2.57.43-3.84.71-7.26 1.61-8.27 3.29-6.46 10.38.62 2.49 1.1 5.02 1.73 7.91z"/><path d="m752.63 481.29 4.26 2.91-.38 1-9.57-1.2v-.76q2.91-1 5.85-2z"/><g fill="#fff"><path d="m776.53 464.34c-9.71-4.88-19.46-7.62-26-13.78-4.87-4.62-6.52-13.5-7.78-20.8-.92-5.31 2.24-6.61 8.15-6.06 6.08.57 12.21.67 18.32.74a9.3 9.3 0 0 0 5.48-2c-6.14 0-12.28.15-18.41 0-8.79-.28-11.62-3.81-10.33-12.37 1.15-7.73 2.38-15.44 3.32-23.19.6-5 3.28-6.84 8.06-6.66 4.49.17 9 0 13.47 0v-1.51c-3.16 0-6.33.09-9.49 0-7.23-.23-9.85-3.06-9.09-10.22 1.09-10.4 2.22-20.8 3.72-31.15 1.25-8.7 5.32-11.94 13.26-11.44 9.81.63 14.91 5.09 14.9 13.79 0 10.63-.5 21.26-.78 31.9v.49c-4.8 8.54-1.47 17.82-2.2 26.71-1.34 16.21-1.25 32.53-2 48.79-.28 5.01-1.53 9.99-2.6 16.76z"/><path d="m743.49 498.77-4.09 4.83c-1.29-1.84-2.46-3.35-3.47-5-4.76-7.61-9.78-15.07-14.1-22.92-2.92-5.28-4.77-11.14-7.22-16.69-1.12-2.53-2.57-4.91-3.86-7.36l-1.68.77c1.37 4.12 2.73 8.24 4.18 12.6-3.45 1.13-6.57 2.2-9.72 3.18-2.6.8-3.5-.39-3.8-2.94-1.77-14.82 10.39-32.18 25-35.44 4.85-1.09 8.81.78 12.19 4.07 7.25 7 8 17.76 2.78 26.51-2.81 4.72-5.36 10.05-6.19 15.4-1.32 8.32 1.43 13.22 9.98 22.99z"/><path d="m796.36 383.48c2.6.34 5.21 1 7.81.94 3.41-.07 5.25 1.63 5.21 4.63-.15 12.57-.43 25.14-1 37.7-.19 3.95-3.28 5.69-7.11 5.2-4.93-.63-9.79-1.73-14.72-2.36-3.42-.44-4.59-2.59-4.46-5.49q.88-18.9 2.07-37.79c.23-3.85 2.29-5.21 6.11-4a52.13 52.13 0 0 0 6.26 1.25z"/><path d="m796.5 383.59c-9.44-2.45-11.82-8.52-9.94-17.67 1.29-6.3 1.17-12.87 1.87-19.3a14.38 14.38 0 0 1 14.09-12.72c4.68-.09 7.93 2.45 8 7 .2 9.24-.28 18.5-.54 27.75 0 1.66-.39 3.3-.59 4.95-.91 7.44-5.28 10.74-13 9.84z"/><path d="m806.68 475.3c-8.09-4-15.12-7.35-21.95-11.05-1.5-.82-3.19-2.95-3.24-4.53-.3-9.23-.15-18.48-.15-28.16 7.9.76 15.3 1.37 22.65 2.29a3.93 3.93 0 0 1 2.58 2.77c.17 12.56.11 25.12.11 38.68z"/><path d="m745.32 520.56c-.63-2.89-1.11-5.42-1.74-7.9-1.81-7.09-.8-8.77 6.46-10.38 1.27-.28 2.57-.48 3.84-.71 2.86 9.72-1.24 18.62-8.56 18.99z"/></g></g></svg>