<svg viewBox="0 0 163 349" xmlns="http://www.w3.org/2000/svg"><g transform="translate(-1101 -393)"><path d="m1264 615v127h-163v-349h163v213c-3.29-14.05-8-27.8-7.61-42.56 1-36.45 1.79-72.9 2.69-109.34.23-9.33.89-18.67.8-28-.13-11.85-8.08-19.13-19.07-16.53-7.26 1.72-13 0-18.82-3.41-2.29-1.35-4.64-3-7.15-3.47-3.6-.61-8.32-1.68-10.88 0-6.9 4.53-12.06 10.9-12.92 19.81-2 20.71-4 41.43-6.18 62.13-.76 7.25-2 14.45-2.86 20.79-4.47 0-8.44-.85-11.88.15-17.51 5.07-30.94 17-32.92 37-.52 5.32-3.08 8.57-7.5 10.88-4.13 2.15-8.23 4.37-12.38 6.5-8 4.11-11.5 10.4-10.65 19.55.93 10.11 2.4 20.41 1.36 30.39-1.65 16-.17 31.59 2 47.27 2.31 16.61 5.76 33 15.66 46.93 4.64 6.53 5.67 12.83 2.89 20.15a95.79 95.79 0 0 0 -2.59 9.54l2.1.76a84.77 84.77 0 0 0 3.49-8.61c1.72-6 5.36-9.82 11.05-12.57 9-4.34 17.67-9.31 26.26-14.39 2.85-1.68 5-4.53 7.5-6.84l-1-.94c-13.8 10.7-20.42 13.07-33.18 11.84-10.26-1-17.28-6.81-20-16.65-.75-2.73-1.48-5.47-2-8.25-3.65-18.26-8.84-36.32-7.45-55.25 1-14 1.21-27.88-1.36-41.82-1.55-8.42 2.79-15.48 10.49-18.48 8.83-3.45 17.85-6.47 26.92-9.21 6.42-1.94 10.47-.19 13.91 5.61 5.52 9.31 10.85 18.73 16.09 28.2 4.26 7.7 4.08 8-3.61 12.64-5.72 3.45-6.1 10.52-.7 14.41-.09-1.84-.85-4-.13-5.35 1-2 3-4.51 4.8-4.68s5 1.94 5.44 3.63c.63 2.29.14 6.32-1.44 7.52-6.77 5.14-18.43 1.94-22.32-5.71-1.57-3.11-2.42-6.57-4-9.7-1.29-2.66-2.6-5.63-4.74-7.49-6.41-5.53-13-10.73-14.84-21l-3.59 7.21h-6.08c5.53 2.55 10.85 4.69 13.33 10.78l-8.22 7.29.86 1.16c2.9-1.41 6-2.54 8.66-4.29s4.77-1.14 7.08.78c7.72 6.41 9.78 18.11 4.63 27.25-3 5.39-6.1 10.76-9.15 16.14l1 .66 3.95-4.75.74.49-1.6 10.34.78.16 9.7-28.11c8.4 3.87 16.37 8.2 25.73 4.16.66 2.72 1.18 4.86 2 8.31 2.72-14.23 7.7-25.51 19.07-32.77l2.07.13 4.71 29.93.86-.13-.75-9.44 1.1-.27 5 10a15.5 15.5 0 0 0 -.56-5.31c-1.86-8-4.55-16-5.38-24.12-1-9.83-2.48-12.55-12.17-14.63-16.25-3.49-24.46-19-18.16-34.45 1.56-3.84 3.84-7.17 8.92-8-2 4.21-4.28 7.79-5.35 11.69-.64 2.3-.22 5.94 1.26 7.51 2.1 2.21 5.63 3.06 8.53 4.5l-5.86 2v.76l9.59 1.24.39-1-4.27-2.92c-10.52-10.17-10.58-11.12-1.35-22.91.51-.64 1.07-1.23 1.75-2l19.65 11.2c-3.07 5.33-8.74 9.13-6.62 15.84 4.81-5.86 7.36-14.43 17.54-12 3.31.79 6.48 2.13 9.9 3.28l-2.8 4.77 7.88-3.49c3.93 11 7.12 21.92 11.66 32.2 4.4 10 4.81 20.06 2.71 30.13-3.61 17.26-7.87 34.41-12.5 51.43-2.92 10.71-10.42 17.47-21.64 18.76a91.45 91.45 0 0 1 -19.36 0c-10.91-1.09-15.6-5.78-17.31-16.67-1.2-7.56-1.89-15.21-2.84-22.81-.18-1.44-.54-2.86-.81-4.28-2.15 11.11-1 21.69 2.44 32.19 3.44 10.67 10.79 16.42 21.32 18.75 3.34.74 6.71 1.3 10.07 1.94l-.07.69-14.75 1.78.1 1 7.32.63-.07.76-5.15.26v1h17.17c1.54 7.27-2.56 14.82 3.74 22.43 1.14-3.44 2.43-5.72 2.57-8.07.28-5-.12-10-.08-15 0-4.37 1.35-8.28 5.36-10.64 11.22-6.61 16-17.23 18.94-29.28 4.27-16.9 8.79-33.77 13.14-50.64z" fill="#fff"/><path d="m1264 615c-4.35 16.91-8.87 33.78-13 50.75-2.93 12-7.72 22.67-18.94 29.28-4 2.36-5.32 6.27-5.36 10.64 0 5 .36 10 .08 15-.14 2.35-1.43 4.63-2.57 8.07-6.3-7.61-2.2-15.16-3.74-22.43h-17.17v-1l5.15-.26.07-.76-7.32-.63-.1-1 14.75-1.78.07-.69c-3.36-.64-6.73-1.2-10.07-1.94-10.53-2.33-17.88-8.08-21.32-18.75-3.39-10.5-4.59-21.08-2.44-32.19.27 1.42.63 2.84.81 4.28.95 7.6 1.64 15.25 2.84 22.81 1.71 10.89 6.4 15.58 17.31 16.67a91.45 91.45 0 0 0 19.36 0c11.22-1.29 18.72-8 21.64-18.76 4.63-17 8.89-34.17 12.5-51.43 2.1-10.07 1.69-20.17-2.71-30.13-4.54-10.28-7.73-21.16-11.66-32.2l-7.88 3.49 2.8-4.77c-3.42-1.15-6.59-2.49-9.9-3.28-10.18-2.46-12.73 6.11-17.54 12-2.12-6.71 3.55-10.51 6.62-15.84l-19.65-11.2c-.68.78-1.24 1.37-1.75 2-9.23 11.79-9.17 12.74 1.35 22.91l.14-.1c-2.91-1.44-6.44-2.29-8.54-4.5-1.48-1.57-1.9-5.21-1.26-7.51 1.07-3.9 3.34-7.48 5.35-11.69-5.08.79-7.36 4.12-8.92 8-6.3 15.49 1.91 31 18.16 34.45 9.69 2.08 11.18 4.8 12.17 14.63.83 8.14 3.52 16.09 5.38 24.12a15.5 15.5 0 0 1 .56 5.31l-5-10-1.1.27.75 9.44-.86.13-4.71-29.93-2.07-.13c-11.37 7.26-16.35 18.54-19.07 32.77-.83-3.45-1.35-5.59-2-8.31-9.36 4-17.33-.29-25.73-4.16l-9.7 28.11-.78-.16 1.6-10.34-.74-.49-3.95 4.75-1-.66c3.05-5.38 6.12-10.75 9.15-16.14 5.15-9.14 3.09-20.84-4.63-27.25-2.31-1.92-4.27-2.62-7.08-.78s-5.76 2.88-8.66 4.29l-.86-1.16 8.22-7.29c-2.48-6.09-7.8-8.23-13.33-10.78h6.08l3.59-7.21c1.79 10.24 8.43 15.44 14.84 21 2.14 1.86 3.45 4.83 4.74 7.49 1.53 3.13 2.38 6.59 4 9.7 3.89 7.65 15.55 10.85 22.32 5.71 1.58-1.2 2.07-5.23 1.44-7.52-.46-1.69-3.67-3.81-5.44-3.63s-3.77 2.71-4.8 4.68c-.72 1.37 0 3.51.13 5.35-5.4-3.89-5-11 .7-14.41 7.69-4.65 7.87-4.94 3.61-12.64-5.24-9.47-10.57-18.89-16.09-28.2-3.44-5.8-7.49-7.55-13.91-5.61-9.07 2.74-18.09 5.76-26.92 9.21-7.7 3-12 10.06-10.49 18.48 2.57 13.94 2.4 27.82 1.36 41.82-1.39 18.93 3.8 37 7.45 55.25.56 2.78 1.29 5.52 2 8.25 2.72 9.84 9.74 15.66 20 16.65 12.76 1.23 19.38-1.14 33.18-11.84l1 .94c-2.48 2.31-4.65 5.16-7.5 6.84-8.59 5.08-17.28 10-26.26 14.39-5.69 2.75-9.33 6.55-11.05 12.57a84.77 84.77 0 0 1 -3.49 8.61l-2.1-.76a95.79 95.79 0 0 1 2.59-9.54c2.78-7.32 1.75-13.62-2.89-20.15-9.9-14-13.35-30.32-15.66-46.93-2.19-15.68-3.67-31.29-2-47.27 1-10-.43-20.28-1.36-30.39-.85-9.15 2.66-15.44 10.65-19.55 4.15-2.13 8.25-4.35 12.38-6.5 4.42-2.31 7-5.56 7.5-10.88 2-20.08 15.41-32 32.92-37 3.44-1 7.41-.15 11.88-.15.89-6.34 2.1-13.54 2.86-20.79 2.17-20.7 4.19-41.42 6.18-62.13.86-8.91 6-15.28 12.92-19.81 2.56-1.69 7.28-.62 10.88 0 2.51.44 4.86 2.12 7.15 3.47 5.87 3.45 11.56 5.13 18.82 3.41 11-2.6 18.94 4.68 19.07 16.53.09 9.32-.57 18.66-.8 28-.9 36.44-1.67 72.89-2.69 109.34-.42 14.76 4.32 28.51 7.61 42.56zm-23.82-149.1a52.29 52.29 0 0 1 -6.27-1.25c-3.83-1.25-5.89.12-6.13 4q-1.15 18.93-2.07 37.87c-.14 2.91 1 5.06 4.47 5.5 4.94.64 9.81 1.74 14.75 2.37 3.84.49 6.94-1.26 7.13-5.22.61-12.58.88-25.18 1-37.78 0-3-1.81-4.71-5.23-4.64-2.6.06-5.22-.6-7.83-.94 7.79.9 12.17-2.4 13.08-9.87.21-1.65.55-3.29.6-4.95.26-9.27.73-18.55.54-27.82-.1-4.6-3.35-7.14-8-7a14.4 14.4 0 0 0 -14.12 12.75c-.71 6.44-.59 13-1.89 19.34-1.88 9.1.5 15.19 9.97 17.64zm-20.33 80.78c1.2-5.86 2.68-10.17 2.88-14.53 1-21.29 1.67-42.59 2.37-63.9.15-4.34-2.18-9 1.78-12.8.27-.26.13-1 .14-1.46.29-10.65.79-21.31.8-32 0-8.8-5-13.24-14.81-13.95-8.15-.58-12.22 2.74-13.51 11.81-1.46 10.38-2.57 20.81-3.69 31.23-.71 6.57 1.89 9.52 8.53 9.84 3.37.16 6.76 0 10.14 0v1.62c-4.13 0-8.27.1-12.4 0-6.92-.2-8.28.79-9.27 7.43-1.09 7.25-2.07 14.51-3.17 21.75-1.42 9.34 1.24 12.76 10.62 13.05 6 .17 12 0 18 0a9.6 9.6 0 0 1 -5.73 2c-6.13-.11-12.27-.3-18.37-.81-5.55-.47-7.53.36-7.94 5.54-.65 8.39 2.34 16.81 8.1 21.72 6.81 5.94 16.17 8.78 25.53 13.46zm-32.85 34.76c-8.86-10.75-11.29-14.8-10-23 .88-5.51 3.54-11 6.41-15.88 5.07-8.66 4.13-19.67-3.23-26.52-3.91-3.62-8.3-5.07-13.74-3.32-13.18 4.25-23 17.61-23.3 32.34-.14 6.16.52 6.65 6.53 4.72 2.31-.74 4.59-1.54 7-2.36-1.46-4.48-2.77-8.52-4.08-12.56l1.6-.68c1.23 2 3.33 4 3.52 6.15.78 8.41 5.64 14.84 9.74 21.63 4.87 8 10 15.94 15.28 24.28zm38-67.44c0 9.8-.09 19.23.11 28.65a5 5 0 0 0 2.34 3.54c7.26 3.88 14.65 7.51 22.86 11.67 0-13.74.05-26.48-.11-39.22 0-.83-1.53-2.25-2.48-2.36-7.35-.91-14.72-1.54-22.72-2.28zm-27.38 70.17c-1.75.32-3.54.52-5.27 1-6 1.57-6.91 3.21-5.45 9.39.66 2.81 1.26 5.63 1.9 8.51 7.11.09 11.1-8.07 8.86-18.92z"/><path d="m1196.21 563.81 4.27 2.92-.39 1-9.59-1.24v-.76l5.86-2z"/><g fill="#fff"><path d="m1219.85 546.68c-9.36-4.68-18.72-7.52-25.56-13.35-5.76-4.91-8.75-13.33-8.1-21.72.41-5.18 2.39-6 7.94-5.54 6.1.51 12.24.7 18.37.81a9.6 9.6 0 0 0 5.73-2c-6 0-12 .14-18 0-9.38-.29-12-3.71-10.62-13.05 1.1-7.24 2.08-14.5 3.17-21.75 1-6.64 2.35-7.63 9.27-7.43 4.13.12 8.27 0 12.4 0v-1.65c-3.38 0-6.77.13-10.14 0-6.64-.32-9.24-3.27-8.53-9.84 1.12-10.42 2.23-20.85 3.69-31.23 1.29-9.07 5.36-12.39 13.51-11.81 9.82.71 14.82 5.15 14.81 13.95 0 10.65-.51 21.31-.8 32 0 .5.13 1.2-.14 1.46-4 3.83-1.63 8.46-1.78 12.8-.7 21.31-1.38 42.61-2.37 63.9-.17 4.28-1.65 8.59-2.85 14.45z"/><path d="m1187 581.44-4.26 4.85c-5.26-8.34-10.41-16.23-15.28-24.28-4.1-6.79-9-13.22-9.74-21.63-.19-2.14-2.29-4.11-3.52-6.15l-1.6.68c1.31 4 2.62 8.08 4.08 12.56-2.41.82-4.69 1.62-7 2.36-6 1.93-6.67 1.44-6.53-4.72.35-14.73 10.12-28.09 23.3-32.34 5.44-1.75 9.83-.3 13.74 3.32 7.36 6.85 8.3 17.86 3.23 26.52-2.87 4.9-5.53 10.37-6.41 15.88-1.3 8.15 1.13 12.2 9.99 22.95z"/><path d="m1240 465.79c2.61.34 5.23 1 7.83.94 3.42-.07 5.26 1.63 5.23 4.64-.16 12.6-.43 25.2-1 37.78-.19 4-3.29 5.71-7.13 5.22-4.94-.63-9.81-1.73-14.75-2.37-3.43-.44-4.61-2.59-4.47-5.5q.88-18.94 2.07-37.87c.24-3.86 2.3-5.23 6.13-4a52.29 52.29 0 0 0 6.27 1.25z"/><path d="m1240.18 465.9c-9.47-2.45-11.85-8.54-10-17.71 1.3-6.31 1.18-12.9 1.89-19.34a14.4 14.4 0 0 1 14.12-12.75c4.69-.09 7.94 2.45 8 7 .19 9.27-.28 18.55-.54 27.82 0 1.66-.39 3.3-.6 4.95-.91 7.47-5.29 10.77-13.08 9.87z"/><path d="m1225 514c7.91.76 15.33 1.39 22.72 2.28 1 .11 2.47 1.53 2.48 2.36.16 12.74.11 25.48.11 39.22-8.21-4.16-15.6-7.79-22.86-11.67a5 5 0 0 1 -2.34-3.54c-.11-9.44-.11-18.87-.11-28.65z"/><path d="m1197.66 584.15c2.24 10.89-1.75 19-8.82 18.88-.64-2.88-1.24-5.7-1.9-8.51-1.46-6.18-.55-7.82 5.45-9.39 1.73-.46 3.52-.66 5.27-.98z"/></g></g></svg>