<svg viewBox="0 0 480 395" xmlns="http://www.w3.org/2000/svg"><g transform="translate(-295.82 -194.32)"><path d="m775.82 248.21v341.11h-479.56q0-195.5.1-391c0-1.25-2.06-4.31 1.89-4 .39 1.6.68 3.24 1.19 4.81q16.44 50.45 32.91 100.87 35.91 110 71.72 220.1c1.27 3.91 2.85 5.52 7.19 5.41 12.28-.33 24.58-.22 36.87 0 3.44 0 5.28-.84 6.53-4.36q35.34-99.5 70.94-198.86 22.88-64 45.83-127.94h204.39v44.88a14.62 14.62 0 0 1 -1-1.73c-4.32-10.69-14.05-14.74-24.71-10.27-7.68 3.21-12.44 8.94-15.25 16.73-3.89 10.76-8.09 21.41-12.3 32-4.47 11.25-9.27 22.38-13.59 33.69-2.48 6.5-4.23 13.28-6.49 19.88-.4 1.16-1.67 2-2.54 3a37.84 37.84 0 0 1 -2.2-3.35 11.17 11.17 0 0 1 -.65-2.4q-13.68-52.28-27.35-104.54c-2-7.53-6.5-13-13.74-15.16-3.72-1.13-9.2-1.45-12.07.52-12.47 8.55-15.61 21.49-13.11 35.63 1.92 10.9 5.74 21.45 7.72 32.34 3.14 17.28 5.34 34.73 8.14 52.07 1 6-1.63 8.52-7.07 10.34-15 5-24.47 15.45-27.68 31.15-.69 3.4-1 6.88-1.53 10.33-1.13 7.86-5.23 13.47-12.57 16.64-1.68.72-3.34 1.48-5 2.34-12.06 6.4-15.7 14.06-13.15 27.48 1.24 6.53 2.61 13 3.6 19.6 3.47 23 6.17 46.09 10.38 68.93 3.29 17.91 8.67 35.24 24.7 46.87 1.9 1.38 2.67 5.55 2.48 8.31-.42 5.88-1.82 11.69-2.78 17.32.87.46 1.15.74 1.43.75 5.77.16 9.4-4.48 9.51-11.42.08-4.86.78-9.71 1.21-14.56l2 .15v16.38l1.37.1a25.71 25.71 0 0 0 .72-4.4c0-12.08 6.36-19.71 16.74-24.89 7-3.47 10.62-9.8 10.15-16.36-.3.11-.69.14-.87.35-1 1.28-2.06 2.6-3.07 3.91-7.86 10.16-17.89 16.18-31 16.2-10.53 0-14.78-3.11-18.93-12.83-6.37-14.9-7.74-30.86-10-46.58-3.65-25.45-3.76-51.36-10.22-76.46-1.49-5.77.22-8.66 5.68-11.27 11.23-5.36 22.55-10.54 33.86-15.73a28.74 28.74 0 0 1 4.62-1.13l-4.26 9.22 1.1.94 10-6.43c6.13 8.29 18.7 12.6 14.72 26.74l3.74-5.51c2.43 6 4.33 10.75 6.4 15.87-8.21 3.31-14.85 7.78-13.19 17.88.62 3.75 6 7.88 10.22 7.53-1.57-2-3.81-3.46-5.37-5.44-2.89-3.68-1.78-7.46 2.65-10.49s8.12-2.87 10.52.5c2.9 4.06 2.3 11.41-1.34 16.4-3 4.18-8.41 6.32-13.2 4.44a24.31 24.31 0 0 1 -13.21-12.1 62.9 62.9 0 0 0 -7.89-12.39c-5.47-6.44-11.52-12.38-17.33-18.53-1.2-1.28-2.37-2.58-3.55-3.87.78 5.64-3.59 5.3-6.95 6.52 7.88 1.44 13.24 6.08 18.09 11.67 5.27 6.08 5.2 6.73 1.18 13.75-5.5 9.62-10.54 19.49-15.72 29.29a17.76 17.76 0 0 0 -1 3.47l1.28.57 10.08-19.76.9.34c.15 1.3.3 2.6.58 5.07l10.67-23.24c4.19 5.46 8 10.3 11.63 15.2 3 4 5.88 8.11 8.26 11.4 2.09-.95 5.31-3.72 7.52-3.07 2.71.8 4.79 4.31 6.72 6.95 1.23 1.68 1.72 3.9 2.53 5.88 2.57-16.6 4.91-32.59 21.22-43.18-.81 7-1.48 12.85-2 17.54 5.81 3.61 5.31 10.59 10.33 14.06-.51-3.67-1-7.34-1.68-12l8.45 9a174 174 0 0 0 -6.49-20.65c-2.42-6.64-4.87-13.27-7.36-20.05l7.59-3.34a22.34 22.34 0 0 0 -8.33-1.74c-18.8-1.3-31.49-18.75-25.52-35.12 1.66-4.56 4.45-7.64 10.25-7.32-2.08 6.22-9.3 10.94-4.36 19.43 1.82-5.48 3.22-10.18 5-14.75.46-1.22 2.22-3 3-2.87 8.54 1.78 17 3.9 25.75 6-2.14 4.26-4.22 7.82-5.79 11.59-2.32 5.6-4.35 6.76-10.37 5.16l-9-2.41-.41 1.75c5.87 1.27 11.72 2.69 17.64 3.7 1 .18 2.63-1.12 3.55-2.13 3.91-4.28 7.61-8.77 11.5-13.08s7.26-4.38 11.28-.18c-2.68 5.56-5.4 11.18-8.11 16.81l1.77 1.11q6.07-7.2 12.14-14.42c5.18 9.77 10.3 19.2 15.22 28.73 5.06 9.79 3.33 20.79 5.21 31.15.16.9-.4 1.93-.67 2.89-6.25 21.52-12.41 43.07-18.8 64.54-3.43 11.52-10.87 19.63-22.73 22.19-16 3.47-25.38 4.23-29.8-15.42-2.16-9.6-5.15-19-7.76-28.53l-1.7-.08c-.52 4.95-1.93 10-1.36 14.83a103 103 0 0 0 4.78 19.77c5 15.34 10.68 19.53 26.65 20.67.21 0 .4.36.83.77l-6.48 3.87.38.9 15.93-4.62.45 1.08-5 4.07.31.58 8.05-2.47c1.21 4.18 2.31 8 3.42 11.88l2.22-.3c.18-4.5.52-9 .5-13.49s.9-8.68 4.92-11.32c4.6-3 7-7.37 8.42-12.5 1.18-4.15 2.77-8.18 4-12.32 7.14-24.35 14.46-48.65 21.1-73.13 1.21-4.45.06-9.78-.88-14.52-1.18-6-3.67-11.64-4.87-17.59-1.7-8.45-2.65-17.05-4.1-25.55-1.58-9.27-1.85-18.44.2-27.71 1.49-6.77 2.3-13.69 3.49-20.53.71-4.08 1.17-8.26 2.44-12.16 5.48-16.89 11.4-33.65 16.79-50.57 2.91-9.17 5.07-18.52 7.57-27.77zm-129.34 220.25-2.33-1q-7.95 17.6-15.91 35.17l1.57.72q8.34-17.44 16.67-34.89z" fill="#fff"/><path d="m571.43 194.35q-22.92 64-45.83 127.94-35.55 99.38-70.94 198.81c-1.25 3.52-3.09 4.4-6.53 4.36-12.29-.17-24.59-.28-36.87 0-4.34.11-5.92-1.5-7.19-5.41q-35.71-110.05-71.72-220.05-16.44-50.4-32.91-100.81c-.51-1.57-.8-3.21-1.19-4.81h45.86c29.09 95.33 62.39 189.38 87.31 286.75.6-1.55 1-2.44 1.27-3.35 12.82-41.37 25.05-82.94 38.59-124.07 17.55-53.29 36.15-106.24 54.29-159.33z"/><path d="m525.57 194.35c-18.14 53.09-36.74 106-54.29 159.33-13.54 41.13-25.77 82.7-38.59 124.07-.28.91-.67 1.8-1.27 3.35-24.92-97.37-58.22-191.42-87.31-286.75z" fill="#fff"/><path d="m775.82 248.21c-2.5 9.25-4.66 18.6-7.57 27.72-5.39 16.92-11.31 33.68-16.79 50.57-1.27 3.9-1.73 8.08-2.44 12.16-1.19 6.84-2 13.76-3.49 20.53-2 9.27-1.78 18.44-.2 27.71 1.45 8.5 2.4 17.1 4.1 25.55 1.2 5.95 3.69 11.64 4.87 17.59.94 4.74 2.09 10.07.88 14.52-6.64 24.48-14 48.78-21.1 73.13-1.22 4.14-2.81 8.17-4 12.32-1.45 5.13-3.82 9.47-8.42 12.5-4 2.64-4.95 6.74-4.92 11.32s-.32 9-.5 13.49l-2.22.3c-1.11-3.85-2.21-7.7-3.42-11.88l-8.05 2.47-.31-.58 5-4.07-.45-1.08-15.89 4.62-.38-.9 6.48-3.87c-.43-.41-.62-.75-.83-.77-16-1.14-21.64-5.33-26.65-20.67a103 103 0 0 1 -4.78-19.77c-.57-4.83.84-9.88 1.36-14.83l1.7.08c2.61 9.51 5.6 18.93 7.76 28.53 4.42 19.65 13.78 18.89 29.8 15.42 11.86-2.56 19.3-10.67 22.73-22.19 6.39-21.47 12.55-43 18.8-64.54.27-1 .83-2 .67-2.89-1.88-10.36-.15-21.36-5.21-31.15-4.92-9.53-10-19-15.22-28.73q-6.06 7.18-12.13 14.42l-1.77-1.11c2.71-5.63 5.43-11.25 8.11-16.81-4-4.2-7.37-4.16-11.28.18s-7.59 8.8-11.5 13.08c-.92 1-2.5 2.31-3.55 2.13-5.92-1-11.77-2.43-17.64-3.7l.41-1.75 9 2.41c6 1.6 8 .44 10.37-5.16 1.57-3.77 3.65-7.33 5.79-11.59-8.75-2.09-17.21-4.21-25.75-6-.8-.17-2.56 1.65-3 2.87-1.76 4.57-3.16 9.27-5 14.75-4.94-8.49 2.28-13.21 4.36-19.43-5.8-.32-8.59 2.76-10.25 7.32-6 16.37 6.72 33.82 25.52 35.12a22.34 22.34 0 0 1 8.33 1.74l-7.59 3.34c2.49 6.78 4.94 13.41 7.36 20.05a174 174 0 0 1 6.49 20.65l-8.45-9c.65 4.66 1.17 8.33 1.68 12-5-3.47-4.52-10.45-10.33-14.06.54-4.69 1.21-10.58 2-17.54-16.31 10.64-18.65 26.63-21.22 43.27-.81-2-1.3-4.2-2.53-5.88-1.93-2.64-4-6.15-6.72-6.95-2.21-.65-5.43 2.12-7.52 3.07-2.38-3.29-5.26-7.39-8.26-11.4-3.67-4.9-7.44-9.74-11.63-15.2l-10.67 23.24c-.28-2.47-.43-3.77-.58-5.07l-.9-.34-10.08 19.72-1.28-.57a17.76 17.76 0 0 1 1-3.47c5.18-9.8 10.22-19.67 15.72-29.29 4-7 4.09-7.67-1.18-13.75-4.85-5.59-10.21-10.23-18.09-11.67 3.36-1.22 7.73-.88 6.95-6.52 1.18 1.29 2.35 2.59 3.55 3.87 5.81 6.15 11.86 12.09 17.33 18.53a62.9 62.9 0 0 1 7.89 12.39 24.31 24.31 0 0 0 13.21 12.1c4.79 1.88 10.17-.26 13.2-4.44 3.64-5 4.24-12.34 1.34-16.4-2.4-3.37-6.06-3.54-10.52-.5s-5.54 6.81-2.65 10.49c1.56 2 3.8 3.42 5.37 5.44-4.21.35-9.6-3.78-10.22-7.53-1.66-10.1 5-14.57 13.19-17.88-2.07-5.12-4-9.84-6.4-15.87l-3.74 5.51c4-14.14-8.59-18.45-14.72-26.74l-10 6.43-1.1-.94 4.31-9.14a28.74 28.74 0 0 0 -4.62 1.13c-11.31 5.19-22.63 10.37-33.86 15.73-5.46 2.61-7.17 5.5-5.68 11.27 6.46 25.1 6.57 51 10.22 76.46 2.25 15.72 3.62 31.68 10 46.58 4.15 9.72 8.4 12.85 18.93 12.83 13.13 0 23.16-6 31-16.2 1-1.31 2-2.63 3.07-3.91.18-.21.57-.24.87-.35.47 6.56-3.19 12.89-10.15 16.36-10.42 5.18-16.79 12.86-16.78 24.86a25.71 25.71 0 0 1 -.72 4.4l-1.37-.1v-16.3l-2-.15c-.43 4.85-1.13 9.7-1.21 14.56-.11 6.94-3.74 11.58-9.51 11.42-.28 0-.56-.29-1.43-.75 1-5.63 2.36-11.44 2.78-17.32.19-2.76-.58-6.93-2.48-8.31-16-11.63-21.41-29-24.7-46.87-4.21-22.84-6.91-45.95-10.38-68.93-1-6.57-2.36-13.07-3.6-19.6-2.55-13.42 1.09-21.08 13.15-27.48 1.61-.86 3.27-1.62 5-2.34 7.34-3.17 11.44-8.78 12.57-16.64.5-3.45.84-6.93 1.53-10.33 3.21-15.7 12.64-26.11 27.68-31.15 5.44-1.82 8-4.34 7.07-10.34-2.8-17.34-5-34.79-8.14-52.07-2-10.89-5.8-21.44-7.72-32.34-2.5-14.14.64-27.08 13.11-35.63 2.87-2 8.35-1.65 12.07-.52 7.24 2.18 11.78 7.63 13.74 15.16q13.61 52.29 27.35 104.54a11.17 11.17 0 0 0 .65 2.4 37.84 37.84 0 0 0 2.2 3.35c.87-1 2.14-1.87 2.54-3 2.26-6.6 4-13.38 6.49-19.88 4.32-11.31 9.12-22.44 13.59-33.69 4.21-10.64 8.41-21.29 12.3-32 2.81-7.79 7.57-13.52 15.25-16.73 10.66-4.47 20.39-.42 24.71 10.27a14.62 14.62 0 0 0 1 1.73zm-150.1 126c2.46-3.31 3.81-2.46 5.55.37 4.41 7.17 8.49 14.69 13.87 21.09 7.65 9.1 16 17.56 19.59 30l6.64-8c-16.93-21.31-17.63-31.52-3.48-50.86l-12.82-19-14.07 15.45-6.43-4.55 17-12.89c-19.77-3.94-39 18.09-33.82 43.57l15.25-4.71zm17.85-105.71c.72 5.86 1 11.53 2.21 17a196.12 196.12 0 0 0 6.56 24.79c2.28 6.35 8.09 8.73 14.62 7.58a55.41 55.41 0 0 0 13.15-4.21c3.65-1.68 5.62-4.6 4.5-9.32-2-8.52-3.44-17.2-5.14-25.81-1.26-6.39-2.56-12.77-3.92-19.49-8.73 6.86-8.73 6.86-31.98 9.46zm11.43-1.95c2.61-.41 5.27-.59 7.81-1.25 6.42-1.7 10-6.06 8.86-12.44a263 263 0 0 0 -7.43-32c-3-9.4-12.07-11.95-20.71-7-5.25 3-7.13 7.95-6.94 13.45a223.84 223.84 0 0 0 2.12 25.76c1.45 9.54 6.48 13.17 16.29 13.48zm74 8.92c-3.94 9.58-7.84 17.79-10.66 26.36a50.45 50.45 0 0 0 -2 15.7c0 7.37 4.19 11.7 11.58 12.43a89.71 89.71 0 0 0 14.38-.15 4.33 4.33 0 0 0 3.08-2.45c4.27-13.24 8.35-26.53 12.77-40.75-11.95 2.39-21.36-.83-29.15-11.14zm20.46 10.74c5.61-.45 9.29-2.86 11.23-7.71 3.26-8.16 6.06-16.53 9.64-24.55 2.19-4.89 1.6-9.07-.42-13.69-2.36-5.4-6.09-8.62-12-9.11-6.18-.51-10.84 2.3-13.19 7.8-4.24 9.88-8.2 19.91-11.76 30.06-1.89 5.39-.18 9.58 4.69 12.36 3.7 2.1 7.88 3.26 11.82 4.84zm-94.77 32.29c-2.23 14.26-.4 26.72 10.52 36.38a9.33 9.33 0 0 0 6.64 2.06c6.37-.9 12.63-2.62 19-3.81 3.44-.64 4.45-2.84 3.91-5.75-2.22-11.81-4.63-23.58-7.11-36.05-10.37 6.75-20.65 11.24-32.96 7.17zm15.39 43.23c1.39 7.61 5.75 11.16 12.56 12.26 7.36 1.2 14.69 2.63 22 4l27.58 5c-1.32 11.65 4.31 19.61 11.36 27-1.33-11.12-3.52-22-5.16-32.94-.84-5.56-3.86-8.56-8.83-10.13-8.7-2.75-17.62-4.93-26.07-8.28-11.8-4.71-22.33-.33-33.44 3.09zm68.52 5.27c2.45-11.93 4.76-23.15 7.25-35.28-13.8 3.27-25-.81-35.59-9.31-2.15 9.62-4.52 18.24-5.74 27-.34 2.46 2.1 6.95 4.32 7.82 9.5 3.77 19.39 6.49 29.76 9.77zm-58.6 53.31c-4 0-8.81 3.26-7.72 5.8a14.56 14.56 0 0 0 6.39 7.13c2.45 1.16 7.51-4.17 7.5-7 0-4.08-2.04-6.09-6.17-5.93z"/><path d="m646.48 468.46q-8.33 17.44-16.67 34.89l-1.57-.72q8-17.58 15.91-35.17z"/><g fill="#fff"><path d="m625.72 374.22 7.28 10.46-15.25 4.71c-5.18-25.48 14-47.51 33.82-43.57l-17 12.89 6.43 4.55 14.11-15.41 12.82 19c-14.15 19.34-13.45 29.55 3.48 50.86l-6.64 8c-3.61-12.48-11.94-20.94-19.59-30-5.38-6.4-9.46-13.92-13.87-21.09-1.78-2.86-3.13-3.71-5.59-.4z"/><path d="m643.57 268.5c23.25-2.6 23.25-2.6 32-9.46 1.36 6.72 2.66 13.1 3.92 19.49 1.7 8.61 3.1 17.29 5.14 25.81 1.12 4.72-.85 7.64-4.5 9.32a55.41 55.41 0 0 1 -13.13 4.21c-6.53 1.15-12.34-1.23-14.62-7.58a196.12 196.12 0 0 1 -6.56-24.79c-1.23-5.5-1.53-11.14-2.25-17z"/><path d="m655 266.55c-9.81-.31-14.84-3.94-16.29-13.44a223.84 223.84 0 0 1 -2.12-25.76c-.19-5.5 1.69-10.45 6.94-13.45 8.64-4.94 17.75-2.39 20.71 7a263 263 0 0 1 7.43 32c1.15 6.38-2.44 10.74-8.86 12.44-2.54.66-5.2.8-7.81 1.21z"/><path d="m729 275.47c7.78 10.31 17.19 13.55 29.12 11.14-4.42 14.22-8.5 27.51-12.77 40.75a4.33 4.33 0 0 1 -3.08 2.45 89.71 89.71 0 0 1 -14.38.15c-7.39-.73-11.56-5.06-11.58-12.43a50.45 50.45 0 0 1 2-15.7c2.86-8.57 6.76-16.78 10.69-26.36z"/><path d="m749.47 286.21c-3.94-1.58-8.12-2.74-11.77-4.84-4.87-2.78-6.58-7-4.69-12.36 3.56-10.15 7.52-20.18 11.76-30.06 2.35-5.5 7-8.31 13.19-7.8 5.87.49 9.6 3.71 12 9.11 2 4.62 2.61 8.8.42 13.69-3.58 8-6.38 16.39-9.64 24.55-1.98 4.85-5.66 7.26-11.27 7.71z"/><path d="m654.69 318.5c12.26 4.07 22.59-.42 32.92-7.17 2.48 12.47 4.89 24.24 7.11 36.05.54 2.91-.47 5.11-3.91 5.75-6.33 1.19-12.59 2.91-19 3.81a9.33 9.33 0 0 1 -6.64-2.06c-10.88-9.66-12.71-22.12-10.48-36.38z"/><path d="m670.08 361.73c11.11-3.42 21.64-7.8 33.47-3.12 8.45 3.35 17.37 5.53 26.07 8.28 5 1.57 8 4.57 8.83 10.13 1.64 11 3.83 21.82 5.16 32.94-7.05-7.42-12.68-15.38-11.36-27l-27.58-5c-7.34-1.33-14.67-2.76-22-4-6.84-1.07-11.2-4.62-12.59-12.23z"/><path d="m738.6 367c-10.37-3.29-20.26-6-29.76-9.74-2.22-.87-4.66-5.36-4.32-7.82 1.22-8.79 3.59-17.41 5.74-27 10.61 8.5 21.79 12.58 35.59 9.31-2.49 12.11-4.8 23.33-7.25 35.25z"/><path d="m680 420.32c4.11-.17 6.15 1.84 6.17 5.93 0 2.82-5.05 8.15-7.5 7a14.56 14.56 0 0 1 -6.39-7.13c-1.07-2.55 3.72-5.84 7.72-5.8z"/></g></g></svg>