<svg viewBox="0 0 203 396" xmlns="http://www.w3.org/2000/svg"><g transform="translate(-1040 -357)"><path d="m1084 753h-44v-396h203v396h-155c5.3-3.38 7.27-8.07 6.83-14.4-.28-4 .88-8.15 1.4-12.23l1.7.15v16.48l1.39.13a23.76 23.76 0 0 0 .81-4.35c-.05-12.11 6.23-19.92 16.72-25 6.86-3.31 9.92-9.1 10.38-16.52a24.8 24.8 0 0 0 -4.34 4.6c-7.8 10-17.81 15.87-30.76 15.94-10.6.06-14.92-3.11-19.08-12.77-6.3-14.61-7.68-30.28-9.92-45.72-3.77-26-3.83-52.51-10.49-78.15-1.3-5 .95-8.72 5.7-10.91 11.49-5.3 23-10.67 34.46-15.94 1-.48 2.29-.48 4.33-.87l-4.49 9 1.18 1c3.24-2.07 6.48-4.14 10.23-6.52 5.76 8.46 18.72 12.61 14.54 26.9l3.8-5.41c1.5 3.57 2.56 6 3.54 8.44s1.84 4.85 2.73 7.21c-10.77 5.56-14.6 10.73-13.25 17.51.78 3.9 5.81 8.29 10.75 8.72a78.38 78.38 0 0 1 -5.65-6c-2.85-3.76-1.85-7.51 2.56-10.56s8.19-2.9 10.59.4c2.94 4.05 2.38 11.39-1.26 16.45-3 4.21-8.39 6.38-13.22 4.54a24.37 24.37 0 0 1 -13.31-12.09 65 65 0 0 0 -7.89-12.44c-5.6-6.58-11.78-12.67-17.72-19l-4.11-4.37c.68 5.49-2.07 6.8-6.21 7.29 7.54 1.42 12.81 5.67 17.51 10.95 6.32 7.11 6.08 7.42 1.13 15.81-5.47 9.28-10.21 19-15.2 28.56a11.29 11.29 0 0 0 -.61 3.19l1.21.33 10-19.63.91.3.61 5.13c3.86-8.44 7.2-15.73 10.68-23.31 4.4 5.64 8.47 10.69 12.36 15.87 2.82 3.77 5.42 7.7 7.59 10.81 2.1-1 4.85-3.23 7.66-3.31 4.33-.12 5.59 4 6.93 7.49.73 1.87 1.51 3.72 2.26 5.58 2.63-16.63 4.94-32.73 21.33-43.32q-1.2 10.38-2 17.73c6 3.23 5.12 10.77 10.71 14.88l-2.13-13.07 8.63 9.08.76-.56c-4.87-13.36-9.75-26.71-14.67-40.21l7.6-3.39a22 22 0 0 0 -8.3-1.73c-18.87-1.28-31.63-18.74-25.69-35.18 1.66-4.59 4.49-7.63 10.34-7.44-2.11 6.29-9.34 11-4.41 19.55 1.81-5.48 3.19-10.2 5-14.75.51-1.27 2.52-3.05 3.48-2.85 8.42 1.73 16.76 3.86 25.42 5.94-2.14 4.21-4.24 7.78-5.81 11.57-2.35 5.65-4.35 6.81-10.38 5.21-3-.8-6-1.63-9.07-2.45l-.43 1.82c6 1.27 12.08 2.66 18.17 3.7.9.15 2.26-1.18 3.09-2.11 3.9-4.33 7.63-8.8 11.53-13.13s7.22-4.43 11.36-.25l-8.15 16.9 1.71 1.07 12.6-14.69c1.89 4.14 3 7.92 5.14 11 9.19 13.55 14.61 28.27 14.71 44.75a28.46 28.46 0 0 1 -.55 7.85c-5.76 20.17-11.84 40.25-17.53 60.44-5.06 17.91-14.26 25.85-32.77 27.66-9.76 1-16.79-.84-19.92-13.16-2.76-10.88-6-21.64-9-32.45l-1.65-.13c-.53 5-2 10-1.38 14.87a106.41 106.41 0 0 0 4.94 20.32c4.91 14.93 10.74 19.15 26.58 20.26.22 0 .42.35.88.76l-6.51 3.9.37.9 16-4.62.44 1.07-5 4.08.3.59 8.09-2.48 3.42 11.92 2.23-.3c.19-4.5.53-9 .51-13.51s.89-8.71 4.92-11.37c4.61-3 7-7.37 8.47-12.52 1.18-4.16 2.78-8.2 4-12.35 7.12-24.26 14.26-48.52 21.24-72.81a22.62 22.62 0 0 0 -2-17.87c-1.8-3.25-2.62-7.17-3.27-10.89-1.71-9.84-3.53-19.7-4.46-29.62a155 155 0 0 1 -.31-25.31c.53-7.4 2.46-14.71 3.78-22.06.8-4.4 1.17-9 2.53-13.19 6.12-19 12.78-37.86 18.7-56.93a135.86 135.86 0 0 0 5.46-25.33c1.35-12.33-8.95-21-21-18.52-10 2.06-16.19 8.4-19.7 17.88-4.33 11.7-9 23.28-13.63 34.86-3.16 7.87-6.84 15.55-9.76 23.51-3.37 9.22-6.13 18.67-9.28 28-.35 1-1.52 1.8-2.31 2.69a21 21 0 0 1 -2.17-2.77 13 13 0 0 1 -.78-2.89c-9.4-34.83-18.48-69.83-27.8-104.73a27.24 27.24 0 0 0 -5-9.63c-4.57-5.74-15.85-9.65-19.68-6.38-5.73 4.89-12.39 9.72-13.47 18-.86 6.55-1.66 13.41-.61 19.82 1.75 10.61 5.58 20.87 7.5 31.46 3.15 17.33 5.77 34.77 8 52.25 1 7.61.25 7.64-7.33 10.42-15.37 5.64-25.8 16.42-27.42 32.62-1.44 14.44-7 23.7-20.64 29.16-9.66 3.87-13.68 12.32-12 22.86 1.21 7.73 2.85 15.39 4 23.12 3.45 22.88 6.18 45.89 10.32 68.65 3.33 18.32 8.76 36 25.23 47.82 1.79 1.28 2.39 5.34 2.19 8-.45 6.26-1.69 12.48-2.69 18.73zm28.35-120.2-2.42-1q-7.93 17.6-15.84 35.2l1.56.69q8.35-17.45 16.72-34.89z" fill="#fff"/><path d="m1084 753c1-6.25 2.22-12.47 2.68-18.75.2-2.67-.4-6.73-2.19-8-16.47-11.8-21.9-29.5-25.23-47.82-4.14-22.76-6.87-45.77-10.32-68.65-1.17-7.73-2.81-15.39-4-23.12-1.65-10.54 2.37-19 12-22.86 13.64-5.46 19.2-14.72 20.64-29.16 1.62-16.2 12.05-27 27.42-32.62 7.58-2.78 8.3-2.81 7.33-10.42-2.23-17.48-4.85-34.92-8-52.25-1.92-10.59-5.75-20.85-7.5-31.46-1-6.41-.25-13.27.61-19.82 1.08-8.25 7.74-13.08 13.47-18 3.83-3.27 15.11.64 19.68 6.38a27.24 27.24 0 0 1 5 9.63c9.32 34.9 18.42 69.87 27.57 104.81a13 13 0 0 0 .78 2.89 21 21 0 0 0 2.17 2.77c.79-.89 2-1.65 2.31-2.69 3.15-9.3 5.91-18.75 9.28-28 2.92-8 6.6-15.64 9.76-23.51 4.65-11.58 9.3-23.16 13.63-34.86 3.51-9.48 9.66-15.82 19.7-17.88 12.1-2.49 22.4 6.19 21 18.52a135.86 135.86 0 0 1 -5.46 25.33c-5.92 19.07-12.58 37.92-18.7 56.93-1.36 4.23-1.73 8.79-2.53 13.19-1.32 7.35-3.25 14.66-3.78 22.06a155 155 0 0 0 .31 25.31c.93 9.92 2.75 19.78 4.46 29.62.65 3.72 1.47 7.64 3.27 10.89a22.62 22.62 0 0 1 2 17.87c-7 24.29-14.12 48.55-21.24 72.81-1.22 4.15-2.82 8.19-4 12.35-1.46 5.15-3.86 9.49-8.47 12.52-4 2.66-5 6.78-4.92 11.37s-.32 9-.51 13.51l-2.23.3-3.42-11.92-8.09 2.48-.3-.59 5-4.08-.44-1.07-16 4.62-.37-.9 6.51-3.9c-.46-.41-.66-.74-.88-.76-15.84-1.11-21.67-5.33-26.58-20.26a106.41 106.41 0 0 1 -4.94-20.32c-.59-4.83.85-9.91 1.38-14.87l1.65.13c3 10.81 6.25 21.57 9 32.45 3.13 12.32 10.16 14.11 19.92 13.16 18.51-1.81 27.71-9.75 32.77-27.66 5.69-20.19 11.77-40.27 17.53-60.44a28.46 28.46 0 0 0 .55-7.85c-.1-16.48-5.52-31.2-14.71-44.75-2.11-3.12-3.25-6.9-5.14-11l-12.43 14.7-1.71-1.07 8.15-16.9c-4.14-4.18-7.43-4.12-11.36.25s-7.63 8.8-11.53 13.13c-.83.93-2.19 2.26-3.09 2.11-6.09-1-12.12-2.43-18.17-3.7l.43-1.82c3 .82 6 1.65 9.07 2.45 6 1.6 8 .44 10.38-5.21 1.57-3.79 3.67-7.36 5.81-11.57-8.66-2.08-17-4.21-25.42-5.94-1-.2-3 1.58-3.48 2.85-1.81 4.55-3.19 9.27-5 14.75-4.93-8.51 2.3-13.26 4.41-19.55-5.85-.19-8.68 2.85-10.34 7.44-5.94 16.44 6.82 33.9 25.69 35.18a22 22 0 0 1 8.3 1.73l-7.6 3.39c4.92 13.5 9.8 26.85 14.67 40.21l-.76.56-8.63-9.08 2.13 13.07c-5.59-4.11-4.66-11.65-10.71-14.88q.85-7.35 2-17.73c-16.39 10.59-18.7 26.69-21.33 43.32-.75-1.86-1.53-3.71-2.26-5.58-1.34-3.45-2.6-7.61-6.93-7.49-2.81.08-5.56 2.34-7.66 3.31-2.17-3.11-4.77-7-7.59-10.81-3.89-5.18-8-10.23-12.36-15.87-3.48 7.58-6.82 14.87-10.68 23.31l-.61-5.13-.91-.3-10 19.63-1.21-.33a11.29 11.29 0 0 1 .61-3.19c5-9.57 9.73-19.28 15.2-28.56 5-8.39 5.19-8.7-1.13-15.81-4.7-5.28-10-9.53-17.51-10.95 4.14-.49 6.89-1.8 6.21-7.29l4.11 4.37c5.94 6.29 12.12 12.38 17.72 19a65 65 0 0 1 7.89 12.44 24.37 24.37 0 0 0 13.31 12.09c4.83 1.84 10.19-.33 13.22-4.54 3.64-5.06 4.2-12.4 1.26-16.45-2.4-3.3-6.19-3.44-10.59-.4s-5.41 6.8-2.56 10.56a78.38 78.38 0 0 0 5.65 6c-4.94-.43-10-4.82-10.75-8.72-1.35-6.78 2.48-12 13.25-17.51-.89-2.36-1.77-4.8-2.73-7.21s-2-4.87-3.54-8.44l-3.8 5.41c4.18-14.29-8.78-18.44-14.54-26.9-3.75 2.38-7 4.45-10.23 6.52l-1.18-1 4.49-9c-2 .39-3.29.39-4.33.87-11.5 5.27-23 10.64-34.46 15.94-4.75 2.19-7 5.91-5.7 10.91 6.66 25.64 6.72 52.14 10.49 78.15 2.24 15.44 3.62 31.11 9.92 45.72 4.16 9.66 8.48 12.83 19.08 12.77 12.95-.07 23-5.9 30.76-15.94a24.8 24.8 0 0 1 4.34-4.6c-.46 7.42-3.52 13.21-10.38 16.52-10.49 5.06-16.77 12.87-16.72 25a23.76 23.76 0 0 1 -.81 4.35l-1.25-.2v-16.48l-1.7-.15c-.52 4.08-1.68 8.2-1.4 12.23.44 6.33-1.53 11-6.83 14.4zm33.53-243.23c-20.74-3.8-39.36 19.05-34.08 43.71l15.28-4.71-7.37-10.6c2.61-3 4-2.4 5.7.53 4.16 7 8 14.29 13.24 20.43 7.92 9.33 16.6 18 20.31 30.83l6.7-8.13c-16.68-17.41-17.72-37-3.52-50.93l-12.88-19-14.16 15.45-6.51-4.6zm-8.26-78.14c.84 6.59 1.17 12.42 2.38 18.06 1.77 8.22 3.52 16.55 6.5 24.37 2.51 6.58 8.07 8.95 15.07 7.7a54.37 54.37 0 0 0 12.28-3.91c4.11-1.83 6.41-4.91 5-10-1.21-4.29-1.65-8.8-2.53-13.2-2.11-10.48-4.27-21-6.63-32.48-8.82 10.54-19.99 10.39-32.05 9.46zm-6.73-33.63-.59.06c1.06 7.24 1.85 14.52 3.26 21.69a11.71 11.71 0 0 0 10.66 9.81 42.32 42.32 0 0 0 13.32-.73c5.75-1.2 9.41-5.58 8.4-11.28a306.87 306.87 0 0 0 -8.08-34.41c-1.91-6.36-6.9-8.35-13.53-7.66-7.77.81-12.4 5.17-13.37 13.05a78.67 78.67 0 0 0 -.07 9.47zm93 41.76c-3 6.33-6.4 11.6-8.09 17.37a124.09 124.09 0 0 0 -4.87 24.74c-.54 6.79 4.06 11.11 10.94 11.95 4.26.51 8.63 0 12.93.24 3.43.17 4.95-1.37 5.9-4.58 3.37-11.32 7-22.56 10.52-33.84.46-1.47.65-3 1.08-5.14-11.79 2.28-21.03-1.06-28.45-10.72zm20.07 10.24c5.63-.43 9.36-2.78 11.31-7.65 3.28-8.19 6.06-16.59 9.69-24.62 2.31-5.11 1.6-9.43-.57-14.2-2.38-5.21-6.11-8.24-11.77-8.73-5.94-.51-10.69 2-13 7.33-4.41 10.21-8.39 20.61-12.25 31-1.91 5.14.48 9.36 4.8 11.94 3.62 2.21 7.84 3.36 11.79 4.93zm-62 25.17c-10.35 6.88-20.85 11.31-33.11 7.25-1.81 13.57-.6 25.38 9 35.11 2.66 2.69 5.3 4.36 9.2 3.47 6-1.37 12-2.72 18-3.85 3.72-.69 4.59-3.07 4-6.18-2.24-11.67-4.63-23.33-7.12-35.78zm-17.61 50.59c1.4 7.65 5.8 11.2 12.63 12.31 7.39 1.2 14.74 2.63 22.11 4l27.67 5c-1.32 11.69 4.33 19.67 11.39 27.1-1.32-11.15-3.52-22-5.17-33-.84-5.57-3.89-8.57-8.87-10.15-8.73-2.75-17.68-4.94-26.17-8.3-11.89-4.78-22.45-.38-33.59 3.04zm40.35-39.47c-2.16 9.66-4.11 18.22-6 26.8-.82 3.81.92 7 4.19 8.19 9.78 3.52 19.77 6.46 30.24 9.8 2.48-12.11 4.78-23.34 7.23-35.35-13.78 3.12-24.9-.73-35.67-9.44zm-24.17 104.3c.09-4.1-1.79-6-6.06-6.08-4-.08-8.9 3.12-7.88 5.69a15 15 0 0 0 6.28 7.29c2.35 1.22 7.59-4.08 7.65-6.9z"/><path d="m1112.37 632.8q-8.37 17.44-16.72 34.89l-1.56-.69q7.94-17.61 15.86-35.21z"/><g fill="#fff"><path d="m1117.55 509.77-17.29 12.93 6.51 4.6 14.16-15.45 12.88 19c-14.2 13.93-13.16 33.52 3.52 50.93l-6.7 8.13c-3.71-12.86-12.39-21.5-20.31-30.83-5.21-6.14-9.08-13.45-13.24-20.43-1.74-2.93-3.09-3.51-5.7-.53l7.37 10.6-15.28 4.71c-5.28-24.61 13.34-47.43 34.08-43.66z"/><path d="m1109.29 431.63c12.06.93 23.23 1.08 32-9.47 2.36 11.52 4.52 22 6.63 32.48.88 4.4 1.32 8.91 2.53 13.2 1.43 5.1-.87 8.18-5 10a54.37 54.37 0 0 1 -12.28 3.91c-7 1.25-12.56-1.12-15.07-7.7-3-7.82-4.73-16.15-6.5-24.37-1.14-5.63-1.47-11.46-2.31-18.05z"/><path d="m1102.54 398a78.67 78.67 0 0 1 .07-9.47c1-7.88 5.6-12.24 13.37-13.05 6.63-.69 11.62 1.3 13.53 7.66a306.87 306.87 0 0 1 8.08 34.41c1 5.7-2.65 10.08-8.4 11.28a42.32 42.32 0 0 1 -13.32.73 11.71 11.71 0 0 1 -10.66-9.81c-1.41-7.17-2.2-14.45-3.26-21.69z"/><path d="m1195.5 439.78c7.42 9.66 16.66 13 28.41 10.74-.43 2.11-.62 3.67-1.08 5.14-3.49 11.28-7.15 22.52-10.52 33.84-1 3.21-2.47 4.75-5.9 4.58-4.3-.2-8.67.27-12.93-.24-6.88-.84-11.48-5.16-10.94-11.95a124.09 124.09 0 0 1 4.87-24.74c1.69-5.77 5.07-11.04 8.09-17.37z"/><path d="m1215.61 450c-3.95-1.59-8.17-2.74-11.79-4.89-4.32-2.58-6.71-6.8-4.8-11.94 3.86-10.43 7.84-20.83 12.25-31 2.31-5.36 7.06-7.84 13-7.33 5.66.49 9.39 3.52 11.77 8.73 2.17 4.77 2.88 9.09.57 14.2-3.63 8-6.41 16.43-9.69 24.62-1.92 4.85-5.68 7.2-11.31 7.61z"/><path d="m1153.58 475.19c2.49 12.45 4.88 24.11 7.11 35.8.6 3.11-.27 5.49-4 6.18-6 1.13-12 2.48-18 3.85-3.9.89-6.54-.78-9.2-3.47-9.61-9.73-10.82-21.54-9-35.11 12.24 4.06 22.74-.37 33.09-7.25z"/><path d="m1136 525.76c11.15-3.42 21.71-7.82 33.59-3.13 8.49 3.36 17.44 5.55 26.17 8.3 5 1.58 8 4.58 8.87 10.15 1.65 11 3.85 21.89 5.17 33-7.06-7.43-12.71-15.41-11.39-27.1l-27.67-5c-7.37-1.33-14.72-2.76-22.11-4-6.84-.98-11.24-4.57-12.63-12.22z"/><path d="m1176.34 486.29c10.77 8.67 21.89 12.56 35.68 9.44-2.45 12-4.75 23.24-7.23 35.35-10.47-3.34-20.46-6.28-30.24-9.8-3.27-1.17-5-4.38-4.19-8.19 1.87-8.58 3.82-17.09 5.98-26.8z"/><path d="m1152.17 590.59c-.06 2.82-5.3 8.12-7.66 6.9a15 15 0 0 1 -6.28-7.29c-1-2.57 3.84-5.77 7.88-5.69 4.27.09 6.15 1.98 6.06 6.08z"/></g></g></svg>