<svg viewBox="0 0 480 418" xmlns="http://www.w3.org/2000/svg"><g transform="translate(-357.24 -239.29)"><path d="m357.24 657.29v-418h480v418zm.94-416.89c.64 2.72 1.11 4.81 1.64 6.89q12.24 48.3 24.51 96.6 15.06 59.42 30 118.86c.8 3.18 2 4.79 5.66 4.66 7.47-.28 15-.25 22.45 0 3.17.09 4.24-1.25 5-4.09 12.8-47.13 25.86-94.19 38.49-141.36 4-15 7-30.36 10.7-46.71.71 4.45 1.08 7.86 1.79 11.19 5.57 25.81 10.93 51.66 16.89 77.38 7.61 32.84 15.75 65.56 23.58 98.35.81 3.39 1.78 5.56 6.07 5.3a178.87 178.87 0 0 1 20.45 0c4.26.21 6.07-1.37 7.21-5.39q29.83-106 59.89-211.94c.88-3.1 1.57-6.24 2.38-9.49h-30.12q-24.33 95.58-48.42 190.28c.09.15-.26-.2-.35-.61-4.09-20.51-7.66-41.15-12.34-61.53-9.54-41.49-19.66-82.79-29.48-124.16-.79-3.38-2-4.62-5.6-4.48-7.31.28-14.64.25-21.95 0-3.27-.12-4.64 1-5.43 4.12-3.3 13-6.89 26-10.29 39q-15.48 59.29-30.84 118.62c-2.55 9.95-4.43 20.07-6.6 30q-22.07-95.85-44.08-191.53zm324.52 217.3-14.22 4.05c-17 4.82-23.46 16.18-17.8 32.54 5.56 16.06 6 32.18 2.3 48.59a131.85 131.85 0 0 0 .65 61.73c2.13 8.56 5.81 16.36 13.21 21.67 4.79 3.43 5.93 7.63 4.17 13s-3.42 11-5.11 16.45l1.05 1a39.34 39.34 0 0 0 3.73-3.31c7.49-8.44 12.93-19.37 25.91-21.07.13 0 .21-.44.45-1l-10.29 1.06c.47-.65.59-1 .84-1.13a15.13 15.13 0 0 1 2.76-1.1c10.24-2.52 18.22-8.56 25.41-16 2-2.06 2.37-3.4-.87-4.64-1.06 1.37-2.06 2.67-3.07 4a30.38 30.38 0 0 1 -40.38 6.31c-8.47-5.72-12.22-14.24-13.8-23.88-3.35-20.43-1.93-40.85 1.64-61 2.4-13.55 3.23-26.59-2-39.6a32.28 32.28 0 0 1 -1.91-8.73c-.68-6.94 1.9-13 8.23-15.68 9.41-4.06 19.32-7 29-10.3 1.42-.48 3-.5 5.85-.94-4.84 6-11.49 9.59-9.59 18.15l19.25-13.82v18.55c.06 5.1-1.11 10.75.7 15.16 2.72 6.64 3.4 11.7-1 18-3.67 5.27 1.7 13.2 8 13.23-1.3-3.59-2.73-7.13-3.85-10.76-1.05-3.44.46-6.21 3.7-7.14 9-2.59 19 .38 19.28 12.62.11 4.67-1.09 7.4-6.47 7.7-4.33.24-9.53-.56-11.5 5-9.28-3.06-14.72-8.83-17.22-18.13-1.27-4.76-4.7-9-7.46-13.28-4.48-6.92-9.23-13.66-13.81-20.51a44.37 44.37 0 0 1 -2.19-4.08l-1 .23v11.09l-6.5-5.73c1.66 12.21 12.26 14.4 19.51 19.88l-9.07 16.08 1.06.72 11.19-12.06c4.13 8.72 7.86 17.18 12.15 25.34 1.57 3 1 4.72-1 6.92-3.15 3.43-6.06 7.09-9.07 10.65l.72 1c9.14-8.1 19.63-12.65 31.86-13.17-.77 6.27-4.4 11.63-3.59 18 4.54-13.08 13.32-22.87 23.2-33 1.16 9.69 2.19 18.27 3.21 26.84l1.2-.11c-.35-6-.69-11.93-1.07-18.33l3.42 2.2v-13.48h8.35l1-1.55-6.64-4.11 7.55-3.47c-16 1.29-30.45-2.89-44-10.85-6.43-3.78-9.37-9.51-8.12-16.75a34.73 34.73 0 0 1 4.3-11c3.55-6.18 7-7.41 13.77-5.41 6.53 1.93 13 4.17 19.47 6.17 3.92 1.21 5.69 3.63 5.12 7.77-.43 3.11-.67 6.25-1 9.38 2.48-3.48 3.67-7.28 5.53-10.72.89-1.64 3-3.59 4.61-3.71 6.08-.44 12.21-.17 19.11-.17v12.22l1.16.19 5.07-8.14 23 50.83-8.81 2.2.05.85 7.81 1.17c-1.48 2.89-2.36 5.61-4 7.71-12.13 15.32-19.84 32.91-26.15 51.21-2.88 8.34-8.24 13.32-16.27 16.05a36.32 36.32 0 0 1 -30.78-3.09c-8.15-4.66-9-13-9.27-21.33 0-1.12-1.09-2.2-2.2-4.26-2.95 17.43 2.45 28.51 17.26 34.55 7.06 2.87 14.3 6.58 22.53 5a7.37 7.37 0 0 1 2.54.47l.11 1-8.24 2.77-.37 1.54c7.57-3.08 9.6 1.9 11.81 6.75 1.38 3 2.91 6 4.51 8.87.45.82 1.41 1.35 3.11 2.91-.2-2.95-.23-4.56-.43-6.14-1.92-15.56-.34-30 8.52-43.91 11.12-17.31 20.83-35.48 30.86-53.48 4.26-7.63 4.13-15.19-.77-23.05-9.76-15.66-13.71-33.16-10.29-51.17 3.83-20.18 9.31-40.09 14.8-59.91 5.18-18.72 11.43-37.14 17-55.77 3.24-10.91 0-19.18-8.53-23.4-11.06-5.46-20.7-3.76-27.12 6.14a103.76 103.76 0 0 0 -11.47 23.06c-6.51 19.36-12.07 39-18 58.57-.44 1.45-1.08 2.84-1.63 4.26l-1.46-.09a62.85 62.85 0 0 1 -1.32-7.49c-.44-7.3-.65-14.61-1-21.92-1-24.41-2-48.82-3.09-73.22-.3-6.62-2.1-12.42-7.56-17.18-5.9-5.14-11.67-4.67-18.34-2.46-6.16 2.05-10.73 5.69-12.51 11.77-2 7-4.46 14.22-4.46 21.34 0 26.74 1 53.49 1.57 80.23.06 3 0 6.09 0 9.13l-1.15.48a21.93 21.93 0 0 1 -2.81-3.95c-7-16.7-13.82-33.46-20.83-50.15-3-7-5.61-14.27-9.47-20.77-4.42-7.44-14.6-9.57-23.66-6.1-7.71 2.95-10.65 8.38-9.5 18.07a55.17 55.17 0 0 0 2 10.23q9.02 27.75 18.22 55.35c3.38 10.08 7 20 10.7 30.7zm47.92 36.86c6.21 4.21 12.69 4 19.32 1.36z" fill="#fff"/><path d="m358.18 240.4h31.21q22 95.7 44.08 191.53c2.17-9.95 4-20.07 6.6-30q15.26-59.36 30.84-118.62c3.4-13 7-26 10.29-39 .79-3.13 2.16-4.24 5.43-4.12 7.31.25 14.64.28 21.95 0 3.55-.14 4.81 1.1 5.6 4.48 9.82 41.33 19.94 82.63 29.48 124.06 4.68 20.38 8.25 41 12.34 61.53.09.41.44.76.35.61q24.1-94.69 48.42-190.28h30.16c-.81 3.25-1.5 6.39-2.38 9.49q-29.95 105.92-59.89 211.92c-1.14 4-2.95 5.6-7.21 5.39a178.87 178.87 0 0 0 -20.45 0c-4.29.26-5.26-1.91-6.07-5.3-7.83-32.79-16-65.51-23.58-98.35-6-25.72-11.32-51.57-16.89-77.38-.71-3.33-1.08-6.74-1.79-11.19-3.67 16.39-6.67 31.71-10.67 46.75-12.63 47.17-25.69 94.23-38.49 141.36-.77 2.84-1.84 4.18-5 4.09-7.48-.21-15-.24-22.45 0-3.64.13-4.86-1.48-5.66-4.66q-14.92-59.46-30-118.86-12.24-48.3-24.51-96.6c-.6-2.04-1.07-4.13-1.71-6.85z"/><path d="m682.7 457.7c-3.7-10.7-7.32-20.62-10.7-30.7q-9.22-27.65-18.16-55.39a55.17 55.17 0 0 1 -2-10.23c-1.15-9.69 1.79-15.12 9.5-18.07 9.06-3.47 19.24-1.34 23.66 6.1 3.86 6.5 6.52 13.75 9.47 20.77 7 16.69 13.84 33.45 20.83 50.15a21.93 21.93 0 0 0 2.81 3.95l1.15-.48c0-3 0-6.09 0-9.13-.59-26.74-1.54-53.49-1.57-80.23 0-7.12 2.43-14.36 4.46-21.34 1.78-6.08 6.35-9.72 12.51-11.77 6.67-2.21 12.44-2.68 18.34 2.46 5.46 4.76 7.26 10.56 7.56 17.18 1.11 24.4 2.08 48.81 3.09 73.22.31 7.31.52 14.62 1 21.92a62.85 62.85 0 0 0 1.32 7.49l1.46.09c.55-1.42 1.19-2.81 1.63-4.26 6-19.54 11.54-39.21 18-58.57a103.76 103.76 0 0 1 11.41-23.08c6.42-9.9 16.06-11.6 27.12-6.14 8.56 4.22 11.77 12.49 8.53 23.4-5.55 18.63-11.8 37.05-17 55.77-5.49 19.82-11 39.73-14.8 59.91-3.42 18 .53 35.51 10.29 51.17 4.9 7.86 5 15.42.77 23.05-10 18-19.74 36.19-30.82 53.51-8.86 13.86-10.44 28.35-8.52 43.91.2 1.58.23 3.19.43 6.14-1.7-1.56-2.66-2.09-3.11-2.91-1.6-2.9-3.13-5.85-4.51-8.87-2.21-4.85-4.24-9.83-11.81-6.75l.33-1.52 8.24-2.77-.11-1a7.37 7.37 0 0 0 -2.54-.47c-8.23 1.53-15.47-2.18-22.53-5-14.81-6-20.21-17.12-17.26-34.55 1.11 2.06 2.16 3.14 2.2 4.26.31 8.36 1.12 16.67 9.27 21.33a36.32 36.32 0 0 0 30.78 3.09c8-2.73 13.39-7.71 16.27-16.05 6.29-18.27 14-35.89 26.18-51.22 1.67-2.1 2.55-4.82 4-7.71l-7.81-1.17-.05-.85 8.81-2.2-23-50.83-5.07 8.14-1.16-.19v-12.21c-6.9 0-13-.27-19.11.17-1.65.12-3.72 2.07-4.61 3.71-1.86 3.44-3 7.24-5.53 10.72.33-3.13.57-6.27 1-9.38.57-4.14-1.2-6.56-5.12-7.77-6.51-2-12.94-4.24-19.47-6.17-6.78-2-10.22-.77-13.77 5.41a34.73 34.73 0 0 0 -4.3 11c-1.25 7.24 1.69 13 8.12 16.75 13.53 8 28 12.14 44 10.85l-7.55 3.47 6.64 4.11-1 1.55h-8.35v13.34l-3.42-2.2c.38 6.4.72 12.37 1.07 18.33l-1.2.11c-1-8.57-2-17.15-3.21-26.84-9.88 10.17-18.66 20-23.2 33-.81-6.32 2.82-11.68 3.59-18-12.23.52-22.72 5.07-31.86 13.17l-.72-1c3-3.56 5.92-7.22 9.07-10.65 2-2.2 2.54-3.93 1-6.92-4.29-8.16-8-16.62-12.15-25.34l-11.19 12.06-1.06-.72 9.07-16.08c-7.25-5.48-17.85-7.67-19.51-19.88l6.52 5.79v-10.96l1-.23a44.37 44.37 0 0 0 2.19 4.08c4.58 6.85 9.33 13.59 13.81 20.51 2.76 4.28 6.19 8.52 7.46 13.28 2.5 9.3 7.94 15.07 17.22 18.13 2-5.53 7.17-4.73 11.5-5 5.38-.3 6.58-3 6.47-7.7-.28-12.24-10.3-15.21-19.28-12.62-3.24.93-4.75 3.7-3.7 7.14 1.12 3.63 2.55 7.17 3.85 10.75-6.26 0-11.63-7.95-8-13.22 4.41-6.34 3.73-11.4 1-18-1.81-4.41-.64-10.06-.7-15.16-.06-5.65 0-11.31 0-18.55l-19.26 13.81c-1.9-8.56 4.75-12.14 9.59-18.15-2.85.44-4.43.46-5.85.94-9.73 3.32-19.64 6.24-29 10.3-6.33 2.72-8.91 8.74-8.23 15.68a32.28 32.28 0 0 0 1.91 8.73c5.24 13 4.41 26.05 2 39.6-3.57 20.16-5 40.58-1.64 61 1.58 9.64 5.33 18.16 13.8 23.88a30.38 30.38 0 0 0 40.38-6.31c1-1.28 2-2.58 3.07-4 3.24 1.24 2.88 2.58.87 4.64-7.19 7.39-15.17 13.43-25.41 16a15.13 15.13 0 0 0 -2.76 1.1c-.25.11-.37.48-.84 1.13l10.21-1.05c-.24.54-.32 1-.45 1-13 1.7-18.42 12.63-25.91 21.07a39.34 39.34 0 0 1 -3.73 3.31l-1.05-1c1.69-5.49 3.32-11 5.11-16.45s.62-9.6-4.17-13c-7.4-5.31-11.08-13.11-13.21-21.67a131.85 131.85 0 0 1 -.65-61.73c3.71-16.41 3.26-32.53-2.3-48.59-5.66-16.36.81-27.72 17.8-32.54zm106.85-85c-3.37 8.53-7.07 16.35-9.54 24.54-4.33 14.35 0 22.59 13.91 28.52 1.29.55 2.53 1.23 3.78 1.85l-.8 1.44-22.71-12.58c-2.49 10.62-4.9 20.42-7 30.28-.32 1.57.54 4.44 1.73 5.07 8.75 4.66 17.72 8.9 26.88 13.4.68-2.37 1.25-4.09 1.68-5.85 5.72-23.37 11.38-46.75 17.18-70.1a20.62 20.62 0 0 1 3.28-7.58 47.67 47.67 0 0 0 10.22-33c-.39-6.92-3.84-12.16-8.92-13.71-5.34-1.62-11.9.5-15.68 6a89.44 89.44 0 0 0 -8.26 15.25c-3 6.94-1.35 11.58 4.66 16 4 3 8.11 5.93 12.17 8.89l-.55.94zm-118.1 20.09c-.94 2.08-2.4 3.7-2.18 5 1.8 11.61 2.84 23.49 10.73 33.22a8.88 8.88 0 0 1 1.73 6c-.79 6.91 3.31 12 6 17.58.31.64 1.7.91 2.63 1.06 9.28 1.5 17.81-.78 25.86-5.29 4.09-2.3 5.66-5.85 3.65-10.08-2.6-5.47-5.79-10.67-8.86-16.21l-8.6 4.75-1.28-.75c8.26-5.77 6.29-13.19 4.25-20.53-2.22-8-5-15.72-10.58-22.35l-9.34 5.91c.89-2 2.35-3.21 3.49-4.69 2.54-3.33 4.15-7.08 1.93-11.09-3.94-7.11-8-14.2-12.37-21-3.82-5.94-9.9-8.11-15.33-6.2-3.74 1.31-6.37 6.79-6.24 13.15.28 12.55 4.12 23.5 14.51 31.52zm76.6 19.07-.22-.94c2.24-1.31 4.71-2.36 6.67-4 1.53-1.29 3.45-3.36 3.43-5.06q-.25-18.37-1.44-36.75c-.09-1.46-2.67-3.87-4.17-3.93-9.2-.36-18.43-.18-27.7-.18v83.73c9.1 1.48 17.9 3.13 26.77 4.3 7.91 1.05 10.2-1.39 9.67-9.34-.28-4.14-.45-8.28-.77-12.42-.39-5.07-.88-10.13-1.34-15.39zm-35.72 57.14c5.66-4.78 11.41-4.21 17.53-1.75 15.56 6.24 31.45 10.46 48.56 8.67 3.13-.33 7.36 1.66 9.7 4 3.06 3 4.82 7.43 7 11.32 1.39 2.48 2.52 5.1 4.09 8.31.68-1.31 1.14-1.78 1-2.08-2.65-8.88-5-17.89-8.26-26.54a13.53 13.53 0 0 0 -7.09-7.16c-13.39-4.9-26.89-9.69-40.66-13.33-10.27-2.71-20.5-.8-29.57 5.33-7.23 4.84-7.22 4.85-2.3 13.23zm44.19-137.29c-.47-4.49-.67-9.32-1.54-14-1.23-6.67-4.71-9.92-10.65-10.8-8.46-1.26-15.19 3.47-17.67 12.45-3.07 11.17-2.92 22.57-2.08 34 .34 4.63 2.91 6.45 7.89 6.1s9.87-1.23 14.77-1.05c4.35.16 6.78-1.24 7.25-5.49.76-7.03 1.34-13.92 2.03-21.26zm-18.52 195.88 11.37-7.59-12.68-3.39z"/><path d="m730.62 494.56 19.32 1.36c-6.63 2.62-13.11 2.85-19.32-1.36z"/><g fill="#fff"><path d="m789.55 372.7 22.08 9.42.55-.94c-4.06-3-8.13-5.91-12.17-8.89-6-4.44-7.63-9.08-4.66-16a89.44 89.44 0 0 1 8.26-15.29c3.78-5.55 10.34-7.67 15.68-6 5.08 1.55 8.53 6.79 8.92 13.71a47.67 47.67 0 0 1 -10.22 33 20.62 20.62 0 0 0 -3.28 7.58c-5.8 23.35-11.46 46.73-17.18 70.1-.43 1.76-1 3.48-1.68 5.85-9.16-4.5-18.13-8.74-26.88-13.4-1.19-.63-2.05-3.5-1.73-5.07 2-9.86 4.46-19.66 7-30.28l22.71 12.58.8-1.44c-1.25-.62-2.49-1.3-3.78-1.85-13.97-5.95-18.29-14.19-13.97-28.54 2.48-8.19 6.18-16.01 9.55-24.54z"/><path d="m671.45 392.79c-10.39-8-14.23-19-14.47-31.5-.13-6.36 2.5-11.84 6.24-13.15 5.43-1.91 11.51.26 15.33 6.2 4.4 6.83 8.43 13.92 12.37 21 2.22 4 .61 7.76-1.93 11.09-1.14 1.48-2.6 2.72-3.49 4.69l9.34-5.91c5.59 6.63 8.36 14.37 10.58 22.35 2 7.34 4 14.76-4.25 20.53l1.28.75 8.6-4.75c3.07 5.54 6.26 10.74 8.86 16.21 2 4.23.44 7.78-3.65 10.08-8 4.51-16.58 6.79-25.86 5.29-.93-.15-2.32-.42-2.63-1.06-2.73-5.59-6.83-10.67-6-17.58a8.88 8.88 0 0 0 -1.73-6c-7.89-9.73-8.93-21.61-10.73-33.22-.26-1.32 1.2-2.94 2.14-5.02z"/><path d="m748.05 411.86h10.95c.46 5.26.95 10.32 1.34 15.39.32 4.14.49 8.28.77 12.42.53 7.95-1.76 10.39-9.67 9.34-8.87-1.17-17.67-2.82-26.77-4.3v-83.71c9.27 0 18.5-.18 27.7.18 1.5.06 4.08 2.47 4.17 3.93q1.2 18.35 1.44 36.75c0 1.7-1.9 3.77-3.43 5.06-2 1.66-4.43 2.71-6.67 4z"/><path d="m712.33 469c-4.92-8.33-4.93-8.34 2.35-13.25 9.07-6.13 19.3-8 29.57-5.33 13.75 3.58 27.27 8.38 40.66 13.28a13.53 13.53 0 0 1 7.09 7.16c3.28 8.65 5.61 17.66 8.26 26.54.09.3-.37.77-1 2.08-1.57-3.21-2.7-5.83-4.09-8.31-2.18-3.89-3.94-8.28-7-11.32-2.34-2.32-6.57-4.31-9.7-4-17.11 1.79-33-2.43-48.56-8.67-6.17-2.44-11.91-3.01-17.58 1.82z"/><path d="m756.52 331.66c-.69 7.29-1.27 14.23-2 21.15-.47 4.25-2.9 5.65-7.25 5.49-4.9-.18-9.84.71-14.77 1.05s-7.55-1.47-7.89-6.1c-.84-11.4-1-22.8 2.08-34 2.48-9 9.21-13.71 17.67-12.45 5.94.88 9.42 4.13 10.65 10.8.84 4.74 1.04 9.57 1.51 14.06z"/><path d="m738 527.59-1.27-11 12.64 3.41z"/></g></g></svg>