<svg viewBox="0 0 480 374" xmlns="http://www.w3.org/2000/svg"><g transform="translate(-535.12 -488.59)"><path d="m847.56 862.59h-312.44v-46.88c15.13 0 30.27.19 45.4 0a6.23 6.23 0 0 0 4.48-2.71q35.61-64.59 71-129.34c.69-1.24 1.43-2.46 2.38-4.11.87 1.27 1.47 2 2 2.87q37.77 64.83 75.46 129.7c1.63 2.82 3.32 3.93 6.61 3.87 10.8-.22 21.62-.09 32.43-.08h11.92c-1.38-2.45-2.22-4-3.14-5.56q-47.66-78.46-95.34-156.83c-2.24-3.67-2.15-6.11.11-9.7q43.57-69.21 86.73-138.63c3-4.73 5.89-9.47 9-14.41a8 8 0 0 0 -1.87-.64c-14.47-.05-28.94-.14-43.41 0a5.84 5.84 0 0 0 -4.15 2.65q-35.21 62-70.19 124.05c-.87 1.53-1.69 3.08-2.88 5.24-1.11-1.76-1.84-2.8-2.46-3.91q-34.75-62.51-69.62-125a7.47 7.47 0 0 0 -5.35-3c-7.3-.35-14.63-.15-22-.15h-23.14c1.59 2.78 2.7 4.77 3.86 6.72q44.31 74.57 88.73 149.09c2.23 3.73 2.47 6.37.11 10.26q-46.1 75.86-91.85 151.91c-1.42 2.35-3.21 4.48-4.82 6.72v-326.13h480v374h-163.56c.9-4.15 2.21-8.26 2.56-12.45.27-3.24-.61-6.6-1.1-9.88-.46-3.11.5-4.45 3.9-4.67 7.13-.46 14.23-1.34 21.33-2.17a35.31 35.31 0 0 0 5.06-1.34l-.27-1.3h-17.63c7.29-3 14.77-5.15 20-11.87a13.52 13.52 0 0 0 -5.29.48c-2.22.63-4.37 2.06-6.57 2.12-33 .85-52.11-10.18-57.49-39.54-1.13-6.18-3.33-12.92-1.87-18.59 1.23-4.81.21-7.36-2.28-10.4-8-9.76-11-20.57-7.68-33 1.3-4.79 1.83-9.79 2.72-14.69.81-4.41 1-9.06 2.56-13.18 6.5-17 13.9-27.35 32.49-24.93 3.6.47 6.08-.51 8.22-3.85 8.25-12.84 10.23-13.39 25-8.74.48.15 1 .32 1.42.49 4.83 1.77 9 .66 13-2.45 3.13-2.44 6.3-5 9.86-6.68 8.39-3.91 15.76.45 18 9.36 6 23.37 4.41 46.83 1.36 70.32-.77 6-1 11.59 3.69 16.29a5.38 5.38 0 0 1 1.6 3.56c-.51 9.41-.47 18.94-2.14 28.16-1.2 6.58-8.43 9.92-16.3 9.51s-11.29-3.18-13.23-11c-1-4-1.64-8.13-2.62-12.16-2.69-11.09-5.46-22.16-8.28-33.54l4.85-.78-5.77-4.41 30.92-3.52-.12-1.17-22.09 1.91-.14-1.24 17.51-3.93c-10.74-6.21-20.26-1.83-30.18.88 2.83-13.89 5.49-27 8.23-40.44-4 1.16-5.61 3.36-5.83 7a54.84 54.84 0 0 1 -1.64 11.8c-3.41 11.92-2.33 23.49.75 35.36 3.61 13.94 6.37 28.11 8.85 42.3.46 2.64-1.31 6.75-3.44 8.54-6.23 5.25-17.26 2.51-20.85-4.85-4.87-10-9.57-20.09-14-30.3-1.23-2.86-1.14-6.29-1.65-9.46l1.53-.56a22 22 0 0 1 -2.65-2.23c-3.62-4.09-3.25-5.74 1.83-7.9a102.13 102.13 0 0 1 12-4.76c3.61-1 7.48-1.17 11.24-1.7l.27 1.41-5 3 .63 1 8-5.16c-12.52-3.77-21.59 3.9-32.26 5.11v-30.35l-4 3.21c.76 4.87 1.65 8.62 1.87 12.41a42.87 42.87 0 0 1 -.51 11.83c-.67 2.93-2.68 5.71-4.64 8.11-1.1 1.35-3.3 1.79-5 2.64l.21.55 8.38-2.06c5.18 12 10.29 23.67 15.29 35.41 1.69 4 .29 6.29-4.12 7a65.37 65.37 0 0 0 -7.49 2c-11.26-9.4-17.21-21.89-16.87-35.3a6.26 6.26 0 0 0 -1.22-2.89c-1.21-2.11-2.93-4-3.69-6.26-2.29-6.76-4.17-13.66-6.31-20.47a48.52 48.52 0 0 0 -2.2-5c-2.52 6.65 6.81 13.73-2.18 18.88 1.8.91 4.12 1.3 4.62 2.47 2.6 6.06 5.53 12.16 6.86 18.56 2.21 10.66 6.12 20.25 12.94 28.76 4 5 7.59 10.4 10.87 14.94 1.91-1.05 4.39-2.89 7.18-3.81a27.55 27.55 0 0 1 8.18-1c2.59 0 5.18.55 7.77.64 4.4.15 9.26 1.32 13.09-.14 5.22-2 8.9-1.79 13.75 1.13 13.93 8.36 30.31-.18 32.24-16.31.18-1.48.43-3 .53-4.46.28-4.57 3.19-5.85 7.16-5.66s5.57 2.34 5.49 6.19c-.11 5.32-.09 10.64-.06 16 0 1.76.21 3.53.32 5.3l2.1-.06v-25.61l1.74-.46 17.29 21.31 1-.84c-2.9-4.09-5.81-8.18-9.16-12.88l16 2.09.31-1.3c-6.64-1.64-14.07-1.74-18.33-9l6.05-4.78-.39-.94-16.48 3.9c.84-2.76 1.44-4.76 2.31-7.64l-14.72 6.83c-1.83-9.62-3.51-18.42-5.15-27.23a34.76 34.76 0 0 1 -.45-4c-.49-6.86 2.07-11.15 7.77-11.91 4.66-.63 9.78.59 12.71-4.69.32-.56 1.47-.68 2.25-1 5.44-2 10.81-4.36 16.37-6s11.17-2.57 17.25-3.92c.42 5.18.77 9.45 1.11 13.71h.71c.46-2 .93-3.93 1.66-7.06l1.78 6.18.68-.12v-12.98c2.94.9 6 .9 7.39 2.42 7 7.7 14.53 16.39 12.74 27.12-2.41 14.49-4.25 29.68-14.2 41.82-.21.26-.54.41-.75.66s-.49.73-.91 1.37l4.78-1c-10.7 26.71-29.34 43.91-56.64 50.79-8.39 2.12-17.44 2-26.2 2.16-7.07.1-11.48-4.24-13.12-11.42-1.1-4.81-1.93-9.68-3.08-15.57-7.17 16 .77 32 16 33.71a84.55 84.55 0 0 0 16.9-.29c5-.45 9.86-1.66 14.79-2.54l.29 1-14.69 7.65.32.84 24.41-6.08.29.94-4.63 2.8 6.73-.69 9.4 16.08 1.58-.44c-.69-3.56-1.41-7.11-2.08-10.68-2.37-12.73.5-23.07 11.09-31.9s20.06-19.78 24.89-33.16c4.73-13.08 8.16-26.64 11.89-40.06 2.06-7.4.29-14.06-4.93-19.87a32.57 32.57 0 0 1 -5-7.34c-4-8-7.9-16.11-11.42-24.36-5.73-13.42-12.76-26.58-16.22-40.59-3.86-15.64-10.64-29.64-17.73-43.64a29 29 0 0 0 -17.78-15c-10-3.21-19.76-7-29.83-9.76-4.09-1.14-9.1-1.51-13-.22-14.35 4.68-28.44 10.17-42.59 15.44a11.15 11.15 0 0 0 -7.5 9.74c-1.57 12.71 7.65 26.22 20.23 28.89 9.6 2 19.22 3.25 29.09.35 8.91-2.62 18.05 5.54 17 14.72a14.5 14.5 0 0 1 -2.38.16c-8.31-.75-15.7 1.09-22.28 6.61-4.11 3.44-9.24 3.32-14.28 2q-3.86-1-7.71-2c-6.33-1.71-11.44.32-15.58 5.17-1.62 1.89-3.14 3.87-4.67 5.84-3.1 4-7 5.46-11.89 3.78-5.42-1.89-10.1-.5-13.38 3.85-4.68 6.19-10 12.32-12.85 19.36-4.41 10.86-7.24 22.39-10.24 33.77-2.22 8.43-1.6 17 2.59 24.75 5.13 9.44 7.17 19.56 8.35 30 2.37 21.12 11.37 38.11 30.24 49.45 3.07 1.85 5.82 6.31 6.35 9.91 1.46 9.82 1.65 19.84 2.34 29.78zm18.73-88.33 18.24-8c-13.79-1.76-21.27.14-18.24 8zm31.57-5.59c8.19 3.88 14.94 2.64 18-2.64zm11.42 5.81-.22-1.55-13.58 1.81c4.89 6.67 8.73 7.74 14.34 4.39l-10.41-1.78v-1.08zm19.47-42.88h.7v-12.77h-.7zm4.31-13.45-1.59.18 2 16.22 1.08-.12z" fill="#fff"/><path d="m535.12 814.71c1.61-2.24 3.4-4.37 4.82-6.72q45.91-75.99 91.85-151.87c2.36-3.89 2.12-6.53-.11-10.26q-44.52-74.46-88.68-149.09c-1.16-1.95-2.27-3.94-3.86-6.72h23.15c7.32 0 14.65-.2 22 .15a7.47 7.47 0 0 1 5.35 3q35 62.4 69.62 125c.62 1.11 1.35 2.15 2.46 3.91 1.19-2.16 2-3.71 2.88-5.24q35-62.05 70.19-124a5.84 5.84 0 0 1 4.15-2.65c14.47-.18 28.94-.09 43.41 0a8 8 0 0 1 1.87.64c-3.07 4.94-6 9.68-9 14.41q-43.32 69.34-86.73 138.63c-2.26 3.59-2.35 6-.11 9.7q47.8 78.3 95.28 156.8c.92 1.52 1.76 3.11 3.14 5.56h-11.98c-10.81 0-21.63-.14-32.43.08-3.29.06-5-1.05-6.61-3.87q-37.6-64.92-75.46-129.7c-.48-.83-1.08-1.6-2-2.87-1 1.65-1.69 2.87-2.38 4.11q-35.38 64.62-70.94 129.29a6.23 6.23 0 0 1 -4.51 2.78c-15.13.15-30.27 0-45.4 0z"/><path d="m847.56 862.59c-.69-9.94-.88-20-2.34-29.78-.53-3.6-3.28-8.06-6.35-9.91-18.87-11.34-27.87-28.33-30.26-49.52-1.18-10.46-3.22-20.58-8.35-30-4.19-7.74-4.81-16.32-2.59-24.75 3-11.38 5.83-22.91 10.24-33.77 2.86-7 8.17-13.17 12.85-19.36 3.28-4.35 8-5.74 13.38-3.85 4.85 1.68 8.79.23 11.89-3.78 1.53-2 3.05-4 4.67-5.84 4.14-4.85 9.25-6.88 15.58-5.17q3.86 1 7.71 2c5 1.33 10.17 1.45 14.28-2 6.58-5.52 14-7.36 22.28-6.61a14.5 14.5 0 0 0 2.38-.16c1-9.18-8.11-17.34-17-14.72-9.87 2.9-19.49 1.68-29.09-.35-12.58-2.67-21.8-16.18-20.23-28.89a11.15 11.15 0 0 1 7.5-9.74c14.15-5.27 28.24-10.76 42.59-15.44 3.94-1.29 9-.92 13 .22 10.07 2.79 19.87 6.55 29.83 9.76a29 29 0 0 1 17.78 15c7.09 14.06 13.87 28 17.72 43.66 3.46 14 10.49 27.17 16.22 40.59 3.52 8.25 7.45 16.32 11.42 24.36a32.57 32.57 0 0 0 5 7.34c5.22 5.81 7 12.47 4.93 19.87-3.73 13.42-7.16 27-11.89 40.06-4.83 13.38-14.17 24.23-24.89 33.16s-13.46 19.17-11.09 31.9c.67 3.57 1.39 7.12 2.08 10.68l-1.58.44-9.34-15.99-6.73.69 4.63-2.8-.29-.94-24.41 6.05-.32-.84 14.69-7.65-.29-1c-4.93.88-9.82 2.09-14.79 2.54a84.55 84.55 0 0 1 -16.9.29c-15.22-1.72-23.16-17.66-16-33.71 1.15 5.89 2 10.76 3.08 15.57 1.64 7.18 6 11.52 13.12 11.42 8.76-.11 17.81 0 26.2-2.16 27.3-6.88 45.94-24.08 56.64-50.79l-4.78 1c.42-.64.63-1 .91-1.37s.54-.4.75-.66c10-12.14 11.79-27.33 14.2-41.82 1.79-10.73-5.72-19.42-12.74-27.12-1.39-1.52-4.45-1.52-7.39-2.42v13.06l-.68.12-1.79-6.19c-.73 3.13-1.2 5.1-1.66 7.06h-.71c-.34-4.26-.69-8.53-1.11-13.71-6.08 1.35-11.77 2.3-17.25 3.92s-10.93 4-16.37 6c-.78.29-1.93.41-2.25 1-2.93 5.28-8 4.06-12.71 4.69-5.7.76-8.26 5-7.77 11.91a34.76 34.76 0 0 0 .45 4c1.64 8.81 3.32 17.61 5.15 27.23l14.72-6.83c-.87 2.88-1.47 4.88-2.31 7.64l16.48-3.9.39.94-6.05 4.78c4.26 7.22 11.69 7.32 18.33 9l-.31 1.3-16.02-2.14c3.35 4.7 6.26 8.79 9.16 12.88l-1 .84-17.29-21.31-1.74.46v25.64l-2.1.06c-.11-1.77-.31-3.54-.32-5.3 0-5.32-.05-10.64.06-16 .08-3.85-1.6-6-5.49-6.19s-6.88 1.09-7.16 5.66c-.1 1.5-.35 3-.53 4.46-1.93 16.13-18.31 24.67-32.24 16.31-4.85-2.92-8.53-3.11-13.75-1.13-3.83 1.46-8.69.29-13.09.14-2.59-.09-5.18-.68-7.77-.64a27.55 27.55 0 0 0 -8.18 1c-2.79.92-5.27 2.76-7.18 3.81-3.28-4.54-6.85-9.92-10.87-14.94-6.82-8.51-10.73-18.1-12.94-28.76-1.33-6.4-4.26-12.5-6.86-18.56-.5-1.17-2.82-1.56-4.62-2.47 9-5.15-.34-12.23 2.18-18.88a48.52 48.52 0 0 1 2.2 5c2.14 6.81 4 13.71 6.31 20.47.76 2.24 2.48 4.15 3.69 6.26a6.26 6.26 0 0 1 1.22 2.89c-.34 13.41 5.61 25.9 16.87 35.3a65.37 65.37 0 0 1 7.49-2c4.41-.68 5.81-3 4.12-7-5-11.74-10.11-23.44-15.29-35.41l-8.38 2.06-.21-.55c1.71-.85 3.91-1.29 5-2.64 2-2.4 4-5.18 4.64-8.11a42.87 42.87 0 0 0 .51-11.83c-.22-3.79-1.11-7.54-1.87-12.41l4-3.21v30.27c10.67-1.21 19.74-8.88 32.26-5.11l-8 5.16-.63-1 5-3-.2-1.38c-3.76.53-7.63.67-11.24 1.7a102.13 102.13 0 0 0 -12 4.76c-5.08 2.16-5.45 3.81-1.83 7.9a22 22 0 0 0 2.65 2.23l-1.53.56c.51 3.17.42 6.6 1.65 9.46 4.4 10.21 9.1 20.3 14 30.3 3.59 7.36 14.62 10.1 20.85 4.85 2.13-1.79 3.9-5.9 3.44-8.54-2.48-14.19-5.24-28.36-8.85-42.3-3.08-11.87-4.16-23.44-.75-35.36a54.84 54.84 0 0 0 1.64-11.8c.22-3.64 1.78-5.84 5.83-7-2.74 13.44-5.4 26.55-8.23 40.44 9.92-2.71 19.44-7.09 30.18-.88l-17.51 3.93.14 1.24 22.09-1.91.12 1.17-30.92 3.52 5.77 4.41-4.85.78c2.82 11.38 5.59 22.45 8.28 33.54 1 4 1.62 8.14 2.62 12.16 1.94 7.83 5.34 10.6 13.23 11s15.1-2.93 16.3-9.51c1.67-9.22 1.63-18.75 2.14-28.16a5.38 5.38 0 0 0 -1.6-3.56c-4.68-4.7-4.46-10.32-3.69-16.29 3-23.49 4.62-47-1.36-70.32-2.27-8.91-9.64-13.27-18-9.36-3.56 1.66-6.73 4.24-9.86 6.68-4 3.11-8.2 4.22-13 2.45-.47-.17-.94-.34-1.42-.49-14.74-4.65-16.72-4.1-25 8.74-2.14 3.34-4.62 4.32-8.22 3.85-18.59-2.42-26 7.89-32.49 24.93-1.58 4.12-1.75 8.77-2.56 13.18-.89 4.9-1.42 9.9-2.72 14.69-3.36 12.46-.34 23.27 7.68 33 2.49 3 3.51 5.59 2.28 10.4-1.46 5.67.74 12.41 1.87 18.59 5.38 29.36 24.53 40.39 57.49 39.54 2.2-.06 4.35-1.49 6.57-2.12a13.52 13.52 0 0 1 5.29-.48c-5.18 6.72-12.66 8.86-20 11.87h17.52l.27 1.3a35.31 35.31 0 0 1 -5.06 1.34c-7.1.83-14.2 1.71-21.33 2.17-3.4.22-4.36 1.56-3.9 4.67.49 3.28 1.37 6.64 1.1 9.88-.35 4.19-1.66 8.3-2.56 12.45zm78-152.62c13-4.22 25.61-8.41 38.27-12.33 8.59-2.66 16.86-8.5 26.68-2.16l-38.17-98.9-1.5.41c-.39 1.58-.77 3.16-1.15 4.74a6.94 6.94 0 0 1 -1-3.88c0-4.53-2.18-7.73-6.28-9.25-9.62-3.56-19.35-6.85-29.2-10.32-1.37 3-2.58 5.65-4 8.65-5.18-12.66-7.63-13.74-16.47-7.46l5.88 5.44-10.62 7.56c1.17-3.75 1.87-6 2.61-8.41-10.31-4.52-18.12 2.38-26.8 5.07l21.57 3.9-.19 1.35c-2.88-.21-5.77-.33-8.65-.65-5.12-.56-10.21-1.41-15.34-1.83-7.23-.6-9.35 2-8 9.18 3.25 16.78 25.26 26 40.54 16.92 4.77-2.84 9.36-6 14-9l.67.74-7.32 8.48c5.88 4.14 11.3 8.25 17 11.89 6.06 3.86 12.58 3.75 19.08.92 2.82-1.22 5.61-2.52 8.41-3.78-8.2 7-17.86 8.4-28.66 6.8 3.9 14.12 1.93 31 22 34.25l-13.52-1.65zm-70.56 70.41c1.72-2 3.85-3.39 3.83-4.74 0-1.66-1.82-3.3-2.86-4.95a52.53 52.53 0 0 0 -4.69 5.9c-.23.28 1.83 1.95 3.72 3.79z"/><path d="m866.29 774.26c-3-7.86 4.45-9.76 18.24-8z"/><path d="m897.86 768.67 18-2.64c-3.06 5.28-9.81 6.52-18 2.64z"/><path d="m909.28 774.48-9.86 1.79v1.08l10.41 1.78c-5.61 3.35-9.45 2.28-14.34-4.39l13.58-1.81z"/><path d="m928.75 731.6v-12.74h.7v12.73z"/><path d="m933.06 718.15 1.53 16.28-1.08.12-2-16.22z"/><g fill="#fff"><path d="m925.51 710v-43.3l13.49 1.62c-20-3.22-18.07-20.13-22-34.25 10.8 1.6 20.46.16 28.66-6.8-2.8 1.26-5.59 2.56-8.41 3.78-6.5 2.83-13 2.94-19.08-.92-5.72-3.64-11.14-7.75-17-11.89l7.32-8.48-.67-.74c-4.68 3-9.27 6.14-14 9-15.28 9.09-37.29-.14-40.54-16.92-1.39-7.21.73-9.78 8-9.18 5.13.42 10.22 1.27 15.34 1.83 2.88.32 5.77.44 8.65.65l.19-1.35-21.57-3.9c8.68-2.69 16.49-9.59 26.8-5.07-.74 2.39-1.44 4.66-2.61 8.41l10.55-7.56-5.88-5.44c8.84-6.28 11.29-5.2 16.47 7.46 1.38-3 2.59-5.66 4-8.65 9.85 3.47 19.58 6.76 29.2 10.32 4.1 1.52 6.3 4.72 6.28 9.25a6.94 6.94 0 0 0 1 3.88c.38-1.58.76-3.16 1.15-4.74l1.5-.41 38.17 98.9c-9.82-6.34-18.09-.5-26.68 2.16-12.72 3.9-25.29 8.09-38.33 12.34z"/><path d="m855 780.38c-1.84-1.84-3.9-3.51-3.72-3.79a52.53 52.53 0 0 1 4.69-5.9c1 1.65 2.84 3.29 2.86 4.95-.03 1.36-2.16 2.73-3.83 4.74z"/></g></g></svg>