<svg viewBox="0 0 218 297" xmlns="http://www.w3.org/2000/svg"><g transform="translate(-1096 -451)"><path d="m1096 607v-156h218v297h-162c2.55-7 1.63-14.07.5-21.13-.54-3.38.49-4.74 4.11-5 7.14-.43 14.26-1.35 21.37-2.16a43.25 43.25 0 0 0 4.83-1.12l-.21-1.51h-17.68c7.35-3.09 14.85-5.13 20.4-11.69a13.21 13.21 0 0 0 -2.26-.75 3.27 3.27 0 0 0 -1.93.2c-8.27 5.11-17.1 3.26-25.79 2-14.82-2.24-27.43-8.08-34.61-22.32-5.29-10.5-6.39-22-7.83-33.36-.13-1 .82-2.16.86-3.25.07-1.91.32-4.06-.43-5.69-1.08-2.38-3-4.39-4.53-6.56-5.33-7.51-7.91-15.55-6-24.94 2.11-10.26 3.35-20.71 5.48-31 3.66-17.64 15.46-26.9 33.32-26.67a6.52 6.52 0 0 1 1 0c3 .52 4.83-.74 6.54-3.26 9.32-13.81 10.27-14.07 26.17-9.13.31.1.64.19 1 .3 4.67 1.68 8.77.62 12.62-2.36 3-2.33 6-4.85 9.38-6.55 8.74-4.41 16.43-.11 18.82 9.3 6 23.45 4.34 46.94 1.29 70.5-.75 5.78-1 11.28 3.56 15.89a6.14 6.14 0 0 1 1.8 4c-.41 9.11-.37 18.33-1.91 27.27-1.2 7-8.23 10.61-16.32 10.29s-11.62-3.19-13.58-11.26q-5.34-22.08-10.55-44.18a4.09 4.09 0 0 1 .18-1.4l4.21-1-5.63-4.23 30.84-3.53-.14-1.11-22 1.76-.09-1.16 16.55-3.74c-2-1.75-4-3.06-5.93-2.93-7.64.5-15.26 1.46-23.07 2.27 2.52-12.44 5.19-25.64 7.93-39.19-4.25 1.25-5.66 3.59-5.84 7.22a50.06 50.06 0 0 1 -1.55 11.34c-3.57 12.29-2.35 24.2.86 36.42 3.62 13.79 6.11 27.89 8.9 41.89a8.17 8.17 0 0 1 -4.09 9c-7 4.32-17 1.74-20.54-5.62-4.74-9.73-9.37-19.52-13.63-29.46-1.36-3.16-1.38-6.9-2-10.38.53-1-.2-1.66-.86-2.4-3.87-4.33-3.53-6 1.82-8.24a102.2 102.2 0 0 1 12-4.76c3.54-1 7.34-1 11-1.52l.22 1.45-4.82 2.84.62 1 7.95-5c-12.36-4-21.44 3.74-32.28 5v-30.57l-5.32 4.49 1.74.24c.41 4.26 1 8.52 1.19 12.79.15 3-.46 6-.21 8.92.42 4.8-1.37 8-5.72 10-1.34.61-2.61 1.38-3.91 2.08l.23.48 8.25-2c5.18 12 10.31 23.55 15.16 35.22 1.93 4.66.93 6-4.17 7.25-2.34.58-4.66 1.28-7.52 2.07-8-6.93-14.17-15.85-16.35-26.71-1.19-5.94-1.79-11.62-4.85-17.21-3-5.42-3.8-12-5.7-18-.86-2.75-2-5.4-3.05-8.1-2.91 6.45 6.66 13.86-2.38 18.84 1.69.92 4.15 1.4 4.71 2.71 2.62 6.07 5.51 12.2 6.82 18.62a66.6 66.6 0 0 0 14.33 30.33c3.67 4.36 6.6 9.35 9.5 13.52 1.7-1 4.11-3.1 6.89-4s6.09-1 9.18-1.1c2.26-.06 4.53.63 6.8.66 4.88.07 10.16 1.07 14.53-.45 4.68-1.64 7.81-1.38 11.93 1.19 14.24 8.86 31.09.46 33-16.18.18-1.48.43-3 .53-4.46.29-4.33 3.09-5.61 6.84-5.53 4.1.08 5.92 2.29 5.82 6.41-.13 6-.1 12-.05 18a15.36 15.36 0 0 0 .75 3.11l1.9-.18v-25.67l1.66-.37 17.21 21.3 1-.8-9.25-13 16.13 2.17.42-1.25c-6.6-1.94-14.34-1.79-18.4-9l6-5.07-.36-.71-16.39 3.79c.74-2.83 1.26-4.83 2-7.48l-14.51 6.75c-1.79-9.38-3.49-18.17-5.12-27a35.84 35.84 0 0 1 -.55-5c-.36-7.07 2.87-11 9.47-11.53 3.86-.31 8.37 1.23 10.39-4 .25-.66 1.72-.88 2.65-1.23 5.76-2.18 11.44-4.64 17.32-6.39 5.32-1.59 10.87-2.4 16.75-3.64.36 5.21.66 9.44 1 13.68l.62.11c.56-2 1.11-4 2-7.09l1.58 6.14h.74v-11.79c4.47-2.08 7.13-.44 9.28 2.86 2.54 3.9 5.48 7.57 7.72 11.63a26.64 26.64 0 0 1 2.49 20.78c-2 7.2-3.63 14.59-6.35 21.52-2 5.11-5.53 9.64-8.36 14.43a2.19 2.19 0 0 0 -.13.78l4.34-.73c-13.53 34.9-46 55.62-82.55 53-7.21-.5-11.75-4.19-13.41-11.26-1.16-4.94-2-10-3.05-15.53-8 14.56.91 32.26 16.57 33.36 7.53.54 15.21-.79 22.81-1.42 2.77-.23 5.51-.88 8.26-1.34l.22 1-14.59 7.61.35.84 24.37-6.05.23.93-4.47 2.9 6.69-.87 9.35 16.21 1.62-.53c-.67-3.44-1.33-6.87-2-10.3-2.54-13 .36-23.43 11.14-32.42s20-19.85 24.88-33.28c4.66-13 8-26.4 11.77-39.68 2.15-7.62.43-14.42-5-20.37a32.46 32.46 0 0 1 -5-7.38c-4.12-8.36-8.24-16.74-11.89-25.31-5.61-13.15-12.48-26.07-15.78-39.81-3.77-15.71-10.69-29.66-17.78-43.75-3.77-7.51-9.83-12.4-17.87-15-10-3.2-19.8-6.95-29.88-9.79-4-1.11-8.8-1.54-12.59-.29-14.53 4.77-28.81 10.3-43.14 15.67-4.65 1.74-7 5.38-7.44 10.33-1.11 13.27 8.34 26 21.42 28.56 9.35 1.81 18.63 2.86 28.17.11 8.94-2.59 18.19 5.85 16.74 15.19-9.88-1.73-18.28 1.59-26.49 7.23-3 2.06-8.25 1.11-12.46 1-2.42-.06-4.83-1.18-7.23-1.85-6.51-1.81-11.8.14-16.07 5.2-1.5 1.78-2.94 3.62-4.34 5.48-3.17 4.2-7.18 5.81-12.28 4s-9.38-.24-13.11 3.56a66.26 66.26 0 0 0 -16.42 27.79c-2.86 9.37-5.36 18.83-8 28.25zm69.71 53.46 18.32-8c-13.29-1.94-21.36.08-18.32 8zm31.65-5.12c7.19 3.55 15 2.27 18.05-3.12-5.67.82-11.2 1.61-16.72 2.45a4.88 4.88 0 0 0 -1.33.67zm12.11 10-10.6-1.9.14-1.07 10-1.8-.29-1.49-13.59 1.77c4.43 6.61 8.27 7.77 14.34 4.54zm18.89-47.65.66-.1v-12.59h-.66zm4.71 2.93 1.11-.13q-.79-8.19-1.57-16.4l-1.55.18z" fill="#fff"/><path d="m1096 607c2.64-9.42 5.14-18.88 8-28.25a66.26 66.26 0 0 1 16.36-27.69c3.73-3.8 7.91-5.35 13.11-3.56s9.11.16 12.28-4c1.4-1.86 2.84-3.7 4.34-5.48 4.27-5.06 9.56-7 16.07-5.2 2.4.67 4.81 1.79 7.23 1.85 4.21.11 9.47 1.06 12.46-1 8.21-5.64 16.61-9 26.49-7.23 1.45-9.34-7.8-17.78-16.74-15.19-9.54 2.75-18.82 1.7-28.17-.11-13.08-2.54-22.53-15.29-21.42-28.56.41-5 2.79-8.59 7.44-10.33 14.33-5.37 28.61-10.9 43.14-15.67 3.79-1.25 8.64-.82 12.59.29 10.08 2.84 19.9 6.59 29.88 9.79 8 2.59 14.1 7.48 17.87 15 7.09 14.09 14 28 17.78 43.75 3.3 13.74 10.17 26.66 15.78 39.81 3.65 8.57 7.77 17 11.89 25.31a32.46 32.46 0 0 0 5 7.38c5.39 5.95 7.11 12.75 5 20.37-3.75 13.28-7.11 26.71-11.77 39.68-4.83 13.43-14.16 24.33-24.88 33.28s-13.68 19.46-11.14 32.42c.68 3.43 1.34 6.86 2 10.3l-1.62.53-9.35-16.21-6.69.87 4.47-2.9-.23-.93-24.37 6.05-.35-.84 14.59-7.61-.22-1c-2.75.46-5.49 1.11-8.26 1.34-7.6.63-15.28 2-22.81 1.42-15.66-1.1-24.54-18.8-16.57-33.36 1.08 5.57 1.89 10.59 3.05 15.53 1.66 7.07 6.2 10.76 13.41 11.26 36.56 2.57 69-18.15 82.55-53l-4.34.73a2.19 2.19 0 0 1 .13-.78c2.83-4.79 6.35-9.32 8.36-14.43 2.72-6.93 4.31-14.32 6.35-21.52a26.64 26.64 0 0 0 -2.49-20.78c-2.24-4.06-5.18-7.73-7.72-11.63-2.15-3.3-4.81-4.94-9.28-2.86v11.75h-.74l-1.58-6.14c-.84 3.06-1.39 5.08-2 7.09l-.62-.11c-.29-4.24-.59-8.47-1-13.68-5.88 1.24-11.43 2-16.75 3.64-5.88 1.75-11.56 4.21-17.32 6.39-.93.35-2.4.57-2.65 1.23-2 5.28-6.53 3.74-10.39 4-6.6.53-9.83 4.46-9.47 11.53a35.84 35.84 0 0 0 .55 5c1.63 8.8 3.33 17.59 5.12 27l14.51-6.75c-.7 2.65-1.22 4.65-2 7.48l16.39-3.79.36.71-6 5.07c4.06 7.25 11.8 7.1 18.4 9l-.42 1.25-16.13-2.17 9.25 13-1 .8-17.21-21.3-1.66.37v25.64l-1.9.18a15.36 15.36 0 0 1 -.67-3.16c0-6-.08-12 .05-18 .1-4.12-1.72-6.33-5.82-6.41-3.75-.08-6.55 1.2-6.84 5.53-.1 1.49-.35 3-.53 4.46-2 16.64-18.81 25-33 16.18-4.12-2.57-7.25-2.83-11.93-1.19-4.37 1.52-9.65.52-14.53.45-2.27 0-4.54-.72-6.8-.66-3.09.09-6.32.14-9.18 1.1s-5.19 3-6.89 4c-2.9-4.17-5.83-9.16-9.5-13.52a66.6 66.6 0 0 1 -14.3-30.36c-1.31-6.42-4.2-12.55-6.82-18.62-.56-1.31-3-1.79-4.71-2.71 9-5-.53-12.39 2.38-18.84 1 2.7 2.19 5.35 3.05 8.1 1.9 6 2.73 12.61 5.7 18 3.06 5.59 3.66 11.27 4.85 17.21 2.18 10.86 8.36 19.78 16.35 26.71 2.86-.79 5.18-1.49 7.52-2.07 5.1-1.26 6.1-2.59 4.17-7.25-4.85-11.67-10-23.23-15.16-35.22l-8.25 2-.23-.48c1.3-.7 2.57-1.47 3.91-2.08 4.35-2 6.14-5.2 5.72-10-.25-2.94.36-6 .21-8.92-.22-4.27-.78-8.53-1.19-12.79l-1.74-.24 5.32-4.49v30.51c10.84-1.25 19.92-9 32.28-5l-7.95 5-.62-1 4.82-2.84-.22-1.45c-3.68.47-7.48.53-11 1.52a102.2 102.2 0 0 0 -12 4.76c-5.35 2.27-5.69 3.91-1.82 8.24.66.74 1.39 1.42.86 2.4.63 3.48.65 7.22 2 10.38 4.26 9.94 8.89 19.73 13.63 29.46 3.59 7.36 13.5 9.94 20.54 5.62a8.17 8.17 0 0 0 4.09-9c-2.79-14-5.28-28.1-8.9-41.89-3.21-12.22-4.43-24.13-.86-36.42a50.06 50.06 0 0 0 1.55-11.34c.18-3.63 1.59-6 5.84-7.22-2.74 13.55-5.41 26.75-7.93 39.19 7.81-.81 15.43-1.77 23.07-2.27 1.94-.13 4 1.18 5.93 2.93l-16.55 3.74.09 1.16 22-1.76.14 1.11-30.84 3.53 5.63 4.23-4.21 1a4.09 4.09 0 0 0 -.18 1.4q5.25 22.1 10.55 44.18c2 8.07 5.51 10.94 13.58 11.26s15.12-3.3 16.32-10.29c1.54-8.94 1.5-18.16 1.91-27.27a6.14 6.14 0 0 0 -1.8-4c-4.54-4.61-4.31-10.11-3.56-15.89 3.05-23.56 4.68-47-1.29-70.5-2.39-9.41-10.08-13.71-18.82-9.3-3.37 1.7-6.36 4.22-9.38 6.55-3.85 3-8 4-12.62 2.36-.31-.11-.64-.2-1-.3-15.9-4.94-16.85-4.68-26.17 9.13-1.71 2.52-3.54 3.78-6.54 3.26a6.52 6.52 0 0 0 -1 0c-17.86-.23-29.66 9-33.32 26.67-2.13 10.26-3.37 20.71-5.48 31-1.92 9.39.66 17.43 6 24.94 1.55 2.17 3.45 4.18 4.53 6.56.75 1.63.5 3.78.43 5.69 0 1.09-1 2.22-.86 3.25 1.44 11.39 2.54 22.86 7.83 33.36 7.18 14.24 19.79 20.08 34.61 22.32 8.69 1.31 17.52 3.16 25.79-2a3.27 3.27 0 0 1 1.93-.2 13.21 13.21 0 0 1 2.26.75c-5.55 6.56-13 8.6-20.4 11.69h17.68l.21 1.51a43.25 43.25 0 0 1 -4.83 1.12c-7.11.81-14.23 1.73-21.37 2.16-3.62.22-4.65 1.58-4.11 5 1.13 7.06 2 14.14-.5 21.13h-5c-.68-9.46-1.34-18.91-2-28.37-.37-5-3-8.59-7.33-11.14-16.31-9.52-26.09-24-28.41-42.39a160.25 160.25 0 0 0 -13.31-45.99zm88.79-128.29v1.48c-3-.25-5.91-.42-8.85-.75-5.3-.59-10.57-1.48-15.87-1.85-6.39-.46-8.51 2.1-7.48 8.43 2.81 17.39 25.21 27.12 40.92 17.69 4.74-2.84 9.33-5.95 14-8.93l.69.84-7.47 8.33c5.11 3.66 9.76 6.87 14.29 10.24 7.07 5.24 14.55 6.1 22.55 2.43l7.88-3.61c-8.21 7.13-18 8.37-28.72 7 3.78 14.21 2 31.05 22 34.23l-13.51-1.68v43.45c15.19-5 29.9-9.69 44.51-14.69 6.68-2.29 13.18-4.64 20.56.36l-38.34-99.4-1.5.49-1.25 4.7c-.86-5.17-.74-10.6-6.47-12.79-9.89-3.78-19.92-7.19-30-10.81l-3.93 8.93c-4.8-12.75-8.19-14.2-16.44-7.53l6 5.27-10.74 7.58c1.26-3.82 2-6.08 2.78-8.43-10.48-4.31-18.27 2.32-28.32 4.89zm-30.4 187.87c1.73-2 3.86-3.38 3.85-4.74 0-1.67-1.83-3.32-2.86-5a51.93 51.93 0 0 0 -4.71 5.91c-.18.31 1.88 1.99 3.72 3.83z"/><path d="m1096 620a160.25 160.25 0 0 1 13.21 46.1c2.32 18.42 12.1 32.87 28.41 42.39 4.37 2.55 7 6.09 7.33 11.14.71 9.46 1.37 18.91 2 28.37h-51z" fill="#fff"/><path d="m1165.71 660.46c-3-7.92 5-9.94 18.32-8z"/><path d="m1197.36 655.34a4.88 4.88 0 0 1 1.33-.67c5.52-.84 11-1.63 16.72-2.45-3.1 5.39-10.86 6.67-18.05 3.12z"/><path d="m1209.47 665.39c-6.07 3.23-9.91 2.07-14.35-4.49l13.59-1.77.29 1.49-10 1.8-.14 1.07z"/><path d="m1228.36 617.74v-12.74h.66v12.69z"/><path d="m1233.07 620.67-2-16.35 1.55-.18q.78 8.21 1.57 16.4z"/><g fill="#fff"><path d="m1184.79 478.71-22.86-4.09c10-2.57 17.84-9.2 28.32-4.89-.78 2.35-1.52 4.61-2.78 8.43l10.74-7.58-6-5.27c8.25-6.67 11.64-5.22 16.44 7.53l3.93-8.93c10.13 3.62 20.16 7 30 10.81 5.73 2.19 5.61 7.62 6.47 12.79l1.25-4.7 1.5-.49 38.34 99.4c-7.38-5-13.88-2.65-20.56-.36-14.61 5-29.32 9.7-44.51 14.69v-43.45l13.51 1.68c-20-3.18-18.22-20-22-34.23 10.72 1.33 20.51.09 28.72-7l-7.88 3.61c-8 3.67-15.48 2.81-22.55-2.43-4.53-3.37-9.18-6.58-14.29-10.24l7.47-8.33-.69-.84c-4.65 3-9.24 6.09-14 8.93-15.71 9.43-38.11-.3-40.92-17.69-1-6.33 1.09-8.89 7.48-8.43 5.3.37 10.57 1.26 15.87 1.85 2.94.33 5.9.5 8.85.75z"/><path d="m1154.39 666.58c-1.84-1.84-3.9-3.52-3.72-3.8a51.93 51.93 0 0 1 4.71-5.91c1 1.65 2.84 3.3 2.86 5 .01 1.33-2.12 2.7-3.85 4.71z"/></g></g></svg>